<?xml version='1.0'?>
<svg xmlns="http://www.w3.org/2000/svg" xmlns:xlink="http://www.w3.org/1999/xlink" width="600.000000" height="123.500000">
<defs>
  <filter id="ds" x="0" y="0">
    <feOffset in="SourceAlpha" dx="2" dy="2" />
    <feComponentTransfer><feFuncA type="linear" slope="0.2"/></feComponentTransfer>
    <feGaussianBlur result="blurOut" stdDeviation="1" />
    <feBlend in="SourceGraphic" in2="blurOut" mode="normal" />
  </filter>
  <pattern id="disordered-hatch" patternUnits="userSpaceOnUse" width="4" height="4">
    <path d="M-1,1 l2,-2 M0,4 l4,-4 M3,5 l2,-2" stroke="#000000" opacity="0.3" />
  </pattern>
</defs>
<line x1="27.375479" x2="27.375479" y1="31.500000" y2="59.500000" stroke="#BABDB6" stroke-width="2"/><a xlink:title="L17*"><circle cx="27.375479" cy="31.500000" r="4.000000" fill="#000000" /></a><line x1="101.628352" x2="101.628352" y1="31.500000" y2="59.500000" stroke="#BABDB6" stroke-width="2"/><a xlink:title="C119Lfs*6"><circle cx="101.628352" cy="31.500000" r="4.000000" fill="#000000" /></a><line x1="120.555556" x2="120.555556" y1="31.500000" y2="59.500000" stroke="#BABDB6" stroke-width="2"/><a xlink:title="R145*"><circle cx="120.555556" cy="31.500000" r="4.000000" fill="#000000" /></a><line x1="154.770115" x2="154.770115" y1="19.000000" y2="59.500000" stroke="#BABDB6" stroke-width="2"/><a xlink:title="P192Rfs*11"><circle cx="154.770115" cy="19.000000" r="4.000000" fill="#000000" /></a><line x1="160.593870" x2="160.593870" y1="31.500000" y2="59.500000" stroke="#BABDB6" stroke-width="2"/><a xlink:title="W200*"><circle cx="160.593870" cy="31.500000" r="4.000000" fill="#000000" /></a><line x1="229.750958" x2="229.750958" y1="11.781449" y2="59.500000" stroke="#BABDB6" stroke-width="2"/><a xlink:title="H295Ifs*124"><circle cx="229.750958" cy="11.781449" r="4.000000" fill="#000000" /></a><line x1="232.662835" x2="232.662835" y1="31.500000" y2="59.500000" stroke="#BABDB6" stroke-width="2"/><a xlink:title="V299Gfs*143"><circle cx="232.662835" cy="31.500000" r="6.406184" fill="#000000" /></a><line x1="325.114943" x2="325.114943" y1="31.500000" y2="59.500000" stroke="#BABDB6" stroke-width="2"/><a xlink:title="Q426*"><circle cx="325.114943" cy="31.500000" r="4.000000" fill="#000000" /></a><line x1="336.034483" x2="336.034483" y1="31.500000" y2="59.500000" stroke="#BABDB6" stroke-width="2"/><a xlink:title="P441Hfs*2"><circle cx="336.034483" cy="31.500000" r="4.000000" fill="#000000" /></a><line x1="494.731801" x2="494.731801" y1="31.500000" y2="59.500000" stroke="#BABDB6" stroke-width="2"/><a xlink:title="G659Vfs*41"><circle cx="494.731801" cy="31.500000" r="12.952292" fill="#000000" /></a><a xlink:title="RNF43_HUMAN, E3 ubiquitin-protein ligase RNF43 EC=2.3.2.27 (783aa)"><rect fill="#BABDB6" x="15.000000" y="59.500000" width="570.000000" height="14.000000"/></a><g transform="translate(76.877395,54.500000)"><a xlink:href="https://pfam.xfam.org/family/PF18212" xlink:title="ZNRF-3 Ectodomain"><rect fill="#2dcf00" x="0" y="0" width="75.708812" height="24.000000" filter="url(#ds)"/></a></g>
<g transform="translate(211.551724,54.500000)"><a xlink:href="https://pfam.xfam.org/family/PF13639" xlink:title="Ring finger domain"><rect fill="#ff5353" x="0" y="0" width="31.302682" height="24.000000" filter="url(#ds)"/></a></g>
<g class="axis">
<line x1="15.000000" x2="585.000000" y1="88.500000" y2="88.500000" stroke="#AAAAAA" /><line x1="15.000000" x2="15.000000" y1="88.500000" y2="93.500000" stroke="#AAAAAA" /><line x1="27.375479" x2="27.375479" y1="88.500000" y2="93.500000" stroke="#AAAAAA" /><text style="font-size:10px;font-family:Arial;fill:#000000;" text-anchor="middle" x="27.375479" y="103.500000">17</text><line x1="76.877395" x2="76.877395" y1="88.500000" y2="93.500000" stroke="#AAAAAA" /><text style="font-size:10px;font-family:Arial;fill:#000000;" text-anchor="middle" x="76.877395" y="103.500000">85</text><line x1="101.628352" x2="101.628352" y1="88.500000" y2="93.500000" stroke="#AAAAAA" /><text style="font-size:10px;font-family:Arial;fill:#000000;" text-anchor="middle" x="101.628352" y="103.500000">119</text><line x1="154.770115" x2="154.770115" y1="88.500000" y2="93.500000" stroke="#AAAAAA" /><text style="font-size:10px;font-family:Arial;fill:#000000;" text-anchor="middle" x="154.770115" y="103.500000">192</text><line x1="229.750958" x2="229.750958" y1="88.500000" y2="93.500000" stroke="#AAAAAA" /><text style="font-size:10px;font-family:Arial;fill:#000000;" text-anchor="middle" x="229.750958" y="103.500000">295</text><line x1="325.114943" x2="325.114943" y1="88.500000" y2="93.500000" stroke="#AAAAAA" /><text style="font-size:10px;font-family:Arial;fill:#000000;" text-anchor="middle" x="325.114943" y="103.500000">426</text><line x1="494.731801" x2="494.731801" y1="88.500000" y2="93.500000" stroke="#AAAAAA" /><text style="font-size:10px;font-family:Arial;fill:#000000;" text-anchor="middle" x="494.731801" y="103.500000">659</text><line x1="585.000000" x2="585.000000" y1="88.500000" y2="93.500000" stroke="#AAAAAA" /><text style="font-size:10px;font-family:Arial;fill:#000000;" text-anchor="middle" x="585.000000" y="103.500000">783</text></g>
</svg>
