<?xml version='1.0'?>
<svg xmlns="http://www.w3.org/2000/svg" xmlns:xlink="http://www.w3.org/1999/xlink" width="700.000000" height="176.258089">
<defs>
  <filter id="ds" x="0" y="0">
    <feOffset in="SourceAlpha" dx="2" dy="2" />
    <feComponentTransfer><feFuncA type="linear" slope="0.2"/></feComponentTransfer>
    <feGaussianBlur result="blurOut" stdDeviation="1" />
    <feBlend in="SourceGraphic" in2="blurOut" mode="normal" />
  </filter>
  <pattern id="disordered-hatch" patternUnits="userSpaceOnUse" width="4" height="4">
    <path d="M-1,1 l2,-2 M0,4 l4,-4 M3,5 l2,-2" stroke="#000000" opacity="0.3" />
  </pattern>
</defs>
<line x1="29.546616" x2="29.546616" y1="84.258089" y2="112.258089" stroke="#BABDB6" stroke-width="2"/><a xlink:title="L17*"><circle cx="29.546616" cy="84.258089" r="4.000000" fill="#000000" /></a><line x1="115.114943" x2="115.114943" y1="59.258089" y2="112.258089" stroke="#BABDB6" stroke-width="2"/><a xlink:title="R117fs"><circle cx="115.114943" cy="59.258089" r="10.709682" fill="#000000" /></a><line x1="115.970626" x2="115.970626" y1="71.758089" y2="112.258089" stroke="#BABDB6" stroke-width="2"/><a xlink:title="P118fs"><circle cx="115.970626" cy="71.758089" r="4.000000" fill="#000000" /></a><line x1="116.826309" x2="116.826309" y1="84.258089" y2="112.258089" stroke="#BABDB6" stroke-width="2"/><a xlink:title="C119fs"><circle cx="116.826309" cy="84.258089" r="4.000000" fill="#000000" /></a><line x1="139.074074" x2="139.074074" y1="84.258089" y2="112.258089" stroke="#BABDB6" stroke-width="2"/><a xlink:title="R145*"><circle cx="139.074074" cy="84.258089" r="4.000000" fill="#000000" /></a><line x1="179.291188" x2="179.291188" y1="84.258089" y2="112.258089" stroke="#BABDB6" stroke-width="2"/><a xlink:title="P192fs"><circle cx="179.291188" cy="84.258089" r="4.000000" fill="#000000" /></a><line x1="186.136654" x2="186.136654" y1="84.258089" y2="112.258089" stroke="#BABDB6" stroke-width="2"/><a xlink:title="W200*"><circle cx="186.136654" cy="84.258089" r="4.000000" fill="#000000" /></a><line x1="267.426564" x2="267.426564" y1="63.356777" y2="112.258089" stroke="#BABDB6" stroke-width="2"/><a xlink:title="H295fs"><circle cx="267.426564" cy="63.356777" r="4.000000" fill="#000000" /></a><line x1="270.849298" x2="270.849298" y1="84.258089" y2="112.258089" stroke="#BABDB6" stroke-width="2"/><a xlink:title="V299fs"><circle cx="270.849298" cy="84.258089" r="6.800437" fill="#000000" /></a><line x1="379.521073" x2="379.521073" y1="84.258089" y2="112.258089" stroke="#BABDB6" stroke-width="2"/><a xlink:title="Q426*"><circle cx="379.521073" cy="84.258089" r="4.000000" fill="#000000" /></a><line x1="392.356322" x2="392.356322" y1="84.258089" y2="112.258089" stroke="#BABDB6" stroke-width="2"/><a xlink:title="P441fs"><circle cx="392.356322" cy="84.258089" r="4.000000" fill="#000000" /></a><line x1="578.895275" x2="578.895275" y1="84.258089" y2="112.258089" stroke="#BABDB6" stroke-width="2"/><a xlink:title="G659fs"><circle cx="578.895275" cy="84.258089" r="14.824818" fill="#000000" /></a><a xlink:title="RNF43_HUMAN, E3 ubiquitin-protein ligase RNF43 EC=2.3.2.27 (783aa)"><rect fill="#BABDB6" x="15.000000" y="112.258089" width="670.000000" height="14.000000"/></a><g transform="translate(87.733078,107.258089)"><a xlink:href="https://pfam.xfam.org/family/PF18212" xlink:title="ZNRF-3 Ectodomain"><rect fill="#2dcf00" x="0" y="0" width="88.991060" height="24.000000" filter="url(#ds)"/></a></g>
<g transform="translate(246.034483,107.258089)"><a xlink:href="https://pfam.xfam.org/family/PF13639" xlink:title="Ring finger domain"><rect fill="#ff5353" x="0" y="0" width="36.794381" height="24.000000" filter="url(#ds)"/></a></g>
<g class="axis">
<line x1="15.000000" x2="685.000000" y1="141.258089" y2="141.258089" stroke="#AAAAAA" /><line x1="15.000000" x2="15.000000" y1="141.258089" y2="146.258089" stroke="#AAAAAA" /><line x1="29.546616" x2="29.546616" y1="141.258089" y2="146.258089" stroke="#AAAAAA" /><text style="font-size:10px;font-family:Arial;fill:#000000;" text-anchor="middle" x="29.546616" y="156.258089">17</text><line x1="87.733078" x2="87.733078" y1="141.258089" y2="146.258089" stroke="#AAAAAA" /><text style="font-size:10px;font-family:Arial;fill:#000000;" text-anchor="middle" x="87.733078" y="156.258089">85</text><line x1="115.114943" x2="115.114943" y1="141.258089" y2="146.258089" stroke="#AAAAAA" /><text style="font-size:10px;font-family:Arial;fill:#000000;" text-anchor="middle" x="115.114943" y="156.258089">117</text><line x1="139.074074" x2="139.074074" y1="141.258089" y2="146.258089" stroke="#AAAAAA" /><text style="font-size:10px;font-family:Arial;fill:#000000;" text-anchor="middle" x="139.074074" y="156.258089">145</text><line x1="179.291188" x2="179.291188" y1="141.258089" y2="146.258089" stroke="#AAAAAA" /><text style="font-size:10px;font-family:Arial;fill:#000000;" text-anchor="middle" x="179.291188" y="156.258089">192</text><line x1="246.034483" x2="246.034483" y1="141.258089" y2="146.258089" stroke="#AAAAAA" /><text style="font-size:10px;font-family:Arial;fill:#000000;" text-anchor="middle" x="246.034483" y="156.258089">270</text><line x1="267.426564" x2="267.426564" y1="141.258089" y2="146.258089" stroke="#AAAAAA" /><text style="font-size:10px;font-family:Arial;fill:#000000;" text-anchor="middle" x="267.426564" y="156.258089">295</text><line x1="379.521073" x2="379.521073" y1="141.258089" y2="146.258089" stroke="#AAAAAA" /><text style="font-size:10px;font-family:Arial;fill:#000000;" text-anchor="middle" x="379.521073" y="156.258089">426</text><line x1="578.895275" x2="578.895275" y1="141.258089" y2="146.258089" stroke="#AAAAAA" /><text style="font-size:10px;font-family:Arial;fill:#000000;" text-anchor="middle" x="578.895275" y="156.258089">659</text><line x1="685.000000" x2="685.000000" y1="141.258089" y2="146.258089" stroke="#AAAAAA" /><text style="font-size:10px;font-family:Arial;fill:#000000;" text-anchor="middle" x="685.000000" y="156.258089">783</text></g>
</svg>
