<?xml version='1.0'?>
<svg xmlns="http://www.w3.org/2000/svg" xmlns:xlink="http://www.w3.org/1999/xlink" width="700.000000" height="111.000000">
<defs>
  <filter id="ds" x="0" y="0">
    <feOffset in="SourceAlpha" dx="2" dy="2" />
    <feComponentTransfer><feFuncA type="linear" slope="0.2"/></feComponentTransfer>
    <feGaussianBlur result="blurOut" stdDeviation="1" />
    <feBlend in="SourceGraphic" in2="blurOut" mode="normal" />
  </filter>
  <pattern id="disordered-hatch" patternUnits="userSpaceOnUse" width="4" height="4">
    <path d="M-1,1 l2,-2 M0,4 l4,-4 M3,5 l2,-2" stroke="#000000" opacity="0.3" />
  </pattern>
</defs>
<line x1="29.546616" x2="29.546616" y1="19.000000" y2="47.000000" stroke="#BABDB6" stroke-width="2"/><a xlink:title="L17*"><circle cx="29.546616" cy="19.000000" r="4.000000" fill="#000000" /></a><line x1="115.114943" x2="115.114943" y1="19.000000" y2="47.000000" stroke="#BABDB6" stroke-width="2"/><a xlink:title="R117fs"><circle cx="115.114943" cy="19.000000" r="4.000000" fill="#000000" /></a><line x1="139.074074" x2="139.074074" y1="19.000000" y2="47.000000" stroke="#BABDB6" stroke-width="2"/><a xlink:title="R145*"><circle cx="139.074074" cy="19.000000" r="4.000000" fill="#000000" /></a><line x1="578.895275" x2="578.895275" y1="19.000000" y2="47.000000" stroke="#BABDB6" stroke-width="2"/><a xlink:title="G659fs"><circle cx="578.895275" cy="19.000000" r="7.628983" fill="#000000" /></a><a xlink:title="RNF43_HUMAN, E3 ubiquitin-protein ligase RNF43 EC=2.3.2.27 (783aa)"><rect fill="#BABDB6" x="15.000000" y="47.000000" width="670.000000" height="14.000000"/></a><g transform="translate(87.733078,42.000000)"><a xlink:href="https://pfam.xfam.org/family/PF18212" xlink:title="ZNRF-3 Ectodomain"><rect fill="#2dcf00" x="0" y="0" width="88.991060" height="24.000000" filter="url(#ds)"/></a></g>
<g transform="translate(246.034483,42.000000)"><a xlink:href="https://pfam.xfam.org/family/PF13639" xlink:title="Ring finger domain"><rect fill="#ff5353" x="0" y="0" width="36.794381" height="24.000000" filter="url(#ds)"/></a></g>
<g class="axis">
<line x1="15.000000" x2="685.000000" y1="76.000000" y2="76.000000" stroke="#AAAAAA" /><line x1="15.000000" x2="15.000000" y1="76.000000" y2="81.000000" stroke="#AAAAAA" /><line x1="29.546616" x2="29.546616" y1="76.000000" y2="81.000000" stroke="#AAAAAA" /><text style="font-size:10px;font-family:Arial;fill:#000000;" text-anchor="middle" x="29.546616" y="91.000000">17</text><line x1="87.733078" x2="87.733078" y1="76.000000" y2="81.000000" stroke="#AAAAAA" /><text style="font-size:10px;font-family:Arial;fill:#000000;" text-anchor="middle" x="87.733078" y="91.000000">85</text><line x1="115.114943" x2="115.114943" y1="76.000000" y2="81.000000" stroke="#AAAAAA" /><text style="font-size:10px;font-family:Arial;fill:#000000;" text-anchor="middle" x="115.114943" y="91.000000">117</text><line x1="139.074074" x2="139.074074" y1="76.000000" y2="81.000000" stroke="#AAAAAA" /><text style="font-size:10px;font-family:Arial;fill:#000000;" text-anchor="middle" x="139.074074" y="91.000000">145</text><line x1="176.724138" x2="176.724138" y1="76.000000" y2="81.000000" stroke="#AAAAAA" /><text style="font-size:10px;font-family:Arial;fill:#000000;" text-anchor="middle" x="176.724138" y="91.000000">189</text><line x1="246.034483" x2="246.034483" y1="76.000000" y2="81.000000" stroke="#AAAAAA" /><text style="font-size:10px;font-family:Arial;fill:#000000;" text-anchor="middle" x="246.034483" y="91.000000">270</text><line x1="282.828863" x2="282.828863" y1="76.000000" y2="81.000000" stroke="#AAAAAA" /><text style="font-size:10px;font-family:Arial;fill:#000000;" text-anchor="middle" x="282.828863" y="91.000000">313</text><line x1="578.895275" x2="578.895275" y1="76.000000" y2="81.000000" stroke="#AAAAAA" /><text style="font-size:10px;font-family:Arial;fill:#000000;" text-anchor="middle" x="578.895275" y="91.000000">659</text><line x1="685.000000" x2="685.000000" y1="76.000000" y2="81.000000" stroke="#AAAAAA" /><text style="font-size:10px;font-family:Arial;fill:#000000;" text-anchor="middle" x="685.000000" y="91.000000">783</text></g>
</svg>
