<?xml version='1.0'?>
<svg xmlns="http://www.w3.org/2000/svg" xmlns:xlink="http://www.w3.org/1999/xlink" width="1150.000000" height="232.500000">
<defs>
  <filter id="ds" x="0" y="0">
    <feOffset in="SourceAlpha" dx="2" dy="2" />
    <feComponentTransfer><feFuncA type="linear" slope="0.2"/></feComponentTransfer>
    <feGaussianBlur result="blurOut" stdDeviation="1" />
    <feBlend in="SourceGraphic" in2="blurOut" mode="normal" />
  </filter>
  <pattern id="disordered-hatch" patternUnits="userSpaceOnUse" width="4" height="4">
    <path d="M-1,1 l2,-2 M0,4 l4,-4 M3,5 l2,-2" stroke="#000000" opacity="0.3" />
  </pattern>
</defs>
<line x1="39.316731" x2="39.316731" y1="56.500000" y2="84.500000" stroke="#BABDB6" stroke-width="2"/><a xlink:title="L17"><circle cx="39.316731" cy="56.500000" r="4.000000" fill="#000000" /></a><line x1="53.620690" x2="53.620690" y1="56.500000" y2="84.500000" stroke="#BABDB6" stroke-width="2"/><a xlink:title="R27Ds"><circle cx="53.620690" cy="56.500000" r="4.000000" fill="#000000" /></a><line x1="67.924649" x2="67.924649" y1="44.000000" y2="84.500000" stroke="#BABDB6" stroke-width="2"/><a xlink:title="E37"><circle cx="67.924649" cy="44.000000" r="4.000000" fill="#000000" /></a><line x1="69.355045" x2="69.355045" y1="56.500000" y2="84.500000" stroke="#BABDB6" stroke-width="2"/><a xlink:title="S38C"><circle cx="69.355045" cy="56.500000" r="4.000000" fill="#000000" /></a><line x1="76.507024" x2="76.507024" y1="44.000000" y2="84.500000" stroke="#BABDB6" stroke-width="2"/><a xlink:title="RNF43-HSF5"><circle cx="76.507024" cy="44.000000" r="4.000000" fill="#000000" /></a><line x1="76.507024" x2="76.507024" y1="56.500000" y2="84.500000" stroke="#BABDB6" stroke-width="2"/><a xlink:title="E43Ns"><circle cx="76.507024" cy="56.500000" r="4.000000" fill="#000000" /></a><line x1="86.519796" x2="86.519796" y1="31.500000" y2="84.500000" stroke="#BABDB6" stroke-width="2"/><a xlink:title="V50A"><circle cx="86.519796" cy="31.500000" r="4.000000" fill="#000000" /></a><line x1="87.950192" x2="87.950192" y1="44.000000" y2="84.500000" stroke="#BABDB6" stroke-width="2"/><a xlink:title="I51S"><circle cx="87.950192" cy="44.000000" r="4.000000" fill="#000000" /></a><line x1="92.241379" x2="92.241379" y1="56.500000" y2="84.500000" stroke="#BABDB6" stroke-width="2"/><a xlink:title="K54Es"><circle cx="92.241379" cy="56.500000" r="4.000000" fill="#000000" /></a><line x1="110.836526" x2="110.836526" y1="56.500000" y2="84.500000" stroke="#BABDB6" stroke-width="2"/><a xlink:title="G67C"><circle cx="110.836526" cy="56.500000" r="4.000000" fill="#000000" /></a><line x1="110.836526" x2="110.836526" y1="44.000000" y2="84.500000" stroke="#BABDB6" stroke-width="2"/><a xlink:title="G67D"><circle cx="110.836526" cy="44.000000" r="4.000000" fill="#000000" /></a><line x1="125.140485" x2="125.140485" y1="56.500000" y2="84.500000" stroke="#BABDB6" stroke-width="2"/><a xlink:title="P77Q"><circle cx="125.140485" cy="56.500000" r="4.000000" fill="#000000" /></a><line x1="132.292465" x2="132.292465" y1="36.781449" y2="84.500000" stroke="#BABDB6" stroke-width="2"/><a xlink:title="L82S"><circle cx="132.292465" cy="36.781449" r="4.000000" fill="#000000" /></a><line x1="135.153257" x2="135.153257" y1="56.500000" y2="84.500000" stroke="#BABDB6" stroke-width="2"/><a xlink:title="X84_splice"><circle cx="135.153257" cy="56.500000" r="6.406184" fill="#000000" /></a><line x1="178.065134" x2="178.065134" y1="22.720384" y2="84.500000" stroke="#BABDB6" stroke-width="2"/><a xlink:title="R114L"><circle cx="178.065134" cy="22.720384" r="4.000000" fill="#000000" /></a><line x1="182.356322" x2="182.356322" y1="44.000000" y2="84.500000" stroke="#BABDB6" stroke-width="2"/><a xlink:title="R117fs"><circle cx="182.356322" cy="44.000000" r="11.093205" fill="#228b22" /></a><line x1="185.217114" x2="185.217114" y1="56.500000" y2="84.500000" stroke="#BABDB6" stroke-width="2"/><a xlink:title="C119fs"><circle cx="185.217114" cy="56.500000" r="4.000000" fill="#228b22" /></a><line x1="193.799489" x2="193.799489" y1="44.000000" y2="84.500000" stroke="#BABDB6" stroke-width="2"/><a xlink:title="K125N"><circle cx="193.799489" cy="44.000000" r="4.000000" fill="#000000" /></a><line x1="193.799489" x2="193.799489" y1="31.500000" y2="84.500000" stroke="#BABDB6" stroke-width="2"/><a xlink:title="X125_splice"><circle cx="193.799489" cy="31.500000" r="4.000000" fill="#000000" /></a><line x1="195.229885" x2="195.229885" y1="56.500000" y2="84.500000" stroke="#BABDB6" stroke-width="2"/><a xlink:title="A126T"><circle cx="195.229885" cy="56.500000" r="4.000000" fill="#000000" /></a><line x1="203.812261" x2="203.812261" y1="56.500000" y2="84.500000" stroke="#BABDB6" stroke-width="2"/><a xlink:title="R132"><circle cx="203.812261" cy="56.500000" r="6.406184" fill="#000000" /></a><line x1="222.407407" x2="222.407407" y1="56.500000" y2="84.500000" stroke="#BABDB6" stroke-width="2"/><a xlink:title="R145"><circle cx="222.407407" cy="56.500000" r="8.824996" fill="#000000" /></a><line x1="230.989783" x2="230.989783" y1="31.500000" y2="84.500000" stroke="#BABDB6" stroke-width="2"/><a xlink:title="X151_splice"><circle cx="230.989783" cy="31.500000" r="4.000000" fill="#000000" /></a><line x1="233.850575" x2="233.850575" y1="31.500000" y2="84.500000" stroke="#BABDB6" stroke-width="2"/><a xlink:title="Q153"><circle cx="233.850575" cy="31.500000" r="4.000000" fill="#000000" /></a><line x1="235.280971" x2="235.280971" y1="44.000000" y2="84.500000" stroke="#BABDB6" stroke-width="2"/><a xlink:title="P154L"><circle cx="235.280971" cy="44.000000" r="4.000000" fill="#000000" /></a><line x1="239.572158" x2="239.572158" y1="31.500000" y2="84.500000" stroke="#BABDB6" stroke-width="2"/><a xlink:title="L157"><circle cx="239.572158" cy="31.500000" r="4.000000" fill="#000000" /></a><line x1="242.432950" x2="242.432950" y1="31.500000" y2="84.500000" stroke="#BABDB6" stroke-width="2"/><a xlink:title="W159"><circle cx="242.432950" cy="31.500000" r="4.000000" fill="#000000" /></a><line x1="243.863346" x2="243.863346" y1="44.000000" y2="84.500000" stroke="#BABDB6" stroke-width="2"/><a xlink:title="P160S"><circle cx="243.863346" cy="44.000000" r="4.000000" fill="#000000" /></a><line x1="246.724138" x2="246.724138" y1="56.500000" y2="84.500000" stroke="#BABDB6" stroke-width="2"/><a xlink:title="V162M"><circle cx="246.724138" cy="56.500000" r="4.000000" fill="#000000" /></a><line x1="256.736909" x2="256.736909" y1="56.500000" y2="84.500000" stroke="#BABDB6" stroke-width="2"/><a xlink:title="A169T"><circle cx="256.736909" cy="56.500000" r="4.000000" fill="#000000" /></a><line x1="289.636015" x2="289.636015" y1="44.000000" y2="84.500000" stroke="#BABDB6" stroke-width="2"/><a xlink:title="P192fs"><circle cx="289.636015" cy="44.000000" r="4.000000" fill="#228b22" /></a><line x1="293.927203" x2="293.927203" y1="56.500000" y2="84.500000" stroke="#BABDB6" stroke-width="2"/><a xlink:title="X195_splice"><circle cx="293.927203" cy="56.500000" r="4.000000" fill="#000000" /></a><line x1="301.079183" x2="301.079183" y1="56.500000" y2="84.500000" stroke="#BABDB6" stroke-width="2"/><a xlink:title="W200"><circle cx="301.079183" cy="56.500000" r="7.870147" fill="#000000" /></a><line x1="323.965517" x2="323.965517" y1="56.500000" y2="84.500000" stroke="#BABDB6" stroke-width="2"/><a xlink:title="S216L"><circle cx="323.965517" cy="56.500000" r="6.406184" fill="#000000" /></a><line x1="331.117497" x2="331.117497" y1="7.389559" y2="84.500000" stroke="#BABDB6" stroke-width="2"/><a xlink:title="R221W"><circle cx="331.117497" cy="7.389559" r="4.000000" fill="#000000" /></a><line x1="333.978289" x2="333.978289" y1="19.889559" y2="84.500000" stroke="#BABDB6" stroke-width="2"/><a xlink:title="R223C"><circle cx="333.978289" cy="19.889559" r="4.000000" fill="#000000" /></a><line x1="336.839080" x2="336.839080" y1="56.500000" y2="84.500000" stroke="#BABDB6" stroke-width="2"/><a xlink:title="R225H"><circle cx="336.839080" cy="56.500000" r="4.000000" fill="#000000" /></a><line x1="336.839080" x2="336.839080" y1="44.000000" y2="84.500000" stroke="#BABDB6" stroke-width="2"/><a xlink:title="R225fs"><circle cx="336.839080" cy="44.000000" r="7.870147" fill="#228b22" /></a><line x1="382.611750" x2="382.611750" y1="56.500000" y2="84.500000" stroke="#BABDB6" stroke-width="2"/><a xlink:title="G257fs"><circle cx="382.611750" cy="56.500000" r="4.000000" fill="#228b22" /></a><line x1="391.194125" x2="391.194125" y1="56.500000" y2="84.500000" stroke="#BABDB6" stroke-width="2"/><a xlink:title="G263R"><circle cx="391.194125" cy="56.500000" r="4.000000" fill="#000000" /></a><line x1="412.650064" x2="412.650064" y1="44.000000" y2="84.500000" stroke="#BABDB6" stroke-width="2"/><a xlink:title="E278del"><circle cx="412.650064" cy="44.000000" r="4.000000" fill="#000000" /></a><line x1="415.510856" x2="415.510856" y1="56.500000" y2="84.500000" stroke="#BABDB6" stroke-width="2"/><a xlink:title="S280"><circle cx="415.510856" cy="56.500000" r="4.000000" fill="#000000" /></a><line x1="424.093231" x2="424.093231" y1="56.500000" y2="84.500000" stroke="#BABDB6" stroke-width="2"/><a xlink:title="R286Q"><circle cx="424.093231" cy="56.500000" r="6.406184" fill="#000000" /></a><line x1="424.093231" x2="424.093231" y1="36.781449" y2="84.500000" stroke="#BABDB6" stroke-width="2"/><a xlink:title="R286W"><circle cx="424.093231" cy="36.781449" r="4.000000" fill="#000000" /></a><line x1="434.106003" x2="434.106003" y1="31.500000" y2="84.500000" stroke="#BABDB6" stroke-width="2"/><a xlink:title="E293K"><circle cx="434.106003" cy="31.500000" r="4.000000" fill="#000000" /></a><line x1="436.966794" x2="436.966794" y1="19.889559" y2="84.500000" stroke="#BABDB6" stroke-width="2"/><a xlink:title="H295fs"><circle cx="436.966794" cy="19.889559" r="4.000000" fill="#228b22" /></a><line x1="438.397190" x2="438.397190" y1="32.389559" y2="84.500000" stroke="#BABDB6" stroke-width="2"/><a xlink:title="R296H"><circle cx="438.397190" cy="32.389559" r="4.000000" fill="#000000" /></a><line x1="442.688378" x2="442.688378" y1="56.500000" y2="84.500000" stroke="#BABDB6" stroke-width="2"/><a xlink:title="V299fs"><circle cx="442.688378" cy="56.500000" r="7.870147" fill="#228b22" /></a><line x1="459.853129" x2="459.853129" y1="56.500000" y2="84.500000" stroke="#BABDB6" stroke-width="2"/><a xlink:title="L311fs"><circle cx="459.853129" cy="56.500000" r="4.000000" fill="#228b22" /></a><line x1="484.169860" x2="484.169860" y1="56.500000" y2="84.500000" stroke="#BABDB6" stroke-width="2"/><a xlink:title="P328S"><circle cx="484.169860" cy="56.500000" r="4.000000" fill="#000000" /></a><line x1="624.348659" x2="624.348659" y1="56.500000" y2="84.500000" stroke="#BABDB6" stroke-width="2"/><a xlink:title="Q426"><circle cx="624.348659" cy="56.500000" r="4.000000" fill="#000000" /></a><line x1="637.222222" x2="637.222222" y1="44.000000" y2="84.500000" stroke="#BABDB6" stroke-width="2"/><a xlink:title="L435fs"><circle cx="637.222222" cy="44.000000" r="4.000000" fill="#228b22" /></a><line x1="640.083014" x2="640.083014" y1="32.389559" y2="84.500000" stroke="#BABDB6" stroke-width="2"/><a xlink:title="R437Q"><circle cx="640.083014" cy="32.389559" r="4.000000" fill="#000000" /></a><line x1="645.804598" x2="645.804598" y1="56.500000" y2="84.500000" stroke="#BABDB6" stroke-width="2"/><a xlink:title="P441fs"><circle cx="645.804598" cy="56.500000" r="7.870147" fill="#228b22" /></a><line x1="680.134100" x2="680.134100" y1="56.500000" y2="84.500000" stroke="#BABDB6" stroke-width="2"/><a xlink:title="D465N"><circle cx="680.134100" cy="56.500000" r="4.000000" fill="#000000" /></a><line x1="694.438059" x2="694.438059" y1="44.000000" y2="84.500000" stroke="#BABDB6" stroke-width="2"/><a xlink:title="S475Y"><circle cx="694.438059" cy="44.000000" r="4.000000" fill="#000000" /></a><line x1="700.159642" x2="700.159642" y1="44.000000" y2="84.500000" stroke="#BABDB6" stroke-width="2"/><a xlink:title="V479fs"><circle cx="700.159642" cy="44.000000" r="4.000000" fill="#228b22" /></a><line x1="705.881226" x2="705.881226" y1="44.000000" y2="84.500000" stroke="#BABDB6" stroke-width="2"/><a xlink:title="T483M"><circle cx="705.881226" cy="44.000000" r="4.000000" fill="#000000" /></a><line x1="710.172414" x2="710.172414" y1="56.500000" y2="84.500000" stroke="#BABDB6" stroke-width="2"/><a xlink:title="S486N"><circle cx="710.172414" cy="56.500000" r="4.000000" fill="#000000" /></a><line x1="723.045977" x2="723.045977" y1="56.500000" y2="84.500000" stroke="#BABDB6" stroke-width="2"/><a xlink:title="S495Y"><circle cx="723.045977" cy="56.500000" r="4.000000" fill="#000000" /></a><line x1="757.375479" x2="757.375479" y1="56.500000" y2="84.500000" stroke="#BABDB6" stroke-width="2"/><a xlink:title="R519Q"><circle cx="757.375479" cy="56.500000" r="4.000000" fill="#000000" /></a><line x1="765.957854" x2="765.957854" y1="56.500000" y2="84.500000" stroke="#BABDB6" stroke-width="2"/><a xlink:title="S525fs"><circle cx="765.957854" cy="56.500000" r="4.000000" fill="#228b22" /></a><line x1="774.540230" x2="774.540230" y1="56.500000" y2="84.500000" stroke="#BABDB6" stroke-width="2"/><a xlink:title="R531C"><circle cx="774.540230" cy="56.500000" r="4.000000" fill="#000000" /></a><line x1="784.553001" x2="784.553001" y1="56.500000" y2="84.500000" stroke="#BABDB6" stroke-width="2"/><a xlink:title="P538S"><circle cx="784.553001" cy="56.500000" r="4.000000" fill="#000000" /></a><line x1="807.439336" x2="807.439336" y1="56.500000" y2="84.500000" stroke="#BABDB6" stroke-width="2"/><a xlink:title="R554G"><circle cx="807.439336" cy="56.500000" r="4.000000" fill="#000000" /></a><line x1="826.034483" x2="826.034483" y1="44.000000" y2="84.500000" stroke="#BABDB6" stroke-width="2"/><a xlink:title="R567K"><circle cx="826.034483" cy="44.000000" r="4.000000" fill="#000000" /></a><line x1="828.895275" x2="828.895275" y1="56.500000" y2="84.500000" stroke="#BABDB6" stroke-width="2"/><a xlink:title="P569H"><circle cx="828.895275" cy="56.500000" r="4.000000" fill="#000000" /></a><line x1="914.719029" x2="914.719029" y1="56.500000" y2="84.500000" stroke="#BABDB6" stroke-width="2"/><a xlink:title="A629fs"><circle cx="914.719029" cy="56.500000" r="4.000000" fill="#228b22" /></a><line x1="933.314176" x2="933.314176" y1="56.500000" y2="84.500000" stroke="#BABDB6" stroke-width="2"/><a xlink:title="L642V"><circle cx="933.314176" cy="56.500000" r="4.000000" fill="#000000" /></a><line x1="940.466156" x2="940.466156" y1="56.500000" y2="84.500000" stroke="#BABDB6" stroke-width="2"/><a xlink:title="L647R"><circle cx="940.466156" cy="56.500000" r="4.000000" fill="#000000" /></a><line x1="957.630907" x2="957.630907" y1="56.500000" y2="84.500000" stroke="#BABDB6" stroke-width="2"/><a xlink:title="G659fs"><circle cx="957.630907" cy="56.500000" r="14.980343" fill="#228b22" /></a><line x1="970.504470" x2="970.504470" y1="56.500000" y2="84.500000" stroke="#BABDB6" stroke-width="2"/><a xlink:title="R668Q"><circle cx="970.504470" cy="56.500000" r="4.000000" fill="#000000" /></a><line x1="980.517241" x2="980.517241" y1="56.500000" y2="84.500000" stroke="#BABDB6" stroke-width="2"/><a xlink:title="H675R"><circle cx="980.517241" cy="56.500000" r="4.000000" fill="#000000" /></a><line x1="1000.542784" x2="1000.542784" y1="56.500000" y2="84.500000" stroke="#BABDB6" stroke-width="2"/><a xlink:title="A689T"><circle cx="1000.542784" cy="56.500000" r="4.000000" fill="#000000" /></a><line x1="1011.985951" x2="1011.985951" y1="56.500000" y2="84.500000" stroke="#BABDB6" stroke-width="2"/><a xlink:title="H697R"><circle cx="1011.985951" cy="56.500000" r="4.000000" fill="#000000" /></a><line x1="1060.619413" x2="1060.619413" y1="56.500000" y2="84.500000" stroke="#BABDB6" stroke-width="2"/><a xlink:title="P731H"><circle cx="1060.619413" cy="56.500000" r="4.000000" fill="#000000" /></a><line x1="1076.353768" x2="1076.353768" y1="56.500000" y2="84.500000" stroke="#BABDB6" stroke-width="2"/><a xlink:title="E742fs"><circle cx="1076.353768" cy="56.500000" r="4.000000" fill="#228b22" /></a><line x1="1090.657727" x2="1090.657727" y1="56.500000" y2="84.500000" stroke="#BABDB6" stroke-width="2"/><a xlink:title="A752T"><circle cx="1090.657727" cy="56.500000" r="4.000000" fill="#000000" /></a><a xlink:title="RNF43_HUMAN, E3 ubiquitin-protein ligase RNF43 EC=2.3.2.27 (783aa)"><rect fill="#BABDB6" x="15.000000" y="84.500000" width="1120.000000" height="14.000000"/></a><a xlink:title="sig_p"><rect fill="#FFD27F" x="16.430396" y="82.500000" width="45.772669" height="18.000000" filter="url(#ds)"/></a>
<a xlink:title="transmembrane"><rect fill="#FFA3A3" x="299.648787" y="82.500000" width="27.177522" height="18.000000" filter="url(#ds)"/></a>
<a xlink:title="low_complexity"><rect fill="#7FFFFF" x="22.151980" y="82.500000" width="15.734355" height="18.000000" filter="url(#ds)"/></a>
<a xlink:title="low_complexity"><rect fill="#C2DDFF" x="528.512133" y="82.500000" width="20.025543" height="18.000000" filter="url(#ds)"/></a>
<a xlink:title="low_complexity"><rect fill="#C2DDFF" x="564.272031" y="82.500000" width="20.025543" height="18.000000" filter="url(#ds)"/></a>
<a xlink:title="low_complexity"><rect fill="#C2DDFF" x="677.273308" y="82.500000" width="20.025543" height="18.000000" filter="url(#ds)"/></a>
<a xlink:title="low_complexity"><rect fill="#C2DDFF" x="718.754789" y="82.500000" width="14.303959" height="18.000000" filter="url(#ds)"/></a>
<a xlink:title="low_complexity"><rect fill="#C2DDFF" x="791.704981" y="82.500000" width="20.025543" height="18.000000" filter="url(#ds)"/></a>
<a xlink:title="low_complexity"><rect fill="#C2DDFF" x="837.477650" y="82.500000" width="30.038314" height="18.000000" filter="url(#ds)"/></a>
<a xlink:title="low_complexity"><rect fill="#C2DDFF" x="1117.835249" y="82.500000" width="11.443167" height="18.000000" filter="url(#ds)"/></a>
<g transform="translate(136.583653,79.500000)"><a xlink:href="https://pfam.xfam.org/family/PF18212" xlink:title="ZNRF-3 Ectodomain"><rect fill="#2dcf00" x="0" y="0" width="148.761175" height="24.000000" filter="url(#ds)"/></a></g>
<g transform="translate(401.206897,79.500000)"><a xlink:href="https://pfam.xfam.org/family/PF13639" xlink:title="Ring finger domain"><rect fill="#ff5353" x="0" y="0" width="61.507024" height="24.000000" filter="url(#ds)"/></a></g>
<g class="axis">
<line x1="15.000000" x2="1135.000000" y1="113.500000" y2="113.500000" stroke="#AAAAAA" /><line x1="15.000000" x2="15.000000" y1="113.500000" y2="118.500000" stroke="#AAAAAA" /><line x1="16.430396" x2="16.430396" y1="113.500000" y2="118.500000" stroke="#AAAAAA" /><text style="font-size:10px;font-family:Arial;fill:#000000;" text-anchor="middle" x="16.430396" y="128.500000">1</text><line x1="39.316731" x2="39.316731" y1="113.500000" y2="118.500000" stroke="#AAAAAA" /><text style="font-size:10px;font-family:Arial;fill:#000000;" text-anchor="middle" x="39.316731" y="128.500000">17</text><line x1="67.924649" x2="67.924649" y1="113.500000" y2="118.500000" stroke="#AAAAAA" /><text style="font-size:10px;font-family:Arial;fill:#000000;" text-anchor="middle" x="67.924649" y="128.500000">37</text><line x1="86.519796" x2="86.519796" y1="113.500000" y2="118.500000" stroke="#AAAAAA" /><text style="font-size:10px;font-family:Arial;fill:#000000;" text-anchor="middle" x="86.519796" y="128.500000">50</text><line x1="110.836526" x2="110.836526" y1="113.500000" y2="118.500000" stroke="#AAAAAA" /><text style="font-size:10px;font-family:Arial;fill:#000000;" text-anchor="middle" x="110.836526" y="128.500000">67</text><line x1="132.292465" x2="132.292465" y1="113.500000" y2="118.500000" stroke="#AAAAAA" /><text style="font-size:10px;font-family:Arial;fill:#000000;" text-anchor="middle" x="132.292465" y="128.500000">82</text><line x1="178.065134" x2="178.065134" y1="113.500000" y2="118.500000" stroke="#AAAAAA" /><text style="font-size:10px;font-family:Arial;fill:#000000;" text-anchor="middle" x="178.065134" y="128.500000">114</text><line x1="203.812261" x2="203.812261" y1="113.500000" y2="118.500000" stroke="#AAAAAA" /><text style="font-size:10px;font-family:Arial;fill:#000000;" text-anchor="middle" x="203.812261" y="128.500000">132</text><line x1="222.407407" x2="222.407407" y1="113.500000" y2="118.500000" stroke="#AAAAAA" /><text style="font-size:10px;font-family:Arial;fill:#000000;" text-anchor="middle" x="222.407407" y="128.500000">145</text><line x1="242.432950" x2="242.432950" y1="113.500000" y2="118.500000" stroke="#AAAAAA" /><text style="font-size:10px;font-family:Arial;fill:#000000;" text-anchor="middle" x="242.432950" y="128.500000">159</text><line x1="289.636015" x2="289.636015" y1="113.500000" y2="118.500000" stroke="#AAAAAA" /><text style="font-size:10px;font-family:Arial;fill:#000000;" text-anchor="middle" x="289.636015" y="128.500000">192</text><line x1="323.965517" x2="323.965517" y1="113.500000" y2="118.500000" stroke="#AAAAAA" /><text style="font-size:10px;font-family:Arial;fill:#000000;" text-anchor="middle" x="323.965517" y="128.500000">216</text><line x1="382.611750" x2="382.611750" y1="113.500000" y2="118.500000" stroke="#AAAAAA" /><text style="font-size:10px;font-family:Arial;fill:#000000;" text-anchor="middle" x="382.611750" y="128.500000">257</text><line x1="412.650064" x2="412.650064" y1="113.500000" y2="118.500000" stroke="#AAAAAA" /><text style="font-size:10px;font-family:Arial;fill:#000000;" text-anchor="middle" x="412.650064" y="128.500000">278</text><line x1="434.106003" x2="434.106003" y1="113.500000" y2="118.500000" stroke="#AAAAAA" /><text style="font-size:10px;font-family:Arial;fill:#000000;" text-anchor="middle" x="434.106003" y="128.500000">293</text><line x1="459.853129" x2="459.853129" y1="113.500000" y2="118.500000" stroke="#AAAAAA" /><text style="font-size:10px;font-family:Arial;fill:#000000;" text-anchor="middle" x="459.853129" y="128.500000">311</text><line x1="484.169860" x2="484.169860" y1="113.500000" y2="118.500000" stroke="#AAAAAA" /><text style="font-size:10px;font-family:Arial;fill:#000000;" text-anchor="middle" x="484.169860" y="128.500000">328</text><line x1="528.512133" x2="528.512133" y1="113.500000" y2="118.500000" stroke="#AAAAAA" /><text style="font-size:10px;font-family:Arial;fill:#000000;" text-anchor="middle" x="528.512133" y="128.500000">359</text><line x1="548.537676" x2="548.537676" y1="113.500000" y2="118.500000" stroke="#AAAAAA" /><text style="font-size:10px;font-family:Arial;fill:#000000;" text-anchor="middle" x="548.537676" y="128.500000">373</text><line x1="584.297573" x2="584.297573" y1="113.500000" y2="118.500000" stroke="#AAAAAA" /><text style="font-size:10px;font-family:Arial;fill:#000000;" text-anchor="middle" x="584.297573" y="128.500000">398</text><line x1="624.348659" x2="624.348659" y1="113.500000" y2="118.500000" stroke="#AAAAAA" /><text style="font-size:10px;font-family:Arial;fill:#000000;" text-anchor="middle" x="624.348659" y="128.500000">426</text><line x1="645.804598" x2="645.804598" y1="113.500000" y2="118.500000" stroke="#AAAAAA" /><text style="font-size:10px;font-family:Arial;fill:#000000;" text-anchor="middle" x="645.804598" y="128.500000">441</text><line x1="680.134100" x2="680.134100" y1="113.500000" y2="118.500000" stroke="#AAAAAA" /><text style="font-size:10px;font-family:Arial;fill:#000000;" text-anchor="middle" x="680.134100" y="128.500000">465</text><line x1="700.159642" x2="700.159642" y1="113.500000" y2="118.500000" stroke="#AAAAAA" /><text style="font-size:10px;font-family:Arial;fill:#000000;" text-anchor="middle" x="700.159642" y="128.500000">479</text><line x1="723.045977" x2="723.045977" y1="113.500000" y2="118.500000" stroke="#AAAAAA" /><text style="font-size:10px;font-family:Arial;fill:#000000;" text-anchor="middle" x="723.045977" y="128.500000">495</text><line x1="757.375479" x2="757.375479" y1="113.500000" y2="118.500000" stroke="#AAAAAA" /><text style="font-size:10px;font-family:Arial;fill:#000000;" text-anchor="middle" x="757.375479" y="128.500000">519</text><line x1="784.553001" x2="784.553001" y1="113.500000" y2="118.500000" stroke="#AAAAAA" /><text style="font-size:10px;font-family:Arial;fill:#000000;" text-anchor="middle" x="784.553001" y="128.500000">538</text><line x1="807.439336" x2="807.439336" y1="113.500000" y2="118.500000" stroke="#AAAAAA" /><text style="font-size:10px;font-family:Arial;fill:#000000;" text-anchor="middle" x="807.439336" y="128.500000">554</text><line x1="826.034483" x2="826.034483" y1="113.500000" y2="118.500000" stroke="#AAAAAA" /><text style="font-size:10px;font-family:Arial;fill:#000000;" text-anchor="middle" x="826.034483" y="128.500000">567</text><line x1="867.515964" x2="867.515964" y1="113.500000" y2="118.500000" stroke="#AAAAAA" /><text style="font-size:10px;font-family:Arial;fill:#000000;" text-anchor="middle" x="867.515964" y="128.500000">596</text><line x1="914.719029" x2="914.719029" y1="113.500000" y2="118.500000" stroke="#AAAAAA" /><text style="font-size:10px;font-family:Arial;fill:#000000;" text-anchor="middle" x="914.719029" y="128.500000">629</text><line x1="933.314176" x2="933.314176" y1="113.500000" y2="118.500000" stroke="#AAAAAA" /><text style="font-size:10px;font-family:Arial;fill:#000000;" text-anchor="middle" x="933.314176" y="128.500000">642</text><line x1="957.630907" x2="957.630907" y1="113.500000" y2="118.500000" stroke="#AAAAAA" /><text style="font-size:10px;font-family:Arial;fill:#000000;" text-anchor="middle" x="957.630907" y="128.500000">659</text><line x1="980.517241" x2="980.517241" y1="113.500000" y2="118.500000" stroke="#AAAAAA" /><text style="font-size:10px;font-family:Arial;fill:#000000;" text-anchor="middle" x="980.517241" y="128.500000">675</text><line x1="1000.542784" x2="1000.542784" y1="113.500000" y2="118.500000" stroke="#AAAAAA" /><text style="font-size:10px;font-family:Arial;fill:#000000;" text-anchor="middle" x="1000.542784" y="128.500000">689</text><line x1="1060.619413" x2="1060.619413" y1="113.500000" y2="118.500000" stroke="#AAAAAA" /><text style="font-size:10px;font-family:Arial;fill:#000000;" text-anchor="middle" x="1060.619413" y="128.500000">731</text><line x1="1090.657727" x2="1090.657727" y1="113.500000" y2="118.500000" stroke="#AAAAAA" /><text style="font-size:10px;font-family:Arial;fill:#000000;" text-anchor="middle" x="1090.657727" y="128.500000">752</text><line x1="1135.000000" x2="1135.000000" y1="113.500000" y2="118.500000" stroke="#AAAAAA" /><text style="font-size:10px;font-family:Arial;fill:#000000;" text-anchor="middle" x="1135.000000" y="128.500000">783</text></g>
<rect fill="#FFD27F" x="4" y="142.500000" width="12" height="12" filter="url(#ds)"/><text style="font-size:12px;font-family:Arial;fill:#000000;" text-anchor="start" x="20" y="154.500000">Signal peptide region</text><rect fill="#FFA3A3" x="4" y="156.500000" width="12" height="12" filter="url(#ds)"/><text style="font-size:12px;font-family:Arial;fill:#000000;" text-anchor="start" x="20" y="168.500000">Transmembrane region</text><rect fill="#C2DDFF" x="4" y="170.500000" width="12" height="12" filter="url(#ds)"/><text style="font-size:12px;font-family:Arial;fill:#000000;" text-anchor="start" x="20" y="182.500000">Low complexity region</text><rect fill="#2dcf00" x="4" y="184.500000" width="12" height="12" filter="url(#ds)"/><text style="font-size:12px;font-family:Arial;fill:#000000;" text-anchor="start" x="20" y="196.500000">ZNRF-3 Ectodomain</text><rect fill="#ff5353" x="4" y="198.500000" width="12" height="12" filter="url(#ds)"/><text style="font-size:12px;font-family:Arial;fill:#000000;" text-anchor="start" x="20" y="210.500000">Ring finger domain</text></svg>
