<?xml version='1.0'?>
<svg xmlns="http://www.w3.org/2000/svg" xmlns:xlink="http://www.w3.org/1999/xlink" width="1150.000000" height="238.762463">
<defs>
  <filter id="ds" x="0" y="0">
    <feOffset in="SourceAlpha" dx="2" dy="2" />
    <feComponentTransfer><feFuncA type="linear" slope="0.2"/></feComponentTransfer>
    <feGaussianBlur result="blurOut" stdDeviation="1" />
    <feBlend in="SourceGraphic" in2="blurOut" mode="normal" />
  </filter>
  <pattern id="disordered-hatch" patternUnits="userSpaceOnUse" width="4" height="4">
    <path d="M-1,1 l2,-2 M0,4 l4,-4 M3,5 l2,-2" stroke="#000000" opacity="0.3" />
  </pattern>
</defs>
<line x1="35.025543" x2="35.025543" y1="62.762463" y2="90.762463" stroke="#BABDB6" stroke-width="2"/><a xlink:title="P14S"><circle cx="35.025543" cy="62.762463" r="4.000000" fill="#000000" /></a><line x1="46.468710" x2="46.468710" y1="62.762463" y2="90.762463" stroke="#BABDB6" stroke-width="2"/><a xlink:title="Q22"><circle cx="46.468710" cy="62.762463" r="4.000000" fill="#000000" /></a><line x1="77.937420" x2="77.937420" y1="62.762463" y2="90.762463" stroke="#BABDB6" stroke-width="2"/><a xlink:title="Q44H"><circle cx="77.937420" cy="62.762463" r="4.000000" fill="#000000" /></a><line x1="126.570881" x2="126.570881" y1="62.762463" y2="90.762463" stroke="#BABDB6" stroke-width="2"/><a xlink:title="A78T"><circle cx="126.570881" cy="62.762463" r="4.000000" fill="#000000" /></a><line x1="136.583653" x2="136.583653" y1="62.762463" y2="90.762463" stroke="#BABDB6" stroke-width="2"/><a xlink:title="S85F"><circle cx="136.583653" cy="62.762463" r="4.000000" fill="#000000" /></a><line x1="196.660281" x2="196.660281" y1="43.043912" y2="90.762463" stroke="#BABDB6" stroke-width="2"/><a xlink:title="R127W"><circle cx="196.660281" cy="43.043912" r="4.000000" fill="#000000" /></a><line x1="199.521073" x2="199.521073" y1="50.262463" y2="90.762463" stroke="#BABDB6" stroke-width="2"/><a xlink:title="A129V"><circle cx="199.521073" cy="50.262463" r="6.406184" fill="#000000" /></a><line x1="203.812261" x2="203.812261" y1="62.762463" y2="90.762463" stroke="#BABDB6" stroke-width="2"/><a xlink:title="R132"><circle cx="203.812261" cy="62.762463" r="4.000000" fill="#000000" /></a><line x1="222.407407" x2="222.407407" y1="62.762463" y2="90.762463" stroke="#BABDB6" stroke-width="2"/><a xlink:title="R145"><circle cx="222.407407" cy="62.762463" r="4.000000" fill="#000000" /></a><line x1="235.280971" x2="235.280971" y1="37.762463" y2="90.762463" stroke="#BABDB6" stroke-width="2"/><a xlink:title="P154S"><circle cx="235.280971" cy="37.762463" r="4.000000" fill="#000000" /></a><line x1="235.280971" x2="235.280971" y1="50.262463" y2="90.762463" stroke="#BABDB6" stroke-width="2"/><a xlink:title="P154L"><circle cx="235.280971" cy="50.262463" r="4.000000" fill="#000000" /></a><line x1="239.572158" x2="239.572158" y1="62.762463" y2="90.762463" stroke="#BABDB6" stroke-width="2"/><a xlink:title="L157fs"><circle cx="239.572158" cy="62.762463" r="4.000000" fill="#228b22" /></a><line x1="258.167305" x2="258.167305" y1="62.762463" y2="90.762463" stroke="#BABDB6" stroke-width="2"/><a xlink:title="E170"><circle cx="258.167305" cy="62.762463" r="4.000000" fill="#000000" /></a><line x1="276.762452" x2="276.762452" y1="50.262463" y2="90.762463" stroke="#BABDB6" stroke-width="2"/><a xlink:title="H183R"><circle cx="276.762452" cy="50.262463" r="4.000000" fill="#000000" /></a><line x1="278.192848" x2="278.192848" y1="62.762463" y2="90.762463" stroke="#BABDB6" stroke-width="2"/><a xlink:title="V184A"><circle cx="278.192848" cy="62.762463" r="4.000000" fill="#000000" /></a><line x1="289.636015" x2="289.636015" y1="43.043912" y2="90.762463" stroke="#BABDB6" stroke-width="2"/><a xlink:title="P192fs"><circle cx="289.636015" cy="43.043912" r="4.000000" fill="#228b22" /></a><line x1="293.927203" x2="293.927203" y1="62.762463" y2="90.762463" stroke="#BABDB6" stroke-width="2"/><a xlink:title="X195_splice"><circle cx="293.927203" cy="62.762463" r="6.406184" fill="#000000" /></a><line x1="323.965517" x2="323.965517" y1="50.262463" y2="90.762463" stroke="#BABDB6" stroke-width="2"/><a xlink:title="S216L"><circle cx="323.965517" cy="50.262463" r="4.000000" fill="#000000" /></a><line x1="328.256705" x2="328.256705" y1="62.762463" y2="90.762463" stroke="#BABDB6" stroke-width="2"/><a xlink:title="R219H"><circle cx="328.256705" cy="62.762463" r="4.000000" fill="#000000" /></a><line x1="336.839080" x2="336.839080" y1="37.762463" y2="90.762463" stroke="#BABDB6" stroke-width="2"/><a xlink:title="R225fs"><circle cx="336.839080" cy="37.762463" r="4.000000" fill="#228b22" /></a><line x1="341.130268" x2="341.130268" y1="50.262463" y2="90.762463" stroke="#BABDB6" stroke-width="2"/><a xlink:title="R228G"><circle cx="341.130268" cy="50.262463" r="4.000000" fill="#000000" /></a><line x1="342.560664" x2="342.560664" y1="62.762463" y2="90.762463" stroke="#BABDB6" stroke-width="2"/><a xlink:title="P229L"><circle cx="342.560664" cy="62.762463" r="4.000000" fill="#000000" /></a><line x1="365.446999" x2="365.446999" y1="62.762463" y2="90.762463" stroke="#BABDB6" stroke-width="2"/><a xlink:title="T245A"><circle cx="365.446999" cy="62.762463" r="4.000000" fill="#000000" /></a><line x1="389.763729" x2="389.763729" y1="62.762463" y2="90.762463" stroke="#BABDB6" stroke-width="2"/><a xlink:title="S262fs"><circle cx="389.763729" cy="62.762463" r="4.000000" fill="#228b22" /></a><line x1="424.093231" x2="424.093231" y1="62.762463" y2="90.762463" stroke="#BABDB6" stroke-width="2"/><a xlink:title="R286W"><circle cx="424.093231" cy="62.762463" r="6.406184" fill="#000000" /></a><line x1="434.106003" x2="434.106003" y1="62.762463" y2="90.762463" stroke="#BABDB6" stroke-width="2"/><a xlink:title="E293G"><circle cx="434.106003" cy="62.762463" r="4.000000" fill="#000000" /></a><line x1="446.979566" x2="446.979566" y1="62.762463" y2="90.762463" stroke="#BABDB6" stroke-width="2"/><a xlink:title="W302fs"><circle cx="446.979566" cy="62.762463" r="4.000000" fill="#228b22" /></a><line x1="459.853129" x2="459.853129" y1="62.762463" y2="90.762463" stroke="#BABDB6" stroke-width="2"/><a xlink:title="L311fs"><circle cx="459.853129" cy="62.762463" r="4.000000" fill="#228b22" /></a><line x1="469.865900" x2="469.865900" y1="62.762463" y2="90.762463" stroke="#BABDB6" stroke-width="2"/><a xlink:title="E318"><circle cx="469.865900" cy="62.762463" r="4.000000" fill="#000000" /></a><line x1="487.030651" x2="487.030651" y1="62.762463" y2="90.762463" stroke="#BABDB6" stroke-width="2"/><a xlink:title="R330Q"><circle cx="487.030651" cy="62.762463" r="4.000000" fill="#000000" /></a><line x1="497.043423" x2="497.043423" y1="62.762463" y2="90.762463" stroke="#BABDB6" stroke-width="2"/><a xlink:title="R337"><circle cx="497.043423" cy="62.762463" r="6.406184" fill="#000000" /></a><line x1="509.916986" x2="509.916986" y1="62.762463" y2="90.762463" stroke="#BABDB6" stroke-width="2"/><a xlink:title="P346L"><circle cx="509.916986" cy="62.762463" r="4.000000" fill="#000000" /></a><line x1="525.651341" x2="525.651341" y1="62.762463" y2="90.762463" stroke="#BABDB6" stroke-width="2"/><a xlink:title="Y357C"><circle cx="525.651341" cy="62.762463" r="4.000000" fill="#000000" /></a><line x1="544.246488" x2="544.246488" y1="62.762463" y2="90.762463" stroke="#BABDB6" stroke-width="2"/><a xlink:title="P370fs"><circle cx="544.246488" cy="62.762463" r="4.000000" fill="#228b22" /></a><line x1="567.132822" x2="567.132822" y1="62.762463" y2="90.762463" stroke="#BABDB6" stroke-width="2"/><a xlink:title="R386W"><circle cx="567.132822" cy="62.762463" r="4.000000" fill="#000000" /></a><line x1="611.475096" x2="611.475096" y1="62.762463" y2="90.762463" stroke="#BABDB6" stroke-width="2"/><a xlink:title="G417V"><circle cx="611.475096" cy="62.762463" r="4.000000" fill="#000000" /></a><line x1="645.804598" x2="645.804598" y1="62.762463" y2="90.762463" stroke="#BABDB6" stroke-width="2"/><a xlink:title="P441fs"><circle cx="645.804598" cy="62.762463" r="6.406184" fill="#228b22" /></a><line x1="753.084291" x2="753.084291" y1="38.652022" y2="90.762463" stroke="#BABDB6" stroke-width="2"/><a xlink:title="D516fs"><circle cx="753.084291" cy="38.652022" r="4.000000" fill="#228b22" /></a><line x1="757.375479" x2="757.375479" y1="62.762463" y2="90.762463" stroke="#BABDB6" stroke-width="2"/><a xlink:title="R519"><circle cx="757.375479" cy="62.762463" r="7.870147" fill="#000000" /></a><line x1="774.540230" x2="774.540230" y1="62.762463" y2="90.762463" stroke="#BABDB6" stroke-width="2"/><a xlink:title="R531H"><circle cx="774.540230" cy="62.762463" r="4.000000" fill="#000000" /></a><line x1="804.578544" x2="804.578544" y1="62.762463" y2="90.762463" stroke="#BABDB6" stroke-width="2"/><a xlink:title="R552C"><circle cx="804.578544" cy="62.762463" r="4.000000" fill="#000000" /></a><line x1="821.743295" x2="821.743295" y1="62.762463" y2="90.762463" stroke="#BABDB6" stroke-width="2"/><a xlink:title="W564R"><circle cx="821.743295" cy="62.762463" r="4.000000" fill="#000000" /></a><line x1="840.338442" x2="840.338442" y1="62.762463" y2="90.762463" stroke="#BABDB6" stroke-width="2"/><a xlink:title="Q577fs"><circle cx="840.338442" cy="62.762463" r="4.000000" fill="#228b22" /></a><line x1="854.642401" x2="854.642401" y1="62.762463" y2="90.762463" stroke="#BABDB6" stroke-width="2"/><a xlink:title="P587S"><circle cx="854.642401" cy="62.762463" r="4.000000" fill="#000000" /></a><line x1="883.250319" x2="883.250319" y1="62.762463" y2="90.762463" stroke="#BABDB6" stroke-width="2"/><a xlink:title="S607L"><circle cx="883.250319" cy="62.762463" r="4.000000" fill="#000000" /></a><line x1="929.022989" x2="929.022989" y1="62.762463" y2="90.762463" stroke="#BABDB6" stroke-width="2"/><a xlink:title="L639M"><circle cx="929.022989" cy="62.762463" r="4.000000" fill="#000000" /></a><line x1="940.466156" x2="940.466156" y1="62.762463" y2="90.762463" stroke="#BABDB6" stroke-width="2"/><a xlink:title="L647I"><circle cx="940.466156" cy="62.762463" r="4.000000" fill="#000000" /></a><line x1="957.630907" x2="957.630907" y1="50.262463" y2="90.762463" stroke="#BABDB6" stroke-width="2"/><a xlink:title="G659fs"><circle cx="957.630907" cy="50.262463" r="14.420821" fill="#228b22" /></a><line x1="959.061303" x2="959.061303" y1="62.762463" y2="90.762463" stroke="#BABDB6" stroke-width="2"/><a xlink:title="P660fs"><circle cx="959.061303" cy="62.762463" r="4.000000" fill="#228b22" /></a><line x1="981.947637" x2="981.947637" y1="62.762463" y2="90.762463" stroke="#BABDB6" stroke-width="2"/><a xlink:title="P676T"><circle cx="981.947637" cy="62.762463" r="4.000000" fill="#000000" /></a><line x1="1047.745849" x2="1047.745849" y1="62.762463" y2="90.762463" stroke="#BABDB6" stroke-width="2"/><a xlink:title="S722"><circle cx="1047.745849" cy="62.762463" r="4.000000" fill="#000000" /></a><a xlink:title="RNF43_HUMAN, E3 ubiquitin-protein ligase RNF43 EC=2.3.2.27 (783aa)"><rect fill="#BABDB6" x="15.000000" y="90.762463" width="1120.000000" height="14.000000"/></a><a xlink:title="sig_p"><rect fill="#FFD27F" x="16.430396" y="88.762463" width="45.772669" height="18.000000" filter="url(#ds)"/></a>
<a xlink:title="transmembrane"><rect fill="#FFA3A3" x="299.648787" y="88.762463" width="27.177522" height="18.000000" filter="url(#ds)"/></a>
<a xlink:title="low_complexity"><rect fill="#7FFFFF" x="22.151980" y="88.762463" width="15.734355" height="18.000000" filter="url(#ds)"/></a>
<a xlink:title="low_complexity"><rect fill="#C2DDFF" x="528.512133" y="88.762463" width="20.025543" height="18.000000" filter="url(#ds)"/></a>
<a xlink:title="low_complexity"><rect fill="#C2DDFF" x="564.272031" y="88.762463" width="20.025543" height="18.000000" filter="url(#ds)"/></a>
<a xlink:title="low_complexity"><rect fill="#C2DDFF" x="677.273308" y="88.762463" width="20.025543" height="18.000000" filter="url(#ds)"/></a>
<a xlink:title="low_complexity"><rect fill="#C2DDFF" x="718.754789" y="88.762463" width="14.303959" height="18.000000" filter="url(#ds)"/></a>
<a xlink:title="low_complexity"><rect fill="#C2DDFF" x="791.704981" y="88.762463" width="20.025543" height="18.000000" filter="url(#ds)"/></a>
<a xlink:title="low_complexity"><rect fill="#C2DDFF" x="837.477650" y="88.762463" width="30.038314" height="18.000000" filter="url(#ds)"/></a>
<a xlink:title="low_complexity"><rect fill="#C2DDFF" x="1117.835249" y="88.762463" width="11.443167" height="18.000000" filter="url(#ds)"/></a>
<g transform="translate(136.583653,85.762463)"><a xlink:href="https://pfam.xfam.org/family/PF18212" xlink:title="ZNRF-3 Ectodomain"><rect fill="#2dcf00" x="0" y="0" width="148.761175" height="24.000000" filter="url(#ds)"/></a></g>
<g transform="translate(401.206897,85.762463)"><a xlink:href="https://pfam.xfam.org/family/PF13639" xlink:title="Ring finger domain"><rect fill="#ff5353" x="0" y="0" width="61.507024" height="24.000000" filter="url(#ds)"/></a></g>
<g class="axis">
<line x1="15.000000" x2="1135.000000" y1="119.762463" y2="119.762463" stroke="#AAAAAA" /><line x1="15.000000" x2="15.000000" y1="119.762463" y2="124.762463" stroke="#AAAAAA" /><line x1="35.025543" x2="35.025543" y1="119.762463" y2="124.762463" stroke="#AAAAAA" /><text style="font-size:10px;font-family:Arial;fill:#000000;" text-anchor="middle" x="35.025543" y="134.762463">14</text><line x1="77.937420" x2="77.937420" y1="119.762463" y2="124.762463" stroke="#AAAAAA" /><text style="font-size:10px;font-family:Arial;fill:#000000;" text-anchor="middle" x="77.937420" y="134.762463">44</text><line x1="126.570881" x2="126.570881" y1="119.762463" y2="124.762463" stroke="#AAAAAA" /><text style="font-size:10px;font-family:Arial;fill:#000000;" text-anchor="middle" x="126.570881" y="134.762463">78</text><line x1="196.660281" x2="196.660281" y1="119.762463" y2="124.762463" stroke="#AAAAAA" /><text style="font-size:10px;font-family:Arial;fill:#000000;" text-anchor="middle" x="196.660281" y="134.762463">127</text><line x1="222.407407" x2="222.407407" y1="119.762463" y2="124.762463" stroke="#AAAAAA" /><text style="font-size:10px;font-family:Arial;fill:#000000;" text-anchor="middle" x="222.407407" y="134.762463">145</text><line x1="258.167305" x2="258.167305" y1="119.762463" y2="124.762463" stroke="#AAAAAA" /><text style="font-size:10px;font-family:Arial;fill:#000000;" text-anchor="middle" x="258.167305" y="134.762463">170</text><line x1="276.762452" x2="276.762452" y1="119.762463" y2="124.762463" stroke="#AAAAAA" /><text style="font-size:10px;font-family:Arial;fill:#000000;" text-anchor="middle" x="276.762452" y="134.762463">183</text><line x1="299.648787" x2="299.648787" y1="119.762463" y2="124.762463" stroke="#AAAAAA" /><text style="font-size:10px;font-family:Arial;fill:#000000;" text-anchor="middle" x="299.648787" y="134.762463">199</text><line x1="323.965517" x2="323.965517" y1="119.762463" y2="124.762463" stroke="#AAAAAA" /><text style="font-size:10px;font-family:Arial;fill:#000000;" text-anchor="middle" x="323.965517" y="134.762463">216</text><line x1="342.560664" x2="342.560664" y1="119.762463" y2="124.762463" stroke="#AAAAAA" /><text style="font-size:10px;font-family:Arial;fill:#000000;" text-anchor="middle" x="342.560664" y="134.762463">229</text><line x1="365.446999" x2="365.446999" y1="119.762463" y2="124.762463" stroke="#AAAAAA" /><text style="font-size:10px;font-family:Arial;fill:#000000;" text-anchor="middle" x="365.446999" y="134.762463">245</text><line x1="389.763729" x2="389.763729" y1="119.762463" y2="124.762463" stroke="#AAAAAA" /><text style="font-size:10px;font-family:Arial;fill:#000000;" text-anchor="middle" x="389.763729" y="134.762463">262</text><line x1="424.093231" x2="424.093231" y1="119.762463" y2="124.762463" stroke="#AAAAAA" /><text style="font-size:10px;font-family:Arial;fill:#000000;" text-anchor="middle" x="424.093231" y="134.762463">286</text><line x1="446.979566" x2="446.979566" y1="119.762463" y2="124.762463" stroke="#AAAAAA" /><text style="font-size:10px;font-family:Arial;fill:#000000;" text-anchor="middle" x="446.979566" y="134.762463">302</text><line x1="469.865900" x2="469.865900" y1="119.762463" y2="124.762463" stroke="#AAAAAA" /><text style="font-size:10px;font-family:Arial;fill:#000000;" text-anchor="middle" x="469.865900" y="134.762463">318</text><line x1="497.043423" x2="497.043423" y1="119.762463" y2="124.762463" stroke="#AAAAAA" /><text style="font-size:10px;font-family:Arial;fill:#000000;" text-anchor="middle" x="497.043423" y="134.762463">337</text><line x1="525.651341" x2="525.651341" y1="119.762463" y2="124.762463" stroke="#AAAAAA" /><text style="font-size:10px;font-family:Arial;fill:#000000;" text-anchor="middle" x="525.651341" y="134.762463">357</text><line x1="544.246488" x2="544.246488" y1="119.762463" y2="124.762463" stroke="#AAAAAA" /><text style="font-size:10px;font-family:Arial;fill:#000000;" text-anchor="middle" x="544.246488" y="134.762463">370</text><line x1="567.132822" x2="567.132822" y1="119.762463" y2="124.762463" stroke="#AAAAAA" /><text style="font-size:10px;font-family:Arial;fill:#000000;" text-anchor="middle" x="567.132822" y="134.762463">386</text><line x1="611.475096" x2="611.475096" y1="119.762463" y2="124.762463" stroke="#AAAAAA" /><text style="font-size:10px;font-family:Arial;fill:#000000;" text-anchor="middle" x="611.475096" y="134.762463">417</text><line x1="645.804598" x2="645.804598" y1="119.762463" y2="124.762463" stroke="#AAAAAA" /><text style="font-size:10px;font-family:Arial;fill:#000000;" text-anchor="middle" x="645.804598" y="134.762463">441</text><line x1="677.273308" x2="677.273308" y1="119.762463" y2="124.762463" stroke="#AAAAAA" /><text style="font-size:10px;font-family:Arial;fill:#000000;" text-anchor="middle" x="677.273308" y="134.762463">463</text><line x1="697.298851" x2="697.298851" y1="119.762463" y2="124.762463" stroke="#AAAAAA" /><text style="font-size:10px;font-family:Arial;fill:#000000;" text-anchor="middle" x="697.298851" y="134.762463">477</text><line x1="718.754789" x2="718.754789" y1="119.762463" y2="124.762463" stroke="#AAAAAA" /><text style="font-size:10px;font-family:Arial;fill:#000000;" text-anchor="middle" x="718.754789" y="134.762463">492</text><line x1="753.084291" x2="753.084291" y1="119.762463" y2="124.762463" stroke="#AAAAAA" /><text style="font-size:10px;font-family:Arial;fill:#000000;" text-anchor="middle" x="753.084291" y="134.762463">516</text><line x1="774.540230" x2="774.540230" y1="119.762463" y2="124.762463" stroke="#AAAAAA" /><text style="font-size:10px;font-family:Arial;fill:#000000;" text-anchor="middle" x="774.540230" y="134.762463">531</text><line x1="804.578544" x2="804.578544" y1="119.762463" y2="124.762463" stroke="#AAAAAA" /><text style="font-size:10px;font-family:Arial;fill:#000000;" text-anchor="middle" x="804.578544" y="134.762463">552</text><line x1="840.338442" x2="840.338442" y1="119.762463" y2="124.762463" stroke="#AAAAAA" /><text style="font-size:10px;font-family:Arial;fill:#000000;" text-anchor="middle" x="840.338442" y="134.762463">577</text><line x1="883.250319" x2="883.250319" y1="119.762463" y2="124.762463" stroke="#AAAAAA" /><text style="font-size:10px;font-family:Arial;fill:#000000;" text-anchor="middle" x="883.250319" y="134.762463">607</text><line x1="929.022989" x2="929.022989" y1="119.762463" y2="124.762463" stroke="#AAAAAA" /><text style="font-size:10px;font-family:Arial;fill:#000000;" text-anchor="middle" x="929.022989" y="134.762463">639</text><line x1="957.630907" x2="957.630907" y1="119.762463" y2="124.762463" stroke="#AAAAAA" /><text style="font-size:10px;font-family:Arial;fill:#000000;" text-anchor="middle" x="957.630907" y="134.762463">659</text><line x1="981.947637" x2="981.947637" y1="119.762463" y2="124.762463" stroke="#AAAAAA" /><text style="font-size:10px;font-family:Arial;fill:#000000;" text-anchor="middle" x="981.947637" y="134.762463">676</text><line x1="1047.745849" x2="1047.745849" y1="119.762463" y2="124.762463" stroke="#AAAAAA" /><text style="font-size:10px;font-family:Arial;fill:#000000;" text-anchor="middle" x="1047.745849" y="134.762463">722</text><line x1="1135.000000" x2="1135.000000" y1="119.762463" y2="124.762463" stroke="#AAAAAA" /><text style="font-size:10px;font-family:Arial;fill:#000000;" text-anchor="middle" x="1135.000000" y="134.762463">783</text></g>
<rect fill="#ff5353" x="4" y="148.762463" width="12" height="12" filter="url(#ds)"/><text style="font-size:12px;font-family:Arial;fill:#000000;" text-anchor="start" x="20" y="160.762463">Ring finger domain</text><rect fill="#FFD27F" x="4" y="162.762463" width="12" height="12" filter="url(#ds)"/><text style="font-size:12px;font-family:Arial;fill:#000000;" text-anchor="start" x="20" y="174.762463">Signal peptide region</text><rect fill="#FFA3A3" x="4" y="176.762463" width="12" height="12" filter="url(#ds)"/><text style="font-size:12px;font-family:Arial;fill:#000000;" text-anchor="start" x="20" y="188.762463">Transmembrane region</text><rect fill="#C2DDFF" x="4" y="190.762463" width="12" height="12" filter="url(#ds)"/><text style="font-size:12px;font-family:Arial;fill:#000000;" text-anchor="start" x="20" y="202.762463">Low complexity region</text><rect fill="#2dcf00" x="4" y="204.762463" width="12" height="12" filter="url(#ds)"/><text style="font-size:12px;font-family:Arial;fill:#000000;" text-anchor="start" x="20" y="216.762463">ZNRF-3 Ectodomain</text></svg>
