<?xml version='1.0'?>
<svg xmlns="http://www.w3.org/2000/svg" xmlns:xlink="http://www.w3.org/1999/xlink" width="1150.000000" height="235.777998">
<defs>
  <filter id="ds" x="0" y="0">
    <feOffset in="SourceAlpha" dx="2" dy="2" />
    <feComponentTransfer><feFuncA type="linear" slope="0.2"/></feComponentTransfer>
    <feGaussianBlur result="blurOut" stdDeviation="1" />
    <feBlend in="SourceGraphic" in2="blurOut" mode="normal" />
  </filter>
  <pattern id="disordered-hatch" patternUnits="userSpaceOnUse" width="4" height="4">
    <path d="M-1,1 l2,-2 M0,4 l4,-4 M3,5 l2,-2" stroke="#000000" opacity="0.3" />
  </pattern>
</defs>
<line x1="72.215837" x2="72.215837" y1="47.277998" y2="87.777998" stroke="#BABDB6" stroke-width="2"/><a xlink:title="R40"><circle cx="72.215837" cy="47.277998" r="4.000000" fill="#000000" /></a><line x1="77.937420" x2="77.937420" y1="47.277998" y2="87.777998" stroke="#BABDB6" stroke-width="2"/><a xlink:title="Q44H"><circle cx="77.937420" cy="47.277998" r="4.000000" fill="#000000" /></a><line x1="83.659004" x2="83.659004" y1="47.277998" y2="87.777998" stroke="#BABDB6" stroke-width="2"/><a xlink:title="I48Ys"><circle cx="83.659004" cy="47.277998" r="4.000000" fill="#000000" /></a><line x1="85.089400" x2="85.089400" y1="59.777998" y2="87.777998" stroke="#BABDB6" stroke-width="2"/><a xlink:title="R49Ss"><circle cx="85.089400" cy="59.777998" r="4.000000" fill="#000000" /></a><line x1="138.014049" x2="138.014049" y1="47.277998" y2="87.777998" stroke="#BABDB6" stroke-width="2"/><a xlink:title="H86R"><circle cx="138.014049" cy="47.277998" r="4.000000" fill="#000000" /></a><line x1="138.014049" x2="138.014049" y1="59.777998" y2="87.777998" stroke="#BABDB6" stroke-width="2"/><a xlink:title="H86Y"><circle cx="138.014049" cy="59.777998" r="4.000000" fill="#000000" /></a><line x1="242.432950" x2="242.432950" y1="59.777998" y2="87.777998" stroke="#BABDB6" stroke-width="2"/><a xlink:title="W159"><circle cx="242.432950" cy="59.777998" r="4.000000" fill="#000000" /></a><line x1="253.876117" x2="253.876117" y1="59.777998" y2="87.777998" stroke="#BABDB6" stroke-width="2"/><a xlink:title="N167fs"><circle cx="253.876117" cy="59.777998" r="4.000000" fill="#228b22" /></a><line x1="328.256705" x2="328.256705" y1="59.777998" y2="87.777998" stroke="#BABDB6" stroke-width="2"/><a xlink:title="R219H"><circle cx="328.256705" cy="59.777998" r="4.000000" fill="#000000" /></a><line x1="328.256705" x2="328.256705" y1="47.277998" y2="87.777998" stroke="#BABDB6" stroke-width="2"/><a xlink:title="R219C"><circle cx="328.256705" cy="47.277998" r="4.000000" fill="#000000" /></a><line x1="378.320562" x2="378.320562" y1="59.777998" y2="87.777998" stroke="#BABDB6" stroke-width="2"/><a xlink:title="Q254"><circle cx="378.320562" cy="59.777998" r="4.000000" fill="#000000" /></a><line x1="411.219668" x2="411.219668" y1="47.277998" y2="87.777998" stroke="#BABDB6" stroke-width="2"/><a xlink:title="E277"><circle cx="411.219668" cy="47.277998" r="4.000000" fill="#000000" /></a><line x1="412.650064" x2="412.650064" y1="59.777998" y2="87.777998" stroke="#BABDB6" stroke-width="2"/><a xlink:title="E278del"><circle cx="412.650064" cy="59.777998" r="4.000000" fill="#000000" /></a><line x1="459.853129" x2="459.853129" y1="59.777998" y2="87.777998" stroke="#BABDB6" stroke-width="2"/><a xlink:title="L311fs"><circle cx="459.853129" cy="59.777998" r="6.406184" fill="#228b22" /></a><line x1="467.005109" x2="467.005109" y1="59.777998" y2="87.777998" stroke="#BABDB6" stroke-width="2"/><a xlink:title="I316T"><circle cx="467.005109" cy="59.777998" r="4.000000" fill="#000000" /></a><line x1="487.030651" x2="487.030651" y1="59.777998" y2="87.777998" stroke="#BABDB6" stroke-width="2"/><a xlink:title="R330"><circle cx="487.030651" cy="59.777998" r="4.000000" fill="#000000" /></a><line x1="569.993614" x2="569.993614" y1="59.777998" y2="87.777998" stroke="#BABDB6" stroke-width="2"/><a xlink:title="H388R"><circle cx="569.993614" cy="59.777998" r="4.000000" fill="#000000" /></a><line x1="664.399745" x2="664.399745" y1="47.277998" y2="87.777998" stroke="#BABDB6" stroke-width="2"/><a xlink:title="R454fs"><circle cx="664.399745" cy="47.277998" r="4.000000" fill="#228b22" /></a><line x1="668.690932" x2="668.690932" y1="59.777998" y2="87.777998" stroke="#BABDB6" stroke-width="2"/><a xlink:title="Y457"><circle cx="668.690932" cy="59.777998" r="4.000000" fill="#000000" /></a><line x1="753.084291" x2="753.084291" y1="47.277998" y2="87.777998" stroke="#BABDB6" stroke-width="2"/><a xlink:title="D516fs"><circle cx="753.084291" cy="47.277998" r="4.000000" fill="#228b22" /></a><line x1="753.084291" x2="753.084291" y1="59.777998" y2="87.777998" stroke="#BABDB6" stroke-width="2"/><a xlink:title="D516G"><circle cx="753.084291" cy="59.777998" r="4.000000" fill="#000000" /></a><line x1="864.655172" x2="864.655172" y1="59.777998" y2="87.777998" stroke="#BABDB6" stroke-width="2"/><a xlink:title="P594del"><circle cx="864.655172" cy="59.777998" r="4.000000" fill="#000000" /></a><line x1="957.630907" x2="957.630907" y1="47.277998" y2="87.777998" stroke="#BABDB6" stroke-width="2"/><a xlink:title="G659fs"><circle cx="957.630907" cy="47.277998" r="13.425999" fill="#228b22" /></a><line x1="960.491699" x2="960.491699" y1="59.777998" y2="87.777998" stroke="#BABDB6" stroke-width="2"/><a xlink:title="S661fs"><circle cx="960.491699" cy="59.777998" r="4.000000" fill="#228b22" /></a><line x1="991.960409" x2="991.960409" y1="59.777998" y2="87.777998" stroke="#BABDB6" stroke-width="2"/><a xlink:title="H683fs"><circle cx="991.960409" cy="59.777998" r="4.000000" fill="#228b22" /></a><line x1="1017.707535" x2="1017.707535" y1="59.777998" y2="87.777998" stroke="#BABDB6" stroke-width="2"/><a xlink:title="C701Y"><circle cx="1017.707535" cy="59.777998" r="4.000000" fill="#000000" /></a><line x1="1096.379310" x2="1096.379310" y1="59.777998" y2="87.777998" stroke="#BABDB6" stroke-width="2"/><a xlink:title="P756S"><circle cx="1096.379310" cy="59.777998" r="4.000000" fill="#000000" /></a><a xlink:title="RNF43_HUMAN, E3 ubiquitin-protein ligase RNF43 EC=2.3.2.27 (783aa)"><rect fill="#BABDB6" x="15.000000" y="87.777998" width="1120.000000" height="14.000000"/></a><a xlink:title="sig_p"><rect fill="#FFD27F" x="16.430396" y="85.777998" width="45.772669" height="18.000000" filter="url(#ds)"/></a>
<a xlink:title="transmembrane"><rect fill="#FFA3A3" x="299.648787" y="85.777998" width="27.177522" height="18.000000" filter="url(#ds)"/></a>
<a xlink:title="low_complexity"><rect fill="#7FFFFF" x="22.151980" y="85.777998" width="15.734355" height="18.000000" filter="url(#ds)"/></a>
<a xlink:title="low_complexity"><rect fill="#C2DDFF" x="528.512133" y="85.777998" width="20.025543" height="18.000000" filter="url(#ds)"/></a>
<a xlink:title="low_complexity"><rect fill="#C2DDFF" x="564.272031" y="85.777998" width="20.025543" height="18.000000" filter="url(#ds)"/></a>
<a xlink:title="low_complexity"><rect fill="#C2DDFF" x="677.273308" y="85.777998" width="20.025543" height="18.000000" filter="url(#ds)"/></a>
<a xlink:title="low_complexity"><rect fill="#C2DDFF" x="718.754789" y="85.777998" width="14.303959" height="18.000000" filter="url(#ds)"/></a>
<a xlink:title="low_complexity"><rect fill="#C2DDFF" x="791.704981" y="85.777998" width="20.025543" height="18.000000" filter="url(#ds)"/></a>
<a xlink:title="low_complexity"><rect fill="#C2DDFF" x="837.477650" y="85.777998" width="30.038314" height="18.000000" filter="url(#ds)"/></a>
<a xlink:title="low_complexity"><rect fill="#C2DDFF" x="1117.835249" y="85.777998" width="11.443167" height="18.000000" filter="url(#ds)"/></a>
<g transform="translate(136.583653,82.777998)"><a xlink:href="https://pfam.xfam.org/family/PF18212" xlink:title="ZNRF-3 Ectodomain"><rect fill="#2dcf00" x="0" y="0" width="148.761175" height="24.000000" filter="url(#ds)"/></a></g>
<g transform="translate(401.206897,82.777998)"><a xlink:href="https://pfam.xfam.org/family/PF13639" xlink:title="Ring finger domain"><rect fill="#ff5353" x="0" y="0" width="61.507024" height="24.000000" filter="url(#ds)"/></a></g>
<g class="axis">
<line x1="15.000000" x2="1135.000000" y1="116.777998" y2="116.777998" stroke="#AAAAAA" /><line x1="15.000000" x2="15.000000" y1="116.777998" y2="121.777998" stroke="#AAAAAA" /><line x1="16.430396" x2="16.430396" y1="116.777998" y2="121.777998" stroke="#AAAAAA" /><text style="font-size:10px;font-family:Arial;fill:#000000;" text-anchor="middle" x="16.430396" y="131.777998">1</text><line x1="37.886335" x2="37.886335" y1="116.777998" y2="121.777998" stroke="#AAAAAA" /><text style="font-size:10px;font-family:Arial;fill:#000000;" text-anchor="middle" x="37.886335" y="131.777998">16</text><line x1="72.215837" x2="72.215837" y1="116.777998" y2="121.777998" stroke="#AAAAAA" /><text style="font-size:10px;font-family:Arial;fill:#000000;" text-anchor="middle" x="72.215837" y="131.777998">40</text><line x1="138.014049" x2="138.014049" y1="116.777998" y2="121.777998" stroke="#AAAAAA" /><text style="font-size:10px;font-family:Arial;fill:#000000;" text-anchor="middle" x="138.014049" y="131.777998">86</text><line x1="242.432950" x2="242.432950" y1="116.777998" y2="121.777998" stroke="#AAAAAA" /><text style="font-size:10px;font-family:Arial;fill:#000000;" text-anchor="middle" x="242.432950" y="131.777998">159</text><line x1="285.344828" x2="285.344828" y1="116.777998" y2="121.777998" stroke="#AAAAAA" /><text style="font-size:10px;font-family:Arial;fill:#000000;" text-anchor="middle" x="285.344828" y="131.777998">189</text><line x1="328.256705" x2="328.256705" y1="116.777998" y2="121.777998" stroke="#AAAAAA" /><text style="font-size:10px;font-family:Arial;fill:#000000;" text-anchor="middle" x="328.256705" y="131.777998">219</text><line x1="378.320562" x2="378.320562" y1="116.777998" y2="121.777998" stroke="#AAAAAA" /><text style="font-size:10px;font-family:Arial;fill:#000000;" text-anchor="middle" x="378.320562" y="131.777998">254</text><line x1="411.219668" x2="411.219668" y1="116.777998" y2="121.777998" stroke="#AAAAAA" /><text style="font-size:10px;font-family:Arial;fill:#000000;" text-anchor="middle" x="411.219668" y="131.777998">277</text><line x1="459.853129" x2="459.853129" y1="116.777998" y2="121.777998" stroke="#AAAAAA" /><text style="font-size:10px;font-family:Arial;fill:#000000;" text-anchor="middle" x="459.853129" y="131.777998">311</text><line x1="487.030651" x2="487.030651" y1="116.777998" y2="121.777998" stroke="#AAAAAA" /><text style="font-size:10px;font-family:Arial;fill:#000000;" text-anchor="middle" x="487.030651" y="131.777998">330</text><line x1="528.512133" x2="528.512133" y1="116.777998" y2="121.777998" stroke="#AAAAAA" /><text style="font-size:10px;font-family:Arial;fill:#000000;" text-anchor="middle" x="528.512133" y="131.777998">359</text><line x1="548.537676" x2="548.537676" y1="116.777998" y2="121.777998" stroke="#AAAAAA" /><text style="font-size:10px;font-family:Arial;fill:#000000;" text-anchor="middle" x="548.537676" y="131.777998">373</text><line x1="569.993614" x2="569.993614" y1="116.777998" y2="121.777998" stroke="#AAAAAA" /><text style="font-size:10px;font-family:Arial;fill:#000000;" text-anchor="middle" x="569.993614" y="131.777998">388</text><line x1="664.399745" x2="664.399745" y1="116.777998" y2="121.777998" stroke="#AAAAAA" /><text style="font-size:10px;font-family:Arial;fill:#000000;" text-anchor="middle" x="664.399745" y="131.777998">454</text><line x1="697.298851" x2="697.298851" y1="116.777998" y2="121.777998" stroke="#AAAAAA" /><text style="font-size:10px;font-family:Arial;fill:#000000;" text-anchor="middle" x="697.298851" y="131.777998">477</text><line x1="718.754789" x2="718.754789" y1="116.777998" y2="121.777998" stroke="#AAAAAA" /><text style="font-size:10px;font-family:Arial;fill:#000000;" text-anchor="middle" x="718.754789" y="131.777998">492</text><line x1="753.084291" x2="753.084291" y1="116.777998" y2="121.777998" stroke="#AAAAAA" /><text style="font-size:10px;font-family:Arial;fill:#000000;" text-anchor="middle" x="753.084291" y="131.777998">516</text><line x1="791.704981" x2="791.704981" y1="116.777998" y2="121.777998" stroke="#AAAAAA" /><text style="font-size:10px;font-family:Arial;fill:#000000;" text-anchor="middle" x="791.704981" y="131.777998">543</text><line x1="811.730524" x2="811.730524" y1="116.777998" y2="121.777998" stroke="#AAAAAA" /><text style="font-size:10px;font-family:Arial;fill:#000000;" text-anchor="middle" x="811.730524" y="131.777998">557</text><line x1="837.477650" x2="837.477650" y1="116.777998" y2="121.777998" stroke="#AAAAAA" /><text style="font-size:10px;font-family:Arial;fill:#000000;" text-anchor="middle" x="837.477650" y="131.777998">575</text><line x1="864.655172" x2="864.655172" y1="116.777998" y2="121.777998" stroke="#AAAAAA" /><text style="font-size:10px;font-family:Arial;fill:#000000;" text-anchor="middle" x="864.655172" y="131.777998">594</text><line x1="957.630907" x2="957.630907" y1="116.777998" y2="121.777998" stroke="#AAAAAA" /><text style="font-size:10px;font-family:Arial;fill:#000000;" text-anchor="middle" x="957.630907" y="131.777998">659</text><line x1="991.960409" x2="991.960409" y1="116.777998" y2="121.777998" stroke="#AAAAAA" /><text style="font-size:10px;font-family:Arial;fill:#000000;" text-anchor="middle" x="991.960409" y="131.777998">683</text><line x1="1017.707535" x2="1017.707535" y1="116.777998" y2="121.777998" stroke="#AAAAAA" /><text style="font-size:10px;font-family:Arial;fill:#000000;" text-anchor="middle" x="1017.707535" y="131.777998">701</text><line x1="1096.379310" x2="1096.379310" y1="116.777998" y2="121.777998" stroke="#AAAAAA" /><text style="font-size:10px;font-family:Arial;fill:#000000;" text-anchor="middle" x="1096.379310" y="131.777998">756</text><line x1="1135.000000" x2="1135.000000" y1="116.777998" y2="121.777998" stroke="#AAAAAA" /><text style="font-size:10px;font-family:Arial;fill:#000000;" text-anchor="middle" x="1135.000000" y="131.777998">783</text></g>
<rect fill="#FFD27F" x="4" y="145.777998" width="12" height="12" filter="url(#ds)"/><text style="font-size:12px;font-family:Arial;fill:#000000;" text-anchor="start" x="20" y="157.777998">Signal peptide region</text><rect fill="#FFA3A3" x="4" y="159.777998" width="12" height="12" filter="url(#ds)"/><text style="font-size:12px;font-family:Arial;fill:#000000;" text-anchor="start" x="20" y="171.777998">Transmembrane region</text><rect fill="#C2DDFF" x="4" y="173.777998" width="12" height="12" filter="url(#ds)"/><text style="font-size:12px;font-family:Arial;fill:#000000;" text-anchor="start" x="20" y="185.777998">Low complexity region</text><rect fill="#2dcf00" x="4" y="187.777998" width="12" height="12" filter="url(#ds)"/><text style="font-size:12px;font-family:Arial;fill:#000000;" text-anchor="start" x="20" y="199.777998">ZNRF-3 Ectodomain</text><rect fill="#ff5353" x="4" y="201.777998" width="12" height="12" filter="url(#ds)"/><text style="font-size:12px;font-family:Arial;fill:#000000;" text-anchor="start" x="20" y="213.777998">Ring finger domain</text></svg>
