<?xml version='1.0'?>
<svg xmlns="http://www.w3.org/2000/svg" xmlns:xlink="http://www.w3.org/1999/xlink" width="1000.000000" height="141.559370">
<defs>
  <filter id="ds" x="0" y="0">
    <feOffset in="SourceAlpha" dx="2" dy="2" />
    <feComponentTransfer><feFuncA type="linear" slope="0.2"/></feComponentTransfer>
    <feGaussianBlur result="blurOut" stdDeviation="1" />
    <feBlend in="SourceGraphic" in2="blurOut" mode="normal" />
  </filter>
  <pattern id="disordered-hatch" patternUnits="userSpaceOnUse" width="4" height="4">
    <path d="M-1,1 l2,-2 M0,4 l4,-4 M3,5 l2,-2" stroke="#000000" opacity="0.3" />
  </pattern>
</defs>
<line x1="40.350757" x2="40.350757" y1="49.559370" y2="77.559370" stroke="#BABDB6" stroke-width="2"/><a xlink:title="G19fs"><circle cx="40.350757" cy="49.559370" r="4.000000" fill="#228b22" /></a><line x1="57.696011" x2="57.696011" y1="49.559370" y2="77.559370" stroke="#BABDB6" stroke-width="2"/><a xlink:title="G32fs"><circle cx="57.696011" cy="49.559370" r="4.000000" fill="#228b22" /></a><line x1="79.044017" x2="79.044017" y1="49.559370" y2="77.559370" stroke="#BABDB6" stroke-width="2"/><a xlink:title="G48fs"><circle cx="79.044017" cy="49.559370" r="6.800437" fill="#228b22" /></a><line x1="197.792297" x2="197.792297" y1="49.559370" y2="77.559370" stroke="#BABDB6" stroke-width="2"/><a xlink:title="A137fs"><circle cx="197.792297" cy="49.559370" r="4.000000" fill="#228b22" /></a><line x1="257.833563" x2="257.833563" y1="37.059370" y2="77.559370" stroke="#BABDB6" stroke-width="2"/><a xlink:title="E182fs"><circle cx="257.833563" cy="37.059370" r="4.000000" fill="#228b22" /></a><line x1="263.170564" x2="263.170564" y1="49.559370" y2="77.559370" stroke="#BABDB6" stroke-width="2"/><a xlink:title="Q186fs"><circle cx="263.170564" cy="49.559370" r="4.000000" fill="#228b22" /></a><line x1="287.187070" x2="287.187070" y1="37.059370" y2="77.559370" stroke="#BABDB6" stroke-width="2"/><a xlink:title="T204fs"><circle cx="287.187070" cy="37.059370" r="10.019790" fill="#0000ff" /></a><line x1="289.855571" x2="289.855571" y1="49.559370" y2="77.559370" stroke="#BABDB6" stroke-width="2"/><a xlink:title="K206fs"><circle cx="289.855571" cy="49.559370" r="4.000000" fill="#228b22" /></a><line x1="311.203576" x2="311.203576" y1="49.559370" y2="77.559370" stroke="#BABDB6" stroke-width="2"/><a xlink:title="D222fs"><circle cx="311.203576" cy="49.559370" r="4.000000" fill="#228b22" /></a><line x1="357.902338" x2="357.902338" y1="49.559370" y2="77.559370" stroke="#BABDB6" stroke-width="2"/><a xlink:title="I257fs"><circle cx="357.902338" cy="49.559370" r="4.000000" fill="#228b22" /></a><line x1="413.940853" x2="413.940853" y1="49.559370" y2="77.559370" stroke="#BABDB6" stroke-width="2"/><a xlink:title="C299fs"><circle cx="413.940853" cy="49.559370" r="4.000000" fill="#228b22" /></a><line x1="437.957359" x2="437.957359" y1="28.658058" y2="77.559370" stroke="#BABDB6" stroke-width="2"/><a xlink:title="T317fs"><circle cx="437.957359" cy="28.658058" r="5.354265" fill="#228b22" /></a><line x1="439.291609" x2="439.291609" y1="49.559370" y2="77.559370" stroke="#BABDB6" stroke-width="2"/><a xlink:title="G318fs"><circle cx="439.291609" cy="49.559370" r="6.800437" fill="#228b22" /></a><line x1="492.661623" x2="492.661623" y1="49.559370" y2="77.559370" stroke="#BABDB6" stroke-width="2"/><a xlink:title="Y358fs"><circle cx="492.661623" cy="49.559370" r="4.000000" fill="#228b22" /></a><line x1="535.357634" x2="535.357634" y1="49.559370" y2="77.559370" stroke="#BABDB6" stroke-width="2"/><a xlink:title="D390fs"><circle cx="535.357634" cy="49.559370" r="4.000000" fill="#228b22" /></a><line x1="584.724897" x2="584.724897" y1="49.559370" y2="77.559370" stroke="#BABDB6" stroke-width="2"/><a xlink:title="L427fs"><circle cx="584.724897" cy="49.559370" r="4.000000" fill="#228b22" /></a><line x1="591.396149" x2="591.396149" y1="49.559370" y2="77.559370" stroke="#BABDB6" stroke-width="2"/><a xlink:title="E432fs"><circle cx="591.396149" cy="49.559370" r="4.000000" fill="#228b22" /></a><line x1="611.409904" x2="611.409904" y1="32.996576" y2="77.559370" stroke="#BABDB6" stroke-width="2"/><a xlink:title="A447fs"><circle cx="611.409904" cy="32.996576" r="4.000000" fill="#228b22" /></a><line x1="615.412655" x2="615.412655" y1="49.559370" y2="77.559370" stroke="#BABDB6" stroke-width="2"/><a xlink:title="S450fs"><circle cx="615.412655" cy="49.559370" r="5.354265" fill="#228b22" /></a><line x1="642.097662" x2="642.097662" y1="49.559370" y2="77.559370" stroke="#BABDB6" stroke-width="2"/><a xlink:title="R470fs"><circle cx="642.097662" cy="49.559370" r="4.000000" fill="#228b22" /></a><line x1="820.887208" x2="820.887208" y1="49.559370" y2="77.559370" stroke="#BABDB6" stroke-width="2"/><a xlink:title="S604fs"><circle cx="820.887208" cy="49.559370" r="4.000000" fill="#228b22" /></a><line x1="858.246217" x2="858.246217" y1="49.559370" y2="77.559370" stroke="#BABDB6" stroke-width="2"/><a xlink:title="I632fs"><circle cx="858.246217" cy="49.559370" r="4.000000" fill="#228b22" /></a><line x1="936.966988" x2="936.966988" y1="49.559370" y2="77.559370" stroke="#BABDB6" stroke-width="2"/><a xlink:title="E691fs"><circle cx="936.966988" cy="49.559370" r="5.354265" fill="#228b22" /></a><a xlink:title="CTCF_HUMAN, Transcriptional repressor CTCF (727aa)"><rect fill="#BABDB6" x="15.000000" y="77.559370" width="970.000000" height="14.000000"/></a><g transform="translate(369.910591,72.559370)"><a xlink:href="https://pfam.xfam.org/family/PF00096" xlink:title="Zinc finger, C2H2 type"><rect fill="#2dcf00" x="0" y="0" width="29.353508" height="24.000000" filter="url(#ds)"/></a></g>
<g transform="translate(407.269601,72.559370)"><a xlink:href="https://pfam.xfam.org/family/PF00096" xlink:title="Zinc finger, C2H2 type"><rect fill="#2dcf00" x="0" y="0" width="29.353508" height="24.000000" filter="url(#ds)"/></a></g>
<g transform="translate(444.628611,72.559370)"><a xlink:href="https://pfam.xfam.org/family/PF00096" xlink:title="Zinc finger, C2H2 type"><rect fill="#2dcf00" x="0" y="0" width="30.687758" height="24.000000" filter="url(#ds)"/></a></g>
<g transform="translate(483.321871,72.559370)"><a xlink:href="https://pfam.xfam.org/family/PF13909" xlink:title="C2H2-type zinc-finger domain"><rect fill="#ff5353" x="0" y="0" width="32.022008" height="24.000000" filter="url(#ds)"/></a></g>
<g transform="translate(520.680880,72.559370)"><a xlink:href="https://pfam.xfam.org/family/PF00096" xlink:title="Zinc finger, C2H2 type"><rect fill="#2dcf00" x="0" y="0" width="29.353508" height="24.000000" filter="url(#ds)"/></a></g>
<g transform="translate(598.067400,72.559370)"><a xlink:href="https://pfam.xfam.org/family/PF00096" xlink:title="Zinc finger, C2H2 type"><rect fill="#2dcf00" x="0" y="0" width="30.687758" height="24.000000" filter="url(#ds)"/></a></g>
<g transform="translate(755.508941,72.559370)"><a xlink:href="https://pfam.xfam.org/family/PF00096" xlink:title="Zinc finger, C2H2 type"><rect fill="#2dcf00" x="0" y="0" width="26.685007" height="24.000000" filter="url(#ds)"/></a></g>
<g class="axis">
<line x1="15.000000" x2="985.000000" y1="106.559370" y2="106.559370" stroke="#AAAAAA" /><line x1="15.000000" x2="15.000000" y1="106.559370" y2="111.559370" stroke="#AAAAAA" /><line x1="15.000000" x2="15.000000" y1="106.559370" y2="111.559370" stroke="#AAAAAA" /><text style="font-size:10px;font-family:Arial;fill:#000000;" text-anchor="middle" x="15.000000" y="121.559370">0</text><line x1="40.350757" x2="40.350757" y1="106.559370" y2="111.559370" stroke="#AAAAAA" /><text style="font-size:10px;font-family:Arial;fill:#000000;" text-anchor="middle" x="40.350757" y="121.559370">19</text><line x1="79.044017" x2="79.044017" y1="106.559370" y2="111.559370" stroke="#AAAAAA" /><text style="font-size:10px;font-family:Arial;fill:#000000;" text-anchor="middle" x="79.044017" y="121.559370">48</text><line x1="197.792297" x2="197.792297" y1="106.559370" y2="111.559370" stroke="#AAAAAA" /><text style="font-size:10px;font-family:Arial;fill:#000000;" text-anchor="middle" x="197.792297" y="121.559370">137</text><line x1="257.833563" x2="257.833563" y1="106.559370" y2="111.559370" stroke="#AAAAAA" /><text style="font-size:10px;font-family:Arial;fill:#000000;" text-anchor="middle" x="257.833563" y="121.559370">182</text><line x1="287.187070" x2="287.187070" y1="106.559370" y2="111.559370" stroke="#AAAAAA" /><text style="font-size:10px;font-family:Arial;fill:#000000;" text-anchor="middle" x="287.187070" y="121.559370">204</text><line x1="311.203576" x2="311.203576" y1="106.559370" y2="111.559370" stroke="#AAAAAA" /><text style="font-size:10px;font-family:Arial;fill:#000000;" text-anchor="middle" x="311.203576" y="121.559370">222</text><line x1="357.902338" x2="357.902338" y1="106.559370" y2="111.559370" stroke="#AAAAAA" /><text style="font-size:10px;font-family:Arial;fill:#000000;" text-anchor="middle" x="357.902338" y="121.559370">257</text><line x1="413.940853" x2="413.940853" y1="106.559370" y2="111.559370" stroke="#AAAAAA" /><text style="font-size:10px;font-family:Arial;fill:#000000;" text-anchor="middle" x="413.940853" y="121.559370">299</text><line x1="437.957359" x2="437.957359" y1="106.559370" y2="111.559370" stroke="#AAAAAA" /><text style="font-size:10px;font-family:Arial;fill:#000000;" text-anchor="middle" x="437.957359" y="121.559370">317</text><line x1="492.661623" x2="492.661623" y1="106.559370" y2="111.559370" stroke="#AAAAAA" /><text style="font-size:10px;font-family:Arial;fill:#000000;" text-anchor="middle" x="492.661623" y="121.559370">358</text><line x1="515.343879" x2="515.343879" y1="106.559370" y2="111.559370" stroke="#AAAAAA" /><text style="font-size:10px;font-family:Arial;fill:#000000;" text-anchor="middle" x="515.343879" y="121.559370">375</text><line x1="535.357634" x2="535.357634" y1="106.559370" y2="111.559370" stroke="#AAAAAA" /><text style="font-size:10px;font-family:Arial;fill:#000000;" text-anchor="middle" x="535.357634" y="121.559370">390</text><line x1="584.724897" x2="584.724897" y1="106.559370" y2="111.559370" stroke="#AAAAAA" /><text style="font-size:10px;font-family:Arial;fill:#000000;" text-anchor="middle" x="584.724897" y="121.559370">427</text><line x1="611.409904" x2="611.409904" y1="106.559370" y2="111.559370" stroke="#AAAAAA" /><text style="font-size:10px;font-family:Arial;fill:#000000;" text-anchor="middle" x="611.409904" y="121.559370">447</text><line x1="642.097662" x2="642.097662" y1="106.559370" y2="111.559370" stroke="#AAAAAA" /><text style="font-size:10px;font-family:Arial;fill:#000000;" text-anchor="middle" x="642.097662" y="121.559370">470</text><line x1="755.508941" x2="755.508941" y1="106.559370" y2="111.559370" stroke="#AAAAAA" /><text style="font-size:10px;font-family:Arial;fill:#000000;" text-anchor="middle" x="755.508941" y="121.559370">555</text><line x1="782.193948" x2="782.193948" y1="106.559370" y2="111.559370" stroke="#AAAAAA" /><text style="font-size:10px;font-family:Arial;fill:#000000;" text-anchor="middle" x="782.193948" y="121.559370">575</text><line x1="820.887208" x2="820.887208" y1="106.559370" y2="111.559370" stroke="#AAAAAA" /><text style="font-size:10px;font-family:Arial;fill:#000000;" text-anchor="middle" x="820.887208" y="121.559370">604</text><line x1="858.246217" x2="858.246217" y1="106.559370" y2="111.559370" stroke="#AAAAAA" /><text style="font-size:10px;font-family:Arial;fill:#000000;" text-anchor="middle" x="858.246217" y="121.559370">632</text><line x1="936.966988" x2="936.966988" y1="106.559370" y2="111.559370" stroke="#AAAAAA" /><text style="font-size:10px;font-family:Arial;fill:#000000;" text-anchor="middle" x="936.966988" y="121.559370">691</text><line x1="985.000000" x2="985.000000" y1="106.559370" y2="111.559370" stroke="#AAAAAA" /><text style="font-size:10px;font-family:Arial;fill:#000000;" text-anchor="middle" x="985.000000" y="121.559370">727</text></g>
</svg>
