<?xml version='1.0'?>
<svg xmlns="http://www.w3.org/2000/svg" xmlns:xlink="http://www.w3.org/1999/xlink" width="1000.000000" height="111.000000">
<defs>
  <filter id="ds" x="0" y="0">
    <feOffset in="SourceAlpha" dx="2" dy="2" />
    <feComponentTransfer><feFuncA type="linear" slope="0.2"/></feComponentTransfer>
    <feGaussianBlur result="blurOut" stdDeviation="1" />
    <feBlend in="SourceGraphic" in2="blurOut" mode="normal" />
  </filter>
  <pattern id="disordered-hatch" patternUnits="userSpaceOnUse" width="4" height="4">
    <path d="M-1,1 l2,-2 M0,4 l4,-4 M3,5 l2,-2" stroke="#000000" opacity="0.3" />
  </pattern>
</defs>
<line x1="229.241192" x2="229.241192" y1="19.000000" y2="47.000000" stroke="#BABDB6" stroke-width="2"/><a xlink:title="T163fs"><circle cx="229.241192" cy="19.000000" r="10.087278" fill="#0000ff" /></a><line x1="475.027100" x2="475.027100" y1="19.000000" y2="47.000000" stroke="#BABDB6" stroke-width="2"/><a xlink:title="Q350fs"><circle cx="475.027100" cy="19.000000" r="4.000000" fill="#228b22" /></a><line x1="953.455285" x2="953.455285" y1="19.000000" y2="47.000000" stroke="#BABDB6" stroke-width="2"/><a xlink:title="G714fs"><circle cx="953.455285" cy="19.000000" r="4.000000" fill="#228b22" /></a><a xlink:title="LAR4B_HUMAN, La-related protein 4B (738aa)"><rect fill="#BABDB6" x="15.000000" y="47.000000" width="970.000000" height="14.000000"/></a><g transform="translate(225.298103,42.000000)"><a xlink:href="https://pfam.xfam.org/family/PF05383" xlink:title="La domain"><rect fill="#2dcf00" x="0" y="0" width="73.604336" height="24.000000" filter="url(#ds)"/></a></g>
<g class="axis">
<line x1="15.000000" x2="985.000000" y1="76.000000" y2="76.000000" stroke="#AAAAAA" /><line x1="15.000000" x2="15.000000" y1="76.000000" y2="81.000000" stroke="#AAAAAA" /><line x1="15.000000" x2="15.000000" y1="76.000000" y2="81.000000" stroke="#AAAAAA" /><text style="font-size:10px;font-family:Arial;fill:#000000;" text-anchor="middle" x="15.000000" y="91.000000">0</text><line x1="229.241192" x2="229.241192" y1="76.000000" y2="81.000000" stroke="#AAAAAA" /><text style="font-size:10px;font-family:Arial;fill:#000000;" text-anchor="middle" x="229.241192" y="91.000000">163</text><line x1="298.902439" x2="298.902439" y1="76.000000" y2="81.000000" stroke="#AAAAAA" /><text style="font-size:10px;font-family:Arial;fill:#000000;" text-anchor="middle" x="298.902439" y="91.000000">216</text><line x1="475.027100" x2="475.027100" y1="76.000000" y2="81.000000" stroke="#AAAAAA" /><text style="font-size:10px;font-family:Arial;fill:#000000;" text-anchor="middle" x="475.027100" y="91.000000">350</text><line x1="953.455285" x2="953.455285" y1="76.000000" y2="81.000000" stroke="#AAAAAA" /><text style="font-size:10px;font-family:Arial;fill:#000000;" text-anchor="middle" x="953.455285" y="91.000000">714</text><line x1="985.000000" x2="985.000000" y1="76.000000" y2="81.000000" stroke="#AAAAAA" /><text style="font-size:10px;font-family:Arial;fill:#000000;" text-anchor="middle" x="985.000000" y="91.000000">738</text></g>
</svg>
