<?xml version='1.0'?>
<svg xmlns="http://www.w3.org/2000/svg" xmlns:xlink="http://www.w3.org/1999/xlink" width="1000.000000" height="181.599299">
<defs>
  <filter id="ds" x="0" y="0">
    <feOffset in="SourceAlpha" dx="2" dy="2" />
    <feComponentTransfer><feFuncA type="linear" slope="0.2"/></feComponentTransfer>
    <feGaussianBlur result="blurOut" stdDeviation="1" />
    <feBlend in="SourceGraphic" in2="blurOut" mode="normal" />
  </filter>
  <pattern id="disordered-hatch" patternUnits="userSpaceOnUse" width="4" height="4">
    <path d="M-1,1 l2,-2 M0,4 l4,-4 M3,5 l2,-2" stroke="#000000" opacity="0.3" />
  </pattern>
</defs>
<line x1="74.463602" x2="74.463602" y1="77.099299" y2="117.599299" stroke="#BABDB6" stroke-width="2"/><a xlink:title="I48fs"><circle cx="74.463602" cy="77.099299" r="4.000000" fill="#228b22" /></a><line x1="75.702427" x2="75.702427" y1="89.599299" y2="117.599299" stroke="#BABDB6" stroke-width="2"/><a xlink:title="R49fs"><circle cx="75.702427" cy="89.599299" r="4.000000" fill="#228b22" /></a><line x1="209.495530" x2="209.495530" y1="89.599299" y2="117.599299" stroke="#BABDB6" stroke-width="2"/><a xlink:title="L157fs"><circle cx="209.495530" cy="89.599299" r="4.000000" fill="#228b22" /></a><line x1="221.883780" x2="221.883780" y1="89.599299" y2="117.599299" stroke="#BABDB6" stroke-width="2"/><a xlink:title="N167fs"><circle cx="221.883780" cy="89.599299" r="4.000000" fill="#228b22" /></a><line x1="252.854406" x2="252.854406" y1="89.599299" y2="117.599299" stroke="#BABDB6" stroke-width="2"/><a xlink:title="P192fs"><circle cx="252.854406" cy="89.599299" r="4.000000" fill="#228b22" /></a><line x1="293.735632" x2="293.735632" y1="89.599299" y2="117.599299" stroke="#BABDB6" stroke-width="2"/><a xlink:title="R225fs"><circle cx="293.735632" cy="89.599299" r="4.000000" fill="#228b22" /></a><line x1="339.572158" x2="339.572158" y1="89.599299" y2="117.599299" stroke="#BABDB6" stroke-width="2"/><a xlink:title="S262fs"><circle cx="339.572158" cy="89.599299" r="4.000000" fill="#228b22" /></a><line x1="389.125160" x2="389.125160" y1="89.599299" y2="117.599299" stroke="#BABDB6" stroke-width="2"/><a xlink:title="W302fs"><circle cx="389.125160" cy="89.599299" r="4.000000" fill="#228b22" /></a><line x1="400.274585" x2="400.274585" y1="89.599299" y2="117.599299" stroke="#BABDB6" stroke-width="2"/><a xlink:title="L311fs"><circle cx="400.274585" cy="89.599299" r="6.194056" fill="#228b22" /></a><line x1="473.365262" x2="473.365262" y1="89.599299" y2="117.599299" stroke="#BABDB6" stroke-width="2"/><a xlink:title="P370fs"><circle cx="473.365262" cy="89.599299" r="4.000000" fill="#228b22" /></a><line x1="561.321839" x2="561.321839" y1="89.599299" y2="117.599299" stroke="#BABDB6" stroke-width="2"/><a xlink:title="P441fs"><circle cx="561.321839" cy="89.599299" r="5.354265" fill="#228b22" /></a><line x1="577.426564" x2="577.426564" y1="89.599299" y2="117.599299" stroke="#BABDB6" stroke-width="2"/><a xlink:title="R454fs"><circle cx="577.426564" cy="89.599299" r="4.000000" fill="#228b22" /></a><line x1="654.233716" x2="654.233716" y1="89.599299" y2="117.599299" stroke="#BABDB6" stroke-width="2"/><a xlink:title="D516fs"><circle cx="654.233716" cy="89.599299" r="5.354265" fill="#228b22" /></a><line x1="729.802043" x2="729.802043" y1="89.599299" y2="117.599299" stroke="#BABDB6" stroke-width="2"/><a xlink:title="Q577fs"><circle cx="729.802043" cy="89.599299" r="4.000000" fill="#228b22" /></a><line x1="831.385696" x2="831.385696" y1="64.599299" y2="117.599299" stroke="#BABDB6" stroke-width="2"/><a xlink:title="G659fs"><circle cx="831.385696" cy="64.599299" r="11.599883" fill="#0000ff" /></a><line x1="832.624521" x2="832.624521" y1="77.099299" y2="117.599299" stroke="#BABDB6" stroke-width="2"/><a xlink:title="P660fs"><circle cx="832.624521" cy="77.099299" r="4.000000" fill="#228b22" /></a><line x1="833.863346" x2="833.863346" y1="89.599299" y2="117.599299" stroke="#BABDB6" stroke-width="2"/><a xlink:title="S661fs"><circle cx="833.863346" cy="89.599299" r="4.000000" fill="#228b22" /></a><line x1="861.117497" x2="861.117497" y1="89.599299" y2="117.599299" stroke="#BABDB6" stroke-width="2"/><a xlink:title="H683fs"><circle cx="861.117497" cy="89.599299" r="4.000000" fill="#228b22" /></a><a xlink:title="RNF43_HUMAN, E3 ubiquitin-protein ligase RNF43 EC=2.3.2.27 (783aa)"><rect fill="#BABDB6" x="15.000000" y="117.599299" width="970.000000" height="14.000000"/></a><g transform="translate(120.300128,112.599299)"><a xlink:href="https://pfam.xfam.org/family/PF18212" xlink:title="ZNRF-3 Ectodomain"><rect fill="#2dcf00" x="0" y="0" width="128.837803" height="24.000000" filter="url(#ds)"/></a></g>
<g transform="translate(349.482759,112.599299)"><a xlink:href="https://pfam.xfam.org/family/PF13639" xlink:title="Ring finger domain"><rect fill="#ff5353" x="0" y="0" width="53.269476" height="24.000000" filter="url(#ds)"/></a></g>
<g class="axis">
<line x1="15.000000" x2="985.000000" y1="146.599299" y2="146.599299" stroke="#AAAAAA" /><line x1="15.000000" x2="15.000000" y1="146.599299" y2="151.599299" stroke="#AAAAAA" /><line x1="15.000000" x2="15.000000" y1="146.599299" y2="151.599299" stroke="#AAAAAA" /><text style="font-size:10px;font-family:Arial;fill:#000000;" text-anchor="middle" x="15.000000" y="161.599299">0</text><line x1="74.463602" x2="74.463602" y1="146.599299" y2="151.599299" stroke="#AAAAAA" /><text style="font-size:10px;font-family:Arial;fill:#000000;" text-anchor="middle" x="74.463602" y="161.599299">48</text><line x1="120.300128" x2="120.300128" y1="146.599299" y2="151.599299" stroke="#AAAAAA" /><text style="font-size:10px;font-family:Arial;fill:#000000;" text-anchor="middle" x="120.300128" y="161.599299">85</text><line x1="209.495530" x2="209.495530" y1="146.599299" y2="151.599299" stroke="#AAAAAA" /><text style="font-size:10px;font-family:Arial;fill:#000000;" text-anchor="middle" x="209.495530" y="161.599299">157</text><line x1="252.854406" x2="252.854406" y1="146.599299" y2="151.599299" stroke="#AAAAAA" /><text style="font-size:10px;font-family:Arial;fill:#000000;" text-anchor="middle" x="252.854406" y="161.599299">192</text><line x1="293.735632" x2="293.735632" y1="146.599299" y2="151.599299" stroke="#AAAAAA" /><text style="font-size:10px;font-family:Arial;fill:#000000;" text-anchor="middle" x="293.735632" y="161.599299">225</text><line x1="339.572158" x2="339.572158" y1="146.599299" y2="151.599299" stroke="#AAAAAA" /><text style="font-size:10px;font-family:Arial;fill:#000000;" text-anchor="middle" x="339.572158" y="161.599299">262</text><line x1="389.125160" x2="389.125160" y1="146.599299" y2="151.599299" stroke="#AAAAAA" /><text style="font-size:10px;font-family:Arial;fill:#000000;" text-anchor="middle" x="389.125160" y="161.599299">302</text><line x1="473.365262" x2="473.365262" y1="146.599299" y2="151.599299" stroke="#AAAAAA" /><text style="font-size:10px;font-family:Arial;fill:#000000;" text-anchor="middle" x="473.365262" y="161.599299">370</text><line x1="561.321839" x2="561.321839" y1="146.599299" y2="151.599299" stroke="#AAAAAA" /><text style="font-size:10px;font-family:Arial;fill:#000000;" text-anchor="middle" x="561.321839" y="161.599299">441</text><line x1="654.233716" x2="654.233716" y1="146.599299" y2="151.599299" stroke="#AAAAAA" /><text style="font-size:10px;font-family:Arial;fill:#000000;" text-anchor="middle" x="654.233716" y="161.599299">516</text><line x1="729.802043" x2="729.802043" y1="146.599299" y2="151.599299" stroke="#AAAAAA" /><text style="font-size:10px;font-family:Arial;fill:#000000;" text-anchor="middle" x="729.802043" y="161.599299">577</text><line x1="831.385696" x2="831.385696" y1="146.599299" y2="151.599299" stroke="#AAAAAA" /><text style="font-size:10px;font-family:Arial;fill:#000000;" text-anchor="middle" x="831.385696" y="161.599299">659</text><line x1="861.117497" x2="861.117497" y1="146.599299" y2="151.599299" stroke="#AAAAAA" /><text style="font-size:10px;font-family:Arial;fill:#000000;" text-anchor="middle" x="861.117497" y="161.599299">683</text><line x1="985.000000" x2="985.000000" y1="146.599299" y2="151.599299" stroke="#AAAAAA" /><text style="font-size:10px;font-family:Arial;fill:#000000;" text-anchor="middle" x="985.000000" y="161.599299">783</text></g>
</svg>
