<?xml version='1.0'?>
<svg xmlns="http://www.w3.org/2000/svg" xmlns:xlink="http://www.w3.org/1999/xlink" width="1000.000000" height="111.000000">
<defs>
  <filter id="ds" x="0" y="0">
    <feOffset in="SourceAlpha" dx="2" dy="2" />
    <feComponentTransfer><feFuncA type="linear" slope="0.2"/></feComponentTransfer>
    <feGaussianBlur result="blurOut" stdDeviation="1" />
    <feBlend in="SourceGraphic" in2="blurOut" mode="normal" />
  </filter>
  <pattern id="disordered-hatch" patternUnits="userSpaceOnUse" width="4" height="4">
    <path d="M-1,1 l2,-2 M0,4 l4,-4 M3,5 l2,-2" stroke="#000000" opacity="0.3" />
  </pattern>
</defs>
<line x1="134.262295" x2="134.262295" y1="19.000000" y2="47.000000" stroke="#BABDB6" stroke-width="2"/><a xlink:title="K15fs"><circle cx="134.262295" cy="19.000000" r="11.736095" fill="#0000ff" /></a><line x1="722.622951" x2="722.622951" y1="19.000000" y2="47.000000" stroke="#BABDB6" stroke-width="2"/><a xlink:title="K89fs"><circle cx="722.622951" cy="19.000000" r="6.800437" fill="#228b22" /></a><line x1="730.573770" x2="730.573770" y1="19.000000" y2="47.000000" stroke="#BABDB6" stroke-width="2"/><a xlink:title="Y90fs"><circle cx="730.573770" cy="19.000000" r="4.000000" fill="#228b22" /></a><a xlink:title="RL22L_HUMAN, 60S ribosomal protein L22-like 1 (122aa)"><rect fill="#BABDB6" x="15.000000" y="47.000000" width="970.000000" height="14.000000"/></a><g transform="translate(102.459016,42.000000)"><a xlink:href="https://pfam.xfam.org/family/PF01776" xlink:title="Ribosomal L22e protein family"><rect fill="#2dcf00" x="0" y="0" width="850.737705" height="24.000000" filter="url(#ds)"/></a></g>
<g class="axis">
<line x1="15.000000" x2="985.000000" y1="76.000000" y2="76.000000" stroke="#AAAAAA" /><line x1="15.000000" x2="15.000000" y1="76.000000" y2="81.000000" stroke="#AAAAAA" /><line x1="15.000000" x2="15.000000" y1="76.000000" y2="81.000000" stroke="#AAAAAA" /><text style="font-size:10px;font-family:Arial;fill:#000000;" text-anchor="middle" x="15.000000" y="91.000000">0</text><line x1="102.459016" x2="102.459016" y1="76.000000" y2="81.000000" stroke="#AAAAAA" /><text style="font-size:10px;font-family:Arial;fill:#000000;" text-anchor="middle" x="102.459016" y="91.000000">11</text><line x1="134.262295" x2="134.262295" y1="76.000000" y2="81.000000" stroke="#AAAAAA" /><text style="font-size:10px;font-family:Arial;fill:#000000;" text-anchor="middle" x="134.262295" y="91.000000">15</text><line x1="722.622951" x2="722.622951" y1="76.000000" y2="81.000000" stroke="#AAAAAA" /><text style="font-size:10px;font-family:Arial;fill:#000000;" text-anchor="middle" x="722.622951" y="91.000000">89</text><line x1="953.196721" x2="953.196721" y1="76.000000" y2="81.000000" stroke="#AAAAAA" /><text style="font-size:10px;font-family:Arial;fill:#000000;" text-anchor="middle" x="953.196721" y="91.000000">118</text><line x1="985.000000" x2="985.000000" y1="76.000000" y2="81.000000" stroke="#AAAAAA" /><text style="font-size:10px;font-family:Arial;fill:#000000;" text-anchor="middle" x="985.000000" y="91.000000">122</text></g>
</svg>
