<?xml version='1.0'?>
<svg xmlns="http://www.w3.org/2000/svg" xmlns:xlink="http://www.w3.org/1999/xlink" width="1000.000000" height="147.756910">
<defs>
  <filter id="ds" x="0" y="0">
    <feOffset in="SourceAlpha" dx="2" dy="2" />
    <feComponentTransfer><feFuncA type="linear" slope="0.2"/></feComponentTransfer>
    <feGaussianBlur result="blurOut" stdDeviation="1" />
    <feBlend in="SourceGraphic" in2="blurOut" mode="normal" />
  </filter>
  <pattern id="disordered-hatch" patternUnits="userSpaceOnUse" width="4" height="4">
    <path d="M-1,1 l2,-2 M0,4 l4,-4 M3,5 l2,-2" stroke="#000000" opacity="0.3" />
  </pattern>
</defs>
<line x1="30.126706" x2="30.126706" y1="55.756910" y2="83.756910" stroke="#BABDB6" stroke-width="2"/><a xlink:title="A8fs"><circle cx="30.126706" cy="55.756910" r="4.000000" fill="#228b22" /></a><line x1="50.925926" x2="50.925926" y1="55.756910" y2="83.756910" stroke="#BABDB6" stroke-width="2"/><a xlink:title="G19fs"><circle cx="50.925926" cy="55.756910" r="4.000000" fill="#228b22" /></a><line x1="196.520468" x2="196.520468" y1="55.756910" y2="83.756910" stroke="#BABDB6" stroke-width="2"/><a xlink:title="D96fs"><circle cx="196.520468" cy="55.756910" r="9.622388" fill="#0000ff" /></a><line x1="255.136452" x2="255.136452" y1="55.756910" y2="83.756910" stroke="#BABDB6" stroke-width="2"/><a xlink:title="S127fs"><circle cx="255.136452" cy="55.756910" r="4.000000" fill="#228b22" /></a><line x1="359.132554" x2="359.132554" y1="55.756910" y2="83.756910" stroke="#BABDB6" stroke-width="2"/><a xlink:title="P182fs"><circle cx="359.132554" cy="55.756910" r="4.000000" fill="#228b22" /></a><line x1="463.128655" x2="463.128655" y1="55.756910" y2="83.756910" stroke="#BABDB6" stroke-width="2"/><a xlink:title="S237fs"><circle cx="463.128655" cy="55.756910" r="4.000000" fill="#228b22" /></a><line x1="551.998051" x2="551.998051" y1="55.756910" y2="83.756910" stroke="#BABDB6" stroke-width="2"/><a xlink:title="V284fs"><circle cx="551.998051" cy="55.756910" r="4.000000" fill="#228b22" /></a><line x1="833.732943" x2="833.732943" y1="55.756910" y2="83.756910" stroke="#BABDB6" stroke-width="2"/><a xlink:title="V433fs"><circle cx="833.732943" cy="55.756910" r="4.000000" fill="#228b22" /></a><line x1="841.296296" x2="841.296296" y1="36.674743" y2="83.756910" stroke="#BABDB6" stroke-width="2"/><a xlink:title="K437fs"><circle cx="841.296296" cy="36.674743" r="12.085637" fill="#0000ff" /></a><line x1="843.187135" x2="843.187135" y1="55.756910" y2="83.756910" stroke="#BABDB6" stroke-width="2"/><a xlink:title="R438fs"><circle cx="843.187135" cy="55.756910" r="6.194056" fill="#228b22" /></a><line x1="863.986355" x2="863.986355" y1="55.756910" y2="83.756910" stroke="#BABDB6" stroke-width="2"/><a xlink:title="A449fs"><circle cx="863.986355" cy="55.756910" r="4.000000" fill="#228b22" /></a><line x1="907.475634" x2="907.475634" y1="43.256910" y2="83.756910" stroke="#BABDB6" stroke-width="2"/><a xlink:title="A472fs"><circle cx="907.475634" cy="43.256910" r="4.000000" fill="#228b22" /></a><line x1="909.366472" x2="909.366472" y1="55.756910" y2="83.756910" stroke="#BABDB6" stroke-width="2"/><a xlink:title="G473fs"><circle cx="909.366472" cy="55.756910" r="4.000000" fill="#228b22" /></a><a xlink:title="AVR2A_HUMAN, Activin receptor type-2A EC=2.7.11.30 (513aa)"><rect fill="#BABDB6" x="15.000000" y="83.756910" width="970.000000" height="14.000000"/></a><g transform="translate(58.489279,78.756910)"><a xlink:href="https://pfam.xfam.org/family/PF01064" xlink:title="Activin types I and II receptor domain"><rect fill="#2dcf00" x="0" y="0" width="172.066277" height="24.000000" filter="url(#ds)"/></a></g>
<g transform="translate(385.604288,78.756910)"><a xlink:href="https://pfam.xfam.org/family/PF00069" xlink:title="Protein kinase domain"><rect fill="#ff5353" x="0" y="0" width="538.888889" height="24.000000" filter="url(#ds)"/></a></g>
<g class="axis">
<line x1="15.000000" x2="985.000000" y1="112.756910" y2="112.756910" stroke="#AAAAAA" /><line x1="15.000000" x2="15.000000" y1="112.756910" y2="117.756910" stroke="#AAAAAA" /><line x1="30.126706" x2="30.126706" y1="112.756910" y2="117.756910" stroke="#AAAAAA" /><text style="font-size:10px;font-family:Arial;fill:#000000;" text-anchor="middle" x="30.126706" y="127.756910">8</text><line x1="50.925926" x2="50.925926" y1="112.756910" y2="117.756910" stroke="#AAAAAA" /><text style="font-size:10px;font-family:Arial;fill:#000000;" text-anchor="middle" x="50.925926" y="127.756910">19</text><line x1="196.520468" x2="196.520468" y1="112.756910" y2="117.756910" stroke="#AAAAAA" /><text style="font-size:10px;font-family:Arial;fill:#000000;" text-anchor="middle" x="196.520468" y="127.756910">96</text><line x1="230.555556" x2="230.555556" y1="112.756910" y2="117.756910" stroke="#AAAAAA" /><text style="font-size:10px;font-family:Arial;fill:#000000;" text-anchor="middle" x="230.555556" y="127.756910">114</text><line x1="255.136452" x2="255.136452" y1="112.756910" y2="117.756910" stroke="#AAAAAA" /><text style="font-size:10px;font-family:Arial;fill:#000000;" text-anchor="middle" x="255.136452" y="127.756910">127</text><line x1="359.132554" x2="359.132554" y1="112.756910" y2="117.756910" stroke="#AAAAAA" /><text style="font-size:10px;font-family:Arial;fill:#000000;" text-anchor="middle" x="359.132554" y="127.756910">182</text><line x1="385.604288" x2="385.604288" y1="112.756910" y2="117.756910" stroke="#AAAAAA" /><text style="font-size:10px;font-family:Arial;fill:#000000;" text-anchor="middle" x="385.604288" y="127.756910">196</text><line x1="463.128655" x2="463.128655" y1="112.756910" y2="117.756910" stroke="#AAAAAA" /><text style="font-size:10px;font-family:Arial;fill:#000000;" text-anchor="middle" x="463.128655" y="127.756910">237</text><line x1="551.998051" x2="551.998051" y1="112.756910" y2="117.756910" stroke="#AAAAAA" /><text style="font-size:10px;font-family:Arial;fill:#000000;" text-anchor="middle" x="551.998051" y="127.756910">284</text><line x1="833.732943" x2="833.732943" y1="112.756910" y2="117.756910" stroke="#AAAAAA" /><text style="font-size:10px;font-family:Arial;fill:#000000;" text-anchor="middle" x="833.732943" y="127.756910">433</text><line x1="863.986355" x2="863.986355" y1="112.756910" y2="117.756910" stroke="#AAAAAA" /><text style="font-size:10px;font-family:Arial;fill:#000000;" text-anchor="middle" x="863.986355" y="127.756910">449</text><line x1="907.475634" x2="907.475634" y1="112.756910" y2="117.756910" stroke="#AAAAAA" /><text style="font-size:10px;font-family:Arial;fill:#000000;" text-anchor="middle" x="907.475634" y="127.756910">472</text><line x1="985.000000" x2="985.000000" y1="112.756910" y2="117.756910" stroke="#AAAAAA" /><text style="font-size:10px;font-family:Arial;fill:#000000;" text-anchor="middle" x="985.000000" y="127.756910">513</text></g>
</svg>
