<?xml version='1.0'?>
<svg xmlns="http://www.w3.org/2000/svg" xmlns:xlink="http://www.w3.org/1999/xlink" width="1000.000000" height="321.482536">
<defs>
  <filter id="ds" x="0" y="0">
    <feOffset in="SourceAlpha" dx="2" dy="2" />
    <feComponentTransfer><feFuncA type="linear" slope="0.2"/></feComponentTransfer>
    <feGaussianBlur result="blurOut" stdDeviation="1" />
    <feBlend in="SourceGraphic" in2="blurOut" mode="normal" />
  </filter>
  <pattern id="disordered-hatch" patternUnits="userSpaceOnUse" width="4" height="4">
    <path d="M-1,1 l2,-2 M0,4 l4,-4 M3,5 l2,-2" stroke="#000000" opacity="0.3" />
  </pattern>
</defs>
<line x1="32.059444" x2="32.059444" y1="229.482536" y2="257.482536" stroke="#BABDB6" stroke-width="2"/><a xlink:title="Q50fs"><circle cx="32.059444" cy="229.482536" r="4.000000" fill="#228b22" /></a><line x1="46.730566" x2="46.730566" y1="229.482536" y2="257.482536" stroke="#BABDB6" stroke-width="2"/><a xlink:title="L93fs"><circle cx="46.730566" cy="229.482536" r="4.000000" fill="#228b22" /></a><line x1="53.895533" x2="53.895533" y1="229.482536" y2="257.482536" stroke="#BABDB6" stroke-width="2"/><a xlink:title="P114fs"><circle cx="53.895533" cy="229.482536" r="4.000000" fill="#228b22" /></a><line x1="68.907844" x2="68.907844" y1="216.982536" y2="257.482536" stroke="#BABDB6" stroke-width="2"/><a xlink:title="Y158fs"><circle cx="68.907844" cy="216.982536" r="4.000000" fill="#228b22" /></a><line x1="73.002110" x2="73.002110" y1="216.982536" y2="257.482536" stroke="#BABDB6" stroke-width="2"/><a xlink:title="D170fs"><circle cx="73.002110" cy="216.982536" r="4.000000" fill="#228b22" /></a><line x1="75.390433" x2="75.390433" y1="204.482536" y2="257.482536" stroke="#BABDB6" stroke-width="2"/><a xlink:title="N177fs"><circle cx="75.390433" cy="204.482536" r="4.000000" fill="#228b22" /></a><line x1="79.484699" x2="79.484699" y1="204.482536" y2="257.482536" stroke="#BABDB6" stroke-width="2"/><a xlink:title="L189fs"><circle cx="79.484699" cy="204.482536" r="4.000000" fill="#228b22" /></a><line x1="80.167077" x2="80.167077" y1="216.982536" y2="257.482536" stroke="#BABDB6" stroke-width="2"/><a xlink:title="Y191fs"><circle cx="80.167077" cy="216.982536" r="4.000000" fill="#228b22" /></a><line x1="84.261344" x2="84.261344" y1="229.482536" y2="257.482536" stroke="#BABDB6" stroke-width="2"/><a xlink:title="Q203fs"><circle cx="84.261344" cy="229.482536" r="4.000000" fill="#228b22" /></a><line x1="90.402744" x2="90.402744" y1="216.982536" y2="257.482536" stroke="#BABDB6" stroke-width="2"/><a xlink:title="I221fs"><circle cx="90.402744" cy="216.982536" r="4.000000" fill="#228b22" /></a><line x1="93.473444" x2="93.473444" y1="216.982536" y2="257.482536" stroke="#BABDB6" stroke-width="2"/><a xlink:title="R230fs"><circle cx="93.473444" cy="216.982536" r="4.000000" fill="#228b22" /></a><line x1="96.544144" x2="96.544144" y1="229.482536" y2="257.482536" stroke="#BABDB6" stroke-width="2"/><a xlink:title="A239fs"><circle cx="96.544144" cy="229.482536" r="4.000000" fill="#228b22" /></a><line x1="114.627154" x2="114.627154" y1="204.482536" y2="257.482536" stroke="#BABDB6" stroke-width="2"/><a xlink:title="L292fs"><circle cx="114.627154" cy="204.482536" r="4.000000" fill="#228b22" /></a><line x1="117.015477" x2="117.015477" y1="216.982536" y2="257.482536" stroke="#BABDB6" stroke-width="2"/><a xlink:title="S299fs"><circle cx="117.015477" cy="216.982536" r="4.000000" fill="#228b22" /></a><line x1="119.744988" x2="119.744988" y1="229.482536" y2="257.482536" stroke="#BABDB6" stroke-width="2"/><a xlink:title="H307fs"><circle cx="119.744988" cy="229.482536" r="4.000000" fill="#228b22" /></a><line x1="138.169187" x2="138.169187" y1="229.482536" y2="257.482536" stroke="#BABDB6" stroke-width="2"/><a xlink:title="H361fs"><circle cx="138.169187" cy="229.482536" r="4.000000" fill="#228b22" /></a><line x1="152.499121" x2="152.499121" y1="229.482536" y2="257.482536" stroke="#BABDB6" stroke-width="2"/><a xlink:title="E403fs"><circle cx="152.499121" cy="229.482536" r="5.354265" fill="#228b22" /></a><line x1="160.346465" x2="160.346465" y1="229.482536" y2="257.482536" stroke="#BABDB6" stroke-width="2"/><a xlink:title="A426fs"><circle cx="160.346465" cy="229.482536" r="4.000000" fill="#228b22" /></a><line x1="167.852620" x2="167.852620" y1="229.482536" y2="257.482536" stroke="#BABDB6" stroke-width="2"/><a xlink:title="P448fs"><circle cx="167.852620" cy="229.482536" r="4.000000" fill="#228b22" /></a><line x1="178.429476" x2="178.429476" y1="216.982536" y2="257.482536" stroke="#BABDB6" stroke-width="2"/><a xlink:title="L479fs"><circle cx="178.429476" cy="216.982536" r="4.000000" fill="#228b22" /></a><line x1="178.770665" x2="178.770665" y1="229.482536" y2="257.482536" stroke="#BABDB6" stroke-width="2"/><a xlink:title="Q480fs"><circle cx="178.770665" cy="229.482536" r="4.000000" fill="#228b22" /></a><line x1="193.782976" x2="193.782976" y1="197.900369" y2="257.482536" stroke="#BABDB6" stroke-width="2"/><a xlink:title="G524fs"><circle cx="193.782976" cy="197.900369" r="4.000000" fill="#228b22" /></a><line x1="199.241998" x2="199.241998" y1="210.400369" y2="257.482536" stroke="#BABDB6" stroke-width="2"/><a xlink:title="L540fs"><circle cx="199.241998" cy="210.400369" r="4.000000" fill="#228b22" /></a><line x1="199.583187" x2="199.583187" y1="229.482536" y2="257.482536" stroke="#BABDB6" stroke-width="2"/><a xlink:title="Q541fs"><circle cx="199.583187" cy="229.482536" r="6.194056" fill="#228b22" /></a><line x1="209.818853" x2="209.818853" y1="200.419741" y2="257.482536" stroke="#BABDB6" stroke-width="2"/><a xlink:title="A571fs"><circle cx="209.818853" cy="200.419741" r="4.000000" fill="#228b22" /></a><line x1="213.230742" x2="213.230742" y1="216.982536" y2="257.482536" stroke="#BABDB6" stroke-width="2"/><a xlink:title="K581fs"><circle cx="213.230742" cy="216.982536" r="5.354265" fill="#228b22" /></a><line x1="213.571931" x2="213.571931" y1="216.982536" y2="257.482536" stroke="#BABDB6" stroke-width="2"/><a xlink:title="E582fs"><circle cx="213.571931" cy="216.982536" r="4.000000" fill="#228b22" /></a><line x1="219.372142" x2="219.372142" y1="229.482536" y2="257.482536" stroke="#BABDB6" stroke-width="2"/><a xlink:title="C599fs"><circle cx="219.372142" cy="229.482536" r="4.000000" fill="#228b22" /></a><line x1="227.219486" x2="227.219486" y1="212.919741" y2="257.482536" stroke="#BABDB6" stroke-width="2"/><a xlink:title="Y622fs"><circle cx="227.219486" cy="212.919741" r="4.000000" fill="#228b22" /></a><line x1="228.925431" x2="228.925431" y1="216.982536" y2="257.482536" stroke="#BABDB6" stroke-width="2"/><a xlink:title="N627fs"><circle cx="228.925431" cy="216.982536" r="5.354265" fill="#228b22" /></a><line x1="233.360886" x2="233.360886" y1="229.482536" y2="257.482536" stroke="#BABDB6" stroke-width="2"/><a xlink:title="R640fs"><circle cx="233.360886" cy="229.482536" r="4.000000" fill="#228b22" /></a><line x1="246.326064" x2="246.326064" y1="229.482536" y2="257.482536" stroke="#BABDB6" stroke-width="2"/><a xlink:title="S678fs"><circle cx="246.326064" cy="229.482536" r="4.000000" fill="#228b22" /></a><line x1="268.503342" x2="268.503342" y1="216.982536" y2="257.482536" stroke="#BABDB6" stroke-width="2"/><a xlink:title="M743fs"><circle cx="268.503342" cy="216.982536" r="4.000000" fill="#228b22" /></a><line x1="273.962364" x2="273.962364" y1="229.482536" y2="257.482536" stroke="#BABDB6" stroke-width="2"/><a xlink:title="A759fs"><circle cx="273.962364" cy="229.482536" r="4.000000" fill="#228b22" /></a><line x1="280.103764" x2="280.103764" y1="204.482536" y2="257.482536" stroke="#BABDB6" stroke-width="2"/><a xlink:title="D777fs"><circle cx="280.103764" cy="204.482536" r="4.000000" fill="#228b22" /></a><line x1="280.786141" x2="280.786141" y1="216.982536" y2="257.482536" stroke="#BABDB6" stroke-width="2"/><a xlink:title="L779fs"><circle cx="280.786141" cy="216.982536" r="4.000000" fill="#228b22" /></a><line x1="282.833275" x2="282.833275" y1="216.982536" y2="257.482536" stroke="#BABDB6" stroke-width="2"/><a xlink:title="H785fs"><circle cx="282.833275" cy="216.982536" r="4.000000" fill="#228b22" /></a><line x1="288.292297" x2="288.292297" y1="229.482536" y2="257.482536" stroke="#BABDB6" stroke-width="2"/><a xlink:title="F801fs"><circle cx="288.292297" cy="229.482536" r="4.000000" fill="#228b22" /></a><line x1="298.186775" x2="298.186775" y1="179.482536" y2="257.482536" stroke="#BABDB6" stroke-width="2"/><a xlink:title="V830fs"><circle cx="298.186775" cy="179.482536" r="4.000000" fill="#228b22" /></a><line x1="298.869152" x2="298.869152" y1="166.920160" y2="257.482536" stroke="#BABDB6" stroke-width="2"/><a xlink:title="P832fs"><circle cx="298.869152" cy="166.920160" r="4.000000" fill="#228b22" /></a><line x1="299.551530" x2="299.551530" y1="179.420160" y2="257.482536" stroke="#BABDB6" stroke-width="2"/><a xlink:title="S834fs"><circle cx="299.551530" cy="179.420160" r="4.000000" fill="#228b22" /></a><line x1="300.575097" x2="300.575097" y1="179.420160" y2="257.482536" stroke="#BABDB6" stroke-width="2"/><a xlink:title="S837fs"><circle cx="300.575097" cy="179.420160" r="4.000000" fill="#228b22" /></a><line x1="302.281041" x2="302.281041" y1="166.920160" y2="257.482536" stroke="#BABDB6" stroke-width="2"/><a xlink:title="D842fs"><circle cx="302.281041" cy="166.920160" r="4.000000" fill="#228b22" /></a><line x1="304.669363" x2="304.669363" y1="191.982536" y2="257.482536" stroke="#BABDB6" stroke-width="2"/><a xlink:title="D849fs"><circle cx="304.669363" cy="191.982536" r="8.187458" fill="#228b22" /></a><line x1="306.375308" x2="306.375308" y1="204.482536" y2="257.482536" stroke="#BABDB6" stroke-width="2"/><a xlink:title="R854fs"><circle cx="306.375308" cy="204.482536" r="4.000000" fill="#228b22" /></a><line x1="306.716497" x2="306.716497" y1="216.982536" y2="257.482536" stroke="#BABDB6" stroke-width="2"/><a xlink:title="E855fs"><circle cx="306.716497" cy="216.982536" r="4.000000" fill="#228b22" /></a><line x1="307.057686" x2="307.057686" y1="229.482536" y2="257.482536" stroke="#BABDB6" stroke-width="2"/><a xlink:title="R856fs"><circle cx="307.057686" cy="229.482536" r="4.000000" fill="#228b22" /></a><line x1="316.269785" x2="316.269785" y1="229.482536" y2="257.482536" stroke="#BABDB6" stroke-width="2"/><a xlink:title="T883fs"><circle cx="316.269785" cy="229.482536" r="4.000000" fill="#228b22" /></a><line x1="323.093563" x2="323.093563" y1="212.919741" y2="257.482536" stroke="#BABDB6" stroke-width="2"/><a xlink:title="D903fs"><circle cx="323.093563" cy="212.919741" r="4.000000" fill="#228b22" /></a><line x1="326.505452" x2="326.505452" y1="229.482536" y2="257.482536" stroke="#BABDB6" stroke-width="2"/><a xlink:title="H913fs"><circle cx="326.505452" cy="229.482536" r="5.354265" fill="#228b22" /></a><line x1="334.011607" x2="334.011607" y1="212.919741" y2="257.482536" stroke="#BABDB6" stroke-width="2"/><a xlink:title="Y935fs"><circle cx="334.011607" cy="212.919741" r="4.000000" fill="#228b22" /></a><line x1="336.741119" x2="336.741119" y1="216.982536" y2="257.482536" stroke="#BABDB6" stroke-width="2"/><a xlink:title="S943fs"><circle cx="336.741119" cy="216.982536" r="5.354265" fill="#228b22" /></a><line x1="341.858952" x2="341.858952" y1="216.982536" y2="257.482536" stroke="#BABDB6" stroke-width="2"/><a xlink:title="R958fs"><circle cx="341.858952" cy="216.982536" r="4.000000" fill="#228b22" /></a><line x1="342.882518" x2="342.882518" y1="229.482536" y2="257.482536" stroke="#BABDB6" stroke-width="2"/><a xlink:title="N961fs"><circle cx="342.882518" cy="229.482536" r="4.000000" fill="#228b22" /></a><line x1="358.918396" x2="358.918396" y1="216.982536" y2="257.482536" stroke="#BABDB6" stroke-width="2"/><a xlink:title="I1008fs"><circle cx="358.918396" cy="216.982536" r="4.000000" fill="#228b22" /></a><line x1="364.036229" x2="364.036229" y1="216.982536" y2="257.482536" stroke="#BABDB6" stroke-width="2"/><a xlink:title="T1023fs"><circle cx="364.036229" cy="216.982536" r="4.000000" fill="#228b22" /></a><line x1="365.059796" x2="365.059796" y1="216.982536" y2="257.482536" stroke="#BABDB6" stroke-width="2"/><a xlink:title="N1026fs"><circle cx="365.059796" cy="216.982536" r="4.000000" fill="#228b22" /></a><line x1="370.518818" x2="370.518818" y1="204.482536" y2="257.482536" stroke="#BABDB6" stroke-width="2"/><a xlink:title="S1042fs"><circle cx="370.518818" cy="204.482536" r="4.000000" fill="#228b22" /></a><line x1="374.271896" x2="374.271896" y1="216.982536" y2="257.482536" stroke="#BABDB6" stroke-width="2"/><a xlink:title="K1053fs"><circle cx="374.271896" cy="216.982536" r="4.000000" fill="#228b22" /></a><line x1="375.977840" x2="375.977840" y1="229.482536" y2="257.482536" stroke="#BABDB6" stroke-width="2"/><a xlink:title="D1058fs"><circle cx="375.977840" cy="229.482536" r="4.000000" fill="#228b22" /></a><line x1="385.189940" x2="385.189940" y1="216.982536" y2="257.482536" stroke="#BABDB6" stroke-width="2"/><a xlink:title="K1085fs"><circle cx="385.189940" cy="216.982536" r="4.000000" fill="#228b22" /></a><line x1="389.966585" x2="389.966585" y1="229.482536" y2="257.482536" stroke="#BABDB6" stroke-width="2"/><a xlink:title="V1099fs"><circle cx="389.966585" cy="229.482536" r="4.000000" fill="#228b22" /></a><line x1="404.637707" x2="404.637707" y1="216.982536" y2="257.482536" stroke="#BABDB6" stroke-width="2"/><a xlink:title="N1142fs"><circle cx="404.637707" cy="216.982536" r="4.000000" fill="#228b22" /></a><line x1="410.096729" x2="410.096729" y1="216.982536" y2="257.482536" stroke="#BABDB6" stroke-width="2"/><a xlink:title="R1158fs"><circle cx="410.096729" cy="216.982536" r="4.000000" fill="#228b22" /></a><line x1="411.802673" x2="411.802673" y1="229.482536" y2="257.482536" stroke="#BABDB6" stroke-width="2"/><a xlink:title="S1163fs"><circle cx="411.802673" cy="229.482536" r="4.000000" fill="#228b22" /></a><line x1="419.308829" x2="419.308829" y1="216.982536" y2="257.482536" stroke="#BABDB6" stroke-width="2"/><a xlink:title="T1185fs"><circle cx="419.308829" cy="216.982536" r="4.000000" fill="#228b22" /></a><line x1="421.014773" x2="421.014773" y1="216.982536" y2="257.482536" stroke="#BABDB6" stroke-width="2"/><a xlink:title="S1190fs"><circle cx="421.014773" cy="216.982536" r="4.000000" fill="#228b22" /></a><line x1="426.132606" x2="426.132606" y1="216.982536" y2="257.482536" stroke="#BABDB6" stroke-width="2"/><a xlink:title="S1205fs"><circle cx="426.132606" cy="216.982536" r="4.000000" fill="#228b22" /></a><line x1="428.179740" x2="428.179740" y1="229.482536" y2="257.482536" stroke="#BABDB6" stroke-width="2"/><a xlink:title="M1211fs"><circle cx="428.179740" cy="229.482536" r="4.000000" fill="#228b22" /></a><line x1="437.050651" x2="437.050651" y1="191.982536" y2="257.482536" stroke="#BABDB6" stroke-width="2"/><a xlink:title="Q1237fs"><circle cx="437.050651" cy="191.982536" r="4.000000" fill="#228b22" /></a><line x1="439.780162" x2="439.780162" y1="204.482536" y2="257.482536" stroke="#BABDB6" stroke-width="2"/><a xlink:title="K1245fs"><circle cx="439.780162" cy="204.482536" r="4.000000" fill="#228b22" /></a><line x1="440.121351" x2="440.121351" y1="216.982536" y2="257.482536" stroke="#BABDB6" stroke-width="2"/><a xlink:title="A1246fs"><circle cx="440.121351" cy="216.982536" r="4.000000" fill="#228b22" /></a><line x1="441.144917" x2="441.144917" y1="229.482536" y2="257.482536" stroke="#BABDB6" stroke-width="2"/><a xlink:title="C1249fs"><circle cx="441.144917" cy="229.482536" r="4.000000" fill="#228b22" /></a><line x1="448.992262" x2="448.992262" y1="200.419741" y2="257.482536" stroke="#BABDB6" stroke-width="2"/><a xlink:title="S1272fs"><circle cx="448.992262" cy="200.419741" r="5.354265" fill="#228b22" /></a><line x1="453.427717" x2="453.427717" y1="158.856947" y2="257.482536" stroke="#BABDB6" stroke-width="2"/><a xlink:title="D1285fs"><circle cx="453.427717" cy="158.856947" r="5.354265" fill="#228b22" /></a><line x1="453.768906" x2="453.768906" y1="171.356947" y2="257.482536" stroke="#BABDB6" stroke-width="2"/><a xlink:title="E1286fs"><circle cx="453.768906" cy="171.356947" r="4.000000" fill="#228b22" /></a><line x1="456.498417" x2="456.498417" y1="87.291301" y2="257.482536" stroke="#BABDB6" stroke-width="2"/><a xlink:title="Q1294fs"><circle cx="456.498417" cy="87.291301" r="5.354265" fill="#228b22" /></a><line x1="457.180795" x2="457.180795" y1="87.291301" y2="257.482536" stroke="#BABDB6" stroke-width="2"/><a xlink:title="A1296fs"><circle cx="457.180795" cy="87.291301" r="4.000000" fill="#228b22" /></a><line x1="458.886739" x2="458.886739" y1="99.791301" y2="257.482536" stroke="#BABDB6" stroke-width="2"/><a xlink:title="T1301fs"><circle cx="458.886739" cy="99.791301" r="4.000000" fill="#228b22" /></a><line x1="459.227928" x2="459.227928" y1="92.967147" y2="257.482536" stroke="#BABDB6" stroke-width="2"/><a xlink:title="L1302fs"><circle cx="459.227928" cy="92.967147" r="5.354265" fill="#228b22" /></a><line x1="459.910306" x2="459.910306" y1="105.467147" y2="257.482536" stroke="#BABDB6" stroke-width="2"/><a xlink:title="I1304fs"><circle cx="459.910306" cy="105.467147" r="4.000000" fill="#228b22" /></a><line x1="460.251495" x2="460.251495" y1="105.467147" y2="257.482536" stroke="#BABDB6" stroke-width="2"/><a xlink:title="A1305fs"><circle cx="460.251495" cy="105.467147" r="4.000000" fill="#228b22" /></a><line x1="460.933873" x2="460.933873" y1="95.486520" y2="257.482536" stroke="#BABDB6" stroke-width="2"/><a xlink:title="I1307fs"><circle cx="460.933873" cy="95.486520" r="6.194056" fill="#228b22" /></a><line x1="461.616250" x2="461.616250" y1="116.387832" y2="257.482536" stroke="#BABDB6" stroke-width="2"/><a xlink:title="E1309fs"><circle cx="461.616250" cy="116.387832" r="6.800437" fill="#228b22" /></a><line x1="461.957439" x2="461.957439" y1="132.950626" y2="257.482536" stroke="#BABDB6" stroke-width="2"/><a xlink:title="K1310fs"><circle cx="461.957439" cy="132.950626" r="5.354265" fill="#228b22" /></a><line x1="462.298628" x2="462.298628" y1="152.032793" y2="257.482536" stroke="#BABDB6" stroke-width="2"/><a xlink:title="I1311fs"><circle cx="462.298628" cy="152.032793" r="6.194056" fill="#228b22" /></a><line x1="462.981006" x2="462.981006" y1="152.032793" y2="257.482536" stroke="#BABDB6" stroke-width="2"/><a xlink:title="T1313fs"><circle cx="462.981006" cy="152.032793" r="4.000000" fill="#228b22" /></a><line x1="465.028139" x2="465.028139" y1="175.419741" y2="257.482536" stroke="#BABDB6" stroke-width="2"/><a xlink:title="P1319fs"><circle cx="465.028139" cy="175.419741" r="7.628983" fill="#228b22" /></a><line x1="466.051706" x2="466.051706" y1="158.856947" y2="257.482536" stroke="#BABDB6" stroke-width="2"/><a xlink:title="E1322fs"><circle cx="466.051706" cy="158.856947" r="4.000000" fill="#228b22" /></a><line x1="466.392895" x2="466.392895" y1="171.356947" y2="257.482536" stroke="#BABDB6" stroke-width="2"/><a xlink:title="V1323fs"><circle cx="466.392895" cy="171.356947" r="4.000000" fill="#228b22" /></a><line x1="466.734084" x2="466.734084" y1="187.919741" y2="257.482536" stroke="#BABDB6" stroke-width="2"/><a xlink:title="P1324fs"><circle cx="466.734084" cy="187.919741" r="5.354265" fill="#228b22" /></a><line x1="468.781217" x2="468.781217" y1="187.919741" y2="257.482536" stroke="#BABDB6" stroke-width="2"/><a xlink:title="P1330fs"><circle cx="468.781217" cy="187.919741" r="4.000000" fill="#228b22" /></a><line x1="471.169539" x2="471.169539" y1="175.419741" y2="257.482536" stroke="#BABDB6" stroke-width="2"/><a xlink:title="L1337fs"><circle cx="471.169539" cy="175.419741" r="5.354265" fill="#228b22" /></a><line x1="471.851917" x2="471.851917" y1="167.018429" y2="257.482536" stroke="#BABDB6" stroke-width="2"/><a xlink:title="G1339fs"><circle cx="471.851917" cy="167.018429" r="4.000000" fill="#228b22" /></a><line x1="472.875484" x2="472.875484" y1="179.518429" y2="257.482536" stroke="#BABDB6" stroke-width="2"/><a xlink:title="L1342fs"><circle cx="472.875484" cy="179.518429" r="4.000000" fill="#228b22" /></a><line x1="475.263806" x2="475.263806" y1="192.018429" y2="257.482536" stroke="#BABDB6" stroke-width="2"/><a xlink:title="H1349fs"><circle cx="475.263806" cy="192.018429" r="4.000000" fill="#228b22" /></a><line x1="476.628561" x2="476.628561" y1="208.581224" y2="257.482536" stroke="#BABDB6" stroke-width="2"/><a xlink:title="E1353fs"><circle cx="476.628561" cy="208.581224" r="5.354265" fill="#228b22" /></a><line x1="477.310939" x2="477.310939" y1="216.982536" y2="257.482536" stroke="#BABDB6" stroke-width="2"/><a xlink:title="S1355fs"><circle cx="477.310939" cy="216.982536" r="6.800437" fill="#228b22" /></a><line x1="483.111150" x2="483.111150" y1="179.482536" y2="257.482536" stroke="#BABDB6" stroke-width="2"/><a xlink:title="P1372fs"><circle cx="483.111150" cy="179.482536" r="4.000000" fill="#228b22" /></a><line x1="484.134717" x2="484.134717" y1="179.482536" y2="257.482536" stroke="#BABDB6" stroke-width="2"/><a xlink:title="H1375fs"><circle cx="484.134717" cy="179.482536" r="4.000000" fill="#228b22" /></a><line x1="484.475906" x2="484.475906" y1="191.982536" y2="257.482536" stroke="#BABDB6" stroke-width="2"/><a xlink:title="Y1376fs"><circle cx="484.475906" cy="191.982536" r="4.000000" fill="#228b22" /></a><line x1="486.523039" x2="486.523039" y1="135.711986" y2="257.482536" stroke="#BABDB6" stroke-width="2"/><a xlink:title="L1382fs"><circle cx="486.523039" cy="135.711986" r="4.000000" fill="#228b22" /></a><line x1="486.864228" x2="486.864228" y1="148.211986" y2="257.482536" stroke="#BABDB6" stroke-width="2"/><a xlink:title="M1383fs"><circle cx="486.864228" cy="148.211986" r="4.000000" fill="#228b22" /></a><line x1="489.252550" x2="489.252550" y1="135.711986" y2="257.482536" stroke="#BABDB6" stroke-width="2"/><a xlink:title="V1390fs"><circle cx="489.252550" cy="135.711986" r="4.000000" fill="#228b22" /></a><line x1="491.299683" x2="491.299683" y1="118.873468" y2="257.482536" stroke="#BABDB6" stroke-width="2"/><a xlink:title="F1396fs"><circle cx="491.299683" cy="118.873468" r="5.354265" fill="#228b22" /></a><line x1="491.640872" x2="491.640872" y1="122.936262" y2="257.482536" stroke="#BABDB6" stroke-width="2"/><a xlink:title="E1397fs"><circle cx="491.640872" cy="122.936262" r="5.354265" fill="#228b22" /></a><line x1="491.982061" x2="491.982061" y1="118.597745" y2="257.482536" stroke="#BABDB6" stroke-width="2"/><a xlink:title="S1398fs"><circle cx="491.982061" cy="118.597745" r="5.354265" fill="#228b22" /></a><line x1="492.323250" x2="492.323250" y1="137.679911" y2="257.482536" stroke="#BABDB6" stroke-width="2"/><a xlink:title="R1399fs"><circle cx="492.323250" cy="137.679911" r="6.194056" fill="#228b22" /></a><line x1="493.005628" x2="493.005628" y1="137.679911" y2="257.482536" stroke="#BABDB6" stroke-width="2"/><a xlink:title="I1401fs"><circle cx="493.005628" cy="137.679911" r="4.000000" fill="#228b22" /></a><line x1="495.052761" x2="495.052761" y1="133.617117" y2="257.482536" stroke="#BABDB6" stroke-width="2"/><a xlink:title="S1407fs"><circle cx="495.052761" cy="133.617117" r="4.000000" fill="#228b22" /></a><line x1="496.417517" x2="496.417517" y1="129.518429" y2="257.482536" stroke="#BABDB6" stroke-width="2"/><a xlink:title="S1411fs"><circle cx="496.417517" cy="129.518429" r="6.800437" fill="#228b22" /></a><line x1="497.099894" x2="497.099894" y1="117.018429" y2="257.482536" stroke="#BABDB6" stroke-width="2"/><a xlink:title="M1413fs"><circle cx="497.099894" cy="117.018429" r="4.000000" fill="#228b22" /></a><line x1="497.441083" x2="497.441083" y1="117.018429" y2="257.482536" stroke="#BABDB6" stroke-width="2"/><a xlink:title="V1414fs"><circle cx="497.441083" cy="117.018429" r="4.000000" fill="#228b22" /></a><line x1="497.782272" x2="497.782272" y1="137.919741" y2="257.482536" stroke="#BABDB6" stroke-width="2"/><a xlink:title="S1415fs"><circle cx="497.782272" cy="137.919741" r="6.800437" fill="#228b22" /></a><line x1="498.464650" x2="498.464650" y1="150.419741" y2="257.482536" stroke="#BABDB6" stroke-width="2"/><a xlink:title="I1417fs"><circle cx="498.464650" cy="150.419741" r="4.000000" fill="#228b22" /></a><line x1="499.829406" x2="499.829406" y1="131.337574" y2="257.482536" stroke="#BABDB6" stroke-width="2"/><a xlink:title="S1421fs"><circle cx="499.829406" cy="131.337574" r="5.354265" fill="#228b22" /></a><line x1="501.876539" x2="501.876539" y1="102.274780" y2="257.482536" stroke="#BABDB6" stroke-width="2"/><a xlink:title="P1427fs"><circle cx="501.876539" cy="102.274780" r="4.000000" fill="#228b22" /></a><line x1="502.217728" x2="502.217728" y1="114.774780" y2="257.482536" stroke="#BABDB6" stroke-width="2"/><a xlink:title="G1428fs"><circle cx="502.217728" cy="114.774780" r="4.000000" fill="#228b22" /></a><line x1="502.558917" x2="502.558917" y1="110.711986" y2="257.482536" stroke="#BABDB6" stroke-width="2"/><a xlink:title="Q1429fs"><circle cx="502.558917" cy="110.711986" r="4.000000" fill="#228b22" /></a><line x1="502.900106" x2="502.900106" y1="110.711986" y2="257.482536" stroke="#BABDB6" stroke-width="2"/><a xlink:title="T1430fs"><circle cx="502.900106" cy="110.711986" r="4.000000" fill="#228b22" /></a><line x1="503.241294" x2="503.241294" y1="123.211986" y2="257.482536" stroke="#BABDB6" stroke-width="2"/><a xlink:title="M1431fs"><circle cx="503.241294" cy="123.211986" r="4.000000" fill="#228b22" /></a><line x1="504.606050" x2="504.606050" y1="142.294152" y2="257.482536" stroke="#BABDB6" stroke-width="2"/><a xlink:title="R1435fs"><circle cx="504.606050" cy="142.294152" r="6.194056" fill="#228b22" /></a><line x1="504.947239" x2="504.947239" y1="139.774780" y2="257.482536" stroke="#BABDB6" stroke-width="2"/><a xlink:title="S1436fs"><circle cx="504.947239" cy="139.774780" r="5.354265" fill="#228b22" /></a><line x1="505.970805" x2="505.970805" y1="127.274780" y2="257.482536" stroke="#BABDB6" stroke-width="2"/><a xlink:title="P1439fs"><circle cx="505.970805" cy="127.274780" r="5.354265" fill="#228b22" /></a><line x1="506.311994" x2="506.311994" y1="139.774780" y2="257.482536" stroke="#BABDB6" stroke-width="2"/><a xlink:title="P1440fs"><circle cx="506.311994" cy="139.774780" r="4.000000" fill="#228b22" /></a><line x1="506.994372" x2="506.994372" y1="152.274780" y2="257.482536" stroke="#BABDB6" stroke-width="2"/><a xlink:title="P1442fs"><circle cx="506.994372" cy="152.274780" r="4.000000" fill="#228b22" /></a><line x1="508.359128" x2="508.359128" y1="143.837574" y2="257.482536" stroke="#BABDB6" stroke-width="2"/><a xlink:title="A1446fs"><circle cx="508.359128" cy="143.837574" r="5.354265" fill="#228b22" /></a><line x1="508.700317" x2="508.700317" y1="135.436262" y2="257.482536" stroke="#BABDB6" stroke-width="2"/><a xlink:title="Q1447fs"><circle cx="508.700317" cy="135.436262" r="4.000000" fill="#228b22" /></a><line x1="510.747450" x2="510.747450" y1="125.435942" y2="257.482536" stroke="#BABDB6" stroke-width="2"/><a xlink:title="P1453fs"><circle cx="510.747450" cy="125.435942" r="6.194056" fill="#228b22" /></a><line x1="511.088639" x2="511.088639" y1="137.935942" y2="257.482536" stroke="#BABDB6" stroke-width="2"/><a xlink:title="K1454fs"><circle cx="511.088639" cy="137.935942" r="4.000000" fill="#228b22" /></a><line x1="511.429828" x2="511.429828" y1="141.998737" y2="257.482536" stroke="#BABDB6" stroke-width="2"/><a xlink:title="N1455fs"><circle cx="511.429828" cy="141.998737" r="5.354265" fill="#228b22" /></a><line x1="513.476961" x2="513.476961" y1="141.998737" y2="257.482536" stroke="#BABDB6" stroke-width="2"/><a xlink:title="E1461fs"><circle cx="513.476961" cy="141.998737" r="4.000000" fill="#228b22" /></a><line x1="514.159339" x2="514.159339" y1="154.498737" y2="257.482536" stroke="#BABDB6" stroke-width="2"/><a xlink:title="R1463fs"><circle cx="514.159339" cy="154.498737" r="4.000000" fill="#228b22" /></a><line x1="514.500528" x2="514.500528" y1="162.900049" y2="257.482536" stroke="#BABDB6" stroke-width="2"/><a xlink:title="E1464fs"><circle cx="514.500528" cy="162.900049" r="6.800437" fill="#228b22" /></a><line x1="514.841716" x2="514.841716" y1="191.982536" y2="257.482536" stroke="#BABDB6" stroke-width="2"/><a xlink:title="S1465fs"><circle cx="514.841716" cy="191.982536" r="9.527496" fill="#0000ff" /></a><line x1="517.230039" x2="517.230039" y1="117.247465" y2="257.482536" stroke="#BABDB6" stroke-width="2"/><a xlink:title="V1472fs"><circle cx="517.230039" cy="117.247465" r="4.000000" fill="#228b22" /></a><line x1="518.253605" x2="518.253605" y1="70.620907" y2="257.482536" stroke="#BABDB6" stroke-width="2"/><a xlink:title="A1475fs"><circle cx="518.253605" cy="70.620907" r="4.000000" fill="#228b22" /></a><line x1="520.300739" x2="520.300739" y1="35.835579" y2="257.482536" stroke="#BABDB6" stroke-width="2"/><a xlink:title="V1481fs"><circle cx="520.300739" cy="35.835579" r="4.000000" fill="#228b22" /></a><line x1="520.983116" x2="520.983116" y1="35.835579" y2="257.482536" stroke="#BABDB6" stroke-width="2"/><a xlink:title="P1483fs"><circle cx="520.983116" cy="35.835579" r="4.000000" fill="#228b22" /></a><line x1="522.006683" x2="522.006683" y1="31.772784" y2="257.482536" stroke="#BABDB6" stroke-width="2"/><a xlink:title="D1486fs"><circle cx="522.006683" cy="31.772784" r="4.000000" fill="#228b22" /></a><line x1="522.347872" x2="522.347872" y1="48.335579" y2="257.482536" stroke="#BABDB6" stroke-width="2"/><a xlink:title="T1487fs"><circle cx="522.347872" cy="48.335579" r="5.354265" fill="#228b22" /></a><line x1="522.689061" x2="522.689061" y1="71.722527" y2="257.482536" stroke="#BABDB6" stroke-width="2"/><a xlink:title="L1488fs"><circle cx="522.689061" cy="71.722527" r="7.628983" fill="#228b22" /></a><line x1="523.030250" x2="523.030250" y1="94.007855" y2="257.482536" stroke="#BABDB6" stroke-width="2"/><a xlink:title="L1489fs"><circle cx="523.030250" cy="94.007855" r="7.261776" fill="#228b22" /></a><line x1="523.371439" x2="523.371439" y1="114.909167" y2="257.482536" stroke="#BABDB6" stroke-width="2"/><a xlink:title="H1490fs"><circle cx="523.371439" cy="114.909167" r="6.800437" fill="#228b22" /></a><line x1="523.712628" x2="523.712628" y1="127.409167" y2="257.482536" stroke="#BABDB6" stroke-width="2"/><a xlink:title="F1491fs"><circle cx="523.712628" cy="127.409167" r="4.000000" fill="#228b22" /></a><line x1="524.053816" x2="524.053816" y1="140.634413" y2="257.482536" stroke="#BABDB6" stroke-width="2"/><a xlink:title="A1492fs"><circle cx="524.053816" cy="140.634413" r="8.408415" fill="#228b22" /></a><line x1="524.395005" x2="524.395005" y1="162.919741" y2="257.482536" stroke="#BABDB6" stroke-width="2"/><a xlink:title="T1493fs"><circle cx="524.395005" cy="162.919741" r="7.261776" fill="#228b22" /></a><line x1="524.736194" x2="524.736194" y1="175.419741" y2="257.482536" stroke="#BABDB6" stroke-width="2"/><a xlink:title="E1494fs"><circle cx="524.736194" cy="175.419741" r="4.000000" fill="#228b22" /></a><line x1="525.418572" x2="525.418572" y1="187.919741" y2="257.482536" stroke="#BABDB6" stroke-width="2"/><a xlink:title="T1496fs"><circle cx="525.418572" cy="187.919741" r="4.000000" fill="#228b22" /></a><line x1="526.442139" x2="526.442139" y1="200.419741" y2="257.482536" stroke="#BABDB6" stroke-width="2"/><a xlink:title="G1499fs"><circle cx="526.442139" cy="200.419741" r="4.000000" fill="#228b22" /></a><line x1="527.124516" x2="527.124516" y1="216.982536" y2="257.482536" stroke="#BABDB6" stroke-width="2"/><a xlink:title="S1501fs"><circle cx="527.124516" cy="216.982536" r="5.354265" fill="#228b22" /></a><line x1="529.854027" x2="529.854027" y1="229.482536" y2="257.482536" stroke="#BABDB6" stroke-width="2"/><a xlink:title="L1509fs"><circle cx="529.854027" cy="229.482536" r="4.000000" fill="#228b22" /></a><line x1="536.336616" x2="536.336616" y1="187.919741" y2="257.482536" stroke="#BABDB6" stroke-width="2"/><a xlink:title="V1528fs"><circle cx="536.336616" cy="187.919741" r="4.000000" fill="#228b22" /></a><line x1="537.360183" x2="537.360183" y1="191.982536" y2="257.482536" stroke="#BABDB6" stroke-width="2"/><a xlink:title="N1531fs"><circle cx="537.360183" cy="191.982536" r="5.354265" fill="#228b22" /></a><line x1="538.724938" x2="538.724938" y1="187.919741" y2="257.482536" stroke="#BABDB6" stroke-width="2"/><a xlink:title="N1535fs"><circle cx="538.724938" cy="187.919741" r="4.000000" fill="#228b22" /></a><line x1="539.748505" x2="539.748505" y1="187.919741" y2="257.482536" stroke="#BABDB6" stroke-width="2"/><a xlink:title="E1538fs"><circle cx="539.748505" cy="187.919741" r="4.000000" fill="#228b22" /></a><line x1="543.160394" x2="543.160394" y1="168.466797" y2="257.482536" stroke="#BABDB6" stroke-width="2"/><a xlink:title="N1548fs"><circle cx="543.160394" cy="168.466797" r="4.000000" fill="#228b22" /></a><line x1="544.525149" x2="544.525149" y1="185.029592" y2="257.482536" stroke="#BABDB6" stroke-width="2"/><a xlink:title="E1552fs"><circle cx="544.525149" cy="185.029592" r="5.354265" fill="#228b22" /></a><line x1="544.866338" x2="544.866338" y1="185.029592" y2="257.482536" stroke="#BABDB6" stroke-width="2"/><a xlink:title="A1553fs"><circle cx="544.866338" cy="185.029592" r="4.000000" fill="#228b22" /></a><line x1="545.889905" x2="545.889905" y1="216.982536" y2="257.482536" stroke="#BABDB6" stroke-width="2"/><a xlink:title="T1556fs"><circle cx="545.889905" cy="216.982536" r="10.484315" fill="#0000ff" /></a><line x1="550.666549" x2="550.666549" y1="139.774780" y2="257.482536" stroke="#BABDB6" stroke-width="2"/><a xlink:title="D1570fs"><circle cx="550.666549" cy="139.774780" r="4.000000" fill="#228b22" /></a><line x1="552.031305" x2="552.031305" y1="152.274780" y2="257.482536" stroke="#BABDB6" stroke-width="2"/><a xlink:title="I1574fs"><circle cx="552.031305" cy="152.274780" r="4.000000" fill="#228b22" /></a><line x1="552.713683" x2="552.713683" y1="168.837574" y2="257.482536" stroke="#BABDB6" stroke-width="2"/><a xlink:title="E1576fs"><circle cx="552.713683" cy="168.837574" r="5.354265" fill="#228b22" /></a><line x1="553.396060" x2="553.396060" y1="181.337574" y2="257.482536" stroke="#BABDB6" stroke-width="2"/><a xlink:title="C1578fs"><circle cx="553.396060" cy="181.337574" r="4.000000" fill="#228b22" /></a><line x1="554.078438" x2="554.078438" y1="200.419741" y2="257.482536" stroke="#BABDB6" stroke-width="2"/><a xlink:title="I1580fs"><circle cx="554.078438" cy="200.419741" r="6.194056" fill="#228b22" /></a><line x1="554.419627" x2="554.419627" y1="216.982536" y2="257.482536" stroke="#BABDB6" stroke-width="2"/><a xlink:title="S1581fs"><circle cx="554.419627" cy="216.982536" r="5.354265" fill="#228b22" /></a><line x1="555.102005" x2="555.102005" y1="229.482536" y2="257.482536" stroke="#BABDB6" stroke-width="2"/><a xlink:title="M1583fs"><circle cx="555.102005" cy="229.482536" r="4.000000" fill="#228b22" /></a><line x1="690.212803" x2="690.212803" y1="229.482536" y2="257.482536" stroke="#BABDB6" stroke-width="2"/><a xlink:title="N1979fs"><circle cx="690.212803" cy="229.482536" r="4.000000" fill="#228b22" /></a><line x1="714.778403" x2="714.778403" y1="229.482536" y2="257.482536" stroke="#BABDB6" stroke-width="2"/><a xlink:title="K2051fs"><circle cx="714.778403" cy="229.482536" r="4.000000" fill="#228b22" /></a><line x1="821.570524" x2="821.570524" y1="229.482536" y2="257.482536" stroke="#BABDB6" stroke-width="2"/><a xlink:title="M2364fs"><circle cx="821.570524" cy="229.482536" r="4.000000" fill="#228b22" /></a><a xlink:title="APC_HUMAN, Adenomatous polyposis coli protein (2843aa)"><rect fill="#BABDB6" x="15.000000" y="257.482536" width="970.000000" height="14.000000"/></a><g transform="translate(16.364756,252.482536)"><a xlink:href="https://pfam.xfam.org/family/PF16689" xlink:title="Coiled-coil N-terminus of APC, dimerisation domain"><rect fill="#2dcf00" x="0" y="0" width="17.400633" height="24.000000" filter="url(#ds)"/></a></g>
<g transform="translate(58.330988,252.482536)"><a xlink:href="https://pfam.xfam.org/family/PF11414" xlink:title="Adenomatous polyposis coli tumour suppressor protein"><rect fill="#ff5353" x="0" y="0" width="27.295111" height="24.000000" filter="url(#ds)"/></a></g>
<g transform="translate(149.087232,252.482536)"><a xlink:href="https://pfam.xfam.org/family/PF18797" xlink:title="Adenomatous polyposis coli (APC) repeat"><rect fill="#5b5bff" x="0" y="0" width="24.906789" height="24.000000" filter="url(#ds)"/></a></g>
<g transform="translate(189.688709,252.482536)"><a xlink:href="https://pfam.xfam.org/family/PF00514" xlink:title="Armadillo/beta-catenin-like repeat"><rect fill="#ebd61d" x="0" y="0" width="13.988744" height="24.000000" filter="url(#ds)"/></a></g>
<g transform="translate(236.431586,252.482536)"><a xlink:href="https://pfam.xfam.org/family/PF00514" xlink:title="Armadillo/beta-catenin-like repeat"><rect fill="#ebd61d" x="0" y="0" width="13.647555" height="24.000000" filter="url(#ds)"/></a></g>
<g transform="translate(264.750264,252.482536)"><a xlink:href="https://pfam.xfam.org/family/PF16629" xlink:title="Armadillo-associated region on APC"><rect fill="#ba21e0" x="0" y="0" width="97.921210" height="24.000000" filter="url(#ds)"/></a></g>
<g transform="translate(363.012663,252.482536)"><a xlink:href="https://pfam.xfam.org/family/PF05972" xlink:title="APC 15 residue motif"><rect fill="#ff9c42" x="0" y="0" width="4.776644" height="24.000000" filter="url(#ds)"/></a></g>
<g transform="translate(368.471685,252.482536)"><a xlink:href="https://pfam.xfam.org/family/PF16630" xlink:title="Unstructured region on APC between 1st and 2nd catenin-bdg motifs"><rect fill="#ff7dff" x="0" y="0" width="33.777700" height="24.000000" filter="url(#ds)"/></a></g>
<g transform="translate(402.590573,252.482536)"><a xlink:href="https://pfam.xfam.org/family/PF05972" xlink:title="APC 15 residue motif"><rect fill="#ff9c42" x="0" y="0" width="4.776644" height="24.000000" filter="url(#ds)"/></a></g>
<g transform="translate(409.073162,252.482536)"><a xlink:href="https://pfam.xfam.org/family/PF05972" xlink:title="APC 15 residue motif"><rect fill="#ff9c42" x="0" y="0" width="4.776644" height="24.000000" filter="url(#ds)"/></a></g>
<g transform="translate(414.873373,252.482536)"><a xlink:href="https://pfam.xfam.org/family/PF05972" xlink:title="APC 15 residue motif"><rect fill="#ff9c42" x="0" y="0" width="4.776644" height="24.000000" filter="url(#ds)"/></a></g>
<g transform="translate(443.874428,252.482536)"><a xlink:href="https://pfam.xfam.org/family/PF05923" xlink:title="APC repeat"><rect fill="#b9264f" x="0" y="0" width="7.847344" height="24.000000" filter="url(#ds)"/></a></g>
<g transform="translate(452.404151,252.482536)"><a xlink:href="https://pfam.xfam.org/family/PF16633" xlink:title="Unstructured region on APC between 1st two creatine-rich regions"><rect fill="#baba21" x="0" y="0" width="29.342244" height="24.000000" filter="url(#ds)"/></a></g>
<g transform="translate(482.769961,252.482536)"><a xlink:href="https://pfam.xfam.org/family/PF05923" xlink:title="APC repeat"><rect fill="#b9264f" x="0" y="0" width="7.506155" height="24.000000" filter="url(#ds)"/></a></g>
<g transform="translate(522.006683,252.482536)"><a xlink:href="https://pfam.xfam.org/family/PF05923" xlink:title="APC repeat"><rect fill="#b9264f" x="0" y="0" width="7.847344" height="24.000000" filter="url(#ds)"/></a></g>
<g transform="translate(549.642983,252.482536)"><a xlink:href="https://pfam.xfam.org/family/PF05924" xlink:title="SAMP Motif"><rect fill="#c48484" x="0" y="0" width="7.164967" height="24.000000" filter="url(#ds)"/></a></g>
<g transform="translate(573.526205,252.482536)"><a xlink:href="https://pfam.xfam.org/family/PF05923" xlink:title="APC repeat"><rect fill="#b9264f" x="0" y="0" width="7.847344" height="24.000000" filter="url(#ds)"/></a></g>
<g transform="translate(582.055927,252.482536)"><a xlink:href="https://pfam.xfam.org/family/PF16634" xlink:title="Unstructured region on APC between APC_crr and SAMP"><rect fill="#1f88a7" x="0" y="0" width="18.083011" height="24.000000" filter="url(#ds)"/></a></g>
<g transform="translate(600.480127,252.482536)"><a xlink:href="https://pfam.xfam.org/family/PF05924" xlink:title="SAMP Motif"><rect fill="#c48484" x="0" y="0" width="7.164967" height="24.000000" filter="url(#ds)"/></a></g>
<g transform="translate(610.715793,252.482536)"><a xlink:href="https://pfam.xfam.org/family/PF16635" xlink:title="Unstructured region on APC between SAMP and APC_crr"><rect fill="#cafeb8" x="0" y="0" width="31.730566" height="24.000000" filter="url(#ds)"/></a></g>
<g transform="translate(643.128737,252.482536)"><a xlink:href="https://pfam.xfam.org/family/PF05923" xlink:title="APC repeat"><rect fill="#b9264f" x="0" y="0" width="8.188533" height="24.000000" filter="url(#ds)"/></a></g>
<g transform="translate(651.999648,252.482536)"><a xlink:href="https://pfam.xfam.org/family/PF16636" xlink:title="Unstructured region on APC between APC_crr regions 5 and 6"><rect fill="#4a9586" x="0" y="0" width="27.295111" height="24.000000" filter="url(#ds)"/></a></g>
<g transform="translate(679.977137,252.482536)"><a xlink:href="https://pfam.xfam.org/family/PF05923" xlink:title="APC repeat"><rect fill="#b9264f" x="0" y="0" width="7.847344" height="24.000000" filter="url(#ds)"/></a></g>
<g transform="translate(700.107281,252.482536)"><a xlink:href="https://pfam.xfam.org/family/PF05923" xlink:title="APC repeat"><rect fill="#b9264f" x="0" y="0" width="7.506155" height="24.000000" filter="url(#ds)"/></a></g>
<g transform="translate(707.954625,252.482536)"><a xlink:href="https://pfam.xfam.org/family/PF05924" xlink:title="SAMP Motif"><rect fill="#c48484" x="0" y="0" width="7.164967" height="24.000000" filter="url(#ds)"/></a></g>
<g transform="translate(773.462891,252.482536)"><a xlink:href="https://pfam.xfam.org/family/PF05956" xlink:title="APC basic domain"><rect fill="#ceb86c" x="0" y="0" width="120.098488" height="24.000000" filter="url(#ds)"/></a></g>
<g transform="translate(925.974323,252.482536)"><a xlink:href="https://pfam.xfam.org/family/PF05937" xlink:title="EB-1 Binding Domain"><rect fill="#b879e2" x="0" y="0" width="59.025677" height="24.000000" filter="url(#ds)"/></a></g>
<g class="axis">
<line x1="15.000000" x2="985.000000" y1="286.482536" y2="286.482536" stroke="#AAAAAA" /><line x1="15.000000" x2="15.000000" y1="286.482536" y2="291.482536" stroke="#AAAAAA" /><line x1="32.059444" x2="32.059444" y1="286.482536" y2="291.482536" stroke="#AAAAAA" /><text style="font-size:10px;font-family:Arial;fill:#000000;" text-anchor="middle" x="32.059444" y="301.482536">50</text><line x1="53.895533" x2="53.895533" y1="286.482536" y2="291.482536" stroke="#AAAAAA" /><text style="font-size:10px;font-family:Arial;fill:#000000;" text-anchor="middle" x="53.895533" y="301.482536">114</text><line x1="75.390433" x2="75.390433" y1="286.482536" y2="291.482536" stroke="#AAAAAA" /><text style="font-size:10px;font-family:Arial;fill:#000000;" text-anchor="middle" x="75.390433" y="301.482536">177</text><line x1="96.544144" x2="96.544144" y1="286.482536" y2="291.482536" stroke="#AAAAAA" /><text style="font-size:10px;font-family:Arial;fill:#000000;" text-anchor="middle" x="96.544144" y="301.482536">239</text><line x1="117.015477" x2="117.015477" y1="286.482536" y2="291.482536" stroke="#AAAAAA" /><text style="font-size:10px;font-family:Arial;fill:#000000;" text-anchor="middle" x="117.015477" y="301.482536">299</text><line x1="138.169187" x2="138.169187" y1="286.482536" y2="291.482536" stroke="#AAAAAA" /><text style="font-size:10px;font-family:Arial;fill:#000000;" text-anchor="middle" x="138.169187" y="301.482536">361</text><line x1="160.346465" x2="160.346465" y1="286.482536" y2="291.482536" stroke="#AAAAAA" /><text style="font-size:10px;font-family:Arial;fill:#000000;" text-anchor="middle" x="160.346465" y="301.482536">426</text><line x1="193.782976" x2="193.782976" y1="286.482536" y2="291.482536" stroke="#AAAAAA" /><text style="font-size:10px;font-family:Arial;fill:#000000;" text-anchor="middle" x="193.782976" y="301.482536">524</text><line x1="213.571931" x2="213.571931" y1="286.482536" y2="291.482536" stroke="#AAAAAA" /><text style="font-size:10px;font-family:Arial;fill:#000000;" text-anchor="middle" x="213.571931" y="301.482536">582</text><line x1="233.360886" x2="233.360886" y1="286.482536" y2="291.482536" stroke="#AAAAAA" /><text style="font-size:10px;font-family:Arial;fill:#000000;" text-anchor="middle" x="233.360886" y="301.482536">640</text><line x1="268.503342" x2="268.503342" y1="286.482536" y2="291.482536" stroke="#AAAAAA" /><text style="font-size:10px;font-family:Arial;fill:#000000;" text-anchor="middle" x="268.503342" y="301.482536">743</text><line x1="288.292297" x2="288.292297" y1="286.482536" y2="291.482536" stroke="#AAAAAA" /><text style="font-size:10px;font-family:Arial;fill:#000000;" text-anchor="middle" x="288.292297" y="301.482536">801</text><line x1="316.269785" x2="316.269785" y1="286.482536" y2="291.482536" stroke="#AAAAAA" /><text style="font-size:10px;font-family:Arial;fill:#000000;" text-anchor="middle" x="316.269785" y="301.482536">883</text><line x1="336.741119" x2="336.741119" y1="286.482536" y2="291.482536" stroke="#AAAAAA" /><text style="font-size:10px;font-family:Arial;fill:#000000;" text-anchor="middle" x="336.741119" y="301.482536">943</text><line x1="358.918396" x2="358.918396" y1="286.482536" y2="291.482536" stroke="#AAAAAA" /><text style="font-size:10px;font-family:Arial;fill:#000000;" text-anchor="middle" x="358.918396" y="301.482536">1008</text><line x1="385.189940" x2="385.189940" y1="286.482536" y2="291.482536" stroke="#AAAAAA" /><text style="font-size:10px;font-family:Arial;fill:#000000;" text-anchor="middle" x="385.189940" y="301.482536">1085</text><line x1="410.096729" x2="410.096729" y1="286.482536" y2="291.482536" stroke="#AAAAAA" /><text style="font-size:10px;font-family:Arial;fill:#000000;" text-anchor="middle" x="410.096729" y="301.482536">1158</text><line x1="437.050651" x2="437.050651" y1="286.482536" y2="291.482536" stroke="#AAAAAA" /><text style="font-size:10px;font-family:Arial;fill:#000000;" text-anchor="middle" x="437.050651" y="301.482536">1237</text><line x1="457.180795" x2="457.180795" y1="286.482536" y2="291.482536" stroke="#AAAAAA" /><text style="font-size:10px;font-family:Arial;fill:#000000;" text-anchor="middle" x="457.180795" y="301.482536">1296</text><line x1="477.310939" x2="477.310939" y1="286.482536" y2="291.482536" stroke="#AAAAAA" /><text style="font-size:10px;font-family:Arial;fill:#000000;" text-anchor="middle" x="477.310939" y="301.482536">1355</text><line x1="497.099894" x2="497.099894" y1="286.482536" y2="291.482536" stroke="#AAAAAA" /><text style="font-size:10px;font-family:Arial;fill:#000000;" text-anchor="middle" x="497.099894" y="301.482536">1413</text><line x1="517.230039" x2="517.230039" y1="286.482536" y2="291.482536" stroke="#AAAAAA" /><text style="font-size:10px;font-family:Arial;fill:#000000;" text-anchor="middle" x="517.230039" y="301.482536">1472</text><line x1="537.360183" x2="537.360183" y1="286.482536" y2="291.482536" stroke="#AAAAAA" /><text style="font-size:10px;font-family:Arial;fill:#000000;" text-anchor="middle" x="537.360183" y="301.482536">1531</text><line x1="573.526205" x2="573.526205" y1="286.482536" y2="291.482536" stroke="#AAAAAA" /><text style="font-size:10px;font-family:Arial;fill:#000000;" text-anchor="middle" x="573.526205" y="301.482536">1637</text><line x1="600.138938" x2="600.138938" y1="286.482536" y2="291.482536" stroke="#AAAAAA" /><text style="font-size:10px;font-family:Arial;fill:#000000;" text-anchor="middle" x="600.138938" y="301.482536">1715</text><line x1="642.446359" x2="642.446359" y1="286.482536" y2="291.482536" stroke="#AAAAAA" /><text style="font-size:10px;font-family:Arial;fill:#000000;" text-anchor="middle" x="642.446359" y="301.482536">1839</text><line x1="690.212803" x2="690.212803" y1="286.482536" y2="291.482536" stroke="#AAAAAA" /><text style="font-size:10px;font-family:Arial;fill:#000000;" text-anchor="middle" x="690.212803" y="301.482536">1979</text><line x1="714.778403" x2="714.778403" y1="286.482536" y2="291.482536" stroke="#AAAAAA" /><text style="font-size:10px;font-family:Arial;fill:#000000;" text-anchor="middle" x="714.778403" y="301.482536">2051</text><line x1="773.462891" x2="773.462891" y1="286.482536" y2="291.482536" stroke="#AAAAAA" /><text style="font-size:10px;font-family:Arial;fill:#000000;" text-anchor="middle" x="773.462891" y="301.482536">2223</text><line x1="821.570524" x2="821.570524" y1="286.482536" y2="291.482536" stroke="#AAAAAA" /><text style="font-size:10px;font-family:Arial;fill:#000000;" text-anchor="middle" x="821.570524" y="301.482536">2364</text><line x1="893.561379" x2="893.561379" y1="286.482536" y2="291.482536" stroke="#AAAAAA" /><text style="font-size:10px;font-family:Arial;fill:#000000;" text-anchor="middle" x="893.561379" y="301.482536">2575</text><line x1="925.974323" x2="925.974323" y1="286.482536" y2="291.482536" stroke="#AAAAAA" /><text style="font-size:10px;font-family:Arial;fill:#000000;" text-anchor="middle" x="925.974323" y="301.482536">2670</text><line x1="985.000000" x2="985.000000" y1="286.482536" y2="291.482536" stroke="#AAAAAA" /><text style="font-size:10px;font-family:Arial;fill:#000000;" text-anchor="middle" x="985.000000" y="301.482536">2843</text></g>
</svg>
