<?xml version='1.0'?>
<svg xmlns="http://www.w3.org/2000/svg" xmlns:xlink="http://www.w3.org/1999/xlink" width="1000.000000" height="193.813972">
<defs>
  <filter id="ds" x="0" y="0">
    <feOffset in="SourceAlpha" dx="2" dy="2" />
    <feComponentTransfer><feFuncA type="linear" slope="0.2"/></feComponentTransfer>
    <feGaussianBlur result="blurOut" stdDeviation="1" />
    <feBlend in="SourceGraphic" in2="blurOut" mode="normal" />
  </filter>
  <pattern id="disordered-hatch" patternUnits="userSpaceOnUse" width="4" height="4">
    <path d="M-1,1 l2,-2 M0,4 l4,-4 M3,5 l2,-2" stroke="#000000" opacity="0.3" />
  </pattern>
</defs>
<line x1="132.164114" x2="132.164114" y1="89.313972" y2="129.813972" stroke="#BABDB6" stroke-width="2"/><a xlink:title="G276fs"><circle cx="132.164114" cy="89.313972" r="4.000000" fill="#228b22" /></a><line x1="136.833698" x2="136.833698" y1="101.813972" y2="129.813972" stroke="#BABDB6" stroke-width="2"/><a xlink:title="P287fs"><circle cx="136.833698" cy="101.813972" r="4.000000" fill="#228b22" /></a><line x1="191.170678" x2="191.170678" y1="89.313972" y2="129.813972" stroke="#BABDB6" stroke-width="2"/><a xlink:title="H415fs"><circle cx="191.170678" cy="89.313972" r="4.000000" fill="#228b22" /></a><line x1="195.415755" x2="195.415755" y1="89.313972" y2="129.813972" stroke="#BABDB6" stroke-width="2"/><a xlink:title="Q425fs"><circle cx="195.415755" cy="89.313972" r="4.000000" fill="#228b22" /></a><line x1="199.236324" x2="199.236324" y1="101.813972" y2="129.813972" stroke="#BABDB6" stroke-width="2"/><a xlink:title="M434fs"><circle cx="199.236324" cy="101.813972" r="4.000000" fill="#228b22" /></a><line x1="215.792123" x2="215.792123" y1="76.813972" y2="129.813972" stroke="#BABDB6" stroke-width="2"/><a xlink:title="Q473fs"><circle cx="215.792123" cy="76.813972" r="4.000000" fill="#228b22" /></a><line x1="217.490153" x2="217.490153" y1="89.313972" y2="129.813972" stroke="#BABDB6" stroke-width="2"/><a xlink:title="H477fs"><circle cx="217.490153" cy="89.313972" r="4.000000" fill="#228b22" /></a><line x1="220.886214" x2="220.886214" y1="101.813972" y2="129.813972" stroke="#BABDB6" stroke-width="2"/><a xlink:title="Y485fs"><circle cx="220.886214" cy="101.813972" r="4.000000" fill="#228b22" /></a><line x1="229.376368" x2="229.376368" y1="101.813972" y2="129.813972" stroke="#BABDB6" stroke-width="2"/><a xlink:title="Q505fs"><circle cx="229.376368" cy="101.813972" r="4.000000" fill="#228b22" /></a><line x1="246.781182" x2="246.781182" y1="78.427024" y2="129.813972" stroke="#BABDB6" stroke-width="2"/><a xlink:title="Q546fs"><circle cx="246.781182" cy="78.427024" r="6.194056" fill="#228b22" /></a><line x1="248.903720" x2="248.903720" y1="101.813972" y2="129.813972" stroke="#BABDB6" stroke-width="2"/><a xlink:title="Y551fs"><circle cx="248.903720" cy="101.813972" r="7.628983" fill="#228b22" /></a><line x1="265.459519" x2="265.459519" y1="76.813972" y2="129.813972" stroke="#BABDB6" stroke-width="2"/><a xlink:title="T590fs"><circle cx="265.459519" cy="76.813972" r="4.000000" fill="#228b22" /></a><line x1="265.884026" x2="265.884026" y1="89.313972" y2="129.813972" stroke="#BABDB6" stroke-width="2"/><a xlink:title="A591fs"><circle cx="265.884026" cy="89.313972" r="4.000000" fill="#228b22" /></a><line x1="270.978118" x2="270.978118" y1="89.313972" y2="129.813972" stroke="#BABDB6" stroke-width="2"/><a xlink:title="L603fs"><circle cx="270.978118" cy="89.313972" r="4.000000" fill="#228b22" /></a><line x1="276.921225" x2="276.921225" y1="76.813972" y2="129.813972" stroke="#BABDB6" stroke-width="2"/><a xlink:title="S617fs"><circle cx="276.921225" cy="76.813972" r="4.000000" fill="#228b22" /></a><line x1="278.194748" x2="278.194748" y1="89.313972" y2="129.813972" stroke="#BABDB6" stroke-width="2"/><a xlink:title="S620fs"><circle cx="278.194748" cy="89.313972" r="4.000000" fill="#228b22" /></a><line x1="281.590810" x2="281.590810" y1="101.813972" y2="129.813972" stroke="#BABDB6" stroke-width="2"/><a xlink:title="M628fs"><circle cx="281.590810" cy="101.813972" r="4.000000" fill="#228b22" /></a><line x1="301.118162" x2="301.118162" y1="101.813972" y2="129.813972" stroke="#BABDB6" stroke-width="2"/><a xlink:title="S674fs"><circle cx="301.118162" cy="101.813972" r="4.000000" fill="#228b22" /></a><line x1="311.730853" x2="311.730853" y1="101.813972" y2="129.813972" stroke="#BABDB6" stroke-width="2"/><a xlink:title="P699fs"><circle cx="311.730853" cy="101.813972" r="4.000000" fill="#228b22" /></a><line x1="318.522976" x2="318.522976" y1="47.751178" y2="129.813972" stroke="#BABDB6" stroke-width="2"/><a xlink:title="S715fs"><circle cx="318.522976" cy="47.751178" r="4.000000" fill="#228b22" /></a><line x1="323.192560" x2="323.192560" y1="39.313972" y2="129.813972" stroke="#BABDB6" stroke-width="2"/><a xlink:title="P726fs"><circle cx="323.192560" cy="39.313972" r="5.354265" fill="#228b22" /></a><line x1="323.617068" x2="323.617068" y1="51.813972" y2="129.813972" stroke="#BABDB6" stroke-width="2"/><a xlink:title="R727fs"><circle cx="323.617068" cy="51.813972" r="4.000000" fill="#228b22" /></a><line x1="324.041575" x2="324.041575" y1="64.313972" y2="129.813972" stroke="#BABDB6" stroke-width="2"/><a xlink:title="P728fs"><circle cx="324.041575" cy="64.313972" r="4.000000" fill="#228b22" /></a><line x1="324.466083" x2="324.466083" y1="76.813972" y2="129.813972" stroke="#BABDB6" stroke-width="2"/><a xlink:title="P729fs"><circle cx="324.466083" cy="76.813972" r="4.000000" fill="#228b22" /></a><line x1="326.588621" x2="326.588621" y1="89.313972" y2="129.813972" stroke="#BABDB6" stroke-width="2"/><a xlink:title="D734fs"><circle cx="326.588621" cy="89.313972" r="4.000000" fill="#228b22" /></a><line x1="327.862144" x2="327.862144" y1="101.813972" y2="129.813972" stroke="#BABDB6" stroke-width="2"/><a xlink:title="M737fs"><circle cx="327.862144" cy="101.813972" r="4.000000" fill="#228b22" /></a><line x1="336.776805" x2="336.776805" y1="79.528644" y2="129.813972" stroke="#BABDB6" stroke-width="2"/><a xlink:title="Q758fs"><circle cx="336.776805" cy="79.528644" r="5.354265" fill="#228b22" /></a><line x1="340.172867" x2="340.172867" y1="101.813972" y2="129.813972" stroke="#BABDB6" stroke-width="2"/><a xlink:title="Q766fs"><circle cx="340.172867" cy="101.813972" r="7.261776" fill="#228b22" /></a><line x1="347.389497" x2="347.389497" y1="76.813972" y2="129.813972" stroke="#BABDB6" stroke-width="2"/><a xlink:title="T783fs"><circle cx="347.389497" cy="76.813972" r="4.000000" fill="#228b22" /></a><line x1="352.059081" x2="352.059081" y1="32.525711" y2="129.813972" stroke="#BABDB6" stroke-width="2"/><a xlink:title="G794fs"><circle cx="352.059081" cy="32.525711" r="4.000000" fill="#228b22" /></a><line x1="352.483589" x2="352.483589" y1="45.025711" y2="129.813972" stroke="#BABDB6" stroke-width="2"/><a xlink:title="S795fs"><circle cx="352.483589" cy="45.025711" r="4.000000" fill="#228b22" /></a><line x1="355.030635" x2="355.030635" y1="68.412660" y2="129.813972" stroke="#BABDB6" stroke-width="2"/><a xlink:title="G801fs"><circle cx="355.030635" cy="68.412660" r="7.628983" fill="#228b22" /></a><line x1="355.455142" x2="355.455142" y1="89.313972" y2="129.813972" stroke="#BABDB6" stroke-width="2"/><a xlink:title="Q802fs"><circle cx="355.455142" cy="89.313972" r="6.800437" fill="#228b22" /></a><line x1="358.002188" x2="358.002188" y1="89.313972" y2="129.813972" stroke="#BABDB6" stroke-width="2"/><a xlink:title="G808fs"><circle cx="358.002188" cy="89.313972" r="4.000000" fill="#228b22" /></a><line x1="362.247265" x2="362.247265" y1="101.813972" y2="129.813972" stroke="#BABDB6" stroke-width="2"/><a xlink:title="L818fs"><circle cx="362.247265" cy="101.813972" r="4.000000" fill="#228b22" /></a><line x1="381.774617" x2="381.774617" y1="89.313972" y2="129.813972" stroke="#BABDB6" stroke-width="2"/><a xlink:title="G864fs"><circle cx="381.774617" cy="89.313972" r="4.000000" fill="#228b22" /></a><line x1="386.444201" x2="386.444201" y1="101.813972" y2="129.813972" stroke="#BABDB6" stroke-width="2"/><a xlink:title="M875fs"><circle cx="386.444201" cy="101.813972" r="4.000000" fill="#228b22" /></a><line x1="392.811816" x2="392.811816" y1="101.813972" y2="129.813972" stroke="#BABDB6" stroke-width="2"/><a xlink:title="M890fs"><circle cx="392.811816" cy="101.813972" r="6.194056" fill="#228b22" /></a><line x1="404.273523" x2="404.273523" y1="76.813972" y2="129.813972" stroke="#BABDB6" stroke-width="2"/><a xlink:title="N917fs"><circle cx="404.273523" cy="76.813972" r="5.354265" fill="#228b22" /></a><line x1="406.396061" x2="406.396061" y1="89.313972" y2="129.813972" stroke="#BABDB6" stroke-width="2"/><a xlink:title="G922fs"><circle cx="406.396061" cy="89.313972" r="4.000000" fill="#228b22" /></a><line x1="407.245077" x2="407.245077" y1="101.813972" y2="129.813972" stroke="#BABDB6" stroke-width="2"/><a xlink:title="M924fs"><circle cx="407.245077" cy="101.813972" r="4.000000" fill="#228b22" /></a><line x1="417.433260" x2="417.433260" y1="101.813972" y2="129.813972" stroke="#BABDB6" stroke-width="2"/><a xlink:title="Y948fs"><circle cx="417.433260" cy="101.813972" r="4.000000" fill="#228b22" /></a><line x1="427.196937" x2="427.196937" y1="101.813972" y2="129.813972" stroke="#BABDB6" stroke-width="2"/><a xlink:title="G971fs"><circle cx="427.196937" cy="101.813972" r="4.000000" fill="#228b22" /></a><line x1="437.385120" x2="437.385120" y1="89.313972" y2="129.813972" stroke="#BABDB6" stroke-width="2"/><a xlink:title="S995fs"><circle cx="437.385120" cy="89.313972" r="4.000000" fill="#228b22" /></a><line x1="439.932166" x2="439.932166" y1="89.313972" y2="129.813972" stroke="#BABDB6" stroke-width="2"/><a xlink:title="S1001fs"><circle cx="439.932166" cy="89.313972" r="4.000000" fill="#228b22" /></a><line x1="445.875274" x2="445.875274" y1="101.813972" y2="129.813972" stroke="#BABDB6" stroke-width="2"/><a xlink:title="G1015fs"><circle cx="445.875274" cy="101.813972" r="4.000000" fill="#228b22" /></a><line x1="470.072210" x2="470.072210" y1="72.751178" y2="129.813972" stroke="#BABDB6" stroke-width="2"/><a xlink:title="K1072fs"><circle cx="470.072210" cy="72.751178" r="8.774677" fill="#0000ff" /></a><line x1="470.496718" x2="470.496718" y1="89.313972" y2="129.813972" stroke="#BABDB6" stroke-width="2"/><a xlink:title="W1073fs"><circle cx="470.496718" cy="89.313972" r="5.354265" fill="#228b22" /></a><line x1="471.345733" x2="471.345733" y1="101.813972" y2="129.813972" stroke="#BABDB6" stroke-width="2"/><a xlink:title="E1075fs"><circle cx="471.345733" cy="101.813972" r="4.000000" fill="#228b22" /></a><line x1="479.411379" x2="479.411379" y1="89.313972" y2="129.813972" stroke="#BABDB6" stroke-width="2"/><a xlink:title="K1094fs"><circle cx="479.411379" cy="89.313972" r="6.194056" fill="#228b22" /></a><line x1="479.835886" x2="479.835886" y1="101.813972" y2="129.813972" stroke="#BABDB6" stroke-width="2"/><a xlink:title="Q1095fs"><circle cx="479.835886" cy="101.813972" r="4.000000" fill="#228b22" /></a><line x1="487.477024" x2="487.477024" y1="68.412660" y2="129.813972" stroke="#BABDB6" stroke-width="2"/><a xlink:title="P1113fs"><circle cx="487.477024" cy="68.412660" r="4.000000" fill="#228b22" /></a><line x1="488.326039" x2="488.326039" y1="89.313972" y2="129.813972" stroke="#BABDB6" stroke-width="2"/><a xlink:title="P1115fs"><circle cx="488.326039" cy="89.313972" r="6.800437" fill="#228b22" /></a><line x1="490.024070" x2="490.024070" y1="89.313972" y2="129.813972" stroke="#BABDB6" stroke-width="2"/><a xlink:title="A1119fs"><circle cx="490.024070" cy="89.313972" r="4.000000" fill="#228b22" /></a><line x1="495.118162" x2="495.118162" y1="101.813972" y2="129.813972" stroke="#BABDB6" stroke-width="2"/><a xlink:title="Q1131fs"><circle cx="495.118162" cy="101.813972" r="4.000000" fill="#228b22" /></a><line x1="513.796499" x2="513.796499" y1="101.813972" y2="129.813972" stroke="#BABDB6" stroke-width="2"/><a xlink:title="P1175fs"><circle cx="513.796499" cy="101.813972" r="6.800437" fill="#228b22" /></a><line x1="534.172867" x2="534.172867" y1="89.313972" y2="129.813972" stroke="#BABDB6" stroke-width="2"/><a xlink:title="R1223fs"><circle cx="534.172867" cy="89.313972" r="4.000000" fill="#228b22" /></a><line x1="536.719912" x2="536.719912" y1="101.813972" y2="129.813972" stroke="#BABDB6" stroke-width="2"/><a xlink:title="N1229fs"><circle cx="536.719912" cy="101.813972" r="4.000000" fill="#228b22" /></a><line x1="551.577681" x2="551.577681" y1="101.813972" y2="129.813972" stroke="#BABDB6" stroke-width="2"/><a xlink:title="A1264fs"><circle cx="551.577681" cy="101.813972" r="4.000000" fill="#228b22" /></a><line x1="561.341357" x2="561.341357" y1="101.813972" y2="129.813972" stroke="#BABDB6" stroke-width="2"/><a xlink:title="R1287fs"><circle cx="561.341357" cy="101.813972" r="5.354265" fill="#228b22" /></a><line x1="569.407002" x2="569.407002" y1="101.813972" y2="129.813972" stroke="#BABDB6" stroke-width="2"/><a xlink:title="Q1306fs"><circle cx="569.407002" cy="101.813972" r="4.000000" fill="#228b22" /></a><line x1="577.897155" x2="577.897155" y1="72.751178" y2="129.813972" stroke="#BABDB6" stroke-width="2"/><a xlink:title="P1326fs"><circle cx="577.897155" cy="72.751178" r="8.187458" fill="#228b22" /></a><line x1="578.321663" x2="578.321663" y1="89.313972" y2="129.813972" stroke="#BABDB6" stroke-width="2"/><a xlink:title="Q1327fs"><circle cx="578.321663" cy="89.313972" r="5.354265" fill="#228b22" /></a><line x1="580.868709" x2="580.868709" y1="101.813972" y2="129.813972" stroke="#BABDB6" stroke-width="2"/><a xlink:title="Q1333fs"><circle cx="580.868709" cy="101.813972" r="4.000000" fill="#228b22" /></a><line x1="587.236324" x2="587.236324" y1="76.813972" y2="129.813972" stroke="#BABDB6" stroke-width="2"/><a xlink:title="T1348fs"><circle cx="587.236324" cy="76.813972" r="4.000000" fill="#228b22" /></a><line x1="587.660832" x2="587.660832" y1="89.313972" y2="129.813972" stroke="#BABDB6" stroke-width="2"/><a xlink:title="P1349fs"><circle cx="587.660832" cy="89.313972" r="4.000000" fill="#228b22" /></a><line x1="589.358862" x2="589.358862" y1="101.813972" y2="129.813972" stroke="#BABDB6" stroke-width="2"/><a xlink:title="P1353fs"><circle cx="589.358862" cy="101.813972" r="4.000000" fill="#228b22" /></a><line x1="599.547046" x2="599.547046" y1="89.313972" y2="129.813972" stroke="#BABDB6" stroke-width="2"/><a xlink:title="Y1377fs"><circle cx="599.547046" cy="89.313972" r="4.000000" fill="#228b22" /></a><line x1="600.396061" x2="600.396061" y1="101.813972" y2="129.813972" stroke="#BABDB6" stroke-width="2"/><a xlink:title="P1379fs"><circle cx="600.396061" cy="101.813972" r="4.000000" fill="#228b22" /></a><line x1="612.282276" x2="612.282276" y1="101.813972" y2="129.813972" stroke="#BABDB6" stroke-width="2"/><a xlink:title="P1407fs"><circle cx="612.282276" cy="101.813972" r="5.354265" fill="#228b22" /></a><line x1="631.385120" x2="631.385120" y1="89.313972" y2="129.813972" stroke="#BABDB6" stroke-width="2"/><a xlink:title="Q1452fs"><circle cx="631.385120" cy="89.313972" r="4.000000" fill="#228b22" /></a><line x1="633.507659" x2="633.507659" y1="80.912660" y2="129.813972" stroke="#BABDB6" stroke-width="2"/><a xlink:title="F1457fs"><circle cx="633.507659" cy="80.912660" r="4.000000" fill="#228b22" /></a><line x1="638.177243" x2="638.177243" y1="89.313972" y2="129.813972" stroke="#BABDB6" stroke-width="2"/><a xlink:title="P1468fs"><circle cx="638.177243" cy="89.313972" r="6.800437" fill="#228b22" /></a><line x1="644.120350" x2="644.120350" y1="89.313972" y2="129.813972" stroke="#BABDB6" stroke-width="2"/><a xlink:title="G1482fs"><circle cx="644.120350" cy="89.313972" r="4.000000" fill="#228b22" /></a><line x1="647.940919" x2="647.940919" y1="101.813972" y2="129.813972" stroke="#BABDB6" stroke-width="2"/><a xlink:title="V1491fs"><circle cx="647.940919" cy="101.813972" r="4.000000" fill="#228b22" /></a><line x1="657.280088" x2="657.280088" y1="40.019374" y2="129.813972" stroke="#BABDB6" stroke-width="2"/><a xlink:title="S1513fs"><circle cx="657.280088" cy="40.019374" r="4.000000" fill="#228b22" /></a><line x1="657.704595" x2="657.704595" y1="52.519374" y2="129.813972" stroke="#BABDB6" stroke-width="2"/><a xlink:title="T1514fs"><circle cx="657.704595" cy="52.519374" r="4.000000" fill="#228b22" /></a><line x1="658.553611" x2="658.553611" y1="65.019374" y2="129.813972" stroke="#BABDB6" stroke-width="2"/><a xlink:title="S1516fs"><circle cx="658.553611" cy="65.019374" r="4.000000" fill="#228b22" /></a><line x1="659.827133" x2="659.827133" y1="89.313972" y2="129.813972" stroke="#BABDB6" stroke-width="2"/><a xlink:title="Q1519fs"><circle cx="659.827133" cy="89.313972" r="7.931533" fill="#228b22" /></a><line x1="661.100656" x2="661.100656" y1="101.813972" y2="129.813972" stroke="#BABDB6" stroke-width="2"/><a xlink:title="A1522fs"><circle cx="661.100656" cy="101.813972" r="4.000000" fill="#228b22" /></a><line x1="678.929978" x2="678.929978" y1="89.313972" y2="129.813972" stroke="#BABDB6" stroke-width="2"/><a xlink:title="M1564fs"><circle cx="678.929978" cy="89.313972" r="4.000000" fill="#228b22" /></a><line x1="683.599562" x2="683.599562" y1="89.313972" y2="129.813972" stroke="#BABDB6" stroke-width="2"/><a xlink:title="P1575fs"><circle cx="683.599562" cy="89.313972" r="4.000000" fill="#228b22" /></a><line x1="689.542670" x2="689.542670" y1="89.313972" y2="129.813972" stroke="#BABDB6" stroke-width="2"/><a xlink:title="A1589fs"><circle cx="689.542670" cy="89.313972" r="4.000000" fill="#228b22" /></a><line x1="690.391685" x2="690.391685" y1="101.813972" y2="129.813972" stroke="#BABDB6" stroke-width="2"/><a xlink:title="L1591fs"><circle cx="690.391685" cy="101.813972" r="4.000000" fill="#228b22" /></a><line x1="704.824945" x2="704.824945" y1="76.813972" y2="129.813972" stroke="#BABDB6" stroke-width="2"/><a xlink:title="I1625fs"><circle cx="704.824945" cy="76.813972" r="4.000000" fill="#228b22" /></a><line x1="706.098468" x2="706.098468" y1="76.813972" y2="129.813972" stroke="#BABDB6" stroke-width="2"/><a xlink:title="A1628fs"><circle cx="706.098468" cy="76.813972" r="4.000000" fill="#228b22" /></a><line x1="708.645514" x2="708.645514" y1="89.313972" y2="129.813972" stroke="#BABDB6" stroke-width="2"/><a xlink:title="M1634fs"><circle cx="708.645514" cy="89.313972" r="4.000000" fill="#228b22" /></a><line x1="711.192560" x2="711.192560" y1="101.813972" y2="129.813972" stroke="#BABDB6" stroke-width="2"/><a xlink:title="T1640fs"><circle cx="711.192560" cy="101.813972" r="4.000000" fill="#228b22" /></a><line x1="729.870897" x2="729.870897" y1="101.813972" y2="129.813972" stroke="#BABDB6" stroke-width="2"/><a xlink:title="S1684fs"><circle cx="729.870897" cy="101.813972" r="4.000000" fill="#228b22" /></a><line x1="774.444201" x2="774.444201" y1="101.813972" y2="129.813972" stroke="#BABDB6" stroke-width="2"/><a xlink:title="A1789fs"><circle cx="774.444201" cy="101.813972" r="4.000000" fill="#228b22" /></a><line x1="783.783370" x2="783.783370" y1="101.813972" y2="129.813972" stroke="#BABDB6" stroke-width="2"/><a xlink:title="K1811fs"><circle cx="783.783370" cy="101.813972" r="4.000000" fill="#228b22" /></a><line x1="800.339168" x2="800.339168" y1="101.813972" y2="129.813972" stroke="#BABDB6" stroke-width="2"/><a xlink:title="D1850fs"><circle cx="800.339168" cy="101.813972" r="10.937256" fill="#0000ff" /></a><line x1="810.527352" x2="810.527352" y1="101.813972" y2="129.813972" stroke="#BABDB6" stroke-width="2"/><a xlink:title="C1874fs"><circle cx="810.527352" cy="101.813972" r="4.000000" fill="#228b22" /></a><line x1="820.715536" x2="820.715536" y1="85.251178" y2="129.813972" stroke="#BABDB6" stroke-width="2"/><a xlink:title="P1898fs"><circle cx="820.715536" cy="85.251178" r="5.354265" fill="#228b22" /></a><line x1="823.687090" x2="823.687090" y1="64.313972" y2="129.813972" stroke="#BABDB6" stroke-width="2"/><a xlink:title="K1905fs"><circle cx="823.687090" cy="64.313972" r="5.354265" fill="#228b22" /></a><line x1="827.507659" x2="827.507659" y1="64.313972" y2="129.813972" stroke="#BABDB6" stroke-width="2"/><a xlink:title="M1914fs"><circle cx="827.507659" cy="64.313972" r="4.000000" fill="#228b22" /></a><line x1="827.932166" x2="827.932166" y1="76.813972" y2="129.813972" stroke="#BABDB6" stroke-width="2"/><a xlink:title="L1915fs"><circle cx="827.932166" cy="76.813972" r="4.000000" fill="#228b22" /></a><line x1="829.630197" x2="829.630197" y1="89.313972" y2="129.813972" stroke="#BABDB6" stroke-width="2"/><a xlink:title="S1919fs"><circle cx="829.630197" cy="89.313972" r="4.000000" fill="#228b22" /></a><line x1="833.450766" x2="833.450766" y1="101.813972" y2="129.813972" stroke="#BABDB6" stroke-width="2"/><a xlink:title="K1928fs"><circle cx="833.450766" cy="101.813972" r="4.000000" fill="#228b22" /></a><line x1="844.063457" x2="844.063457" y1="101.813972" y2="129.813972" stroke="#BABDB6" stroke-width="2"/><a xlink:title="K1953fs"><circle cx="844.063457" cy="101.813972" r="4.000000" fill="#228b22" /></a><line x1="861.468271" x2="861.468271" y1="89.313972" y2="129.813972" stroke="#BABDB6" stroke-width="2"/><a xlink:title="V1994fs"><circle cx="861.468271" cy="89.313972" r="4.000000" fill="#228b22" /></a><line x1="865.713348" x2="865.713348" y1="101.813972" y2="129.813972" stroke="#BABDB6" stroke-width="2"/><a xlink:title="H2004fs"><circle cx="865.713348" cy="101.813972" r="4.000000" fill="#228b22" /></a><line x1="879.722101" x2="879.722101" y1="89.313972" y2="129.813972" stroke="#BABDB6" stroke-width="2"/><a xlink:title="Q2037fs"><circle cx="879.722101" cy="89.313972" r="4.000000" fill="#228b22" /></a><line x1="884.816193" x2="884.816193" y1="101.813972" y2="129.813972" stroke="#BABDB6" stroke-width="2"/><a xlink:title="W2049fs"><circle cx="884.816193" cy="101.813972" r="4.000000" fill="#228b22" /></a><line x1="900.098468" x2="900.098468" y1="101.813972" y2="129.813972" stroke="#BABDB6" stroke-width="2"/><a xlink:title="L2085fs"><circle cx="900.098468" cy="101.813972" r="4.000000" fill="#228b22" /></a><line x1="908.164114" x2="908.164114" y1="89.313972" y2="129.813972" stroke="#BABDB6" stroke-width="2"/><a xlink:title="S2104fs"><circle cx="908.164114" cy="89.313972" r="4.000000" fill="#228b22" /></a><line x1="910.286652" x2="910.286652" y1="101.813972" y2="129.813972" stroke="#BABDB6" stroke-width="2"/><a xlink:title="N2109fs"><circle cx="910.286652" cy="101.813972" r="4.000000" fill="#228b22" /></a><line x1="922.597374" x2="922.597374" y1="73.718493" y2="129.813972" stroke="#BABDB6" stroke-width="2"/><a xlink:title="T2138fs"><circle cx="922.597374" cy="73.718493" r="4.000000" fill="#228b22" /></a><line x1="923.870897" x2="923.870897" y1="101.813972" y2="129.813972" stroke="#BABDB6" stroke-width="2"/><a xlink:title="F2141fs"><circle cx="923.870897" cy="101.813972" r="9.198493" fill="#0000ff" /></a><line x1="934.059081" x2="934.059081" y1="89.313972" y2="129.813972" stroke="#BABDB6" stroke-width="2"/><a xlink:title="E2165fs"><circle cx="934.059081" cy="89.313972" r="4.000000" fill="#228b22" /></a><line x1="939.577681" x2="939.577681" y1="89.313972" y2="129.813972" stroke="#BABDB6" stroke-width="2"/><a xlink:title="D2178fs"><circle cx="939.577681" cy="89.313972" r="4.000000" fill="#228b22" /></a><line x1="945.520788" x2="945.520788" y1="101.813972" y2="129.813972" stroke="#BABDB6" stroke-width="2"/><a xlink:title="I2192fs"><circle cx="945.520788" cy="101.813972" r="4.000000" fill="#228b22" /></a><line x1="952.737418" x2="952.737418" y1="101.813972" y2="129.813972" stroke="#BABDB6" stroke-width="2"/><a xlink:title="Q2209fs"><circle cx="952.737418" cy="101.813972" r="5.354265" fill="#228b22" /></a><line x1="964.199125" x2="964.199125" y1="89.313972" y2="129.813972" stroke="#BABDB6" stroke-width="2"/><a xlink:title="R2236fs"><circle cx="964.199125" cy="89.313972" r="4.000000" fill="#228b22" /></a><line x1="964.623632" x2="964.623632" y1="101.813972" y2="129.813972" stroke="#BABDB6" stroke-width="2"/><a xlink:title="A2237fs"><circle cx="964.623632" cy="101.813972" r="4.000000" fill="#228b22" /></a><line x1="971.415755" x2="971.415755" y1="89.313972" y2="129.813972" stroke="#BABDB6" stroke-width="2"/><a xlink:title="L2253fs"><circle cx="971.415755" cy="89.313972" r="4.000000" fill="#228b22" /></a><line x1="974.387309" x2="974.387309" y1="101.813972" y2="129.813972" stroke="#BABDB6" stroke-width="2"/><a xlink:title="D2260fs"><circle cx="974.387309" cy="101.813972" r="4.000000" fill="#228b22" /></a><a xlink:title="ARI1A_HUMAN, AT-rich interactive domain-containing protein 1A (2285aa)"><rect fill="#BABDB6" x="15.000000" y="129.813972" width="970.000000" height="14.000000"/></a><g transform="translate(447.573304,124.813972)"><a xlink:href="https://pfam.xfam.org/family/PF01388" xlink:title="ARID/BRIGHT DNA binding domain"><rect fill="#2dcf00" x="0" y="0" width="36.083151" height="24.000000" filter="url(#ds)"/></a></g>
<g transform="translate(853.827133,124.813972)"><a xlink:href="https://pfam.xfam.org/family/PF12031" xlink:title="SWI/SNF-like complex subunit BAF250/Osa "><rect fill="#ff5353" x="0" y="0" width="108.249453" height="24.000000" filter="url(#ds)"/></a></g>
<g class="axis">
<line x1="15.000000" x2="985.000000" y1="158.813972" y2="158.813972" stroke="#AAAAAA" /><line x1="15.000000" x2="15.000000" y1="158.813972" y2="163.813972" stroke="#AAAAAA" /><line x1="15.000000" x2="15.000000" y1="158.813972" y2="163.813972" stroke="#AAAAAA" /><text style="font-size:10px;font-family:Arial;fill:#000000;" text-anchor="middle" x="15.000000" y="173.813972">0</text><line x1="132.164114" x2="132.164114" y1="158.813972" y2="163.813972" stroke="#AAAAAA" /><text style="font-size:10px;font-family:Arial;fill:#000000;" text-anchor="middle" x="132.164114" y="173.813972">276</text><line x1="191.170678" x2="191.170678" y1="158.813972" y2="163.813972" stroke="#AAAAAA" /><text style="font-size:10px;font-family:Arial;fill:#000000;" text-anchor="middle" x="191.170678" y="173.813972">415</text><line x1="215.792123" x2="215.792123" y1="158.813972" y2="163.813972" stroke="#AAAAAA" /><text style="font-size:10px;font-family:Arial;fill:#000000;" text-anchor="middle" x="215.792123" y="173.813972">473</text><line x1="246.781182" x2="246.781182" y1="158.813972" y2="163.813972" stroke="#AAAAAA" /><text style="font-size:10px;font-family:Arial;fill:#000000;" text-anchor="middle" x="246.781182" y="173.813972">546</text><line x1="270.978118" x2="270.978118" y1="158.813972" y2="163.813972" stroke="#AAAAAA" /><text style="font-size:10px;font-family:Arial;fill:#000000;" text-anchor="middle" x="270.978118" y="173.813972">603</text><line x1="301.118162" x2="301.118162" y1="158.813972" y2="163.813972" stroke="#AAAAAA" /><text style="font-size:10px;font-family:Arial;fill:#000000;" text-anchor="middle" x="301.118162" y="173.813972">674</text><line x1="323.192560" x2="323.192560" y1="158.813972" y2="163.813972" stroke="#AAAAAA" /><text style="font-size:10px;font-family:Arial;fill:#000000;" text-anchor="middle" x="323.192560" y="173.813972">726</text><line x1="347.389497" x2="347.389497" y1="158.813972" y2="163.813972" stroke="#AAAAAA" /><text style="font-size:10px;font-family:Arial;fill:#000000;" text-anchor="middle" x="347.389497" y="173.813972">783</text><line x1="381.774617" x2="381.774617" y1="158.813972" y2="163.813972" stroke="#AAAAAA" /><text style="font-size:10px;font-family:Arial;fill:#000000;" text-anchor="middle" x="381.774617" y="173.813972">864</text><line x1="404.273523" x2="404.273523" y1="158.813972" y2="163.813972" stroke="#AAAAAA" /><text style="font-size:10px;font-family:Arial;fill:#000000;" text-anchor="middle" x="404.273523" y="173.813972">917</text><line x1="427.196937" x2="427.196937" y1="158.813972" y2="163.813972" stroke="#AAAAAA" /><text style="font-size:10px;font-family:Arial;fill:#000000;" text-anchor="middle" x="427.196937" y="173.813972">971</text><line x1="447.573304" x2="447.573304" y1="158.813972" y2="163.813972" stroke="#AAAAAA" /><text style="font-size:10px;font-family:Arial;fill:#000000;" text-anchor="middle" x="447.573304" y="173.813972">1019</text><line x1="470.072210" x2="470.072210" y1="158.813972" y2="163.813972" stroke="#AAAAAA" /><text style="font-size:10px;font-family:Arial;fill:#000000;" text-anchor="middle" x="470.072210" y="173.813972">1072</text><line x1="490.024070" x2="490.024070" y1="158.813972" y2="163.813972" stroke="#AAAAAA" /><text style="font-size:10px;font-family:Arial;fill:#000000;" text-anchor="middle" x="490.024070" y="173.813972">1119</text><line x1="513.796499" x2="513.796499" y1="158.813972" y2="163.813972" stroke="#AAAAAA" /><text style="font-size:10px;font-family:Arial;fill:#000000;" text-anchor="middle" x="513.796499" y="173.813972">1175</text><line x1="534.172867" x2="534.172867" y1="158.813972" y2="163.813972" stroke="#AAAAAA" /><text style="font-size:10px;font-family:Arial;fill:#000000;" text-anchor="middle" x="534.172867" y="173.813972">1223</text><line x1="561.341357" x2="561.341357" y1="158.813972" y2="163.813972" stroke="#AAAAAA" /><text style="font-size:10px;font-family:Arial;fill:#000000;" text-anchor="middle" x="561.341357" y="173.813972">1287</text><line x1="587.236324" x2="587.236324" y1="158.813972" y2="163.813972" stroke="#AAAAAA" /><text style="font-size:10px;font-family:Arial;fill:#000000;" text-anchor="middle" x="587.236324" y="173.813972">1348</text><line x1="612.282276" x2="612.282276" y1="158.813972" y2="163.813972" stroke="#AAAAAA" /><text style="font-size:10px;font-family:Arial;fill:#000000;" text-anchor="middle" x="612.282276" y="173.813972">1407</text><line x1="633.507659" x2="633.507659" y1="158.813972" y2="163.813972" stroke="#AAAAAA" /><text style="font-size:10px;font-family:Arial;fill:#000000;" text-anchor="middle" x="633.507659" y="173.813972">1457</text><line x1="657.280088" x2="657.280088" y1="158.813972" y2="163.813972" stroke="#AAAAAA" /><text style="font-size:10px;font-family:Arial;fill:#000000;" text-anchor="middle" x="657.280088" y="173.813972">1513</text><line x1="678.929978" x2="678.929978" y1="158.813972" y2="163.813972" stroke="#AAAAAA" /><text style="font-size:10px;font-family:Arial;fill:#000000;" text-anchor="middle" x="678.929978" y="173.813972">1564</text><line x1="704.824945" x2="704.824945" y1="158.813972" y2="163.813972" stroke="#AAAAAA" /><text style="font-size:10px;font-family:Arial;fill:#000000;" text-anchor="middle" x="704.824945" y="173.813972">1625</text><line x1="729.870897" x2="729.870897" y1="158.813972" y2="163.813972" stroke="#AAAAAA" /><text style="font-size:10px;font-family:Arial;fill:#000000;" text-anchor="middle" x="729.870897" y="173.813972">1684</text><line x1="774.444201" x2="774.444201" y1="158.813972" y2="163.813972" stroke="#AAAAAA" /><text style="font-size:10px;font-family:Arial;fill:#000000;" text-anchor="middle" x="774.444201" y="173.813972">1789</text><line x1="800.339168" x2="800.339168" y1="158.813972" y2="163.813972" stroke="#AAAAAA" /><text style="font-size:10px;font-family:Arial;fill:#000000;" text-anchor="middle" x="800.339168" y="173.813972">1850</text><line x1="820.715536" x2="820.715536" y1="158.813972" y2="163.813972" stroke="#AAAAAA" /><text style="font-size:10px;font-family:Arial;fill:#000000;" text-anchor="middle" x="820.715536" y="173.813972">1898</text><line x1="844.063457" x2="844.063457" y1="158.813972" y2="163.813972" stroke="#AAAAAA" /><text style="font-size:10px;font-family:Arial;fill:#000000;" text-anchor="middle" x="844.063457" y="173.813972">1953</text><line x1="865.713348" x2="865.713348" y1="158.813972" y2="163.813972" stroke="#AAAAAA" /><text style="font-size:10px;font-family:Arial;fill:#000000;" text-anchor="middle" x="865.713348" y="173.813972">2004</text><line x1="900.098468" x2="900.098468" y1="158.813972" y2="163.813972" stroke="#AAAAAA" /><text style="font-size:10px;font-family:Arial;fill:#000000;" text-anchor="middle" x="900.098468" y="173.813972">2085</text><line x1="922.597374" x2="922.597374" y1="158.813972" y2="163.813972" stroke="#AAAAAA" /><text style="font-size:10px;font-family:Arial;fill:#000000;" text-anchor="middle" x="922.597374" y="173.813972">2138</text><line x1="945.520788" x2="945.520788" y1="158.813972" y2="163.813972" stroke="#AAAAAA" /><text style="font-size:10px;font-family:Arial;fill:#000000;" text-anchor="middle" x="945.520788" y="173.813972">2192</text><line x1="985.000000" x2="985.000000" y1="158.813972" y2="163.813972" stroke="#AAAAAA" /><text style="font-size:10px;font-family:Arial;fill:#000000;" text-anchor="middle" x="985.000000" y="173.813972">2285</text></g>
</svg>
