<?xml version='1.0'?>
<svg xmlns="http://www.w3.org/2000/svg" xmlns:xlink="http://www.w3.org/1999/xlink" width="1000.000000" height="111.000000">
<defs>
  <filter id="ds" x="0" y="0">
    <feOffset in="SourceAlpha" dx="2" dy="2" />
    <feComponentTransfer><feFuncA type="linear" slope="0.2"/></feComponentTransfer>
    <feGaussianBlur result="blurOut" stdDeviation="1" />
    <feBlend in="SourceGraphic" in2="blurOut" mode="normal" />
  </filter>
  <pattern id="disordered-hatch" patternUnits="userSpaceOnUse" width="4" height="4">
    <path d="M-1,1 l2,-2 M0,4 l4,-4 M3,5 l2,-2" stroke="#000000" opacity="0.3" />
  </pattern>
</defs>
<line x1="147.272727" x2="147.272727" y1="19.000000" y2="47.000000" stroke="#BABDB6" stroke-width="2"/><a xlink:title="T18fs"><circle cx="147.272727" cy="19.000000" r="4.000000" fill="#228b22" /></a><line x1="184.015152" x2="184.015152" y1="19.000000" y2="47.000000" stroke="#BABDB6" stroke-width="2"/><a xlink:title="G23fs"><circle cx="184.015152" cy="19.000000" r="4.000000" fill="#228b22" /></a><line x1="213.409091" x2="213.409091" y1="19.000000" y2="47.000000" stroke="#BABDB6" stroke-width="2"/><a xlink:title="E27fs"><circle cx="213.409091" cy="19.000000" r="4.000000" fill="#228b22" /></a><line x1="338.333333" x2="338.333333" y1="19.000000" y2="47.000000" stroke="#BABDB6" stroke-width="2"/><a xlink:title="Y44fs"><circle cx="338.333333" cy="19.000000" r="5.354265" fill="#0000ff" /></a><line x1="382.424242" x2="382.424242" y1="19.000000" y2="47.000000" stroke="#BABDB6" stroke-width="2"/><a xlink:title="Q50fs"><circle cx="382.424242" cy="19.000000" r="4.000000" fill="#228b22" /></a><line x1="522.045455" x2="522.045455" y1="19.000000" y2="47.000000" stroke="#BABDB6" stroke-width="2"/><a xlink:title="E69fs"><circle cx="522.045455" cy="19.000000" r="4.000000" fill="#228b22" /></a><line x1="573.484848" x2="573.484848" y1="19.000000" y2="47.000000" stroke="#BABDB6" stroke-width="2"/><a xlink:title="A76fs"><circle cx="573.484848" cy="19.000000" r="4.000000" fill="#228b22" /></a><line x1="580.833333" x2="580.833333" y1="19.000000" y2="47.000000" stroke="#BABDB6" stroke-width="2"/><a xlink:title="T77fs"><circle cx="580.833333" cy="19.000000" r="4.000000" fill="#228b22" /></a><line x1="661.666667" x2="661.666667" y1="19.000000" y2="47.000000" stroke="#BABDB6" stroke-width="2"/><a xlink:title="E88fs"><circle cx="661.666667" cy="19.000000" r="5.354265" fill="#0000ff" /></a><line x1="830.681818" x2="830.681818" y1="19.000000" y2="47.000000" stroke="#BABDB6" stroke-width="2"/><a xlink:title="G111fs"><circle cx="830.681818" cy="19.000000" r="4.000000" fill="#228b22" /></a><line x1="933.560606" x2="933.560606" y1="19.000000" y2="47.000000" stroke="#BABDB6" stroke-width="2"/><a xlink:title="D125fs"><circle cx="933.560606" cy="19.000000" r="4.000000" fill="#228b22" /></a><line x1="962.954545" x2="962.954545" y1="19.000000" y2="47.000000" stroke="#BABDB6" stroke-width="2"/><a xlink:title="Y129fs"><circle cx="962.954545" cy="19.000000" r="4.000000" fill="#228b22" /></a><a xlink:title="ARF_HUMAN, Tumor suppressor ARF {ECO:0000305} (132aa)"><rect fill="#BABDB6" x="15.000000" y="47.000000" width="970.000000" height="14.000000"/></a><g transform="translate(44.393939,42.000000)"><a xlink:href="https://pfam.xfam.org/family/PF07392" xlink:title="Cyclin-dependent kinase inhibitor 2a p19Arf N-terminus"><rect fill="#2dcf00" x="0" y="0" width="367.424242" height="24.000000" filter="url(#ds)"/></a></g>
<g class="axis">
<line x1="15.000000" x2="985.000000" y1="76.000000" y2="76.000000" stroke="#AAAAAA" /><line x1="15.000000" x2="15.000000" y1="76.000000" y2="81.000000" stroke="#AAAAAA" /><line x1="15.000000" x2="15.000000" y1="76.000000" y2="81.000000" stroke="#AAAAAA" /><text style="font-size:10px;font-family:Arial;fill:#000000;" text-anchor="middle" x="15.000000" y="91.000000">0</text><line x1="44.393939" x2="44.393939" y1="76.000000" y2="81.000000" stroke="#AAAAAA" /><text style="font-size:10px;font-family:Arial;fill:#000000;" text-anchor="middle" x="44.393939" y="91.000000">4</text><line x1="147.272727" x2="147.272727" y1="76.000000" y2="81.000000" stroke="#AAAAAA" /><text style="font-size:10px;font-family:Arial;fill:#000000;" text-anchor="middle" x="147.272727" y="91.000000">18</text><line x1="184.015152" x2="184.015152" y1="76.000000" y2="81.000000" stroke="#AAAAAA" /><text style="font-size:10px;font-family:Arial;fill:#000000;" text-anchor="middle" x="184.015152" y="91.000000">23</text><line x1="213.409091" x2="213.409091" y1="76.000000" y2="81.000000" stroke="#AAAAAA" /><text style="font-size:10px;font-family:Arial;fill:#000000;" text-anchor="middle" x="213.409091" y="91.000000">27</text><line x1="338.333333" x2="338.333333" y1="76.000000" y2="81.000000" stroke="#AAAAAA" /><text style="font-size:10px;font-family:Arial;fill:#000000;" text-anchor="middle" x="338.333333" y="91.000000">44</text><line x1="382.424242" x2="382.424242" y1="76.000000" y2="81.000000" stroke="#AAAAAA" /><text style="font-size:10px;font-family:Arial;fill:#000000;" text-anchor="middle" x="382.424242" y="91.000000">50</text><line x1="411.818182" x2="411.818182" y1="76.000000" y2="81.000000" stroke="#AAAAAA" /><text style="font-size:10px;font-family:Arial;fill:#000000;" text-anchor="middle" x="411.818182" y="91.000000">54</text><line x1="522.045455" x2="522.045455" y1="76.000000" y2="81.000000" stroke="#AAAAAA" /><text style="font-size:10px;font-family:Arial;fill:#000000;" text-anchor="middle" x="522.045455" y="91.000000">69</text><line x1="573.484848" x2="573.484848" y1="76.000000" y2="81.000000" stroke="#AAAAAA" /><text style="font-size:10px;font-family:Arial;fill:#000000;" text-anchor="middle" x="573.484848" y="91.000000">76</text><line x1="661.666667" x2="661.666667" y1="76.000000" y2="81.000000" stroke="#AAAAAA" /><text style="font-size:10px;font-family:Arial;fill:#000000;" text-anchor="middle" x="661.666667" y="91.000000">88</text><line x1="830.681818" x2="830.681818" y1="76.000000" y2="81.000000" stroke="#AAAAAA" /><text style="font-size:10px;font-family:Arial;fill:#000000;" text-anchor="middle" x="830.681818" y="91.000000">111</text><line x1="933.560606" x2="933.560606" y1="76.000000" y2="81.000000" stroke="#AAAAAA" /><text style="font-size:10px;font-family:Arial;fill:#000000;" text-anchor="middle" x="933.560606" y="91.000000">125</text><line x1="962.954545" x2="962.954545" y1="76.000000" y2="81.000000" stroke="#AAAAAA" /><text style="font-size:10px;font-family:Arial;fill:#000000;" text-anchor="middle" x="962.954545" y="91.000000">129</text><line x1="985.000000" x2="985.000000" y1="76.000000" y2="81.000000" stroke="#AAAAAA" /><text style="font-size:10px;font-family:Arial;fill:#000000;" text-anchor="middle" x="985.000000" y="91.000000">132</text></g>
</svg>
