<?xml version='1.0'?>
<svg xmlns="http://www.w3.org/2000/svg" xmlns:xlink="http://www.w3.org/1999/xlink" width="1000.000000" height="157.773897">
<defs>
  <filter id="ds" x="0" y="0">
    <feOffset in="SourceAlpha" dx="2" dy="2" />
    <feComponentTransfer><feFuncA type="linear" slope="0.2"/></feComponentTransfer>
    <feGaussianBlur result="blurOut" stdDeviation="1" />
    <feBlend in="SourceGraphic" in2="blurOut" mode="normal" />
  </filter>
  <pattern id="disordered-hatch" patternUnits="userSpaceOnUse" width="4" height="4">
    <path d="M-1,1 l2,-2 M0,4 l4,-4 M3,5 l2,-2" stroke="#000000" opacity="0.3" />
  </pattern>
</defs>
<line x1="685.022573" x2="685.022573" y1="65.773897" y2="93.773897" stroke="#BABDB6" stroke-width="2"/><a xlink:title="R306fs"><circle cx="685.022573" cy="65.773897" r="4.000000" fill="#228b22" /></a><line x1="700.349887" x2="700.349887" y1="65.773897" y2="93.773897" stroke="#BABDB6" stroke-width="2"/><a xlink:title="A313fs"><circle cx="700.349887" cy="65.773897" r="4.000000" fill="#228b22" /></a><line x1="715.677201" x2="715.677201" y1="65.773897" y2="93.773897" stroke="#BABDB6" stroke-width="2"/><a xlink:title="C320fs"><circle cx="715.677201" cy="65.773897" r="4.000000" fill="#228b22" /></a><line x1="733.194131" x2="733.194131" y1="23.304782" y2="93.773897" stroke="#BABDB6" stroke-width="2"/><a xlink:title="W328fs"><circle cx="733.194131" cy="23.304782" r="4.000000" fill="#228b22" /></a><line x1="735.383747" x2="735.383747" y1="29.886948" y2="93.773897" stroke="#BABDB6" stroke-width="2"/><a xlink:title="R329fs"><circle cx="735.383747" cy="29.886948" r="6.194056" fill="#228b22" /></a><line x1="737.573363" x2="737.573363" y1="40.773897" y2="93.773897" stroke="#BABDB6" stroke-width="2"/><a xlink:title="R330fs"><circle cx="737.573363" cy="40.773897" r="7.628983" fill="#228b22" /></a><line x1="739.762980" x2="739.762980" y1="53.273897" y2="93.773897" stroke="#BABDB6" stroke-width="2"/><a xlink:title="N331fs"><circle cx="739.762980" cy="53.273897" r="4.000000" fill="#228b22" /></a><line x1="741.952596" x2="741.952596" y1="53.273897" y2="93.773897" stroke="#BABDB6" stroke-width="2"/><a xlink:title="A332fs"><circle cx="741.952596" cy="53.273897" r="4.000000" fill="#228b22" /></a><line x1="746.331828" x2="746.331828" y1="38.485105" y2="93.773897" stroke="#BABDB6" stroke-width="2"/><a xlink:title="G334fs"><circle cx="746.331828" cy="38.485105" r="4.000000" fill="#228b22" /></a><line x1="748.521445" x2="748.521445" y1="65.773897" y2="93.773897" stroke="#BABDB6" stroke-width="2"/><a xlink:title="D335fs"><circle cx="748.521445" cy="65.773897" r="8.929597" fill="#0000ff" /></a><line x1="768.227991" x2="768.227991" y1="53.273897" y2="93.773897" stroke="#BABDB6" stroke-width="2"/><a xlink:title="Y344fs"><circle cx="768.227991" cy="53.273897" r="4.000000" fill="#228b22" /></a><line x1="772.607223" x2="772.607223" y1="65.773897" y2="93.773897" stroke="#BABDB6" stroke-width="2"/><a xlink:title="K346fs"><circle cx="772.607223" cy="65.773897" r="4.000000" fill="#228b22" /></a><line x1="781.365688" x2="781.365688" y1="53.273897" y2="93.773897" stroke="#BABDB6" stroke-width="2"/><a xlink:title="I350fs"><circle cx="781.365688" cy="53.273897" r="4.000000" fill="#228b22" /></a><line x1="783.555305" x2="783.555305" y1="65.773897" y2="93.773897" stroke="#BABDB6" stroke-width="2"/><a xlink:title="N351fs"><circle cx="783.555305" cy="65.773897" r="4.000000" fill="#228b22" /></a><line x1="790.124153" x2="790.124153" y1="53.273897" y2="93.773897" stroke="#BABDB6" stroke-width="2"/><a xlink:title="L354fs"><circle cx="790.124153" cy="53.273897" r="4.000000" fill="#228b22" /></a><line x1="794.503386" x2="794.503386" y1="53.273897" y2="93.773897" stroke="#BABDB6" stroke-width="2"/><a xlink:title="M356fs"><circle cx="794.503386" cy="53.273897" r="4.000000" fill="#228b22" /></a><line x1="796.693002" x2="796.693002" y1="53.273897" y2="93.773897" stroke="#BABDB6" stroke-width="2"/><a xlink:title="K357fs"><circle cx="796.693002" cy="53.273897" r="4.000000" fill="#228b22" /></a><line x1="801.072235" x2="801.072235" y1="65.773897" y2="93.773897" stroke="#BABDB6" stroke-width="2"/><a xlink:title="E359fs"><circle cx="801.072235" cy="65.773897" r="4.000000" fill="#228b22" /></a><line x1="807.641084" x2="807.641084" y1="53.273897" y2="93.773897" stroke="#BABDB6" stroke-width="2"/><a xlink:title="Q362fs"><circle cx="807.641084" cy="53.273897" r="4.000000" fill="#228b22" /></a><line x1="812.020316" x2="812.020316" y1="65.773897" y2="93.773897" stroke="#BABDB6" stroke-width="2"/><a xlink:title="R364fs"><circle cx="812.020316" cy="65.773897" r="4.000000" fill="#228b22" /></a><line x1="860.191874" x2="860.191874" y1="53.273897" y2="93.773897" stroke="#BABDB6" stroke-width="2"/><a xlink:title="P386fs"><circle cx="860.191874" cy="53.273897" r="4.000000" fill="#228b22" /></a><line x1="862.381490" x2="862.381490" y1="65.773897" y2="93.773897" stroke="#BABDB6" stroke-width="2"/><a xlink:title="K387fs"><circle cx="862.381490" cy="65.773897" r="4.000000" fill="#228b22" /></a><line x1="877.708804" x2="877.708804" y1="65.773897" y2="93.773897" stroke="#BABDB6" stroke-width="2"/><a xlink:title="A394fs"><circle cx="877.708804" cy="65.773897" r="4.000000" fill="#228b22" /></a><line x1="886.467269" x2="886.467269" y1="49.211102" y2="93.773897" stroke="#BABDB6" stroke-width="2"/><a xlink:title="R398fs"><circle cx="886.467269" cy="49.211102" r="4.000000" fill="#228b22" /></a><line x1="890.846501" x2="890.846501" y1="40.773897" y2="93.773897" stroke="#BABDB6" stroke-width="2"/><a xlink:title="M400fs"><circle cx="890.846501" cy="40.773897" r="5.354265" fill="#228b22" /></a><line x1="893.036117" x2="893.036117" y1="53.273897" y2="93.773897" stroke="#BABDB6" stroke-width="2"/><a xlink:title="S401fs"><circle cx="893.036117" cy="53.273897" r="4.000000" fill="#228b22" /></a><line x1="895.225734" x2="895.225734" y1="49.211102" y2="93.773897" stroke="#BABDB6" stroke-width="2"/><a xlink:title="S402fs"><circle cx="895.225734" cy="49.211102" r="4.000000" fill="#228b22" /></a><line x1="899.604966" x2="899.604966" y1="65.773897" y2="93.773897" stroke="#BABDB6" stroke-width="2"/><a xlink:title="S404fs"><circle cx="899.604966" cy="65.773897" r="5.354265" fill="#228b22" /></a><line x1="906.173815" x2="906.173815" y1="37.678418" y2="93.773897" stroke="#BABDB6" stroke-width="2"/><a xlink:title="S407fs"><circle cx="906.173815" cy="37.678418" r="4.000000" fill="#228b22" /></a><line x1="908.363431" x2="908.363431" y1="53.273897" y2="93.773897" stroke="#BABDB6" stroke-width="2"/><a xlink:title="P408fs"><circle cx="908.363431" cy="53.273897" r="9.198493" fill="#0000ff" /></a><line x1="912.742664" x2="912.742664" y1="65.773897" y2="93.773897" stroke="#BABDB6" stroke-width="2"/><a xlink:title="S410fs"><circle cx="912.742664" cy="65.773897" r="4.000000" fill="#228b22" /></a><line x1="941.207675" x2="941.207675" y1="53.273897" y2="93.773897" stroke="#BABDB6" stroke-width="2"/><a xlink:title="H423fs"><circle cx="941.207675" cy="53.273897" r="5.354265" fill="#228b22" /></a><line x1="945.586907" x2="945.586907" y1="40.773897" y2="93.773897" stroke="#BABDB6" stroke-width="2"/><a xlink:title="P425fs"><circle cx="945.586907" cy="40.773897" r="4.000000" fill="#228b22" /></a><line x1="947.776524" x2="947.776524" y1="53.273897" y2="93.773897" stroke="#BABDB6" stroke-width="2"/><a xlink:title="S426fs"><circle cx="947.776524" cy="53.273897" r="4.000000" fill="#228b22" /></a><line x1="949.966140" x2="949.966140" y1="65.773897" y2="93.773897" stroke="#BABDB6" stroke-width="2"/><a xlink:title="S427fs"><circle cx="949.966140" cy="65.773897" r="4.000000" fill="#228b22" /></a><line x1="956.534989" x2="956.534989" y1="36.711102" y2="93.773897" stroke="#BABDB6" stroke-width="2"/><a xlink:title="F430fs"><circle cx="956.534989" cy="36.711102" r="4.000000" fill="#228b22" /></a><line x1="958.724605" x2="958.724605" y1="40.773897" y2="93.773897" stroke="#BABDB6" stroke-width="2"/><a xlink:title="G431fs"><circle cx="958.724605" cy="40.773897" r="5.354265" fill="#228b22" /></a><line x1="960.914221" x2="960.914221" y1="34.191730" y2="93.773897" stroke="#BABDB6" stroke-width="2"/><a xlink:title="P432fs"><circle cx="960.914221" cy="34.191730" r="4.000000" fill="#228b22" /></a><line x1="963.103837" x2="963.103837" y1="46.691730" y2="93.773897" stroke="#BABDB6" stroke-width="2"/><a xlink:title="H433fs"><circle cx="963.103837" cy="46.691730" r="4.000000" fill="#228b22" /></a><line x1="965.293454" x2="965.293454" y1="46.691730" y2="93.773897" stroke="#BABDB6" stroke-width="2"/><a xlink:title="H434fs"><circle cx="965.293454" cy="46.691730" r="6.194056" fill="#228b22" /></a><line x1="969.672686" x2="969.672686" y1="36.711102" y2="93.773897" stroke="#BABDB6" stroke-width="2"/><a xlink:title="S436fs"><circle cx="969.672686" cy="36.711102" r="6.194056" fill="#228b22" /></a><line x1="971.862302" x2="971.862302" y1="53.273897" y2="93.773897" stroke="#BABDB6" stroke-width="2"/><a xlink:title="S437fs"><circle cx="971.862302" cy="53.273897" r="5.354265" fill="#228b22" /></a><line x1="974.051919" x2="974.051919" y1="65.773897" y2="93.773897" stroke="#BABDB6" stroke-width="2"/><a xlink:title="M438fs"><circle cx="974.051919" cy="65.773897" r="4.000000" fill="#228b22" /></a><line x1="980.620767" x2="980.620767" y1="53.273897" y2="93.773897" stroke="#BABDB6" stroke-width="2"/><a xlink:title="A441fs"><circle cx="980.620767" cy="53.273897" r="4.000000" fill="#228b22" /></a><line x1="982.810384" x2="982.810384" y1="46.691730" y2="93.773897" stroke="#BABDB6" stroke-width="2"/><a xlink:title="M442fs"><circle cx="982.810384" cy="46.691730" r="4.000000" fill="#228b22" /></a><line x1="987.189616" x2="987.189616" y1="65.773897" y2="93.773897" stroke="#BABDB6" stroke-width="2"/><a xlink:title="*444fs"><circle cx="987.189616" cy="65.773897" r="6.194056" fill="#000000" /></a><a xlink:title="GATA3_HUMAN, Trans-acting T-cell-specific transcription factor GATA-3 (443aa)"><rect fill="#BABDB6" x="15.000000" y="93.773897" width="970.000000" height="14.000000"/></a><g transform="translate(590.869074,88.773897)"><a xlink:href="https://pfam.xfam.org/family/PF00320" xlink:title="GATA zinc finger"><rect fill="#2dcf00" x="0" y="0" width="74.446953" height="24.000000" filter="url(#ds)"/></a></g>
<g transform="translate(709.108352,88.773897)"><a xlink:href="https://pfam.xfam.org/family/PF00320" xlink:title="GATA zinc finger"><rect fill="#2dcf00" x="0" y="0" width="74.446953" height="24.000000" filter="url(#ds)"/></a></g>
<g class="axis">
<line x1="15.000000" x2="985.000000" y1="122.773897" y2="122.773897" stroke="#AAAAAA" /><line x1="15.000000" x2="15.000000" y1="122.773897" y2="127.773897" stroke="#AAAAAA" /><line x1="15.000000" x2="15.000000" y1="122.773897" y2="127.773897" stroke="#AAAAAA" /><text style="font-size:10px;font-family:Arial;fill:#000000;" text-anchor="middle" x="15.000000" y="137.773897">0</text><line x1="590.869074" x2="590.869074" y1="122.773897" y2="127.773897" stroke="#AAAAAA" /><text style="font-size:10px;font-family:Arial;fill:#000000;" text-anchor="middle" x="590.869074" y="137.773897">263</text><line x1="685.022573" x2="685.022573" y1="122.773897" y2="127.773897" stroke="#AAAAAA" /><text style="font-size:10px;font-family:Arial;fill:#000000;" text-anchor="middle" x="685.022573" y="137.773897">306</text><line x1="715.677201" x2="715.677201" y1="122.773897" y2="127.773897" stroke="#AAAAAA" /><text style="font-size:10px;font-family:Arial;fill:#000000;" text-anchor="middle" x="715.677201" y="137.773897">320</text><line x1="735.383747" x2="735.383747" y1="122.773897" y2="127.773897" stroke="#AAAAAA" /><text style="font-size:10px;font-family:Arial;fill:#000000;" text-anchor="middle" x="735.383747" y="137.773897">329</text><line x1="768.227991" x2="768.227991" y1="122.773897" y2="127.773897" stroke="#AAAAAA" /><text style="font-size:10px;font-family:Arial;fill:#000000;" text-anchor="middle" x="768.227991" y="137.773897">344</text><line x1="790.124153" x2="790.124153" y1="122.773897" y2="127.773897" stroke="#AAAAAA" /><text style="font-size:10px;font-family:Arial;fill:#000000;" text-anchor="middle" x="790.124153" y="137.773897">354</text><line x1="812.020316" x2="812.020316" y1="122.773897" y2="127.773897" stroke="#AAAAAA" /><text style="font-size:10px;font-family:Arial;fill:#000000;" text-anchor="middle" x="812.020316" y="137.773897">364</text><line x1="860.191874" x2="860.191874" y1="122.773897" y2="127.773897" stroke="#AAAAAA" /><text style="font-size:10px;font-family:Arial;fill:#000000;" text-anchor="middle" x="860.191874" y="137.773897">386</text><line x1="886.467269" x2="886.467269" y1="122.773897" y2="127.773897" stroke="#AAAAAA" /><text style="font-size:10px;font-family:Arial;fill:#000000;" text-anchor="middle" x="886.467269" y="137.773897">398</text><line x1="906.173815" x2="906.173815" y1="122.773897" y2="127.773897" stroke="#AAAAAA" /><text style="font-size:10px;font-family:Arial;fill:#000000;" text-anchor="middle" x="906.173815" y="137.773897">407</text><line x1="941.207675" x2="941.207675" y1="122.773897" y2="127.773897" stroke="#AAAAAA" /><text style="font-size:10px;font-family:Arial;fill:#000000;" text-anchor="middle" x="941.207675" y="137.773897">423</text><line x1="960.914221" x2="960.914221" y1="122.773897" y2="127.773897" stroke="#AAAAAA" /><text style="font-size:10px;font-family:Arial;fill:#000000;" text-anchor="middle" x="960.914221" y="137.773897">432</text><line x1="985.000000" x2="985.000000" y1="122.773897" y2="127.773897" stroke="#AAAAAA" /><text style="font-size:10px;font-family:Arial;fill:#000000;" text-anchor="middle" x="985.000000" y="137.773897">443</text></g>
</svg>
