<?xml version='1.0'?>
<svg xmlns="http://www.w3.org/2000/svg" xmlns:xlink="http://www.w3.org/1999/xlink" width="1000.000000" height="134.386948">
<defs>
  <filter id="ds" x="0" y="0">
    <feOffset in="SourceAlpha" dx="2" dy="2" />
    <feComponentTransfer><feFuncA type="linear" slope="0.2"/></feComponentTransfer>
    <feGaussianBlur result="blurOut" stdDeviation="1" />
    <feBlend in="SourceGraphic" in2="blurOut" mode="normal" />
  </filter>
  <pattern id="disordered-hatch" patternUnits="userSpaceOnUse" width="4" height="4">
    <path d="M-1,1 l2,-2 M0,4 l4,-4 M3,5 l2,-2" stroke="#000000" opacity="0.3" />
  </pattern>
</defs>
<line x1="232.044199" x2="232.044199" y1="42.386948" y2="70.386948" stroke="#BABDB6" stroke-width="2"/><a xlink:title="P81fs"><circle cx="232.044199" cy="42.386948" r="4.000000" fill="#228b22" /></a><line x1="575.027624" x2="575.027624" y1="23.304782" y2="70.386948" stroke="#BABDB6" stroke-width="2"/><a xlink:title="P209fs"><circle cx="575.027624" cy="23.304782" r="7.628983" fill="#0000ff" /></a><line x1="580.386740" x2="580.386740" y1="42.386948" y2="70.386948" stroke="#BABDB6" stroke-width="2"/><a xlink:title="T211fs"><circle cx="580.386740" cy="42.386948" r="6.194056" fill="#0000ff" /></a><line x1="591.104972" x2="591.104972" y1="42.386948" y2="70.386948" stroke="#BABDB6" stroke-width="2"/><a xlink:title="H215fs"><circle cx="591.104972" cy="42.386948" r="4.000000" fill="#228b22" /></a><line x1="851.022099" x2="851.022099" y1="42.386948" y2="70.386948" stroke="#BABDB6" stroke-width="2"/><a xlink:title="V312fs"><circle cx="851.022099" cy="42.386948" r="4.000000" fill="#228b22" /></a><a xlink:title="1B07_HUMAN, HLA class I histocompatibility antigen, B-7 alpha chain (362aa)"><rect fill="#BABDB6" x="15.000000" y="70.386948" width="970.000000" height="14.000000"/></a><g transform="translate(81.988950,65.386948)"><a xlink:href="https://pfam.xfam.org/family/PF00129" xlink:title="Class I Histocompatibility antigen, domains alpha 1 and 2"><rect fill="#2dcf00" x="0" y="0" width="476.961326" height="24.000000" filter="url(#ds)"/></a></g>
<g transform="translate(580.386740,65.386948)"><a xlink:href="https://pfam.xfam.org/family/PF07654" xlink:title="Immunoglobulin C1-set domain"><rect fill="#ff5353" x="0" y="0" width="211.685083" height="24.000000" filter="url(#ds)"/></a></g>
<g transform="translate(918.011050,65.386948)"><a xlink:href="https://pfam.xfam.org/family/PF06623" xlink:title="MHC_I C-terminus"><rect fill="#5b5bff" x="0" y="0" width="66.988950" height="24.000000" filter="url(#ds)"/></a></g>
<g class="axis">
<line x1="15.000000" x2="985.000000" y1="99.386948" y2="99.386948" stroke="#AAAAAA" /><line x1="15.000000" x2="15.000000" y1="99.386948" y2="104.386948" stroke="#AAAAAA" /><line x1="15.000000" x2="15.000000" y1="99.386948" y2="104.386948" stroke="#AAAAAA" /><text style="font-size:10px;font-family:Arial;fill:#000000;" text-anchor="middle" x="15.000000" y="114.386948">0</text><line x1="81.988950" x2="81.988950" y1="99.386948" y2="104.386948" stroke="#AAAAAA" /><text style="font-size:10px;font-family:Arial;fill:#000000;" text-anchor="middle" x="81.988950" y="114.386948">25</text><line x1="232.044199" x2="232.044199" y1="99.386948" y2="104.386948" stroke="#AAAAAA" /><text style="font-size:10px;font-family:Arial;fill:#000000;" text-anchor="middle" x="232.044199" y="114.386948">81</text><line x1="575.027624" x2="575.027624" y1="99.386948" y2="104.386948" stroke="#AAAAAA" /><text style="font-size:10px;font-family:Arial;fill:#000000;" text-anchor="middle" x="575.027624" y="114.386948">209</text><line x1="792.071823" x2="792.071823" y1="99.386948" y2="104.386948" stroke="#AAAAAA" /><text style="font-size:10px;font-family:Arial;fill:#000000;" text-anchor="middle" x="792.071823" y="114.386948">290</text><line x1="851.022099" x2="851.022099" y1="99.386948" y2="104.386948" stroke="#AAAAAA" /><text style="font-size:10px;font-family:Arial;fill:#000000;" text-anchor="middle" x="851.022099" y="114.386948">312</text><line x1="918.011050" x2="918.011050" y1="99.386948" y2="104.386948" stroke="#AAAAAA" /><text style="font-size:10px;font-family:Arial;fill:#000000;" text-anchor="middle" x="918.011050" y="114.386948">337</text><line x1="985.000000" x2="985.000000" y1="99.386948" y2="104.386948" stroke="#AAAAAA" /><text style="font-size:10px;font-family:Arial;fill:#000000;" text-anchor="middle" x="985.000000" y="114.386948">362</text></g>
</svg>
