<?xml version='1.0'?>
<svg xmlns="http://www.w3.org/2000/svg" xmlns:xlink="http://www.w3.org/1999/xlink" width="1000.000000" height="123.500000">
<defs>
  <filter id="ds" x="0" y="0">
    <feOffset in="SourceAlpha" dx="2" dy="2" />
    <feComponentTransfer><feFuncA type="linear" slope="0.2"/></feComponentTransfer>
    <feGaussianBlur result="blurOut" stdDeviation="1" />
    <feBlend in="SourceGraphic" in2="blurOut" mode="normal" />
  </filter>
  <pattern id="disordered-hatch" patternUnits="userSpaceOnUse" width="4" height="4">
    <path d="M-1,1 l2,-2 M0,4 l4,-4 M3,5 l2,-2" stroke="#000000" opacity="0.3" />
  </pattern>
</defs>
<line x1="77.456280" x2="77.456280" y1="31.500000" y2="59.500000" stroke="#BABDB6" stroke-width="2"/><a xlink:title="V81fs"><circle cx="77.456280" cy="31.500000" r="4.000000" fill="#228b22" /></a><line x1="355.039746" x2="355.039746" y1="31.500000" y2="59.500000" stroke="#BABDB6" stroke-width="2"/><a xlink:title="N441fs"><circle cx="355.039746" cy="31.500000" r="6.194056" fill="#228b22" /></a><line x1="424.435612" x2="424.435612" y1="31.500000" y2="59.500000" stroke="#BABDB6" stroke-width="2"/><a xlink:title="K531fs"><circle cx="424.435612" cy="31.500000" r="4.000000" fill="#228b22" /></a><line x1="433.688394" x2="433.688394" y1="31.500000" y2="59.500000" stroke="#BABDB6" stroke-width="2"/><a xlink:title="A543fs"><circle cx="433.688394" cy="31.500000" r="4.000000" fill="#228b22" /></a><line x1="570.937997" x2="570.937997" y1="31.500000" y2="59.500000" stroke="#BABDB6" stroke-width="2"/><a xlink:title="V721fs"><circle cx="570.937997" cy="31.500000" r="4.000000" fill="#228b22" /></a><line x1="578.648649" x2="578.648649" y1="31.500000" y2="59.500000" stroke="#BABDB6" stroke-width="2"/><a xlink:title="S731fs"><circle cx="578.648649" cy="31.500000" r="4.000000" fill="#228b22" /></a><line x1="767.559618" x2="767.559618" y1="31.500000" y2="59.500000" stroke="#BABDB6" stroke-width="2"/><a xlink:title="P976fs"><circle cx="767.559618" cy="31.500000" r="8.408415" fill="#0000ff" /></a><line x1="788.378378" x2="788.378378" y1="31.500000" y2="59.500000" stroke="#BABDB6" stroke-width="2"/><a xlink:title="S1003fs"><circle cx="788.378378" cy="31.500000" r="4.000000" fill="#228b22" /></a><line x1="838.497615" x2="838.497615" y1="31.500000" y2="59.500000" stroke="#BABDB6" stroke-width="2"/><a xlink:title="S1068fs"><circle cx="838.497615" cy="31.500000" r="5.354265" fill="#228b22" /></a><line x1="866.255962" x2="866.255962" y1="31.500000" y2="59.500000" stroke="#BABDB6" stroke-width="2"/><a xlink:title="S1104fs"><circle cx="866.255962" cy="31.500000" r="4.000000" fill="#228b22" /></a><line x1="906.351351" x2="906.351351" y1="31.500000" y2="59.500000" stroke="#BABDB6" stroke-width="2"/><a xlink:title="R1156fs"><circle cx="906.351351" cy="31.500000" r="9.316609" fill="#0000ff" /></a><line x1="934.109698" x2="934.109698" y1="19.000000" y2="59.500000" stroke="#BABDB6" stroke-width="2"/><a xlink:title="R1192fs"><circle cx="934.109698" cy="19.000000" r="4.000000" fill="#228b22" /></a><line x1="938.736089" x2="938.736089" y1="31.500000" y2="59.500000" stroke="#BABDB6" stroke-width="2"/><a xlink:title="E1198fs"><circle cx="938.736089" cy="31.500000" r="4.000000" fill="#228b22" /></a><a xlink:title="SHIP2_HUMAN, Phosphatidylinositol 3,4,5-trisphosphate 5-phosphatase 2 {ECO:0000305} (1258aa)"><rect fill="#BABDB6" x="15.000000" y="59.500000" width="970.000000" height="14.000000"/></a><g transform="translate(31.192369,54.500000)"><a xlink:href="https://pfam.xfam.org/family/PF00017" xlink:title="SH2 domain"><rect fill="#2dcf00" x="0" y="0" width="62.456280" height="24.000000" filter="url(#ds)"/></a></g>
<g transform="translate(345.786963,54.500000)"><a xlink:href="https://pfam.xfam.org/family/PF03372" xlink:title="Endonuclease/Exonuclease/phosphatase family"><rect fill="#ff5353" x="0" y="0" width="222.837838" height="24.000000" filter="url(#ds)"/></a></g>
<g transform="translate(940.278219,54.500000)"><a xlink:href="https://pfam.xfam.org/family/PF00536" xlink:title="SAM domain (Sterile alpha motif)"><rect fill="#5b5bff" x="0" y="0" width="44.721781" height="24.000000" filter="url(#ds)"/></a></g>
<g class="axis">
<line x1="15.000000" x2="985.000000" y1="88.500000" y2="88.500000" stroke="#AAAAAA" /><line x1="15.000000" x2="15.000000" y1="88.500000" y2="93.500000" stroke="#AAAAAA" /><line x1="31.192369" x2="31.192369" y1="88.500000" y2="93.500000" stroke="#AAAAAA" /><text style="font-size:10px;font-family:Arial;fill:#000000;" text-anchor="middle" x="31.192369" y="103.500000">21</text><line x1="77.456280" x2="77.456280" y1="88.500000" y2="93.500000" stroke="#AAAAAA" /><text style="font-size:10px;font-family:Arial;fill:#000000;" text-anchor="middle" x="77.456280" y="103.500000">81</text><line x1="355.039746" x2="355.039746" y1="88.500000" y2="93.500000" stroke="#AAAAAA" /><text style="font-size:10px;font-family:Arial;fill:#000000;" text-anchor="middle" x="355.039746" y="103.500000">441</text><line x1="424.435612" x2="424.435612" y1="88.500000" y2="93.500000" stroke="#AAAAAA" /><text style="font-size:10px;font-family:Arial;fill:#000000;" text-anchor="middle" x="424.435612" y="103.500000">531</text><line x1="570.937997" x2="570.937997" y1="88.500000" y2="93.500000" stroke="#AAAAAA" /><text style="font-size:10px;font-family:Arial;fill:#000000;" text-anchor="middle" x="570.937997" y="103.500000">721</text><line x1="767.559618" x2="767.559618" y1="88.500000" y2="93.500000" stroke="#AAAAAA" /><text style="font-size:10px;font-family:Arial;fill:#000000;" text-anchor="middle" x="767.559618" y="103.500000">976</text><line x1="788.378378" x2="788.378378" y1="88.500000" y2="93.500000" stroke="#AAAAAA" /><text style="font-size:10px;font-family:Arial;fill:#000000;" text-anchor="middle" x="788.378378" y="103.500000">1003</text><line x1="838.497615" x2="838.497615" y1="88.500000" y2="93.500000" stroke="#AAAAAA" /><text style="font-size:10px;font-family:Arial;fill:#000000;" text-anchor="middle" x="838.497615" y="103.500000">1068</text><line x1="866.255962" x2="866.255962" y1="88.500000" y2="93.500000" stroke="#AAAAAA" /><text style="font-size:10px;font-family:Arial;fill:#000000;" text-anchor="middle" x="866.255962" y="103.500000">1104</text><line x1="906.351351" x2="906.351351" y1="88.500000" y2="93.500000" stroke="#AAAAAA" /><text style="font-size:10px;font-family:Arial;fill:#000000;" text-anchor="middle" x="906.351351" y="103.500000">1156</text><line x1="934.109698" x2="934.109698" y1="88.500000" y2="93.500000" stroke="#AAAAAA" /><text style="font-size:10px;font-family:Arial;fill:#000000;" text-anchor="middle" x="934.109698" y="103.500000">1192</text><line x1="985.000000" x2="985.000000" y1="88.500000" y2="93.500000" stroke="#AAAAAA" /><text style="font-size:10px;font-family:Arial;fill:#000000;" text-anchor="middle" x="985.000000" y="103.500000">1258</text></g>
</svg>
