<?xml version='1.0'?>
<svg xmlns="http://www.w3.org/2000/svg" xmlns:xlink="http://www.w3.org/1999/xlink" width="1000.000000" height="160.688383">
<defs>
  <filter id="ds" x="0" y="0">
    <feOffset in="SourceAlpha" dx="2" dy="2" />
    <feComponentTransfer><feFuncA type="linear" slope="0.2"/></feComponentTransfer>
    <feGaussianBlur result="blurOut" stdDeviation="1" />
    <feBlend in="SourceGraphic" in2="blurOut" mode="normal" />
  </filter>
  <pattern id="disordered-hatch" patternUnits="userSpaceOnUse" width="4" height="4">
    <path d="M-1,1 l2,-2 M0,4 l4,-4 M3,5 l2,-2" stroke="#000000" opacity="0.3" />
  </pattern>
</defs>
<line x1="28.489254" x2="28.489254" y1="47.787071" y2="96.688383" stroke="#BABDB6" stroke-width="2"/><a xlink:title="H77fs"><circle cx="28.489254" cy="47.787071" r="4.000000" fill="#228b22" /></a><line x1="32.868882" x2="32.868882" y1="68.688383" y2="96.688383" stroke="#BABDB6" stroke-width="2"/><a xlink:title="S102fs"><circle cx="32.868882" cy="68.688383" r="6.800437" fill="#228b22" /></a><line x1="49.511468" x2="49.511468" y1="56.188383" y2="96.688383" stroke="#BABDB6" stroke-width="2"/><a xlink:title="C197fs"><circle cx="49.511468" cy="56.188383" r="4.000000" fill="#228b22" /></a><line x1="53.715911" x2="53.715911" y1="56.188383" y2="96.688383" stroke="#BABDB6" stroke-width="2"/><a xlink:title="A221fs"><circle cx="53.715911" cy="56.188383" r="4.000000" fill="#228b22" /></a><line x1="58.796280" x2="58.796280" y1="68.688383" y2="96.688383" stroke="#BABDB6" stroke-width="2"/><a xlink:title="H250fs"><circle cx="58.796280" cy="68.688383" r="4.000000" fill="#228b22" /></a><line x1="68.256276" x2="68.256276" y1="68.688383" y2="96.688383" stroke="#BABDB6" stroke-width="2"/><a xlink:title="K304fs"><circle cx="68.256276" cy="68.688383" r="4.000000" fill="#228b22" /></a><line x1="91.030341" x2="91.030341" y1="68.688383" y2="96.688383" stroke="#BABDB6" stroke-width="2"/><a xlink:title="L434fs"><circle cx="91.030341" cy="68.688383" r="4.000000" fill="#228b22" /></a><line x1="101.541448" x2="101.541448" y1="68.688383" y2="96.688383" stroke="#BABDB6" stroke-width="2"/><a xlink:title="L494fs"><circle cx="101.541448" cy="68.688383" r="4.000000" fill="#228b22" /></a><line x1="128.344772" x2="128.344772" y1="35.287071" y2="96.688383" stroke="#BABDB6" stroke-width="2"/><a xlink:title="P647fs"><circle cx="128.344772" cy="35.287071" r="6.194056" fill="#228b22" /></a><line x1="128.519957" x2="128.519957" y1="47.787071" y2="96.688383" stroke="#BABDB6" stroke-width="2"/><a xlink:title="P648fs"><circle cx="128.519957" cy="47.787071" r="4.000000" fill="#228b22" /></a><line x1="129.921438" x2="129.921438" y1="68.688383" y2="96.688383" stroke="#BABDB6" stroke-width="2"/><a xlink:title="L656fs"><circle cx="129.921438" cy="68.688383" r="6.800437" fill="#228b22" /></a><line x1="142.009211" x2="142.009211" y1="56.188383" y2="96.688383" stroke="#BABDB6" stroke-width="2"/><a xlink:title="L725fs"><circle cx="142.009211" cy="56.188383" r="4.000000" fill="#228b22" /></a><line x1="147.264764" x2="147.264764" y1="52.125589" y2="96.688383" stroke="#BABDB6" stroke-width="2"/><a xlink:title="R755fs"><circle cx="147.264764" cy="52.125589" r="4.000000" fill="#228b22" /></a><line x1="150.418096" x2="150.418096" y1="68.688383" y2="96.688383" stroke="#BABDB6" stroke-width="2"/><a xlink:title="Q773fs"><circle cx="150.418096" cy="68.688383" r="5.354265" fill="#228b22" /></a><line x1="156.724761" x2="156.724761" y1="68.688383" y2="96.688383" stroke="#BABDB6" stroke-width="2"/><a xlink:title="Q809fs"><circle cx="156.724761" cy="68.688383" r="4.000000" fill="#228b22" /></a><line x1="163.031425" x2="163.031425" y1="68.688383" y2="96.688383" stroke="#BABDB6" stroke-width="2"/><a xlink:title="R845fs"><circle cx="163.031425" cy="68.688383" r="4.000000" fill="#228b22" /></a><line x1="170.214015" x2="170.214015" y1="68.688383" y2="96.688383" stroke="#BABDB6" stroke-width="2"/><a xlink:title="P886fs"><circle cx="170.214015" cy="68.688383" r="6.800437" fill="#228b22" /></a><line x1="189.834748" x2="189.834748" y1="68.688383" y2="96.688383" stroke="#BABDB6" stroke-width="2"/><a xlink:title="P998fs"><circle cx="189.834748" cy="68.688383" r="4.000000" fill="#228b22" /></a><line x1="231.353621" x2="231.353621" y1="68.688383" y2="96.688383" stroke="#BABDB6" stroke-width="2"/><a xlink:title="G1235fs"><circle cx="231.353621" cy="68.688383" r="8.929597" fill="#0000ff" /></a><line x1="240.463247" x2="240.463247" y1="68.688383" y2="96.688383" stroke="#BABDB6" stroke-width="2"/><a xlink:title="E1287fs"><circle cx="240.463247" cy="68.688383" r="5.354265" fill="#228b22" /></a><line x1="258.507314" x2="258.507314" y1="68.688383" y2="96.688383" stroke="#BABDB6" stroke-width="2"/><a xlink:title="A1390fs"><circle cx="258.507314" cy="68.688383" r="4.000000" fill="#228b22" /></a><line x1="270.770273" x2="270.770273" y1="43.688383" y2="96.688383" stroke="#BABDB6" stroke-width="2"/><a xlink:title="P1460fs"><circle cx="270.770273" cy="43.688383" r="5.354265" fill="#228b22" /></a><line x1="271.821383" x2="271.821383" y1="43.688383" y2="96.688383" stroke="#BABDB6" stroke-width="2"/><a xlink:title="K1466fs"><circle cx="271.821383" cy="43.688383" r="4.000000" fill="#228b22" /></a><line x1="274.624345" x2="274.624345" y1="56.188383" y2="96.688383" stroke="#BABDB6" stroke-width="2"/><a xlink:title="A1482fs"><circle cx="274.624345" cy="56.188383" r="4.000000" fill="#228b22" /></a><line x1="277.252122" x2="277.252122" y1="56.188383" y2="96.688383" stroke="#BABDB6" stroke-width="2"/><a xlink:title="H1497fs"><circle cx="277.252122" cy="56.188383" r="4.000000" fill="#228b22" /></a><line x1="280.755824" x2="280.755824" y1="68.688383" y2="96.688383" stroke="#BABDB6" stroke-width="2"/><a xlink:title="E1517fs"><circle cx="280.755824" cy="68.688383" r="4.000000" fill="#228b22" /></a><line x1="307.559148" x2="307.559148" y1="24.606216" y2="96.688383" stroke="#BABDB6" stroke-width="2"/><a xlink:title="V1670fs"><circle cx="307.559148" cy="24.606216" r="5.354265" fill="#228b22" /></a><line x1="309.836554" x2="309.836554" y1="37.106216" y2="96.688383" stroke="#BABDB6" stroke-width="2"/><a xlink:title="E1683fs"><circle cx="309.836554" cy="37.106216" r="4.000000" fill="#228b22" /></a><line x1="310.362109" x2="310.362109" y1="56.188383" y2="96.688383" stroke="#BABDB6" stroke-width="2"/><a xlink:title="K1686fs"><circle cx="310.362109" cy="56.188383" r="6.194056" fill="#228b22" /></a><line x1="310.537295" x2="310.537295" y1="68.688383" y2="96.688383" stroke="#BABDB6" stroke-width="2"/><a xlink:title="R1687fs"><circle cx="310.537295" cy="68.688383" r="4.000000" fill="#228b22" /></a><line x1="339.092469" x2="339.092469" y1="68.688383" y2="96.688383" stroke="#BABDB6" stroke-width="2"/><a xlink:title="G1850fs"><circle cx="339.092469" cy="68.688383" r="4.000000" fill="#228b22" /></a><line x1="360.640238" x2="360.640238" y1="68.688383" y2="96.688383" stroke="#BABDB6" stroke-width="2"/><a xlink:title="W1973fs"><circle cx="360.640238" cy="68.688383" r="4.000000" fill="#228b22" /></a><line x1="371.151345" x2="371.151345" y1="68.688383" y2="96.688383" stroke="#BABDB6" stroke-width="2"/><a xlink:title="Q2033fs"><circle cx="371.151345" cy="68.688383" r="4.000000" fill="#228b22" /></a><line x1="386.217266" x2="386.217266" y1="68.688383" y2="96.688383" stroke="#BABDB6" stroke-width="2"/><a xlink:title="A2119fs"><circle cx="386.217266" cy="68.688383" r="6.194056" fill="#228b22" /></a><line x1="414.246885" x2="414.246885" y1="68.688383" y2="96.688383" stroke="#BABDB6" stroke-width="2"/><a xlink:title="G2279fs"><circle cx="414.246885" cy="68.688383" r="4.000000" fill="#228b22" /></a><line x1="427.385768" x2="427.385768" y1="68.688383" y2="96.688383" stroke="#BABDB6" stroke-width="2"/><a xlink:title="P2354fs"><circle cx="427.385768" cy="68.688383" r="9.711357" fill="#0000ff" /></a><line x1="433.692433" x2="433.692433" y1="56.188383" y2="96.688383" stroke="#BABDB6" stroke-width="2"/><a xlink:title="P2390fs"><circle cx="433.692433" cy="56.188383" r="4.000000" fill="#228b22" /></a><line x1="434.042803" x2="434.042803" y1="68.688383" y2="96.688383" stroke="#BABDB6" stroke-width="2"/><a xlink:title="P2392fs"><circle cx="434.042803" cy="68.688383" r="4.000000" fill="#228b22" /></a><line x1="447.882427" x2="447.882427" y1="56.188383" y2="96.688383" stroke="#BABDB6" stroke-width="2"/><a xlink:title="R2471fs"><circle cx="447.882427" cy="56.188383" r="4.000000" fill="#228b22" /></a><line x1="448.232798" x2="448.232798" y1="68.688383" y2="96.688383" stroke="#BABDB6" stroke-width="2"/><a xlink:title="Q2473fs"><circle cx="448.232798" cy="68.688383" r="4.000000" fill="#228b22" /></a><line x1="455.940943" x2="455.940943" y1="56.188383" y2="96.688383" stroke="#BABDB6" stroke-width="2"/><a xlink:title="N2517fs"><circle cx="455.940943" cy="56.188383" r="6.194056" fill="#228b22" /></a><line x1="458.568720" x2="458.568720" y1="68.688383" y2="96.688383" stroke="#BABDB6" stroke-width="2"/><a xlink:title="S2532fs"><circle cx="458.568720" cy="68.688383" r="4.000000" fill="#228b22" /></a><line x1="469.430197" x2="469.430197" y1="68.688383" y2="96.688383" stroke="#BABDB6" stroke-width="2"/><a xlink:title="L2594fs"><circle cx="469.430197" cy="68.688383" r="4.000000" fill="#228b22" /></a><line x1="490.802781" x2="490.802781" y1="68.688383" y2="96.688383" stroke="#BABDB6" stroke-width="2"/><a xlink:title="P2716fs"><circle cx="490.802781" cy="68.688383" r="4.000000" fill="#228b22" /></a><line x1="524.263139" x2="524.263139" y1="52.125589" y2="96.688383" stroke="#BABDB6" stroke-width="2"/><a xlink:title="Y2907fs"><circle cx="524.263139" cy="52.125589" r="4.000000" fill="#228b22" /></a><line x1="528.467582" x2="528.467582" y1="56.188383" y2="96.688383" stroke="#BABDB6" stroke-width="2"/><a xlink:title="P2931fs"><circle cx="528.467582" cy="56.188383" r="5.354265" fill="#228b22" /></a><line x1="531.971284" x2="531.971284" y1="68.688383" y2="96.688383" stroke="#BABDB6" stroke-width="2"/><a xlink:title="H2951fs"><circle cx="531.971284" cy="68.688383" r="4.000000" fill="#228b22" /></a><line x1="556.146830" x2="556.146830" y1="56.188383" y2="96.688383" stroke="#BABDB6" stroke-width="2"/><a xlink:title="V3089fs"><circle cx="556.146830" cy="56.188383" r="7.261776" fill="#228b22" /></a><line x1="558.424237" x2="558.424237" y1="68.688383" y2="96.688383" stroke="#BABDB6" stroke-width="2"/><a xlink:title="P3102fs"><circle cx="558.424237" cy="68.688383" r="4.000000" fill="#228b22" /></a><line x1="565.081271" x2="565.081271" y1="68.688383" y2="96.688383" stroke="#BABDB6" stroke-width="2"/><a xlink:title="K3140fs"><circle cx="565.081271" cy="68.688383" r="4.000000" fill="#228b22" /></a><line x1="637.257540" x2="637.257540" y1="68.688383" y2="96.688383" stroke="#BABDB6" stroke-width="2"/><a xlink:title="A3552fs"><circle cx="637.257540" cy="68.688383" r="4.000000" fill="#228b22" /></a><line x1="679.477154" x2="679.477154" y1="68.688383" y2="96.688383" stroke="#BABDB6" stroke-width="2"/><a xlink:title="Q3793fs"><circle cx="679.477154" cy="68.688383" r="4.000000" fill="#228b22" /></a><line x1="687.535669" x2="687.535669" y1="68.688383" y2="96.688383" stroke="#BABDB6" stroke-width="2"/><a xlink:title="Q3839fs"><circle cx="687.535669" cy="68.688383" r="4.000000" fill="#228b22" /></a><line x1="763.916381" x2="763.916381" y1="68.688383" y2="96.688383" stroke="#BABDB6" stroke-width="2"/><a xlink:title="Q4275fs"><circle cx="763.916381" cy="68.688383" r="4.000000" fill="#228b22" /></a><line x1="773.026007" x2="773.026007" y1="68.688383" y2="96.688383" stroke="#BABDB6" stroke-width="2"/><a xlink:title="S4327fs"><circle cx="773.026007" cy="68.688383" r="4.000000" fill="#228b22" /></a><line x1="794.924147" x2="794.924147" y1="68.688383" y2="96.688383" stroke="#BABDB6" stroke-width="2"/><a xlink:title="A4452fs"><circle cx="794.924147" cy="68.688383" r="4.000000" fill="#228b22" /></a><line x1="825.931913" x2="825.931913" y1="56.188383" y2="96.688383" stroke="#BABDB6" stroke-width="2"/><a xlink:title="T4629fs"><circle cx="825.931913" cy="56.188383" r="5.354265" fill="#228b22" /></a><line x1="829.610800" x2="829.610800" y1="56.188383" y2="96.688383" stroke="#BABDB6" stroke-width="2"/><a xlink:title="E4650fs"><circle cx="829.610800" cy="56.188383" r="4.000000" fill="#228b22" /></a><line x1="833.815243" x2="833.815243" y1="56.188383" y2="96.688383" stroke="#BABDB6" stroke-width="2"/><a xlink:title="L4674fs"><circle cx="833.815243" cy="56.188383" r="4.000000" fill="#228b22" /></a><line x1="838.895611" x2="838.895611" y1="68.688383" y2="96.688383" stroke="#BABDB6" stroke-width="2"/><a xlink:title="D4703fs"><circle cx="838.895611" cy="68.688383" r="4.000000" fill="#228b22" /></a><line x1="863.421528" x2="863.421528" y1="68.688383" y2="96.688383" stroke="#BABDB6" stroke-width="2"/><a xlink:title="K4843fs"><circle cx="863.421528" cy="68.688383" r="4.000000" fill="#228b22" /></a><line x1="877.085967" x2="877.085967" y1="68.688383" y2="96.688383" stroke="#BABDB6" stroke-width="2"/><a xlink:title="L4921fs"><circle cx="877.085967" cy="68.688383" r="4.000000" fill="#228b22" /></a><line x1="904.239660" x2="904.239660" y1="68.688383" y2="96.688383" stroke="#BABDB6" stroke-width="2"/><a xlink:title="A5076fs"><circle cx="904.239660" cy="68.688383" r="4.000000" fill="#228b22" /></a><line x1="917.028174" x2="917.028174" y1="56.188383" y2="96.688383" stroke="#BABDB6" stroke-width="2"/><a xlink:title="F5149fs"><circle cx="917.028174" cy="56.188383" r="4.000000" fill="#228b22" /></a><line x1="922.809283" x2="922.809283" y1="68.688383" y2="96.688383" stroke="#BABDB6" stroke-width="2"/><a xlink:title="G5182fs"><circle cx="922.809283" cy="68.688383" r="4.000000" fill="#228b22" /></a><a xlink:title="KMT2D_HUMAN, Histone-lysine N-methyltransferase 2D EC=2.1.1.43 (5537aa)"><rect fill="#BABDB6" x="15.000000" y="96.688383" width="970.000000" height="14.000000"/></a><g transform="translate(39.350731,91.688383)"><a xlink:href="https://pfam.xfam.org/family/PF13771" xlink:title="PHD-like zinc-binding domain"><rect fill="#2dcf00" x="0" y="0" width="13.839624" height="24.000000" filter="url(#ds)"/></a></g>
<g transform="translate(63.175908,91.688383)"><a xlink:href="https://pfam.xfam.org/family/PF00628" xlink:title="PHD-finger"><rect fill="#ff5353" x="0" y="0" width="8.408886" height="24.000000" filter="url(#ds)"/></a></g>
<g transform="translate(256.580278,91.688383)"><a xlink:href="https://pfam.xfam.org/family/PF00628" xlink:title="PHD-finger"><rect fill="#ff5353" x="0" y="0" width="8.759256" height="24.000000" filter="url(#ds)"/></a></g>
<g transform="translate(265.339534,91.688383)"><a xlink:href="https://pfam.xfam.org/family/PF00628" xlink:title="PHD-finger"><rect fill="#ff5353" x="0" y="0" width="8.408886" height="24.000000" filter="url(#ds)"/></a></g>
<g transform="translate(896.181145,91.688383)"><a xlink:href="https://pfam.xfam.org/family/PF13832" xlink:title="PHD-zinc-finger like domain"><rect fill="#5b5bff" x="0" y="0" width="19.971103" height="24.000000" filter="url(#ds)"/></a></g>
<g transform="translate(922.634098,91.688383)"><a xlink:href="https://pfam.xfam.org/family/PF05964" xlink:title="F/Y-rich N-terminus"><rect fill="#ebd61d" x="0" y="0" width="8.934441" height="24.000000" filter="url(#ds)"/></a></g>
<g transform="translate(932.619650,91.688383)"><a xlink:href="https://pfam.xfam.org/family/PF05965" xlink:title="F/Y rich C-terminus"><rect fill="#ba21e0" x="0" y="0" width="14.715550" height="24.000000" filter="url(#ds)"/></a></g>
<g transform="translate(962.401120,91.688383)"><a xlink:href="https://pfam.xfam.org/family/PF00856" xlink:title="SET domain"><rect fill="#ff9c42" x="0" y="0" width="18.394437" height="24.000000" filter="url(#ds)"/></a></g>
<g class="axis">
<line x1="15.000000" x2="985.000000" y1="125.688383" y2="125.688383" stroke="#AAAAAA" /><line x1="15.000000" x2="15.000000" y1="125.688383" y2="130.688383" stroke="#AAAAAA" /><line x1="28.489254" x2="28.489254" y1="125.688383" y2="130.688383" stroke="#AAAAAA" /><text style="font-size:10px;font-family:Arial;fill:#000000;" text-anchor="middle" x="28.489254" y="140.688383">77</text><line x1="49.511468" x2="49.511468" y1="125.688383" y2="130.688383" stroke="#AAAAAA" /><text style="font-size:10px;font-family:Arial;fill:#000000;" text-anchor="middle" x="49.511468" y="140.688383">197</text><line x1="91.030341" x2="91.030341" y1="125.688383" y2="130.688383" stroke="#AAAAAA" /><text style="font-size:10px;font-family:Arial;fill:#000000;" text-anchor="middle" x="91.030341" y="140.688383">434</text><line x1="128.344772" x2="128.344772" y1="125.688383" y2="130.688383" stroke="#AAAAAA" /><text style="font-size:10px;font-family:Arial;fill:#000000;" text-anchor="middle" x="128.344772" y="140.688383">647</text><line x1="150.418096" x2="150.418096" y1="125.688383" y2="130.688383" stroke="#AAAAAA" /><text style="font-size:10px;font-family:Arial;fill:#000000;" text-anchor="middle" x="150.418096" y="140.688383">773</text><line x1="189.834748" x2="189.834748" y1="125.688383" y2="130.688383" stroke="#AAAAAA" /><text style="font-size:10px;font-family:Arial;fill:#000000;" text-anchor="middle" x="189.834748" y="140.688383">998</text><line x1="231.353621" x2="231.353621" y1="125.688383" y2="130.688383" stroke="#AAAAAA" /><text style="font-size:10px;font-family:Arial;fill:#000000;" text-anchor="middle" x="231.353621" y="140.688383">1235</text><line x1="258.507314" x2="258.507314" y1="125.688383" y2="130.688383" stroke="#AAAAAA" /><text style="font-size:10px;font-family:Arial;fill:#000000;" text-anchor="middle" x="258.507314" y="140.688383">1390</text><line x1="280.755824" x2="280.755824" y1="125.688383" y2="130.688383" stroke="#AAAAAA" /><text style="font-size:10px;font-family:Arial;fill:#000000;" text-anchor="middle" x="280.755824" y="140.688383">1517</text><line x1="307.559148" x2="307.559148" y1="125.688383" y2="130.688383" stroke="#AAAAAA" /><text style="font-size:10px;font-family:Arial;fill:#000000;" text-anchor="middle" x="307.559148" y="140.688383">1670</text><line x1="339.092469" x2="339.092469" y1="125.688383" y2="130.688383" stroke="#AAAAAA" /><text style="font-size:10px;font-family:Arial;fill:#000000;" text-anchor="middle" x="339.092469" y="140.688383">1850</text><line x1="360.640238" x2="360.640238" y1="125.688383" y2="130.688383" stroke="#AAAAAA" /><text style="font-size:10px;font-family:Arial;fill:#000000;" text-anchor="middle" x="360.640238" y="140.688383">1973</text><line x1="386.217266" x2="386.217266" y1="125.688383" y2="130.688383" stroke="#AAAAAA" /><text style="font-size:10px;font-family:Arial;fill:#000000;" text-anchor="middle" x="386.217266" y="140.688383">2119</text><line x1="414.246885" x2="414.246885" y1="125.688383" y2="130.688383" stroke="#AAAAAA" /><text style="font-size:10px;font-family:Arial;fill:#000000;" text-anchor="middle" x="414.246885" y="140.688383">2279</text><line x1="447.882427" x2="447.882427" y1="125.688383" y2="130.688383" stroke="#AAAAAA" /><text style="font-size:10px;font-family:Arial;fill:#000000;" text-anchor="middle" x="447.882427" y="140.688383">2471</text><line x1="469.430197" x2="469.430197" y1="125.688383" y2="130.688383" stroke="#AAAAAA" /><text style="font-size:10px;font-family:Arial;fill:#000000;" text-anchor="middle" x="469.430197" y="140.688383">2594</text><line x1="490.802781" x2="490.802781" y1="125.688383" y2="130.688383" stroke="#AAAAAA" /><text style="font-size:10px;font-family:Arial;fill:#000000;" text-anchor="middle" x="490.802781" y="140.688383">2716</text><line x1="524.263139" x2="524.263139" y1="125.688383" y2="130.688383" stroke="#AAAAAA" /><text style="font-size:10px;font-family:Arial;fill:#000000;" text-anchor="middle" x="524.263139" y="140.688383">2907</text><line x1="556.146830" x2="556.146830" y1="125.688383" y2="130.688383" stroke="#AAAAAA" /><text style="font-size:10px;font-family:Arial;fill:#000000;" text-anchor="middle" x="556.146830" y="140.688383">3089</text><line x1="637.257540" x2="637.257540" y1="125.688383" y2="130.688383" stroke="#AAAAAA" /><text style="font-size:10px;font-family:Arial;fill:#000000;" text-anchor="middle" x="637.257540" y="140.688383">3552</text><line x1="679.477154" x2="679.477154" y1="125.688383" y2="130.688383" stroke="#AAAAAA" /><text style="font-size:10px;font-family:Arial;fill:#000000;" text-anchor="middle" x="679.477154" y="140.688383">3793</text><line x1="763.916381" x2="763.916381" y1="125.688383" y2="130.688383" stroke="#AAAAAA" /><text style="font-size:10px;font-family:Arial;fill:#000000;" text-anchor="middle" x="763.916381" y="140.688383">4275</text><line x1="794.924147" x2="794.924147" y1="125.688383" y2="130.688383" stroke="#AAAAAA" /><text style="font-size:10px;font-family:Arial;fill:#000000;" text-anchor="middle" x="794.924147" y="140.688383">4452</text><line x1="825.931913" x2="825.931913" y1="125.688383" y2="130.688383" stroke="#AAAAAA" /><text style="font-size:10px;font-family:Arial;fill:#000000;" text-anchor="middle" x="825.931913" y="140.688383">4629</text><line x1="863.421528" x2="863.421528" y1="125.688383" y2="130.688383" stroke="#AAAAAA" /><text style="font-size:10px;font-family:Arial;fill:#000000;" text-anchor="middle" x="863.421528" y="140.688383">4843</text><line x1="904.239660" x2="904.239660" y1="125.688383" y2="130.688383" stroke="#AAAAAA" /><text style="font-size:10px;font-family:Arial;fill:#000000;" text-anchor="middle" x="904.239660" y="140.688383">5076</text><line x1="931.568539" x2="931.568539" y1="125.688383" y2="130.688383" stroke="#AAAAAA" /><text style="font-size:10px;font-family:Arial;fill:#000000;" text-anchor="middle" x="931.568539" y="140.688383">5232</text><line x1="962.401120" x2="962.401120" y1="125.688383" y2="130.688383" stroke="#AAAAAA" /><text style="font-size:10px;font-family:Arial;fill:#000000;" text-anchor="middle" x="962.401120" y="140.688383">5408</text><line x1="985.000000" x2="985.000000" y1="125.688383" y2="130.688383" stroke="#AAAAAA" /><text style="font-size:10px;font-family:Arial;fill:#000000;" text-anchor="middle" x="985.000000" y="140.688383">5537</text></g>
</svg>
