<?xml version='1.0'?>
<svg xmlns="http://www.w3.org/2000/svg" xmlns:xlink="http://www.w3.org/1999/xlink" width="1000.000000" height="140.082487">
<defs>
  <filter id="ds" x="0" y="0">
    <feOffset in="SourceAlpha" dx="2" dy="2" />
    <feComponentTransfer><feFuncA type="linear" slope="0.2"/></feComponentTransfer>
    <feGaussianBlur result="blurOut" stdDeviation="1" />
    <feBlend in="SourceGraphic" in2="blurOut" mode="normal" />
  </filter>
  <pattern id="disordered-hatch" patternUnits="userSpaceOnUse" width="4" height="4">
    <path d="M-1,1 l2,-2 M0,4 l4,-4 M3,5 l2,-2" stroke="#000000" opacity="0.3" />
  </pattern>
</defs>
<line x1="24.627792" x2="24.627792" y1="35.582487" y2="76.082487" stroke="#BABDB6" stroke-width="2"/><a xlink:title="I4fs"><circle cx="24.627792" cy="35.582487" r="4.000000" fill="#228b22" /></a><line x1="27.034739" x2="27.034739" y1="35.582487" y2="76.082487" stroke="#BABDB6" stroke-width="2"/><a xlink:title="I5fs"><circle cx="27.034739" cy="35.582487" r="4.000000" fill="#228b22" /></a><line x1="31.848635" x2="31.848635" y1="35.582487" y2="76.082487" stroke="#BABDB6" stroke-width="2"/><a xlink:title="E7fs"><circle cx="31.848635" cy="35.582487" r="4.000000" fill="#228b22" /></a><line x1="34.255583" x2="34.255583" y1="35.582487" y2="76.082487" stroke="#BABDB6" stroke-width="2"/><a xlink:title="I8fs"><circle cx="34.255583" cy="35.582487" r="4.000000" fill="#228b22" /></a><line x1="39.069479" x2="39.069479" y1="48.082487" y2="76.082487" stroke="#BABDB6" stroke-width="2"/><a xlink:title="S10fs"><circle cx="39.069479" cy="48.082487" r="4.000000" fill="#228b22" /></a><line x1="48.697270" x2="48.697270" y1="35.582487" y2="76.082487" stroke="#BABDB6" stroke-width="2"/><a xlink:title="R14fs"><circle cx="48.697270" cy="35.582487" r="4.000000" fill="#228b22" /></a><line x1="51.104218" x2="51.104218" y1="48.082487" y2="76.082487" stroke="#BABDB6" stroke-width="2"/><a xlink:title="R15fs"><circle cx="51.104218" cy="48.082487" r="4.000000" fill="#228b22" /></a><line x1="70.359801" x2="70.359801" y1="48.082487" y2="76.082487" stroke="#BABDB6" stroke-width="2"/><a xlink:title="L23fs"><circle cx="70.359801" cy="48.082487" r="4.000000" fill="#228b22" /></a><line x1="89.615385" x2="89.615385" y1="48.082487" y2="76.082487" stroke="#BABDB6" stroke-width="2"/><a xlink:title="N31fs"><circle cx="89.615385" cy="48.082487" r="4.000000" fill="#228b22" /></a><line x1="111.277916" x2="111.277916" y1="35.582487" y2="76.082487" stroke="#BABDB6" stroke-width="2"/><a xlink:title="E40fs"><circle cx="111.277916" cy="35.582487" r="4.000000" fill="#228b22" /></a><line x1="113.684864" x2="113.684864" y1="48.082487" y2="76.082487" stroke="#BABDB6" stroke-width="2"/><a xlink:title="R41fs"><circle cx="113.684864" cy="48.082487" r="4.000000" fill="#228b22" /></a><line x1="123.312655" x2="123.312655" y1="35.582487" y2="76.082487" stroke="#BABDB6" stroke-width="2"/><a xlink:title="V45fs"><circle cx="123.312655" cy="35.582487" r="4.000000" fill="#228b22" /></a><line x1="128.126551" x2="128.126551" y1="35.582487" y2="76.082487" stroke="#BABDB6" stroke-width="2"/><a xlink:title="R47fs"><circle cx="128.126551" cy="35.582487" r="4.000000" fill="#228b22" /></a><line x1="130.533499" x2="130.533499" y1="48.082487" y2="76.082487" stroke="#BABDB6" stroke-width="2"/><a xlink:title="N48fs"><circle cx="130.533499" cy="48.082487" r="4.000000" fill="#228b22" /></a><line x1="140.161290" x2="140.161290" y1="48.082487" y2="76.082487" stroke="#BABDB6" stroke-width="2"/><a xlink:title="D52fs"><circle cx="140.161290" cy="48.082487" r="4.000000" fill="#228b22" /></a><line x1="152.196030" x2="152.196030" y1="35.582487" y2="76.082487" stroke="#BABDB6" stroke-width="2"/><a xlink:title="L57fs"><circle cx="152.196030" cy="35.582487" r="7.261776" fill="#228b22" /></a><line x1="157.009926" x2="157.009926" y1="35.582487" y2="76.082487" stroke="#BABDB6" stroke-width="2"/><a xlink:title="S59fs"><circle cx="157.009926" cy="35.582487" r="4.000000" fill="#228b22" /></a><line x1="159.416873" x2="159.416873" y1="48.082487" y2="76.082487" stroke="#BABDB6" stroke-width="2"/><a xlink:title="K60fs"><circle cx="159.416873" cy="48.082487" r="4.000000" fill="#228b22" /></a><line x1="166.637717" x2="166.637717" y1="31.519692" y2="76.082487" stroke="#BABDB6" stroke-width="2"/><a xlink:title="N63fs"><circle cx="166.637717" cy="31.519692" r="5.354265" fill="#228b22" /></a><line x1="169.044665" x2="169.044665" y1="35.582487" y2="76.082487" stroke="#BABDB6" stroke-width="2"/><a xlink:title="H64fs"><circle cx="169.044665" cy="35.582487" r="5.354265" fill="#228b22" /></a><line x1="173.858561" x2="173.858561" y1="48.082487" y2="76.082487" stroke="#BABDB6" stroke-width="2"/><a xlink:title="K66fs"><circle cx="173.858561" cy="48.082487" r="4.000000" fill="#228b22" /></a><line x1="193.114144" x2="193.114144" y1="31.519692" y2="76.082487" stroke="#BABDB6" stroke-width="2"/><a xlink:title="R74fs"><circle cx="193.114144" cy="31.519692" r="4.000000" fill="#228b22" /></a><line x1="195.521092" x2="195.521092" y1="48.082487" y2="76.082487" stroke="#BABDB6" stroke-width="2"/><a xlink:title="H75fs"><circle cx="195.521092" cy="48.082487" r="5.354265" fill="#228b22" /></a><line x1="202.741935" x2="202.741935" y1="48.082487" y2="76.082487" stroke="#BABDB6" stroke-width="2"/><a xlink:title="T78fs"><circle cx="202.741935" cy="48.082487" r="4.000000" fill="#228b22" /></a><line x1="224.404467" x2="224.404467" y1="48.082487" y2="76.082487" stroke="#BABDB6" stroke-width="2"/><a xlink:title="Q87fs"><circle cx="224.404467" cy="48.082487" r="4.000000" fill="#228b22" /></a><line x1="231.625310" x2="231.625310" y1="48.082487" y2="76.082487" stroke="#BABDB6" stroke-width="2"/><a xlink:title="F90fs"><circle cx="231.625310" cy="48.082487" r="4.000000" fill="#228b22" /></a><line x1="248.473945" x2="248.473945" y1="35.582487" y2="76.082487" stroke="#BABDB6" stroke-width="2"/><a xlink:title="Q97fs"><circle cx="248.473945" cy="35.582487" r="4.000000" fill="#228b22" /></a><line x1="253.287841" x2="253.287841" y1="48.082487" y2="76.082487" stroke="#BABDB6" stroke-width="2"/><a xlink:title="E99fs"><circle cx="253.287841" cy="48.082487" r="4.000000" fill="#228b22" /></a><line x1="284.578164" x2="284.578164" y1="48.082487" y2="76.082487" stroke="#BABDB6" stroke-width="2"/><a xlink:title="L112fs"><circle cx="284.578164" cy="48.082487" r="4.000000" fill="#228b22" /></a><line x1="296.612903" x2="296.612903" y1="48.082487" y2="76.082487" stroke="#BABDB6" stroke-width="2"/><a xlink:title="N117fs"><circle cx="296.612903" cy="48.082487" r="4.000000" fill="#228b22" /></a><line x1="327.903226" x2="327.903226" y1="48.082487" y2="76.082487" stroke="#BABDB6" stroke-width="2"/><a xlink:title="R130fs"><circle cx="327.903226" cy="48.082487" r="6.800437" fill="#228b22" /></a><line x1="339.937965" x2="339.937965" y1="48.082487" y2="76.082487" stroke="#BABDB6" stroke-width="2"/><a xlink:title="I135fs"><circle cx="339.937965" cy="48.082487" r="4.000000" fill="#228b22" /></a><line x1="366.414392" x2="366.414392" y1="48.082487" y2="76.082487" stroke="#BABDB6" stroke-width="2"/><a xlink:title="L146fs"><circle cx="366.414392" cy="48.082487" r="5.354265" fill="#228b22" /></a><line x1="383.263027" x2="383.263027" y1="35.582487" y2="76.082487" stroke="#BABDB6" stroke-width="2"/><a xlink:title="D153fs"><circle cx="383.263027" cy="35.582487" r="4.000000" fill="#228b22" /></a><line x1="385.669975" x2="385.669975" y1="48.082487" y2="76.082487" stroke="#BABDB6" stroke-width="2"/><a xlink:title="F154fs"><circle cx="385.669975" cy="48.082487" r="4.000000" fill="#228b22" /></a><line x1="392.890819" x2="392.890819" y1="35.582487" y2="76.082487" stroke="#BABDB6" stroke-width="2"/><a xlink:title="E157fs"><circle cx="392.890819" cy="35.582487" r="5.354265" fill="#228b22" /></a><line x1="395.297767" x2="395.297767" y1="48.082487" y2="76.082487" stroke="#BABDB6" stroke-width="2"/><a xlink:title="V158fs"><circle cx="395.297767" cy="48.082487" r="4.000000" fill="#228b22" /></a><line x1="409.739454" x2="409.739454" y1="48.082487" y2="76.082487" stroke="#BABDB6" stroke-width="2"/><a xlink:title="K164fs"><circle cx="409.739454" cy="48.082487" r="6.800437" fill="#228b22" /></a><line x1="416.960298" x2="416.960298" y1="48.082487" y2="76.082487" stroke="#BABDB6" stroke-width="2"/><a xlink:title="T167fs"><circle cx="416.960298" cy="48.082487" r="4.000000" fill="#228b22" /></a><line x1="424.181141" x2="424.181141" y1="23.082487" y2="76.082487" stroke="#BABDB6" stroke-width="2"/><a xlink:title="S170fs"><circle cx="424.181141" cy="23.082487" r="4.000000" fill="#228b22" /></a><line x1="426.588089" x2="426.588089" y1="35.582487" y2="76.082487" stroke="#BABDB6" stroke-width="2"/><a xlink:title="Q171fs"><circle cx="426.588089" cy="35.582487" r="4.000000" fill="#228b22" /></a><line x1="428.995037" x2="428.995037" y1="48.082487" y2="76.082487" stroke="#BABDB6" stroke-width="2"/><a xlink:title="R172fs"><circle cx="428.995037" cy="48.082487" r="4.000000" fill="#228b22" /></a><line x1="453.064516" x2="453.064516" y1="27.181175" y2="76.082487" stroke="#BABDB6" stroke-width="2"/><a xlink:title="L182fs"><circle cx="453.064516" cy="27.181175" r="4.000000" fill="#228b22" /></a><line x1="457.878412" x2="457.878412" y1="48.082487" y2="76.082487" stroke="#BABDB6" stroke-width="2"/><a xlink:title="N184fs"><circle cx="457.878412" cy="48.082487" r="6.800437" fill="#228b22" /></a><line x1="486.761787" x2="486.761787" y1="35.582487" y2="76.082487" stroke="#BABDB6" stroke-width="2"/><a xlink:title="H196fs"><circle cx="486.761787" cy="35.582487" r="5.354265" fill="#228b22" /></a><line x1="489.168734" x2="489.168734" y1="48.082487" y2="76.082487" stroke="#BABDB6" stroke-width="2"/><a xlink:title="K197fs"><circle cx="489.168734" cy="48.082487" r="4.000000" fill="#228b22" /></a><line x1="501.203474" x2="501.203474" y1="35.582487" y2="76.082487" stroke="#BABDB6" stroke-width="2"/><a xlink:title="T202fs"><circle cx="501.203474" cy="35.582487" r="4.000000" fill="#228b22" /></a><line x1="503.610422" x2="503.610422" y1="48.082487" y2="76.082487" stroke="#BABDB6" stroke-width="2"/><a xlink:title="I203fs"><circle cx="503.610422" cy="48.082487" r="4.000000" fill="#228b22" /></a><line x1="520.459057" x2="520.459057" y1="35.582487" y2="76.082487" stroke="#BABDB6" stroke-width="2"/><a xlink:title="T210fs"><circle cx="520.459057" cy="35.582487" r="6.194056" fill="#228b22" /></a><line x1="522.866005" x2="522.866005" y1="35.582487" y2="76.082487" stroke="#BABDB6" stroke-width="2"/><a xlink:title="C211fs"><circle cx="522.866005" cy="35.582487" r="4.000000" fill="#228b22" /></a><line x1="527.679901" x2="527.679901" y1="48.082487" y2="76.082487" stroke="#BABDB6" stroke-width="2"/><a xlink:title="P213fs"><circle cx="527.679901" cy="48.082487" r="4.000000" fill="#228b22" /></a><line x1="539.714640" x2="539.714640" y1="48.082487" y2="76.082487" stroke="#BABDB6" stroke-width="2"/><a xlink:title="C218fs"><circle cx="539.714640" cy="48.082487" r="4.000000" fill="#228b22" /></a><line x1="546.935484" x2="546.935484" y1="48.082487" y2="76.082487" stroke="#BABDB6" stroke-width="2"/><a xlink:title="K221fs"><circle cx="546.935484" cy="48.082487" r="4.000000" fill="#228b22" /></a><line x1="563.784119" x2="563.784119" y1="48.082487" y2="76.082487" stroke="#BABDB6" stroke-width="2"/><a xlink:title="N228fs"><circle cx="563.784119" cy="48.082487" r="4.000000" fill="#228b22" /></a><line x1="573.411911" x2="573.411911" y1="23.082487" y2="76.082487" stroke="#BABDB6" stroke-width="2"/><a xlink:title="T232fs"><circle cx="573.411911" cy="23.082487" r="4.000000" fill="#228b22" /></a><line x1="575.818859" x2="575.818859" y1="35.582487" y2="76.082487" stroke="#BABDB6" stroke-width="2"/><a xlink:title="R233fs"><circle cx="575.818859" cy="35.582487" r="4.000000" fill="#228b22" /></a><line x1="578.225806" x2="578.225806" y1="48.082487" y2="76.082487" stroke="#BABDB6" stroke-width="2"/><a xlink:title="R234fs"><circle cx="578.225806" cy="48.082487" r="4.000000" fill="#228b22" /></a><line x1="587.853598" x2="587.853598" y1="48.082487" y2="76.082487" stroke="#BABDB6" stroke-width="2"/><a xlink:title="F238fs"><circle cx="587.853598" cy="48.082487" r="4.000000" fill="#228b22" /></a><line x1="595.074442" x2="595.074442" y1="48.082487" y2="76.082487" stroke="#BABDB6" stroke-width="2"/><a xlink:title="F241fs"><circle cx="595.074442" cy="48.082487" r="4.000000" fill="#228b22" /></a><line x1="602.295285" x2="602.295285" y1="48.082487" y2="76.082487" stroke="#BABDB6" stroke-width="2"/><a xlink:title="P244fs"><circle cx="602.295285" cy="48.082487" r="4.000000" fill="#228b22" /></a><line x1="611.923077" x2="611.923077" y1="35.582487" y2="76.082487" stroke="#BABDB6" stroke-width="2"/><a xlink:title="P248fs"><circle cx="611.923077" cy="35.582487" r="6.194056" fill="#228b22" /></a><line x1="616.736973" x2="616.736973" y1="48.082487" y2="76.082487" stroke="#BABDB6" stroke-width="2"/><a xlink:title="C250fs"><circle cx="616.736973" cy="48.082487" r="4.000000" fill="#228b22" /></a><line x1="626.364764" x2="626.364764" y1="48.082487" y2="76.082487" stroke="#BABDB6" stroke-width="2"/><a xlink:title="K254fs"><circle cx="626.364764" cy="48.082487" r="4.000000" fill="#228b22" /></a><line x1="638.399504" x2="638.399504" y1="35.582487" y2="76.082487" stroke="#BABDB6" stroke-width="2"/><a xlink:title="H259fs"><circle cx="638.399504" cy="35.582487" r="4.000000" fill="#228b22" /></a><line x1="640.806452" x2="640.806452" y1="35.582487" y2="76.082487" stroke="#BABDB6" stroke-width="2"/><a xlink:title="K260fs"><circle cx="640.806452" cy="35.582487" r="4.000000" fill="#228b22" /></a><line x1="645.620347" x2="645.620347" y1="48.082487" y2="76.082487" stroke="#BABDB6" stroke-width="2"/><a xlink:title="N262fs"><circle cx="645.620347" cy="48.082487" r="4.000000" fill="#228b22" /></a><line x1="657.655087" x2="657.655087" y1="21.775587" y2="76.082487" stroke="#BABDB6" stroke-width="2"/><a xlink:title="K267fs"><circle cx="657.655087" cy="21.775587" r="9.527496" fill="#0000ff" /></a><line x1="660.062035" x2="660.062035" y1="48.082487" y2="76.082487" stroke="#BABDB6" stroke-width="2"/><a xlink:title="D268fs"><circle cx="660.062035" cy="48.082487" r="8.602300" fill="#0000ff" /></a><line x1="674.503722" x2="674.503722" y1="48.082487" y2="76.082487" stroke="#BABDB6" stroke-width="2"/><a xlink:title="W274fs"><circle cx="674.503722" cy="48.082487" r="5.354265" fill="#228b22" /></a><line x1="688.945409" x2="688.945409" y1="48.082487" y2="76.082487" stroke="#BABDB6" stroke-width="2"/><a xlink:title="I280fs"><circle cx="688.945409" cy="48.082487" r="4.000000" fill="#228b22" /></a><line x1="696.166253" x2="696.166253" y1="48.082487" y2="76.082487" stroke="#BABDB6" stroke-width="2"/><a xlink:title="P283fs"><circle cx="696.166253" cy="48.082487" r="4.000000" fill="#228b22" /></a><line x1="708.200993" x2="708.200993" y1="29.000320" y2="76.082487" stroke="#BABDB6" stroke-width="2"/><a xlink:title="E288fs"><circle cx="708.200993" cy="29.000320" r="4.000000" fill="#228b22" /></a><line x1="713.014888" x2="713.014888" y1="35.582487" y2="76.082487" stroke="#BABDB6" stroke-width="2"/><a xlink:title="V290fs"><circle cx="713.014888" cy="35.582487" r="6.194056" fill="#228b22" /></a><line x1="715.421836" x2="715.421836" y1="31.519692" y2="76.082487" stroke="#BABDB6" stroke-width="2"/><a xlink:title="E291fs"><circle cx="715.421836" cy="31.519692" r="4.000000" fill="#228b22" /></a><line x1="720.235732" x2="720.235732" y1="48.082487" y2="76.082487" stroke="#BABDB6" stroke-width="2"/><a xlink:title="G293fs"><circle cx="720.235732" cy="48.082487" r="5.354265" fill="#228b22" /></a><line x1="737.084367" x2="737.084367" y1="23.082487" y2="76.082487" stroke="#BABDB6" stroke-width="2"/><a xlink:title="I300fs"><circle cx="737.084367" cy="23.082487" r="4.000000" fill="#228b22" /></a><line x1="739.491315" x2="739.491315" y1="35.582487" y2="76.082487" stroke="#BABDB6" stroke-width="2"/><a xlink:title="D301fs"><circle cx="739.491315" cy="35.582487" r="4.000000" fill="#228b22" /></a><line x1="741.898263" x2="741.898263" y1="48.082487" y2="76.082487" stroke="#BABDB6" stroke-width="2"/><a xlink:title="S302fs"><circle cx="741.898263" cy="48.082487" r="4.000000" fill="#228b22" /></a><line x1="753.933002" x2="753.933002" y1="35.582487" y2="76.082487" stroke="#BABDB6" stroke-width="2"/><a xlink:title="E307fs"><circle cx="753.933002" cy="35.582487" r="4.000000" fill="#228b22" /></a><line x1="756.339950" x2="756.339950" y1="48.082487" y2="76.082487" stroke="#BABDB6" stroke-width="2"/><a xlink:title="R308fs"><circle cx="756.339950" cy="48.082487" r="4.000000" fill="#228b22" /></a><line x1="763.560794" x2="763.560794" y1="23.082487" y2="76.082487" stroke="#BABDB6" stroke-width="2"/><a xlink:title="N311fs"><circle cx="763.560794" cy="23.082487" r="4.000000" fill="#228b22" /></a><line x1="765.967742" x2="765.967742" y1="35.582487" y2="76.082487" stroke="#BABDB6" stroke-width="2"/><a xlink:title="D312fs"><circle cx="765.967742" cy="35.582487" r="4.000000" fill="#228b22" /></a><line x1="768.374690" x2="768.374690" y1="48.082487" y2="76.082487" stroke="#BABDB6" stroke-width="2"/><a xlink:title="K313fs"><circle cx="768.374690" cy="48.082487" r="4.000000" fill="#228b22" /></a><line x1="782.816377" x2="782.816377" y1="35.582487" y2="76.082487" stroke="#BABDB6" stroke-width="2"/><a xlink:title="T319fs"><circle cx="782.816377" cy="35.582487" r="7.261776" fill="#228b22" /></a><line x1="787.630273" x2="787.630273" y1="17.320652" y2="76.082487" stroke="#BABDB6" stroke-width="2"/><a xlink:title="T321fs"><circle cx="787.630273" cy="17.320652" r="4.000000" fill="#228b22" /></a><line x1="792.444169" x2="792.444169" y1="48.082487" y2="76.082487" stroke="#BABDB6" stroke-width="2"/><a xlink:title="N323fs"><circle cx="792.444169" cy="48.082487" r="10.087278" fill="#0000ff" /></a><line x1="804.478908" x2="804.478908" y1="35.582487" y2="76.082487" stroke="#BABDB6" stroke-width="2"/><a xlink:title="A328fs"><circle cx="804.478908" cy="35.582487" r="6.194056" fill="#228b22" /></a><line x1="806.885856" x2="806.885856" y1="48.082487" y2="76.082487" stroke="#BABDB6" stroke-width="2"/><a xlink:title="N329fs"><circle cx="806.885856" cy="48.082487" r="4.000000" fill="#228b22" /></a><line x1="821.327543" x2="821.327543" y1="48.082487" y2="76.082487" stroke="#BABDB6" stroke-width="2"/><a xlink:title="R335fs"><circle cx="821.327543" cy="48.082487" r="4.000000" fill="#228b22" /></a><line x1="828.548387" x2="828.548387" y1="35.582487" y2="76.082487" stroke="#BABDB6" stroke-width="2"/><a xlink:title="S338fs"><circle cx="828.548387" cy="35.582487" r="4.000000" fill="#228b22" /></a><line x1="833.362283" x2="833.362283" y1="48.082487" y2="76.082487" stroke="#BABDB6" stroke-width="2"/><a xlink:title="N340fs"><circle cx="833.362283" cy="48.082487" r="4.000000" fill="#228b22" /></a><line x1="842.990074" x2="842.990074" y1="48.082487" y2="76.082487" stroke="#BABDB6" stroke-width="2"/><a xlink:title="K344fs"><circle cx="842.990074" cy="48.082487" r="4.000000" fill="#228b22" /></a><line x1="905.570720" x2="905.570720" y1="48.082487" y2="76.082487" stroke="#BABDB6" stroke-width="2"/><a xlink:title="S370fs"><circle cx="905.570720" cy="48.082487" r="4.000000" fill="#228b22" /></a><line x1="912.791563" x2="912.791563" y1="48.082487" y2="76.082487" stroke="#BABDB6" stroke-width="2"/><a xlink:title="E373fs"><circle cx="912.791563" cy="48.082487" r="4.000000" fill="#228b22" /></a><a xlink:title="PTEN_HUMAN, Phosphatidylinositol 3,4,5-trisphosphate 3-phosphatase and dual-specificity protein phosphatase PTEN (403aa)"><rect fill="#BABDB6" x="15.000000" y="76.082487" width="970.000000" height="14.000000"/></a><g transform="translate(176.265509,71.082487)"><a xlink:href="https://pfam.xfam.org/family/PF00782" xlink:title="Dual specificity phosphatase, catalytic domain"><rect fill="#2dcf00" x="0" y="0" width="255.136476" height="24.000000" filter="url(#ds)"/></a></g>
<g transform="translate(467.506203,71.082487)"><a xlink:href="https://pfam.xfam.org/family/PF10409" xlink:title="C2 domain of PTEN tumour-suppressor protein"><rect fill="#ff5353" x="0" y="0" width="387.518610" height="24.000000" filter="url(#ds)"/></a></g>
<g class="axis">
<line x1="15.000000" x2="985.000000" y1="105.082487" y2="105.082487" stroke="#AAAAAA" /><line x1="15.000000" x2="15.000000" y1="105.082487" y2="110.082487" stroke="#AAAAAA" /><line x1="24.627792" x2="24.627792" y1="105.082487" y2="110.082487" stroke="#AAAAAA" /><text style="font-size:10px;font-family:Arial;fill:#000000;" text-anchor="middle" x="24.627792" y="120.082487">4</text><line x1="48.697270" x2="48.697270" y1="105.082487" y2="110.082487" stroke="#AAAAAA" /><text style="font-size:10px;font-family:Arial;fill:#000000;" text-anchor="middle" x="48.697270" y="120.082487">14</text><line x1="70.359801" x2="70.359801" y1="105.082487" y2="110.082487" stroke="#AAAAAA" /><text style="font-size:10px;font-family:Arial;fill:#000000;" text-anchor="middle" x="70.359801" y="120.082487">23</text><line x1="89.615385" x2="89.615385" y1="105.082487" y2="110.082487" stroke="#AAAAAA" /><text style="font-size:10px;font-family:Arial;fill:#000000;" text-anchor="middle" x="89.615385" y="120.082487">31</text><line x1="111.277916" x2="111.277916" y1="105.082487" y2="110.082487" stroke="#AAAAAA" /><text style="font-size:10px;font-family:Arial;fill:#000000;" text-anchor="middle" x="111.277916" y="120.082487">40</text><line x1="130.533499" x2="130.533499" y1="105.082487" y2="110.082487" stroke="#AAAAAA" /><text style="font-size:10px;font-family:Arial;fill:#000000;" text-anchor="middle" x="130.533499" y="120.082487">48</text><line x1="152.196030" x2="152.196030" y1="105.082487" y2="110.082487" stroke="#AAAAAA" /><text style="font-size:10px;font-family:Arial;fill:#000000;" text-anchor="middle" x="152.196030" y="120.082487">57</text><line x1="173.858561" x2="173.858561" y1="105.082487" y2="110.082487" stroke="#AAAAAA" /><text style="font-size:10px;font-family:Arial;fill:#000000;" text-anchor="middle" x="173.858561" y="120.082487">66</text><line x1="193.114144" x2="193.114144" y1="105.082487" y2="110.082487" stroke="#AAAAAA" /><text style="font-size:10px;font-family:Arial;fill:#000000;" text-anchor="middle" x="193.114144" y="120.082487">74</text><line x1="224.404467" x2="224.404467" y1="105.082487" y2="110.082487" stroke="#AAAAAA" /><text style="font-size:10px;font-family:Arial;fill:#000000;" text-anchor="middle" x="224.404467" y="120.082487">87</text><line x1="248.473945" x2="248.473945" y1="105.082487" y2="110.082487" stroke="#AAAAAA" /><text style="font-size:10px;font-family:Arial;fill:#000000;" text-anchor="middle" x="248.473945" y="120.082487">97</text><line x1="284.578164" x2="284.578164" y1="105.082487" y2="110.082487" stroke="#AAAAAA" /><text style="font-size:10px;font-family:Arial;fill:#000000;" text-anchor="middle" x="284.578164" y="120.082487">112</text><line x1="327.903226" x2="327.903226" y1="105.082487" y2="110.082487" stroke="#AAAAAA" /><text style="font-size:10px;font-family:Arial;fill:#000000;" text-anchor="middle" x="327.903226" y="120.082487">130</text><line x1="366.414392" x2="366.414392" y1="105.082487" y2="110.082487" stroke="#AAAAAA" /><text style="font-size:10px;font-family:Arial;fill:#000000;" text-anchor="middle" x="366.414392" y="120.082487">146</text><line x1="385.669975" x2="385.669975" y1="105.082487" y2="110.082487" stroke="#AAAAAA" /><text style="font-size:10px;font-family:Arial;fill:#000000;" text-anchor="middle" x="385.669975" y="120.082487">154</text><line x1="409.739454" x2="409.739454" y1="105.082487" y2="110.082487" stroke="#AAAAAA" /><text style="font-size:10px;font-family:Arial;fill:#000000;" text-anchor="middle" x="409.739454" y="120.082487">164</text><line x1="428.995037" x2="428.995037" y1="105.082487" y2="110.082487" stroke="#AAAAAA" /><text style="font-size:10px;font-family:Arial;fill:#000000;" text-anchor="middle" x="428.995037" y="120.082487">172</text><line x1="453.064516" x2="453.064516" y1="105.082487" y2="110.082487" stroke="#AAAAAA" /><text style="font-size:10px;font-family:Arial;fill:#000000;" text-anchor="middle" x="453.064516" y="120.082487">182</text><line x1="486.761787" x2="486.761787" y1="105.082487" y2="110.082487" stroke="#AAAAAA" /><text style="font-size:10px;font-family:Arial;fill:#000000;" text-anchor="middle" x="486.761787" y="120.082487">196</text><line x1="520.459057" x2="520.459057" y1="105.082487" y2="110.082487" stroke="#AAAAAA" /><text style="font-size:10px;font-family:Arial;fill:#000000;" text-anchor="middle" x="520.459057" y="120.082487">210</text><line x1="539.714640" x2="539.714640" y1="105.082487" y2="110.082487" stroke="#AAAAAA" /><text style="font-size:10px;font-family:Arial;fill:#000000;" text-anchor="middle" x="539.714640" y="120.082487">218</text><line x1="563.784119" x2="563.784119" y1="105.082487" y2="110.082487" stroke="#AAAAAA" /><text style="font-size:10px;font-family:Arial;fill:#000000;" text-anchor="middle" x="563.784119" y="120.082487">228</text><line x1="587.853598" x2="587.853598" y1="105.082487" y2="110.082487" stroke="#AAAAAA" /><text style="font-size:10px;font-family:Arial;fill:#000000;" text-anchor="middle" x="587.853598" y="120.082487">238</text><line x1="611.923077" x2="611.923077" y1="105.082487" y2="110.082487" stroke="#AAAAAA" /><text style="font-size:10px;font-family:Arial;fill:#000000;" text-anchor="middle" x="611.923077" y="120.082487">248</text><line x1="638.399504" x2="638.399504" y1="105.082487" y2="110.082487" stroke="#AAAAAA" /><text style="font-size:10px;font-family:Arial;fill:#000000;" text-anchor="middle" x="638.399504" y="120.082487">259</text><line x1="657.655087" x2="657.655087" y1="105.082487" y2="110.082487" stroke="#AAAAAA" /><text style="font-size:10px;font-family:Arial;fill:#000000;" text-anchor="middle" x="657.655087" y="120.082487">267</text><line x1="688.945409" x2="688.945409" y1="105.082487" y2="110.082487" stroke="#AAAAAA" /><text style="font-size:10px;font-family:Arial;fill:#000000;" text-anchor="middle" x="688.945409" y="120.082487">280</text><line x1="708.200993" x2="708.200993" y1="105.082487" y2="110.082487" stroke="#AAAAAA" /><text style="font-size:10px;font-family:Arial;fill:#000000;" text-anchor="middle" x="708.200993" y="120.082487">288</text><line x1="737.084367" x2="737.084367" y1="105.082487" y2="110.082487" stroke="#AAAAAA" /><text style="font-size:10px;font-family:Arial;fill:#000000;" text-anchor="middle" x="737.084367" y="120.082487">300</text><line x1="756.339950" x2="756.339950" y1="105.082487" y2="110.082487" stroke="#AAAAAA" /><text style="font-size:10px;font-family:Arial;fill:#000000;" text-anchor="middle" x="756.339950" y="120.082487">308</text><line x1="782.816377" x2="782.816377" y1="105.082487" y2="110.082487" stroke="#AAAAAA" /><text style="font-size:10px;font-family:Arial;fill:#000000;" text-anchor="middle" x="782.816377" y="120.082487">319</text><line x1="804.478908" x2="804.478908" y1="105.082487" y2="110.082487" stroke="#AAAAAA" /><text style="font-size:10px;font-family:Arial;fill:#000000;" text-anchor="middle" x="804.478908" y="120.082487">328</text><line x1="828.548387" x2="828.548387" y1="105.082487" y2="110.082487" stroke="#AAAAAA" /><text style="font-size:10px;font-family:Arial;fill:#000000;" text-anchor="middle" x="828.548387" y="120.082487">338</text><line x1="855.024814" x2="855.024814" y1="105.082487" y2="110.082487" stroke="#AAAAAA" /><text style="font-size:10px;font-family:Arial;fill:#000000;" text-anchor="middle" x="855.024814" y="120.082487">349</text><line x1="905.570720" x2="905.570720" y1="105.082487" y2="110.082487" stroke="#AAAAAA" /><text style="font-size:10px;font-family:Arial;fill:#000000;" text-anchor="middle" x="905.570720" y="120.082487">370</text><line x1="985.000000" x2="985.000000" y1="105.082487" y2="110.082487" stroke="#AAAAAA" /><text style="font-size:10px;font-family:Arial;fill:#000000;" text-anchor="middle" x="985.000000" y="120.082487">403</text></g>
</svg>
