<?xml version='1.0'?>
<svg xmlns="http://www.w3.org/2000/svg" xmlns:xlink="http://www.w3.org/1999/xlink" width="1000.000000" height="186.392941">
<defs>
  <filter id="ds" x="0" y="0">
    <feOffset in="SourceAlpha" dx="2" dy="2" />
    <feComponentTransfer><feFuncA type="linear" slope="0.2"/></feComponentTransfer>
    <feGaussianBlur result="blurOut" stdDeviation="1" />
    <feBlend in="SourceGraphic" in2="blurOut" mode="normal" />
  </filter>
  <pattern id="disordered-hatch" patternUnits="userSpaceOnUse" width="4" height="4">
    <path d="M-1,1 l2,-2 M0,4 l4,-4 M3,5 l2,-2" stroke="#000000" opacity="0.3" />
  </pattern>
</defs>
<line x1="48.448276" x2="48.448276" y1="94.392941" y2="122.392941" stroke="#BABDB6" stroke-width="2"/><a xlink:title="R27fs"><circle cx="48.448276" cy="94.392941" r="4.000000" fill="#228b22" /></a><line x1="68.269476" x2="68.269476" y1="94.392941" y2="122.392941" stroke="#BABDB6" stroke-width="2"/><a xlink:title="E43fs"><circle cx="68.269476" cy="94.392941" r="4.000000" fill="#228b22" /></a><line x1="74.463602" x2="74.463602" y1="81.892941" y2="122.392941" stroke="#BABDB6" stroke-width="2"/><a xlink:title="I48fs"><circle cx="74.463602" cy="81.892941" r="4.000000" fill="#228b22" /></a><line x1="75.702427" x2="75.702427" y1="94.392941" y2="122.392941" stroke="#BABDB6" stroke-width="2"/><a xlink:title="R49fs"><circle cx="75.702427" cy="94.392941" r="4.000000" fill="#228b22" /></a><line x1="81.896552" x2="81.896552" y1="94.392941" y2="122.392941" stroke="#BABDB6" stroke-width="2"/><a xlink:title="K54fs"><circle cx="81.896552" cy="94.392941" r="4.000000" fill="#228b22" /></a><line x1="159.942529" x2="159.942529" y1="81.892941" y2="122.392941" stroke="#BABDB6" stroke-width="2"/><a xlink:title="R117fs"><circle cx="159.942529" cy="81.892941" r="8.408415" fill="#0000ff" /></a><line x1="162.420179" x2="162.420179" y1="94.392941" y2="122.392941" stroke="#BABDB6" stroke-width="2"/><a xlink:title="C119fs"><circle cx="162.420179" cy="94.392941" r="4.000000" fill="#228b22" /></a><line x1="209.495530" x2="209.495530" y1="94.392941" y2="122.392941" stroke="#BABDB6" stroke-width="2"/><a xlink:title="L157fs"><circle cx="209.495530" cy="94.392941" r="4.000000" fill="#228b22" /></a><line x1="221.883780" x2="221.883780" y1="94.392941" y2="122.392941" stroke="#BABDB6" stroke-width="2"/><a xlink:title="N167fs"><circle cx="221.883780" cy="94.392941" r="4.000000" fill="#228b22" /></a><line x1="252.854406" x2="252.854406" y1="94.392941" y2="122.392941" stroke="#BABDB6" stroke-width="2"/><a xlink:title="P192fs"><circle cx="252.854406" cy="94.392941" r="5.354265" fill="#228b22" /></a><line x1="293.735632" x2="293.735632" y1="94.392941" y2="122.392941" stroke="#BABDB6" stroke-width="2"/><a xlink:title="R225fs"><circle cx="293.735632" cy="94.392941" r="6.800437" fill="#228b22" /></a><line x1="333.378033" x2="333.378033" y1="94.392941" y2="122.392941" stroke="#BABDB6" stroke-width="2"/><a xlink:title="G257fs"><circle cx="333.378033" cy="94.392941" r="4.000000" fill="#228b22" /></a><line x1="339.572158" x2="339.572158" y1="94.392941" y2="122.392941" stroke="#BABDB6" stroke-width="2"/><a xlink:title="S262fs"><circle cx="339.572158" cy="94.392941" r="4.000000" fill="#228b22" /></a><line x1="380.453384" x2="380.453384" y1="75.310774" y2="122.392941" stroke="#BABDB6" stroke-width="2"/><a xlink:title="H295fs"><circle cx="380.453384" cy="75.310774" r="4.000000" fill="#228b22" /></a><line x1="385.408685" x2="385.408685" y1="81.892941" y2="122.392941" stroke="#BABDB6" stroke-width="2"/><a xlink:title="V299fs"><circle cx="385.408685" cy="81.892941" r="6.194056" fill="#228b22" /></a><line x1="389.125160" x2="389.125160" y1="94.392941" y2="122.392941" stroke="#BABDB6" stroke-width="2"/><a xlink:title="W302fs"><circle cx="389.125160" cy="94.392941" r="4.000000" fill="#228b22" /></a><line x1="400.274585" x2="400.274585" y1="94.392941" y2="122.392941" stroke="#BABDB6" stroke-width="2"/><a xlink:title="L311fs"><circle cx="400.274585" cy="94.392941" r="6.800437" fill="#228b22" /></a><line x1="473.365262" x2="473.365262" y1="94.392941" y2="122.392941" stroke="#BABDB6" stroke-width="2"/><a xlink:title="P370fs"><circle cx="473.365262" cy="94.392941" r="4.000000" fill="#228b22" /></a><line x1="553.888889" x2="553.888889" y1="94.392941" y2="122.392941" stroke="#BABDB6" stroke-width="2"/><a xlink:title="L435fs"><circle cx="553.888889" cy="94.392941" r="4.000000" fill="#228b22" /></a><line x1="561.321839" x2="561.321839" y1="94.392941" y2="122.392941" stroke="#BABDB6" stroke-width="2"/><a xlink:title="P441fs"><circle cx="561.321839" cy="94.392941" r="7.261776" fill="#228b22" /></a><line x1="577.426564" x2="577.426564" y1="94.392941" y2="122.392941" stroke="#BABDB6" stroke-width="2"/><a xlink:title="R454fs"><circle cx="577.426564" cy="94.392941" r="4.000000" fill="#228b22" /></a><line x1="608.397190" x2="608.397190" y1="94.392941" y2="122.392941" stroke="#BABDB6" stroke-width="2"/><a xlink:title="V479fs"><circle cx="608.397190" cy="94.392941" r="4.000000" fill="#228b22" /></a><line x1="654.233716" x2="654.233716" y1="94.392941" y2="122.392941" stroke="#BABDB6" stroke-width="2"/><a xlink:title="D516fs"><circle cx="654.233716" cy="94.392941" r="5.354265" fill="#228b22" /></a><line x1="665.383142" x2="665.383142" y1="94.392941" y2="122.392941" stroke="#BABDB6" stroke-width="2"/><a xlink:title="S525fs"><circle cx="665.383142" cy="94.392941" r="4.000000" fill="#228b22" /></a><line x1="729.802043" x2="729.802043" y1="94.392941" y2="122.392941" stroke="#BABDB6" stroke-width="2"/><a xlink:title="Q577fs"><circle cx="729.802043" cy="94.392941" r="4.000000" fill="#228b22" /></a><line x1="794.220945" x2="794.220945" y1="94.392941" y2="122.392941" stroke="#BABDB6" stroke-width="2"/><a xlink:title="A629fs"><circle cx="794.220945" cy="94.392941" r="4.000000" fill="#228b22" /></a><line x1="831.385696" x2="831.385696" y1="69.392941" y2="122.392941" stroke="#BABDB6" stroke-width="2"/><a xlink:title="G659fs"><circle cx="831.385696" cy="69.392941" r="12.398823" fill="#0000ff" /></a><line x1="832.624521" x2="832.624521" y1="81.892941" y2="122.392941" stroke="#BABDB6" stroke-width="2"/><a xlink:title="P660fs"><circle cx="832.624521" cy="81.892941" r="4.000000" fill="#228b22" /></a><line x1="833.863346" x2="833.863346" y1="94.392941" y2="122.392941" stroke="#BABDB6" stroke-width="2"/><a xlink:title="S661fs"><circle cx="833.863346" cy="94.392941" r="4.000000" fill="#228b22" /></a><line x1="861.117497" x2="861.117497" y1="94.392941" y2="122.392941" stroke="#BABDB6" stroke-width="2"/><a xlink:title="H683fs"><circle cx="861.117497" cy="94.392941" r="4.000000" fill="#228b22" /></a><line x1="934.208174" x2="934.208174" y1="94.392941" y2="122.392941" stroke="#BABDB6" stroke-width="2"/><a xlink:title="E742fs"><circle cx="934.208174" cy="94.392941" r="4.000000" fill="#228b22" /></a><a xlink:title="RNF43_HUMAN, E3 ubiquitin-protein ligase RNF43 EC=2.3.2.27 (783aa)"><rect fill="#BABDB6" x="15.000000" y="122.392941" width="970.000000" height="14.000000"/></a><g transform="translate(120.300128,117.392941)"><a xlink:href="https://pfam.xfam.org/family/PF18212" xlink:title="ZNRF-3 Ectodomain"><rect fill="#2dcf00" x="0" y="0" width="128.837803" height="24.000000" filter="url(#ds)"/></a></g>
<g transform="translate(349.482759,117.392941)"><a xlink:href="https://pfam.xfam.org/family/PF13639" xlink:title="Ring finger domain"><rect fill="#ff5353" x="0" y="0" width="53.269476" height="24.000000" filter="url(#ds)"/></a></g>
<g class="axis">
<line x1="15.000000" x2="985.000000" y1="151.392941" y2="151.392941" stroke="#AAAAAA" /><line x1="15.000000" x2="15.000000" y1="151.392941" y2="156.392941" stroke="#AAAAAA" /><line x1="15.000000" x2="15.000000" y1="151.392941" y2="156.392941" stroke="#AAAAAA" /><text style="font-size:10px;font-family:Arial;fill:#000000;" text-anchor="middle" x="15.000000" y="166.392941">0</text><line x1="48.448276" x2="48.448276" y1="151.392941" y2="156.392941" stroke="#AAAAAA" /><text style="font-size:10px;font-family:Arial;fill:#000000;" text-anchor="middle" x="48.448276" y="166.392941">27</text><line x1="68.269476" x2="68.269476" y1="151.392941" y2="156.392941" stroke="#AAAAAA" /><text style="font-size:10px;font-family:Arial;fill:#000000;" text-anchor="middle" x="68.269476" y="166.392941">43</text><line x1="120.300128" x2="120.300128" y1="151.392941" y2="156.392941" stroke="#AAAAAA" /><text style="font-size:10px;font-family:Arial;fill:#000000;" text-anchor="middle" x="120.300128" y="166.392941">85</text><line x1="159.942529" x2="159.942529" y1="151.392941" y2="156.392941" stroke="#AAAAAA" /><text style="font-size:10px;font-family:Arial;fill:#000000;" text-anchor="middle" x="159.942529" y="166.392941">117</text><line x1="209.495530" x2="209.495530" y1="151.392941" y2="156.392941" stroke="#AAAAAA" /><text style="font-size:10px;font-family:Arial;fill:#000000;" text-anchor="middle" x="209.495530" y="166.392941">157</text><line x1="252.854406" x2="252.854406" y1="151.392941" y2="156.392941" stroke="#AAAAAA" /><text style="font-size:10px;font-family:Arial;fill:#000000;" text-anchor="middle" x="252.854406" y="166.392941">192</text><line x1="293.735632" x2="293.735632" y1="151.392941" y2="156.392941" stroke="#AAAAAA" /><text style="font-size:10px;font-family:Arial;fill:#000000;" text-anchor="middle" x="293.735632" y="166.392941">225</text><line x1="333.378033" x2="333.378033" y1="151.392941" y2="156.392941" stroke="#AAAAAA" /><text style="font-size:10px;font-family:Arial;fill:#000000;" text-anchor="middle" x="333.378033" y="166.392941">257</text><line x1="380.453384" x2="380.453384" y1="151.392941" y2="156.392941" stroke="#AAAAAA" /><text style="font-size:10px;font-family:Arial;fill:#000000;" text-anchor="middle" x="380.453384" y="166.392941">295</text><line x1="400.274585" x2="400.274585" y1="151.392941" y2="156.392941" stroke="#AAAAAA" /><text style="font-size:10px;font-family:Arial;fill:#000000;" text-anchor="middle" x="400.274585" y="166.392941">311</text><line x1="473.365262" x2="473.365262" y1="151.392941" y2="156.392941" stroke="#AAAAAA" /><text style="font-size:10px;font-family:Arial;fill:#000000;" text-anchor="middle" x="473.365262" y="166.392941">370</text><line x1="553.888889" x2="553.888889" y1="151.392941" y2="156.392941" stroke="#AAAAAA" /><text style="font-size:10px;font-family:Arial;fill:#000000;" text-anchor="middle" x="553.888889" y="166.392941">435</text><line x1="577.426564" x2="577.426564" y1="151.392941" y2="156.392941" stroke="#AAAAAA" /><text style="font-size:10px;font-family:Arial;fill:#000000;" text-anchor="middle" x="577.426564" y="166.392941">454</text><line x1="608.397190" x2="608.397190" y1="151.392941" y2="156.392941" stroke="#AAAAAA" /><text style="font-size:10px;font-family:Arial;fill:#000000;" text-anchor="middle" x="608.397190" y="166.392941">479</text><line x1="654.233716" x2="654.233716" y1="151.392941" y2="156.392941" stroke="#AAAAAA" /><text style="font-size:10px;font-family:Arial;fill:#000000;" text-anchor="middle" x="654.233716" y="166.392941">516</text><line x1="729.802043" x2="729.802043" y1="151.392941" y2="156.392941" stroke="#AAAAAA" /><text style="font-size:10px;font-family:Arial;fill:#000000;" text-anchor="middle" x="729.802043" y="166.392941">577</text><line x1="794.220945" x2="794.220945" y1="151.392941" y2="156.392941" stroke="#AAAAAA" /><text style="font-size:10px;font-family:Arial;fill:#000000;" text-anchor="middle" x="794.220945" y="166.392941">629</text><line x1="831.385696" x2="831.385696" y1="151.392941" y2="156.392941" stroke="#AAAAAA" /><text style="font-size:10px;font-family:Arial;fill:#000000;" text-anchor="middle" x="831.385696" y="166.392941">659</text><line x1="861.117497" x2="861.117497" y1="151.392941" y2="156.392941" stroke="#AAAAAA" /><text style="font-size:10px;font-family:Arial;fill:#000000;" text-anchor="middle" x="861.117497" y="166.392941">683</text><line x1="934.208174" x2="934.208174" y1="151.392941" y2="156.392941" stroke="#AAAAAA" /><text style="font-size:10px;font-family:Arial;fill:#000000;" text-anchor="middle" x="934.208174" y="166.392941">742</text><line x1="985.000000" x2="985.000000" y1="151.392941" y2="156.392941" stroke="#AAAAAA" /><text style="font-size:10px;font-family:Arial;fill:#000000;" text-anchor="middle" x="985.000000" y="166.392941">783</text></g>
</svg>
