<?xml version='1.0'?>
<svg xmlns="http://www.w3.org/2000/svg" xmlns:xlink="http://www.w3.org/1999/xlink" width="1000.000000" height="127.562794">
<defs>
  <filter id="ds" x="0" y="0">
    <feOffset in="SourceAlpha" dx="2" dy="2" />
    <feComponentTransfer><feFuncA type="linear" slope="0.2"/></feComponentTransfer>
    <feGaussianBlur result="blurOut" stdDeviation="1" />
    <feBlend in="SourceGraphic" in2="blurOut" mode="normal" />
  </filter>
  <pattern id="disordered-hatch" patternUnits="userSpaceOnUse" width="4" height="4">
    <path d="M-1,1 l2,-2 M0,4 l4,-4 M3,5 l2,-2" stroke="#000000" opacity="0.3" />
  </pattern>
</defs>
<line x1="81.641221" x2="81.641221" y1="35.562794" y2="63.562794" stroke="#BABDB6" stroke-width="2"/><a xlink:title="P27fs"><circle cx="81.641221" cy="35.562794" r="4.000000" fill="#228b22" /></a><line x1="101.386768" x2="101.386768" y1="35.562794" y2="63.562794" stroke="#BABDB6" stroke-width="2"/><a xlink:title="L35fs"><circle cx="101.386768" cy="35.562794" r="4.000000" fill="#228b22" /></a><line x1="118.664122" x2="118.664122" y1="35.562794" y2="63.562794" stroke="#BABDB6" stroke-width="2"/><a xlink:title="D42fs"><circle cx="118.664122" cy="35.562794" r="4.000000" fill="#228b22" /></a><line x1="155.687023" x2="155.687023" y1="35.562794" y2="63.562794" stroke="#BABDB6" stroke-width="2"/><a xlink:title="D57fs"><circle cx="155.687023" cy="35.562794" r="4.000000" fill="#228b22" /></a><line x1="168.027990" x2="168.027990" y1="23.062794" y2="63.562794" stroke="#BABDB6" stroke-width="2"/><a xlink:title="E62fs"><circle cx="168.027990" cy="23.062794" r="4.000000" fill="#228b22" /></a><line x1="172.964377" x2="172.964377" y1="35.562794" y2="63.562794" stroke="#BABDB6" stroke-width="2"/><a xlink:title="P64fs"><circle cx="172.964377" cy="35.562794" r="4.000000" fill="#228b22" /></a><line x1="195.178117" x2="195.178117" y1="35.562794" y2="63.562794" stroke="#BABDB6" stroke-width="2"/><a xlink:title="V73fs"><circle cx="195.178117" cy="35.562794" r="4.000000" fill="#228b22" /></a><line x1="271.692112" x2="271.692112" y1="35.562794" y2="63.562794" stroke="#BABDB6" stroke-width="2"/><a xlink:title="Q104fs"><circle cx="271.692112" cy="35.562794" r="4.000000" fill="#228b22" /></a><line x1="316.119593" x2="316.119593" y1="23.062794" y2="63.562794" stroke="#BABDB6" stroke-width="2"/><a xlink:title="V122fs"><circle cx="316.119593" cy="23.062794" r="5.354265" fill="#228b22" /></a><line x1="318.587786" x2="318.587786" y1="35.562794" y2="63.562794" stroke="#BABDB6" stroke-width="2"/><a xlink:title="T123fs"><circle cx="318.587786" cy="35.562794" r="4.000000" fill="#228b22" /></a><line x1="330.928753" x2="330.928753" y1="35.562794" y2="63.562794" stroke="#BABDB6" stroke-width="2"/><a xlink:title="P128fs"><circle cx="330.928753" cy="35.562794" r="5.354265" fill="#0000ff" /></a><line x1="348.206107" x2="348.206107" y1="35.562794" y2="63.562794" stroke="#BABDB6" stroke-width="2"/><a xlink:title="C135fs"><circle cx="348.206107" cy="35.562794" r="4.000000" fill="#228b22" /></a><line x1="358.078880" x2="358.078880" y1="35.562794" y2="63.562794" stroke="#BABDB6" stroke-width="2"/><a xlink:title="K139fs"><circle cx="358.078880" cy="35.562794" r="4.000000" fill="#228b22" /></a><line x1="382.760814" x2="382.760814" y1="35.562794" y2="63.562794" stroke="#BABDB6" stroke-width="2"/><a xlink:title="S149fs"><circle cx="382.760814" cy="35.562794" r="4.000000" fill="#228b22" /></a><line x1="390.165394" x2="390.165394" y1="23.062794" y2="63.562794" stroke="#BABDB6" stroke-width="2"/><a xlink:title="P152fs"><circle cx="390.165394" cy="23.062794" r="5.354265" fill="#0000ff" /></a><line x1="395.101781" x2="395.101781" y1="35.562794" y2="63.562794" stroke="#BABDB6" stroke-width="2"/><a xlink:title="G154fs"><circle cx="395.101781" cy="35.562794" r="4.000000" fill="#228b22" /></a><line x1="419.783715" x2="419.783715" y1="35.562794" y2="63.562794" stroke="#BABDB6" stroke-width="2"/><a xlink:title="K164fs"><circle cx="419.783715" cy="35.562794" r="4.000000" fill="#228b22" /></a><line x1="454.338422" x2="454.338422" y1="35.562794" y2="63.562794" stroke="#BABDB6" stroke-width="2"/><a xlink:title="H178fs"><circle cx="454.338422" cy="35.562794" r="4.000000" fill="#228b22" /></a><line x1="474.083969" x2="474.083969" y1="35.562794" y2="63.562794" stroke="#BABDB6" stroke-width="2"/><a xlink:title="D186fs"><circle cx="474.083969" cy="35.562794" r="4.000000" fill="#228b22" /></a><line x1="530.852417" x2="530.852417" y1="35.562794" y2="63.562794" stroke="#BABDB6" stroke-width="2"/><a xlink:title="R209fs"><circle cx="530.852417" cy="35.562794" r="4.000000" fill="#228b22" /></a><line x1="540.725191" x2="540.725191" y1="35.562794" y2="63.562794" stroke="#BABDB6" stroke-width="2"/><a xlink:title="R213fs"><circle cx="540.725191" cy="35.562794" r="4.000000" fill="#228b22" /></a><line x1="550.597964" x2="550.597964" y1="35.562794" y2="63.562794" stroke="#BABDB6" stroke-width="2"/><a xlink:title="V217fs"><circle cx="550.597964" cy="35.562794" r="4.000000" fill="#228b22" /></a><line x1="580.216285" x2="580.216285" y1="35.562794" y2="63.562794" stroke="#BABDB6" stroke-width="2"/><a xlink:title="C229fs"><circle cx="580.216285" cy="35.562794" r="4.000000" fill="#228b22" /></a><line x1="612.302799" x2="612.302799" y1="35.562794" y2="63.562794" stroke="#BABDB6" stroke-width="2"/><a xlink:title="C242fs"><circle cx="612.302799" cy="35.562794" r="5.354265" fill="#228b22" /></a><line x1="629.580153" x2="629.580153" y1="35.562794" y2="63.562794" stroke="#BABDB6" stroke-width="2"/><a xlink:title="R249fs"><circle cx="629.580153" cy="35.562794" r="4.000000" fill="#228b22" /></a><line x1="636.984733" x2="636.984733" y1="35.562794" y2="63.562794" stroke="#BABDB6" stroke-width="2"/><a xlink:title="L252fs"><circle cx="636.984733" cy="35.562794" r="4.000000" fill="#228b22" /></a><line x1="649.325700" x2="649.325700" y1="23.062794" y2="63.562794" stroke="#BABDB6" stroke-width="2"/><a xlink:title="L257fs"><circle cx="649.325700" cy="23.062794" r="4.000000" fill="#228b22" /></a><line x1="651.793893" x2="651.793893" y1="35.562794" y2="63.562794" stroke="#BABDB6" stroke-width="2"/><a xlink:title="E258fs"><circle cx="651.793893" cy="35.562794" r="4.000000" fill="#228b22" /></a><line x1="678.944020" x2="678.944020" y1="35.562794" y2="63.562794" stroke="#BABDB6" stroke-width="2"/><a xlink:title="S269fs"><circle cx="678.944020" cy="35.562794" r="4.000000" fill="#228b22" /></a><line x1="693.753181" x2="693.753181" y1="35.562794" y2="63.562794" stroke="#BABDB6" stroke-width="2"/><a xlink:title="C275fs"><circle cx="693.753181" cy="35.562794" r="4.000000" fill="#228b22" /></a><line x1="740.648855" x2="740.648855" y1="35.562794" y2="63.562794" stroke="#BABDB6" stroke-width="2"/><a xlink:title="E294fs"><circle cx="740.648855" cy="35.562794" r="4.000000" fill="#228b22" /></a><line x1="760.394402" x2="760.394402" y1="35.562794" y2="63.562794" stroke="#BABDB6" stroke-width="2"/><a xlink:title="G302fs"><circle cx="760.394402" cy="35.562794" r="4.000000" fill="#228b22" /></a><line x1="775.203562" x2="775.203562" y1="35.562794" y2="63.562794" stroke="#BABDB6" stroke-width="2"/><a xlink:title="L308fs"><circle cx="775.203562" cy="35.562794" r="4.000000" fill="#228b22" /></a><line x1="859.122137" x2="859.122137" y1="35.562794" y2="63.562794" stroke="#BABDB6" stroke-width="2"/><a xlink:title="R342fs"><circle cx="859.122137" cy="35.562794" r="4.000000" fill="#228b22" /></a><line x1="977.595420" x2="977.595420" y1="35.562794" y2="63.562794" stroke="#BABDB6" stroke-width="2"/><a xlink:title="P390fs"><circle cx="977.595420" cy="35.562794" r="4.000000" fill="#228b22" /></a><a xlink:title="P53_HUMAN, Cellular tumor antigen p53 (393aa)"><rect fill="#BABDB6" x="15.000000" y="63.562794" width="970.000000" height="14.000000"/></a><g transform="translate(29.809160,58.562794)"><a xlink:href="https://pfam.xfam.org/family/PF08563" xlink:title="P53 transactivation motif"><rect fill="#2dcf00" x="0" y="0" width="59.236641" height="24.000000" filter="url(#ds)"/></a></g>
<g transform="translate(101.386768,58.562794)"><a xlink:href="https://pfam.xfam.org/family/PF18521" xlink:title="Transactivation domain 2"><rect fill="#ff5353" x="0" y="0" width="59.236641" height="24.000000" filter="url(#ds)"/></a></g>
<g transform="translate(259.351145,58.562794)"><a xlink:href="https://pfam.xfam.org/family/PF00870" xlink:title="P53 DNA-binding domain"><rect fill="#5b5bff" x="0" y="0" width="468.956743" height="24.000000" filter="url(#ds)"/></a></g>
<g transform="translate(802.353690,58.562794)"><a xlink:href="https://pfam.xfam.org/family/PF07710" xlink:title="P53 tetramerisation motif"><rect fill="#ebd61d" x="0" y="0" width="96.259542" height="24.000000" filter="url(#ds)"/></a></g>
<g class="axis">
<line x1="15.000000" x2="985.000000" y1="92.562794" y2="92.562794" stroke="#AAAAAA" /><line x1="15.000000" x2="15.000000" y1="92.562794" y2="97.562794" stroke="#AAAAAA" /><line x1="29.809160" x2="29.809160" y1="92.562794" y2="97.562794" stroke="#AAAAAA" /><text style="font-size:10px;font-family:Arial;fill:#000000;" text-anchor="middle" x="29.809160" y="107.562794">6</text><line x1="81.641221" x2="81.641221" y1="92.562794" y2="97.562794" stroke="#AAAAAA" /><text style="font-size:10px;font-family:Arial;fill:#000000;" text-anchor="middle" x="81.641221" y="107.562794">27</text><line x1="101.386768" x2="101.386768" y1="92.562794" y2="97.562794" stroke="#AAAAAA" /><text style="font-size:10px;font-family:Arial;fill:#000000;" text-anchor="middle" x="101.386768" y="107.562794">35</text><line x1="155.687023" x2="155.687023" y1="92.562794" y2="97.562794" stroke="#AAAAAA" /><text style="font-size:10px;font-family:Arial;fill:#000000;" text-anchor="middle" x="155.687023" y="107.562794">57</text><line x1="195.178117" x2="195.178117" y1="92.562794" y2="97.562794" stroke="#AAAAAA" /><text style="font-size:10px;font-family:Arial;fill:#000000;" text-anchor="middle" x="195.178117" y="107.562794">73</text><line x1="271.692112" x2="271.692112" y1="92.562794" y2="97.562794" stroke="#AAAAAA" /><text style="font-size:10px;font-family:Arial;fill:#000000;" text-anchor="middle" x="271.692112" y="107.562794">104</text><line x1="316.119593" x2="316.119593" y1="92.562794" y2="97.562794" stroke="#AAAAAA" /><text style="font-size:10px;font-family:Arial;fill:#000000;" text-anchor="middle" x="316.119593" y="107.562794">122</text><line x1="348.206107" x2="348.206107" y1="92.562794" y2="97.562794" stroke="#AAAAAA" /><text style="font-size:10px;font-family:Arial;fill:#000000;" text-anchor="middle" x="348.206107" y="107.562794">135</text><line x1="382.760814" x2="382.760814" y1="92.562794" y2="97.562794" stroke="#AAAAAA" /><text style="font-size:10px;font-family:Arial;fill:#000000;" text-anchor="middle" x="382.760814" y="107.562794">149</text><line x1="419.783715" x2="419.783715" y1="92.562794" y2="97.562794" stroke="#AAAAAA" /><text style="font-size:10px;font-family:Arial;fill:#000000;" text-anchor="middle" x="419.783715" y="107.562794">164</text><line x1="454.338422" x2="454.338422" y1="92.562794" y2="97.562794" stroke="#AAAAAA" /><text style="font-size:10px;font-family:Arial;fill:#000000;" text-anchor="middle" x="454.338422" y="107.562794">178</text><line x1="474.083969" x2="474.083969" y1="92.562794" y2="97.562794" stroke="#AAAAAA" /><text style="font-size:10px;font-family:Arial;fill:#000000;" text-anchor="middle" x="474.083969" y="107.562794">186</text><line x1="530.852417" x2="530.852417" y1="92.562794" y2="97.562794" stroke="#AAAAAA" /><text style="font-size:10px;font-family:Arial;fill:#000000;" text-anchor="middle" x="530.852417" y="107.562794">209</text><line x1="550.597964" x2="550.597964" y1="92.562794" y2="97.562794" stroke="#AAAAAA" /><text style="font-size:10px;font-family:Arial;fill:#000000;" text-anchor="middle" x="550.597964" y="107.562794">217</text><line x1="580.216285" x2="580.216285" y1="92.562794" y2="97.562794" stroke="#AAAAAA" /><text style="font-size:10px;font-family:Arial;fill:#000000;" text-anchor="middle" x="580.216285" y="107.562794">229</text><line x1="612.302799" x2="612.302799" y1="92.562794" y2="97.562794" stroke="#AAAAAA" /><text style="font-size:10px;font-family:Arial;fill:#000000;" text-anchor="middle" x="612.302799" y="107.562794">242</text><line x1="636.984733" x2="636.984733" y1="92.562794" y2="97.562794" stroke="#AAAAAA" /><text style="font-size:10px;font-family:Arial;fill:#000000;" text-anchor="middle" x="636.984733" y="107.562794">252</text><line x1="678.944020" x2="678.944020" y1="92.562794" y2="97.562794" stroke="#AAAAAA" /><text style="font-size:10px;font-family:Arial;fill:#000000;" text-anchor="middle" x="678.944020" y="107.562794">269</text><line x1="740.648855" x2="740.648855" y1="92.562794" y2="97.562794" stroke="#AAAAAA" /><text style="font-size:10px;font-family:Arial;fill:#000000;" text-anchor="middle" x="740.648855" y="107.562794">294</text><line x1="760.394402" x2="760.394402" y1="92.562794" y2="97.562794" stroke="#AAAAAA" /><text style="font-size:10px;font-family:Arial;fill:#000000;" text-anchor="middle" x="760.394402" y="107.562794">302</text><line x1="802.353690" x2="802.353690" y1="92.562794" y2="97.562794" stroke="#AAAAAA" /><text style="font-size:10px;font-family:Arial;fill:#000000;" text-anchor="middle" x="802.353690" y="107.562794">319</text><line x1="859.122137" x2="859.122137" y1="92.562794" y2="97.562794" stroke="#AAAAAA" /><text style="font-size:10px;font-family:Arial;fill:#000000;" text-anchor="middle" x="859.122137" y="107.562794">342</text><line x1="898.613232" x2="898.613232" y1="92.562794" y2="97.562794" stroke="#AAAAAA" /><text style="font-size:10px;font-family:Arial;fill:#000000;" text-anchor="middle" x="898.613232" y="107.562794">358</text><line x1="985.000000" x2="985.000000" y1="92.562794" y2="97.562794" stroke="#AAAAAA" /><text style="font-size:10px;font-family:Arial;fill:#000000;" text-anchor="middle" x="985.000000" y="107.562794">393</text></g>
</svg>
