<?xml version='1.0'?>
<svg xmlns="http://www.w3.org/2000/svg" xmlns:xlink="http://www.w3.org/1999/xlink" width="1000.000000" height="139.449827">
<defs>
  <filter id="ds" x="0" y="0">
    <feOffset in="SourceAlpha" dx="2" dy="2" />
    <feComponentTransfer><feFuncA type="linear" slope="0.2"/></feComponentTransfer>
    <feGaussianBlur result="blurOut" stdDeviation="1" />
    <feBlend in="SourceGraphic" in2="blurOut" mode="normal" />
  </filter>
  <pattern id="disordered-hatch" patternUnits="userSpaceOnUse" width="4" height="4">
    <path d="M-1,1 l2,-2 M0,4 l4,-4 M3,5 l2,-2" stroke="#000000" opacity="0.3" />
  </pattern>
</defs>
<line x1="81.761134" x2="81.761134" y1="47.449827" y2="75.449827" stroke="#BABDB6" stroke-width="2"/><a xlink:title="K34fs"><circle cx="81.761134" cy="47.449827" r="4.000000" fill="#228b22" /></a><line x1="89.615385" x2="89.615385" y1="34.949827" y2="75.449827" stroke="#BABDB6" stroke-width="2"/><a xlink:title="T38fs"><circle cx="89.615385" cy="34.949827" r="5.354265" fill="#228b22" /></a><line x1="93.542510" x2="93.542510" y1="47.449827" y2="75.449827" stroke="#BABDB6" stroke-width="2"/><a xlink:title="V40fs"><circle cx="93.542510" cy="47.449827" r="4.000000" fill="#228b22" /></a><line x1="189.757085" x2="189.757085" y1="47.449827" y2="75.449827" stroke="#BABDB6" stroke-width="2"/><a xlink:title="S89fs"><circle cx="189.757085" cy="47.449827" r="4.000000" fill="#228b22" /></a><line x1="201.538462" x2="201.538462" y1="47.449827" y2="75.449827" stroke="#BABDB6" stroke-width="2"/><a xlink:title="P95fs"><circle cx="201.538462" cy="47.449827" r="4.000000" fill="#228b22" /></a><line x1="213.319838" x2="213.319838" y1="30.887032" y2="75.449827" stroke="#BABDB6" stroke-width="2"/><a xlink:title="L101fs"><circle cx="213.319838" cy="30.887032" r="5.354265" fill="#228b22" /></a><line x1="217.246964" x2="217.246964" y1="47.449827" y2="75.449827" stroke="#BABDB6" stroke-width="2"/><a xlink:title="E103fs"><circle cx="217.246964" cy="47.449827" r="5.354265" fill="#228b22" /></a><line x1="225.101215" x2="225.101215" y1="25.164499" y2="75.449827" stroke="#BABDB6" stroke-width="2"/><a xlink:title="G107fs"><circle cx="225.101215" cy="25.164499" r="8.602300" fill="#0000ff" /></a><line x1="227.064777" x2="227.064777" y1="47.449827" y2="75.449827" stroke="#BABDB6" stroke-width="2"/><a xlink:title="G108fs"><circle cx="227.064777" cy="47.449827" r="7.261776" fill="#228b22" /></a><line x1="248.663968" x2="248.663968" y1="34.949827" y2="75.449827" stroke="#BABDB6" stroke-width="2"/><a xlink:title="F119fs"><circle cx="248.663968" cy="34.949827" r="4.000000" fill="#228b22" /></a><line x1="252.591093" x2="252.591093" y1="47.449827" y2="75.449827" stroke="#BABDB6" stroke-width="2"/><a xlink:title="D121fs"><circle cx="252.591093" cy="47.449827" r="4.000000" fill="#228b22" /></a><line x1="285.971660" x2="285.971660" y1="47.449827" y2="75.449827" stroke="#BABDB6" stroke-width="2"/><a xlink:title="Q138fs"><circle cx="285.971660" cy="47.449827" r="4.000000" fill="#228b22" /></a><line x1="297.753036" x2="297.753036" y1="30.887032" y2="75.449827" stroke="#BABDB6" stroke-width="2"/><a xlink:title="G144fs"><circle cx="297.753036" cy="30.887032" r="9.316609" fill="#0000ff" /></a><line x1="299.716599" x2="299.716599" y1="47.449827" y2="75.449827" stroke="#BABDB6" stroke-width="2"/><a xlink:title="G145fs"><circle cx="299.716599" cy="47.449827" r="5.354265" fill="#228b22" /></a><line x1="311.497976" x2="311.497976" y1="47.449827" y2="75.449827" stroke="#BABDB6" stroke-width="2"/><a xlink:title="S151fs"><circle cx="311.497976" cy="47.449827" r="4.000000" fill="#228b22" /></a><line x1="329.170040" x2="329.170040" y1="34.949827" y2="75.449827" stroke="#BABDB6" stroke-width="2"/><a xlink:title="R160fs"><circle cx="329.170040" cy="34.949827" r="8.187458" fill="#228b22" /></a><line x1="333.097166" x2="333.097166" y1="47.449827" y2="75.449827" stroke="#BABDB6" stroke-width="2"/><a xlink:title="F162fs"><circle cx="333.097166" cy="47.449827" r="4.000000" fill="#228b22" /></a><line x1="344.878543" x2="344.878543" y1="47.449827" y2="75.449827" stroke="#BABDB6" stroke-width="2"/><a xlink:title="C168fs"><circle cx="344.878543" cy="47.449827" r="4.000000" fill="#228b22" /></a><line x1="354.696356" x2="354.696356" y1="47.449827" y2="75.449827" stroke="#BABDB6" stroke-width="2"/><a xlink:title="K173fs"><circle cx="354.696356" cy="47.449827" r="5.354265" fill="#228b22" /></a><line x1="364.514170" x2="364.514170" y1="47.449827" y2="75.449827" stroke="#BABDB6" stroke-width="2"/><a xlink:title="H178fs"><circle cx="364.514170" cy="47.449827" r="4.000000" fill="#228b22" /></a><line x1="384.149798" x2="384.149798" y1="47.449827" y2="75.449827" stroke="#BABDB6" stroke-width="2"/><a xlink:title="R188fs"><circle cx="384.149798" cy="47.449827" r="4.000000" fill="#228b22" /></a><line x1="392.004049" x2="392.004049" y1="47.449827" y2="75.449827" stroke="#BABDB6" stroke-width="2"/><a xlink:title="Y192fs"><circle cx="392.004049" cy="47.449827" r="4.000000" fill="#228b22" /></a><line x1="409.676113" x2="409.676113" y1="47.449827" y2="75.449827" stroke="#BABDB6" stroke-width="2"/><a xlink:title="H201fs"><circle cx="409.676113" cy="47.449827" r="4.000000" fill="#228b22" /></a><line x1="423.421053" x2="423.421053" y1="47.449827" y2="75.449827" stroke="#BABDB6" stroke-width="2"/><a xlink:title="Y208fs"><circle cx="423.421053" cy="47.449827" r="4.000000" fill="#228b22" /></a><line x1="464.655870" x2="464.655870" y1="47.449827" y2="75.449827" stroke="#BABDB6" stroke-width="2"/><a xlink:title="A229fs"><circle cx="464.655870" cy="47.449827" r="6.194056" fill="#228b22" /></a><line x1="525.526316" x2="525.526316" y1="47.449827" y2="75.449827" stroke="#BABDB6" stroke-width="2"/><a xlink:title="F260fs"><circle cx="525.526316" cy="47.449827" r="4.000000" fill="#228b22" /></a><line x1="698.319838" x2="698.319838" y1="47.449827" y2="75.449827" stroke="#BABDB6" stroke-width="2"/><a xlink:title="A348fs"><circle cx="698.319838" cy="47.449827" r="4.000000" fill="#228b22" /></a><line x1="749.372470" x2="749.372470" y1="47.449827" y2="75.449827" stroke="#BABDB6" stroke-width="2"/><a xlink:title="T374fs"><circle cx="749.372470" cy="47.449827" r="4.000000" fill="#228b22" /></a><a xlink:title="TISD_HUMAN, mRNA decay activator protein ZFP36L2 {ECO:0000305} (494aa)"><rect fill="#BABDB6" x="15.000000" y="75.449827" width="970.000000" height="14.000000"/></a><g transform="translate(16.963563,70.449827)"><a xlink:href="https://pfam.xfam.org/family/PF04553" xlink:title="Tis11B like protein, N terminus"><rect fill="#2dcf00" x="0" y="0" width="276.862348" height="24.000000" filter="url(#ds)"/></a></g>
<g transform="translate(317.388664,70.449827)"><a xlink:href="https://pfam.xfam.org/family/PF00642" xlink:title="Zinc finger C-x8-C-x5-C-x3-H type (and similar)"><rect fill="#ff5353" x="0" y="0" width="51.052632" height="24.000000" filter="url(#ds)"/></a></g>
<g transform="translate(392.004049,70.449827)"><a xlink:href="https://pfam.xfam.org/family/PF00642" xlink:title="Zinc finger C-x8-C-x5-C-x3-H type (and similar)"><rect fill="#ff5353" x="0" y="0" width="49.089069" height="24.000000" filter="url(#ds)"/></a></g>
<g class="axis">
<line x1="15.000000" x2="985.000000" y1="104.449827" y2="104.449827" stroke="#AAAAAA" /><line x1="15.000000" x2="15.000000" y1="104.449827" y2="109.449827" stroke="#AAAAAA" /><line x1="16.963563" x2="16.963563" y1="104.449827" y2="109.449827" stroke="#AAAAAA" /><text style="font-size:10px;font-family:Arial;fill:#000000;" text-anchor="middle" x="16.963563" y="119.449827">1</text><line x1="81.761134" x2="81.761134" y1="104.449827" y2="109.449827" stroke="#AAAAAA" /><text style="font-size:10px;font-family:Arial;fill:#000000;" text-anchor="middle" x="81.761134" y="119.449827">34</text><line x1="189.757085" x2="189.757085" y1="104.449827" y2="109.449827" stroke="#AAAAAA" /><text style="font-size:10px;font-family:Arial;fill:#000000;" text-anchor="middle" x="189.757085" y="119.449827">89</text><line x1="213.319838" x2="213.319838" y1="104.449827" y2="109.449827" stroke="#AAAAAA" /><text style="font-size:10px;font-family:Arial;fill:#000000;" text-anchor="middle" x="213.319838" y="119.449827">101</text><line x1="248.663968" x2="248.663968" y1="104.449827" y2="109.449827" stroke="#AAAAAA" /><text style="font-size:10px;font-family:Arial;fill:#000000;" text-anchor="middle" x="248.663968" y="119.449827">119</text><line x1="285.971660" x2="285.971660" y1="104.449827" y2="109.449827" stroke="#AAAAAA" /><text style="font-size:10px;font-family:Arial;fill:#000000;" text-anchor="middle" x="285.971660" y="119.449827">138</text><line x1="311.497976" x2="311.497976" y1="104.449827" y2="109.449827" stroke="#AAAAAA" /><text style="font-size:10px;font-family:Arial;fill:#000000;" text-anchor="middle" x="311.497976" y="119.449827">151</text><line x1="333.097166" x2="333.097166" y1="104.449827" y2="109.449827" stroke="#AAAAAA" /><text style="font-size:10px;font-family:Arial;fill:#000000;" text-anchor="middle" x="333.097166" y="119.449827">162</text><line x1="354.696356" x2="354.696356" y1="104.449827" y2="109.449827" stroke="#AAAAAA" /><text style="font-size:10px;font-family:Arial;fill:#000000;" text-anchor="middle" x="354.696356" y="119.449827">173</text><line x1="384.149798" x2="384.149798" y1="104.449827" y2="109.449827" stroke="#AAAAAA" /><text style="font-size:10px;font-family:Arial;fill:#000000;" text-anchor="middle" x="384.149798" y="119.449827">188</text><line x1="409.676113" x2="409.676113" y1="104.449827" y2="109.449827" stroke="#AAAAAA" /><text style="font-size:10px;font-family:Arial;fill:#000000;" text-anchor="middle" x="409.676113" y="119.449827">201</text><line x1="441.093117" x2="441.093117" y1="104.449827" y2="109.449827" stroke="#AAAAAA" /><text style="font-size:10px;font-family:Arial;fill:#000000;" text-anchor="middle" x="441.093117" y="119.449827">217</text><line x1="464.655870" x2="464.655870" y1="104.449827" y2="109.449827" stroke="#AAAAAA" /><text style="font-size:10px;font-family:Arial;fill:#000000;" text-anchor="middle" x="464.655870" y="119.449827">229</text><line x1="525.526316" x2="525.526316" y1="104.449827" y2="109.449827" stroke="#AAAAAA" /><text style="font-size:10px;font-family:Arial;fill:#000000;" text-anchor="middle" x="525.526316" y="119.449827">260</text><line x1="698.319838" x2="698.319838" y1="104.449827" y2="109.449827" stroke="#AAAAAA" /><text style="font-size:10px;font-family:Arial;fill:#000000;" text-anchor="middle" x="698.319838" y="119.449827">348</text><line x1="749.372470" x2="749.372470" y1="104.449827" y2="109.449827" stroke="#AAAAAA" /><text style="font-size:10px;font-family:Arial;fill:#000000;" text-anchor="middle" x="749.372470" y="119.449827">374</text><line x1="985.000000" x2="985.000000" y1="104.449827" y2="109.449827" stroke="#AAAAAA" /><text style="font-size:10px;font-family:Arial;fill:#000000;" text-anchor="middle" x="985.000000" y="119.449827">494</text></g>
</svg>
