<?xml version="1.0" encoding="utf-8" standalone="no"?>
<!DOCTYPE svg PUBLIC "-//W3C//DTD SVG 1.1//EN"
  "http://www.w3.org/Graphics/SVG/1.1/DTD/svg11.dtd">
<!-- Created with matplotlib (https://matplotlib.org/) -->
<svg height="364.594375pt" version="1.1" viewBox="0 0 459.104476 364.594375" width="459.104476pt" xmlns="http://www.w3.org/2000/svg" xmlns:xlink="http://www.w3.org/1999/xlink">
 <defs>
  <style type="text/css">
*{stroke-linecap:butt;stroke-linejoin:round;}
  </style>
 </defs>
 <g id="figure_1">
  <g id="patch_1">
   <path d="M 0 364.594375 
L 459.104476 364.594375 
L 459.104476 -0 
L 0 -0 
z
" style="fill:#ffffff;"/>
  </g>
  <g id="axes_1">
   <g id="patch_2">
    <path d="M 34.240625 327.038125 
L 339.235076 327.038125 
L 339.235076 22.318125 
L 34.240625 22.318125 
z
" style="fill:#ffffff;"/>
   </g>
   <g id="PathCollection_1">
    <defs>
     <path d="M 0 3 
C 0.795609 3 1.55874 2.683901 2.12132 2.12132 
C 2.683901 1.55874 3 0.795609 3 0 
C 3 -0.795609 2.683901 -1.55874 2.12132 -2.12132 
C 1.55874 -2.683901 0.795609 -3 0 -3 
C -0.795609 -3 -1.55874 -2.683901 -2.12132 -2.12132 
C -2.683901 -1.55874 -3 -0.795609 -3 0 
C -3 0.795609 -2.683901 1.55874 -2.12132 2.12132 
C -1.55874 2.683901 -0.795609 3 0 3 
z
" id="m02e8ac5c88" style="stroke:#1f77b4;stroke-opacity:0.55;"/>
    </defs>
    <g clip-path="url(#p2252ddb95c)">
     <use style="fill:#1f77b4;fill-opacity:0.55;stroke:#1f77b4;stroke-opacity:0.55;" x="321.960475" xlink:href="#m02e8ac5c88" y="44.124637"/>
     <use style="fill:#1f77b4;fill-opacity:0.55;stroke:#1f77b4;stroke-opacity:0.55;" x="304.218155" xlink:href="#m02e8ac5c88" y="90.238924"/>
     <use style="fill:#1f77b4;fill-opacity:0.55;stroke:#1f77b4;stroke-opacity:0.55;" x="323.255359" xlink:href="#m02e8ac5c88" y="39.977373"/>
     <use style="fill:#1f77b4;fill-opacity:0.55;stroke:#1f77b4;stroke-opacity:0.55;" x="323.255359" xlink:href="#m02e8ac5c88" y="91.490417"/>
     <use style="fill:#1f77b4;fill-opacity:0.55;stroke:#1f77b4;stroke-opacity:0.55;" x="248.0288" xlink:href="#m02e8ac5c88" y="100.643807"/>
     <use style="fill:#1f77b4;fill-opacity:0.55;stroke:#1f77b4;stroke-opacity:0.55;" x="144.80161" xlink:href="#m02e8ac5c88" y="164.467015"/>
     <use style="fill:#1f77b4;fill-opacity:0.55;stroke:#1f77b4;stroke-opacity:0.55;" x="283.772604" xlink:href="#m02e8ac5c88" y="60.01112"/>
     <use style="fill:#1f77b4;fill-opacity:0.55;stroke:#1f77b4;stroke-opacity:0.55;" x="92.198804" xlink:href="#m02e8ac5c88" y="276.02952"/>
     <use style="fill:#1f77b4;fill-opacity:0.55;stroke:#1f77b4;stroke-opacity:0.55;" x="120.853212" xlink:href="#m02e8ac5c88" y="272.399524"/>
     <use style="fill:#1f77b4;fill-opacity:0.55;stroke:#1f77b4;stroke-opacity:0.55;" x="93.135511" xlink:href="#m02e8ac5c88" y="257.495468"/>
     <use style="fill:#1f77b4;fill-opacity:0.55;stroke:#1f77b4;stroke-opacity:0.55;" x="219.352987" xlink:href="#m02e8ac5c88" y="154.927547"/>
     <use style="fill:#1f77b4;fill-opacity:0.55;stroke:#1f77b4;stroke-opacity:0.55;" x="285.866562" xlink:href="#m02e8ac5c88" y="117.034683"/>
     <use style="fill:#1f77b4;fill-opacity:0.55;stroke:#1f77b4;stroke-opacity:0.55;" x="91.433879" xlink:href="#m02e8ac5c88" y="234.147178"/>
     <use style="fill:#1f77b4;fill-opacity:0.55;stroke:#1f77b4;stroke-opacity:0.55;" x="148.664643" xlink:href="#m02e8ac5c88" y="187.567718"/>
     <use style="fill:#1f77b4;fill-opacity:0.55;stroke:#1f77b4;stroke-opacity:0.55;" x="247.673725" xlink:href="#m02e8ac5c88" y="108.307996"/>
     <use style="fill:#1f77b4;fill-opacity:0.55;stroke:#1f77b4;stroke-opacity:0.55;" x="306.418523" xlink:href="#m02e8ac5c88" y="77.055016"/>
     <use style="fill:#1f77b4;fill-opacity:0.55;stroke:#1f77b4;stroke-opacity:0.55;" x="283.772604" xlink:href="#m02e8ac5c88" y="120.228731"/>
     <use style="fill:#1f77b4;fill-opacity:0.55;stroke:#1f77b4;stroke-opacity:0.55;" x="84.679158" xlink:href="#m02e8ac5c88" y="272.399524"/>
     <use style="fill:#1f77b4;fill-opacity:0.55;stroke:#1f77b4;stroke-opacity:0.55;" x="219.941398" xlink:href="#m02e8ac5c88" y="91.490417"/>
     <use style="fill:#1f77b4;fill-opacity:0.55;stroke:#1f77b4;stroke-opacity:0.55;" x="304.218155" xlink:href="#m02e8ac5c88" y="116.194851"/>
     <use style="fill:#1f77b4;fill-opacity:0.55;stroke:#1f77b4;stroke-opacity:0.55;" x="227.051501" xlink:href="#m02e8ac5c88" y="114.286409"/>
     <use style="fill:#1f77b4;fill-opacity:0.55;stroke:#1f77b4;stroke-opacity:0.55;" x="50.220342" xlink:href="#m02e8ac5c88" y="273.428631"/>
     <use style="fill:#1f77b4;fill-opacity:0.55;stroke:#1f77b4;stroke-opacity:0.55;" x="267.403675" xlink:href="#m02e8ac5c88" y="137.197111"/>
     <use style="fill:#1f77b4;fill-opacity:0.55;stroke:#1f77b4;stroke-opacity:0.55;" x="317.488518" xlink:href="#m02e8ac5c88" y="79.268331"/>
     <use style="fill:#1f77b4;fill-opacity:0.55;stroke:#1f77b4;stroke-opacity:0.55;" x="163.355898" xlink:href="#m02e8ac5c88" y="128.831454"/>
     <use style="fill:#1f77b4;fill-opacity:0.55;stroke:#1f77b4;stroke-opacity:0.55;" x="63.171558" xlink:href="#m02e8ac5c88" y="303.240111"/>
     <use style="fill:#1f77b4;fill-opacity:0.55;stroke:#1f77b4;stroke-opacity:0.55;" x="170.234609" xlink:href="#m02e8ac5c88" y="161.094273"/>
     <use style="fill:#1f77b4;fill-opacity:0.55;stroke:#1f77b4;stroke-opacity:0.55;" x="74.24684" xlink:href="#m02e8ac5c88" y="283.057007"/>
     <use style="fill:#1f77b4;fill-opacity:0.55;stroke:#1f77b4;stroke-opacity:0.55;" x="109.241589" xlink:href="#m02e8ac5c88" y="280.695714"/>
     <use style="fill:#1f77b4;fill-opacity:0.55;stroke:#1f77b4;stroke-opacity:0.55;" x="298.086998" xlink:href="#m02e8ac5c88" y="77.738039"/>
     <use style="fill:#1f77b4;fill-opacity:0.55;stroke:#1f77b4;stroke-opacity:0.55;" x="317.488518" xlink:href="#m02e8ac5c88" y="39.977373"/>
     <use style="fill:#1f77b4;fill-opacity:0.55;stroke:#1f77b4;stroke-opacity:0.55;" x="322.730774" xlink:href="#m02e8ac5c88" y="42.129627"/>
     <use style="fill:#1f77b4;fill-opacity:0.55;stroke:#1f77b4;stroke-opacity:0.55;" x="247.673725" xlink:href="#m02e8ac5c88" y="114.286409"/>
     <use style="fill:#1f77b4;fill-opacity:0.55;stroke:#1f77b4;stroke-opacity:0.55;" x="241.039382" xlink:href="#m02e8ac5c88" y="127.699611"/>
     <use style="fill:#1f77b4;fill-opacity:0.55;stroke:#1f77b4;stroke-opacity:0.55;" x="205.844989" xlink:href="#m02e8ac5c88" y="123.680219"/>
     <use style="fill:#1f77b4;fill-opacity:0.55;stroke:#1f77b4;stroke-opacity:0.55;" x="294.082181" xlink:href="#m02e8ac5c88" y="129.53265"/>
     <use style="fill:#1f77b4;fill-opacity:0.55;stroke:#1f77b4;stroke-opacity:0.55;" x="296.1813" xlink:href="#m02e8ac5c88" y="62.081769"/>
     <use style="fill:#1f77b4;fill-opacity:0.55;stroke:#1f77b4;stroke-opacity:0.55;" x="132.943466" xlink:href="#m02e8ac5c88" y="269.284512"/>
     <use style="fill:#1f77b4;fill-opacity:0.55;stroke:#1f77b4;stroke-opacity:0.55;" x="317.488518" xlink:href="#m02e8ac5c88" y="58.462232"/>
     <use style="fill:#1f77b4;fill-opacity:0.55;stroke:#1f77b4;stroke-opacity:0.55;" x="317.488518" xlink:href="#m02e8ac5c88" y="58.913804"/>
     <use style="fill:#1f77b4;fill-opacity:0.55;stroke:#1f77b4;stroke-opacity:0.55;" x="294.082181" xlink:href="#m02e8ac5c88" y="58.462232"/>
     <use style="fill:#1f77b4;fill-opacity:0.55;stroke:#1f77b4;stroke-opacity:0.55;" x="111.252849" xlink:href="#m02e8ac5c88" y="285.511221"/>
     <use style="fill:#1f77b4;fill-opacity:0.55;stroke:#1f77b4;stroke-opacity:0.55;" x="103.208028" xlink:href="#m02e8ac5c88" y="288.02854"/>
     <use style="fill:#1f77b4;fill-opacity:0.55;stroke:#1f77b4;stroke-opacity:0.55;" x="62.770949" xlink:href="#m02e8ac5c88" y="277.3241"/>
     <use style="fill:#1f77b4;fill-opacity:0.55;stroke:#1f77b4;stroke-opacity:0.55;" x="76.120215" xlink:href="#m02e8ac5c88" y="233.72689"/>
     <use style="fill:#1f77b4;fill-opacity:0.55;stroke:#1f77b4;stroke-opacity:0.55;" x="178.419761" xlink:href="#m02e8ac5c88" y="137.197111"/>
     <use style="fill:#1f77b4;fill-opacity:0.55;stroke:#1f77b4;stroke-opacity:0.55;" x="300.493403" xlink:href="#m02e8ac5c88" y="44.124637"/>
     <use style="fill:#1f77b4;fill-opacity:0.55;stroke:#1f77b4;stroke-opacity:0.55;" x="157.016267" xlink:href="#m02e8ac5c88" y="171.209785"/>
     <use style="fill:#1f77b4;fill-opacity:0.55;stroke:#1f77b4;stroke-opacity:0.55;" x="247.673725" xlink:href="#m02e8ac5c88" y="190.657386"/>
     <use style="fill:#1f77b4;fill-opacity:0.55;stroke:#1f77b4;stroke-opacity:0.55;" x="320.71846" xlink:href="#m02e8ac5c88" y="56.085125"/>
     <use style="fill:#1f77b4;fill-opacity:0.55;stroke:#1f77b4;stroke-opacity:0.55;" x="283.772604" xlink:href="#m02e8ac5c88" y="143.062735"/>
     <use style="fill:#1f77b4;fill-opacity:0.55;stroke:#1f77b4;stroke-opacity:0.55;" x="163.108381" xlink:href="#m02e8ac5c88" y="143.196176"/>
     <use style="fill:#1f77b4;fill-opacity:0.55;stroke:#1f77b4;stroke-opacity:0.55;" x="200.665498" xlink:href="#m02e8ac5c88" y="175.396435"/>
     <use style="fill:#1f77b4;fill-opacity:0.55;stroke:#1f77b4;stroke-opacity:0.55;" x="285.866562" xlink:href="#m02e8ac5c88" y="62.081769"/>
     <use style="fill:#1f77b4;fill-opacity:0.55;stroke:#1f77b4;stroke-opacity:0.55;" x="271.75105" xlink:href="#m02e8ac5c88" y="39.977373"/>
     <use style="fill:#1f77b4;fill-opacity:0.55;stroke:#1f77b4;stroke-opacity:0.55;" x="313.018136" xlink:href="#m02e8ac5c88" y="92.816867"/>
     <use style="fill:#1f77b4;fill-opacity:0.55;stroke:#1f77b4;stroke-opacity:0.55;" x="308.46336" xlink:href="#m02e8ac5c88" y="39.977373"/>
     <use style="fill:#1f77b4;fill-opacity:0.55;stroke:#1f77b4;stroke-opacity:0.55;" x="320.71846" xlink:href="#m02e8ac5c88" y="46.340945"/>
     <use style="fill:#1f77b4;fill-opacity:0.55;stroke:#1f77b4;stroke-opacity:0.55;" x="84.891443" xlink:href="#m02e8ac5c88" y="286.962784"/>
     <use style="fill:#1f77b4;fill-opacity:0.55;stroke:#1f77b4;stroke-opacity:0.55;" x="294.082181" xlink:href="#m02e8ac5c88" y="91.490417"/>
     <use style="fill:#1f77b4;fill-opacity:0.55;stroke:#1f77b4;stroke-opacity:0.55;" x="282.291597" xlink:href="#m02e8ac5c88" y="77.961971"/>
     <use style="fill:#1f77b4;fill-opacity:0.55;stroke:#1f77b4;stroke-opacity:0.55;" x="160.321561" xlink:href="#m02e8ac5c88" y="214.389699"/>
     <use style="fill:#1f77b4;fill-opacity:0.55;stroke:#1f77b4;stroke-opacity:0.55;" x="283.772604" xlink:href="#m02e8ac5c88" y="60.01112"/>
     <use style="fill:#1f77b4;fill-opacity:0.55;stroke:#1f77b4;stroke-opacity:0.55;" x="306.418523" xlink:href="#m02e8ac5c88" y="62.081769"/>
     <use style="fill:#1f77b4;fill-opacity:0.55;stroke:#1f77b4;stroke-opacity:0.55;" x="82.460723" xlink:href="#m02e8ac5c88" y="254.751471"/>
     <use style="fill:#1f77b4;fill-opacity:0.55;stroke:#1f77b4;stroke-opacity:0.55;" x="68.466398" xlink:href="#m02e8ac5c88" y="293.677443"/>
     <use style="fill:#1f77b4;fill-opacity:0.55;stroke:#1f77b4;stroke-opacity:0.55;" x="107.255749" xlink:href="#m02e8ac5c88" y="254.751471"/>
     <use style="fill:#1f77b4;fill-opacity:0.55;stroke:#1f77b4;stroke-opacity:0.55;" x="321.960475" xlink:href="#m02e8ac5c88" y="39.977373"/>
     <use style="fill:#1f77b4;fill-opacity:0.55;stroke:#1f77b4;stroke-opacity:0.55;" x="317.488518" xlink:href="#m02e8ac5c88" y="39.977373"/>
     <use style="fill:#1f77b4;fill-opacity:0.55;stroke:#1f77b4;stroke-opacity:0.55;" x="294.904533" xlink:href="#m02e8ac5c88" y="83.585745"/>
     <use style="fill:#1f77b4;fill-opacity:0.55;stroke:#1f77b4;stroke-opacity:0.55;" x="88.703623" xlink:href="#m02e8ac5c88" y="245.051206"/>
     <use style="fill:#1f77b4;fill-opacity:0.55;stroke:#1f77b4;stroke-opacity:0.55;" x="321.960475" xlink:href="#m02e8ac5c88" y="42.129627"/>
     <use style="fill:#1f77b4;fill-opacity:0.55;stroke:#1f77b4;stroke-opacity:0.55;" x="102.766465" xlink:href="#m02e8ac5c88" y="258.056929"/>
     <use style="fill:#1f77b4;fill-opacity:0.55;stroke:#1f77b4;stroke-opacity:0.55;" x="59.85105" xlink:href="#m02e8ac5c88" y="255.209347"/>
     <use style="fill:#1f77b4;fill-opacity:0.55;stroke:#1f77b4;stroke-opacity:0.55;" x="64.831361" xlink:href="#m02e8ac5c88" y="248.125923"/>
     <use style="fill:#1f77b4;fill-opacity:0.55;stroke:#1f77b4;stroke-opacity:0.55;" x="288.535018" xlink:href="#m02e8ac5c88" y="93.895826"/>
     <use style="fill:#1f77b4;fill-opacity:0.55;stroke:#1f77b4;stroke-opacity:0.55;" x="120.444109" xlink:href="#m02e8ac5c88" y="260.819915"/>
     <use style="fill:#1f77b4;fill-opacity:0.55;stroke:#1f77b4;stroke-opacity:0.55;" x="161.926464" xlink:href="#m02e8ac5c88" y="115.667056"/>
     <use style="fill:#1f77b4;fill-opacity:0.55;stroke:#1f77b4;stroke-opacity:0.55;" x="323.255359" xlink:href="#m02e8ac5c88" y="46.340945"/>
     <use style="fill:#1f77b4;fill-opacity:0.55;stroke:#1f77b4;stroke-opacity:0.55;" x="179.377026" xlink:href="#m02e8ac5c88" y="167.426609"/>
     <use style="fill:#1f77b4;fill-opacity:0.55;stroke:#1f77b4;stroke-opacity:0.55;" x="317.488518" xlink:href="#m02e8ac5c88" y="39.977373"/>
     <use style="fill:#1f77b4;fill-opacity:0.55;stroke:#1f77b4;stroke-opacity:0.55;" x="179.480059" xlink:href="#m02e8ac5c88" y="163.73337"/>
     <use style="fill:#1f77b4;fill-opacity:0.55;stroke:#1f77b4;stroke-opacity:0.55;" x="317.488518" xlink:href="#m02e8ac5c88" y="60.648958"/>
     <use style="fill:#1f77b4;fill-opacity:0.55;stroke:#1f77b4;stroke-opacity:0.55;" x="287.619281" xlink:href="#m02e8ac5c88" y="86.914225"/>
     <use style="fill:#1f77b4;fill-opacity:0.55;stroke:#1f77b4;stroke-opacity:0.55;" x="317.488518" xlink:href="#m02e8ac5c88" y="39.977373"/>
     <use style="fill:#1f77b4;fill-opacity:0.55;stroke:#1f77b4;stroke-opacity:0.55;" x="163.355898" xlink:href="#m02e8ac5c88" y="209.402112"/>
     <use style="fill:#1f77b4;fill-opacity:0.55;stroke:#1f77b4;stroke-opacity:0.55;" x="317.488518" xlink:href="#m02e8ac5c88" y="83.585745"/>
     <use style="fill:#1f77b4;fill-opacity:0.55;stroke:#1f77b4;stroke-opacity:0.55;" x="323.255359" xlink:href="#m02e8ac5c88" y="39.977373"/>
     <use style="fill:#1f77b4;fill-opacity:0.55;stroke:#1f77b4;stroke-opacity:0.55;" x="323.255359" xlink:href="#m02e8ac5c88" y="39.977373"/>
     <use style="fill:#1f77b4;fill-opacity:0.55;stroke:#1f77b4;stroke-opacity:0.55;" x="300.493403" xlink:href="#m02e8ac5c88" y="114.286409"/>
     <use style="fill:#1f77b4;fill-opacity:0.55;stroke:#1f77b4;stroke-opacity:0.55;" x="198.112038" xlink:href="#m02e8ac5c88" y="171.209785"/>
    </g>
   </g>
   <g id="PathCollection_2">
    <defs>
     <path d="M 0 3 
C 0.795609 3 1.55874 2.683901 2.12132 2.12132 
C 2.683901 1.55874 3 0.795609 3 0 
C 3 -0.795609 2.683901 -1.55874 2.12132 -2.12132 
C 1.55874 -2.683901 0.795609 -3 0 -3 
C -0.795609 -3 -1.55874 -2.683901 -2.12132 -2.12132 
C -2.683901 -1.55874 -3 -0.795609 -3 0 
C -3 0.795609 -2.683901 1.55874 -2.12132 2.12132 
C -1.55874 2.683901 -0.795609 3 0 3 
z
" id="m3e6246058b" style="stroke:#ff7f0e;stroke-opacity:0.55;"/>
    </defs>
    <g clip-path="url(#p2252ddb95c)">
     <use style="fill:#ff7f0e;fill-opacity:0.55;stroke:#ff7f0e;stroke-opacity:0.55;" x="106.825653" xlink:href="#m3e6246058b" y="219.47991"/>
     <use style="fill:#ff7f0e;fill-opacity:0.55;stroke:#ff7f0e;stroke-opacity:0.55;" x="113.495967" xlink:href="#m3e6246058b" y="220.317819"/>
     <use style="fill:#ff7f0e;fill-opacity:0.55;stroke:#ff7f0e;stroke-opacity:0.55;" x="176.272806" xlink:href="#m3e6246058b" y="259.708064"/>
     <use style="fill:#ff7f0e;fill-opacity:0.55;stroke:#ff7f0e;stroke-opacity:0.55;" x="121.669001" xlink:href="#m3e6246058b" y="187.567718"/>
     <use style="fill:#ff7f0e;fill-opacity:0.55;stroke:#ff7f0e;stroke-opacity:0.55;" x="117.996228" xlink:href="#m3e6246058b" y="222.148292"/>
     <use style="fill:#ff7f0e;fill-opacity:0.55;stroke:#ff7f0e;stroke-opacity:0.55;" x="117.996228" xlink:href="#m3e6246058b" y="214.00445"/>
     <use style="fill:#ff7f0e;fill-opacity:0.55;stroke:#ff7f0e;stroke-opacity:0.55;" x="185.550073" xlink:href="#m3e6246058b" y="281.441102"/>
     <use style="fill:#ff7f0e;fill-opacity:0.55;stroke:#ff7f0e;stroke-opacity:0.55;" x="197.541884" xlink:href="#m3e6246058b" y="248.372201"/>
     <use style="fill:#ff7f0e;fill-opacity:0.55;stroke:#ff7f0e;stroke-opacity:0.55;" x="157.016267" xlink:href="#m3e6246058b" y="242.555401"/>
     <use style="fill:#ff7f0e;fill-opacity:0.55;stroke:#ff7f0e;stroke-opacity:0.55;" x="170.234609" xlink:href="#m3e6246058b" y="234.147178"/>
     <use style="fill:#ff7f0e;fill-opacity:0.55;stroke:#ff7f0e;stroke-opacity:0.55;" x="108.910438" xlink:href="#m3e6246058b" y="181.838865"/>
     <use style="fill:#ff7f0e;fill-opacity:0.55;stroke:#ff7f0e;stroke-opacity:0.55;" x="132.278013" xlink:href="#m3e6246058b" y="190.960272"/>
     <use style="fill:#ff7f0e;fill-opacity:0.55;stroke:#ff7f0e;stroke-opacity:0.55;" x="122.035678" xlink:href="#m3e6246058b" y="181.092067"/>
     <use style="fill:#ff7f0e;fill-opacity:0.55;stroke:#ff7f0e;stroke-opacity:0.55;" x="91.433879" xlink:href="#m3e6246058b" y="214.039698"/>
     <use style="fill:#ff7f0e;fill-opacity:0.55;stroke:#ff7f0e;stroke-opacity:0.55;" x="127.022999" xlink:href="#m3e6246058b" y="190.657386"/>
     <use style="fill:#ff7f0e;fill-opacity:0.55;stroke:#ff7f0e;stroke-opacity:0.55;" x="267.403675" xlink:href="#m3e6246058b" y="237.998063"/>
     <use style="fill:#ff7f0e;fill-opacity:0.55;stroke:#ff7f0e;stroke-opacity:0.55;" x="247.322746" xlink:href="#m3e6246058b" y="236.261546"/>
     <use style="fill:#ff7f0e;fill-opacity:0.55;stroke:#ff7f0e;stroke-opacity:0.55;" x="113.259834" xlink:href="#m3e6246058b" y="218.406135"/>
     <use style="fill:#ff7f0e;fill-opacity:0.55;stroke:#ff7f0e;stroke-opacity:0.55;" x="106.901556" xlink:href="#m3e6246058b" y="217.754249"/>
    </g>
   </g>
   <g id="PolyCollection_1">
    <path clip-path="url(#p2252ddb95c)" d="M 34.240625 286.768188 
L 34.240625 313.187216 
L 37.321377 310.481086 
L 40.402129 307.753986 
L 43.482881 305.070367 
L 46.563633 302.367218 
L 49.644385 299.662214 
L 52.725137 296.978411 
L 55.805889 294.251455 
L 58.886641 291.547204 
L 61.967393 288.8422 
L 65.048145 286.146779 
L 68.128897 283.456159 
L 71.209649 280.76554 
L 74.290401 278.068638 
L 77.371153 275.315318 
L 80.451905 272.574241 
L 83.532657 269.811495 
L 86.613409 267.048061 
L 89.694161 264.283135 
L 92.774913 261.518209 
L 95.855666 258.796591 
L 98.936418 256.079027 
L 102.01717 253.367087 
L 105.097922 250.655147 
L 108.178674 247.943207 
L 111.259426 245.231267 
L 114.340178 242.63746 
L 117.42093 240.00561 
L 120.501682 237.23588 
L 123.582434 234.589793 
L 126.663186 232.025602 
L 129.743938 229.330681 
L 132.82469 226.616471 
L 135.905442 223.885703 
L 138.986194 221.154935 
L 142.066946 218.424167 
L 145.147698 215.757239 
L 148.22845 212.995119 
L 151.309202 210.311333 
L 154.389954 207.673555 
L 157.470706 204.98684 
L 160.551458 202.34299 
L 163.63221 199.637765 
L 166.712962 196.930721 
L 169.793714 194.272538 
L 172.874466 191.639374 
L 175.955218 189.076036 
L 179.03597 186.452095 
L 182.116722 183.90449 
L 185.197474 181.323109 
L 188.278226 178.724253 
L 191.358978 176.155838 
L 194.43973 173.515642 
L 197.520482 170.851854 
L 200.601234 168.256913 
L 203.681986 165.769553 
L 206.762738 163.221178 
L 209.84349 160.654088 
L 212.924242 158.098676 
L 216.004995 155.65244 
L 219.085747 153.066624 
L 222.166499 150.375037 
L 225.247251 147.900615 
L 228.328003 145.443909 
L 231.408755 142.983657 
L 234.489507 140.419379 
L 237.570259 137.854749 
L 240.651011 135.263484 
L 243.731763 132.72582 
L 246.812515 130.189172 
L 249.893267 127.74939 
L 252.974019 125.279586 
L 256.054771 122.82518 
L 259.135523 120.372678 
L 262.216275 117.902459 
L 265.297027 115.462365 
L 268.377779 113.008081 
L 271.458531 110.507524 
L 274.539283 107.974927 
L 277.620035 105.498223 
L 280.700787 103.026486 
L 283.781539 100.534813 
L 286.862291 98.060924 
L 289.943043 95.660036 
L 293.023795 93.15346 
L 296.104547 90.647308 
L 299.185299 88.170222 
L 302.266051 85.655125 
L 305.346803 83.218283 
L 308.427555 80.743977 
L 311.508307 78.26967 
L 314.589059 75.79291 
L 317.669811 73.270464 
L 320.750563 70.814729 
L 323.831315 68.416964 
L 326.912067 65.985011 
L 329.992819 63.508658 
L 333.073572 61.107959 
L 336.154324 58.740634 
L 339.235076 56.348994 
L 339.235076 36.169034 
L 339.235076 36.169034 
L 336.154324 38.850607 
L 333.073572 41.488558 
L 329.992819 44.146659 
L 326.912067 46.790914 
L 323.831315 49.504636 
L 320.750563 52.185472 
L 317.669811 54.841368 
L 314.589059 57.526333 
L 311.508307 60.211884 
L 308.427555 62.913342 
L 305.346803 65.603442 
L 302.266051 68.218985 
L 299.185299 70.830348 
L 296.104547 73.488619 
L 293.023795 76.221699 
L 289.943043 78.954779 
L 286.862291 81.582972 
L 283.781539 84.197921 
L 280.700787 86.81287 
L 277.620035 89.428618 
L 274.539283 92.131278 
L 271.458531 94.86338 
L 268.377779 97.573892 
L 265.297027 100.167628 
L 262.216275 102.713815 
L 259.135523 105.321453 
L 256.054771 107.966608 
L 252.974019 110.6388 
L 249.893267 113.270945 
L 246.812515 115.808337 
L 243.731763 118.350454 
L 240.651011 120.995295 
L 237.570259 123.559717 
L 234.489507 126.283039 
L 231.408755 128.958151 
L 228.328003 131.432589 
L 225.247251 134.095188 
L 222.166499 136.639301 
L 219.085747 139.316377 
L 216.004995 141.995998 
L 212.924242 144.583928 
L 209.84349 147.090528 
L 206.762738 149.520258 
L 203.681986 152.043435 
L 200.601234 154.607952 
L 197.520482 157.273618 
L 194.43973 159.822134 
L 191.358978 162.354329 
L 188.278226 164.861459 
L 185.197474 167.416161 
L 182.116722 169.862025 
L 179.03597 172.371675 
L 175.955218 174.806328 
L 172.874466 177.278904 
L 169.793714 179.74509 
L 166.712962 182.230373 
L 163.63221 184.58514 
L 160.551458 187.140569 
L 157.470706 189.610501 
L 154.389954 192.018174 
L 151.309202 194.44162 
L 148.22845 196.913645 
L 145.147698 199.386746 
L 142.066946 201.923446 
L 138.986194 204.345435 
L 135.905442 206.804021 
L 132.82469 209.27508 
L 129.743938 211.750548 
L 126.663186 214.223489 
L 123.582434 216.727253 
L 120.501682 219.167596 
L 117.42093 221.604948 
L 114.340178 223.992564 
L 111.259426 226.382577 
L 108.178674 228.865217 
L 105.097922 231.375876 
L 102.01717 233.886536 
L 98.936418 236.397196 
L 95.855666 238.813629 
L 92.774913 241.206093 
L 89.694161 243.599021 
L 86.613409 245.97249 
L 83.532657 248.328488 
L 80.451905 250.684485 
L 77.371153 253.125022 
L 74.290401 255.5618 
L 71.209649 257.96034 
L 68.128897 260.416947 
L 65.048145 262.873554 
L 61.967393 265.33016 
L 58.886641 267.703043 
L 55.805889 269.998034 
L 52.725137 272.300435 
L 49.644385 274.750349 
L 46.563633 277.098532 
L 43.482881 279.473066 
L 40.402129 281.864178 
L 37.321377 284.304329 
L 34.240625 286.768188 
z
" style="fill:#1f77b4;fill-opacity:0.15;"/>
   </g>
   <g id="matplotlib.axis_1">
    <g id="xtick_1">
     <g id="line2d_1">
      <defs>
       <path d="M 0 0 
L 0 3.5 
" id="mc250debc92" style="stroke:#000000;stroke-width:0.8;"/>
      </defs>
      <g>
       <use style="stroke:#000000;stroke-width:0.8;" x="47.281536" xlink:href="#mc250debc92" y="327.038125"/>
      </g>
     </g>
     <g id="text_1">
      <!-- 0.0 -->
      <defs>
       <path d="M 31.78125 66.40625 
Q 24.171875 66.40625 20.328125 58.90625 
Q 16.5 51.421875 16.5 36.375 
Q 16.5 21.390625 20.328125 13.890625 
Q 24.171875 6.390625 31.78125 6.390625 
Q 39.453125 6.390625 43.28125 13.890625 
Q 47.125 21.390625 47.125 36.375 
Q 47.125 51.421875 43.28125 58.90625 
Q 39.453125 66.40625 31.78125 66.40625 
z
M 31.78125 74.21875 
Q 44.046875 74.21875 50.515625 64.515625 
Q 56.984375 54.828125 56.984375 36.375 
Q 56.984375 17.96875 50.515625 8.265625 
Q 44.046875 -1.421875 31.78125 -1.421875 
Q 19.53125 -1.421875 13.0625 8.265625 
Q 6.59375 17.96875 6.59375 36.375 
Q 6.59375 54.828125 13.0625 64.515625 
Q 19.53125 74.21875 31.78125 74.21875 
z
" id="DejaVuSans-48"/>
       <path d="M 10.6875 12.40625 
L 21 12.40625 
L 21 0 
L 10.6875 0 
z
" id="DejaVuSans-46"/>
      </defs>
      <g transform="translate(39.329973 341.636563)scale(0.1 -0.1)">
       <use xlink:href="#DejaVuSans-48"/>
       <use x="63.623047" xlink:href="#DejaVuSans-46"/>
       <use x="95.410156" xlink:href="#DejaVuSans-48"/>
      </g>
     </g>
    </g>
    <g id="xtick_2">
     <g id="line2d_2">
      <g>
       <use style="stroke:#000000;stroke-width:0.8;" x="82.309799" xlink:href="#mc250debc92" y="327.038125"/>
      </g>
     </g>
     <g id="text_2">
      <!-- 0.5 -->
      <defs>
       <path d="M 10.796875 72.90625 
L 49.515625 72.90625 
L 49.515625 64.59375 
L 19.828125 64.59375 
L 19.828125 46.734375 
Q 21.96875 47.46875 24.109375 47.828125 
Q 26.265625 48.1875 28.421875 48.1875 
Q 40.625 48.1875 47.75 41.5 
Q 54.890625 34.8125 54.890625 23.390625 
Q 54.890625 11.625 47.5625 5.09375 
Q 40.234375 -1.421875 26.90625 -1.421875 
Q 22.3125 -1.421875 17.546875 -0.640625 
Q 12.796875 0.140625 7.71875 1.703125 
L 7.71875 11.625 
Q 12.109375 9.234375 16.796875 8.0625 
Q 21.484375 6.890625 26.703125 6.890625 
Q 35.15625 6.890625 40.078125 11.328125 
Q 45.015625 15.765625 45.015625 23.390625 
Q 45.015625 31 40.078125 35.4375 
Q 35.15625 39.890625 26.703125 39.890625 
Q 22.75 39.890625 18.8125 39.015625 
Q 14.890625 38.140625 10.796875 36.28125 
z
" id="DejaVuSans-53"/>
      </defs>
      <g transform="translate(74.358236 341.636563)scale(0.1 -0.1)">
       <use xlink:href="#DejaVuSans-48"/>
       <use x="63.623047" xlink:href="#DejaVuSans-46"/>
       <use x="95.410156" xlink:href="#DejaVuSans-53"/>
      </g>
     </g>
    </g>
    <g id="xtick_3">
     <g id="line2d_3">
      <g>
       <use style="stroke:#000000;stroke-width:0.8;" x="117.338062" xlink:href="#mc250debc92" y="327.038125"/>
      </g>
     </g>
     <g id="text_3">
      <!-- 1.0 -->
      <defs>
       <path d="M 12.40625 8.296875 
L 28.515625 8.296875 
L 28.515625 63.921875 
L 10.984375 60.40625 
L 10.984375 69.390625 
L 28.421875 72.90625 
L 38.28125 72.90625 
L 38.28125 8.296875 
L 54.390625 8.296875 
L 54.390625 0 
L 12.40625 0 
z
" id="DejaVuSans-49"/>
      </defs>
      <g transform="translate(109.386499 341.636563)scale(0.1 -0.1)">
       <use xlink:href="#DejaVuSans-49"/>
       <use x="63.623047" xlink:href="#DejaVuSans-46"/>
       <use x="95.410156" xlink:href="#DejaVuSans-48"/>
      </g>
     </g>
    </g>
    <g id="xtick_4">
     <g id="line2d_4">
      <g>
       <use style="stroke:#000000;stroke-width:0.8;" x="152.366324" xlink:href="#mc250debc92" y="327.038125"/>
      </g>
     </g>
     <g id="text_4">
      <!-- 1.5 -->
      <g transform="translate(144.414762 341.636563)scale(0.1 -0.1)">
       <use xlink:href="#DejaVuSans-49"/>
       <use x="63.623047" xlink:href="#DejaVuSans-46"/>
       <use x="95.410156" xlink:href="#DejaVuSans-53"/>
      </g>
     </g>
    </g>
    <g id="xtick_5">
     <g id="line2d_5">
      <g>
       <use style="stroke:#000000;stroke-width:0.8;" x="187.394587" xlink:href="#mc250debc92" y="327.038125"/>
      </g>
     </g>
     <g id="text_5">
      <!-- 2.0 -->
      <defs>
       <path d="M 19.1875 8.296875 
L 53.609375 8.296875 
L 53.609375 0 
L 7.328125 0 
L 7.328125 8.296875 
Q 12.9375 14.109375 22.625 23.890625 
Q 32.328125 33.6875 34.8125 36.53125 
Q 39.546875 41.84375 41.421875 45.53125 
Q 43.3125 49.21875 43.3125 52.78125 
Q 43.3125 58.59375 39.234375 62.25 
Q 35.15625 65.921875 28.609375 65.921875 
Q 23.96875 65.921875 18.8125 64.3125 
Q 13.671875 62.703125 7.8125 59.421875 
L 7.8125 69.390625 
Q 13.765625 71.78125 18.9375 73 
Q 24.125 74.21875 28.421875 74.21875 
Q 39.75 74.21875 46.484375 68.546875 
Q 53.21875 62.890625 53.21875 53.421875 
Q 53.21875 48.921875 51.53125 44.890625 
Q 49.859375 40.875 45.40625 35.40625 
Q 44.1875 33.984375 37.640625 27.21875 
Q 31.109375 20.453125 19.1875 8.296875 
z
" id="DejaVuSans-50"/>
      </defs>
      <g transform="translate(179.443025 341.636563)scale(0.1 -0.1)">
       <use xlink:href="#DejaVuSans-50"/>
       <use x="63.623047" xlink:href="#DejaVuSans-46"/>
       <use x="95.410156" xlink:href="#DejaVuSans-48"/>
      </g>
     </g>
    </g>
    <g id="xtick_6">
     <g id="line2d_6">
      <g>
       <use style="stroke:#000000;stroke-width:0.8;" x="222.42285" xlink:href="#mc250debc92" y="327.038125"/>
      </g>
     </g>
     <g id="text_6">
      <!-- 2.5 -->
      <g transform="translate(214.471288 341.636563)scale(0.1 -0.1)">
       <use xlink:href="#DejaVuSans-50"/>
       <use x="63.623047" xlink:href="#DejaVuSans-46"/>
       <use x="95.410156" xlink:href="#DejaVuSans-53"/>
      </g>
     </g>
    </g>
    <g id="xtick_7">
     <g id="line2d_7">
      <g>
       <use style="stroke:#000000;stroke-width:0.8;" x="257.451113" xlink:href="#mc250debc92" y="327.038125"/>
      </g>
     </g>
     <g id="text_7">
      <!-- 3.0 -->
      <defs>
       <path d="M 40.578125 39.3125 
Q 47.65625 37.796875 51.625 33 
Q 55.609375 28.21875 55.609375 21.1875 
Q 55.609375 10.40625 48.1875 4.484375 
Q 40.765625 -1.421875 27.09375 -1.421875 
Q 22.515625 -1.421875 17.65625 -0.515625 
Q 12.796875 0.390625 7.625 2.203125 
L 7.625 11.71875 
Q 11.71875 9.328125 16.59375 8.109375 
Q 21.484375 6.890625 26.8125 6.890625 
Q 36.078125 6.890625 40.9375 10.546875 
Q 45.796875 14.203125 45.796875 21.1875 
Q 45.796875 27.640625 41.28125 31.265625 
Q 36.765625 34.90625 28.71875 34.90625 
L 20.21875 34.90625 
L 20.21875 43.015625 
L 29.109375 43.015625 
Q 36.375 43.015625 40.234375 45.921875 
Q 44.09375 48.828125 44.09375 54.296875 
Q 44.09375 59.90625 40.109375 62.90625 
Q 36.140625 65.921875 28.71875 65.921875 
Q 24.65625 65.921875 20.015625 65.03125 
Q 15.375 64.15625 9.8125 62.3125 
L 9.8125 71.09375 
Q 15.4375 72.65625 20.34375 73.4375 
Q 25.25 74.21875 29.59375 74.21875 
Q 40.828125 74.21875 47.359375 69.109375 
Q 53.90625 64.015625 53.90625 55.328125 
Q 53.90625 49.265625 50.4375 45.09375 
Q 46.96875 40.921875 40.578125 39.3125 
z
" id="DejaVuSans-51"/>
      </defs>
      <g transform="translate(249.49955 341.636563)scale(0.1 -0.1)">
       <use xlink:href="#DejaVuSans-51"/>
       <use x="63.623047" xlink:href="#DejaVuSans-46"/>
       <use x="95.410156" xlink:href="#DejaVuSans-48"/>
      </g>
     </g>
    </g>
    <g id="xtick_8">
     <g id="line2d_8">
      <g>
       <use style="stroke:#000000;stroke-width:0.8;" x="292.479376" xlink:href="#mc250debc92" y="327.038125"/>
      </g>
     </g>
     <g id="text_8">
      <!-- 3.5 -->
      <g transform="translate(284.527813 341.636563)scale(0.1 -0.1)">
       <use xlink:href="#DejaVuSans-51"/>
       <use x="63.623047" xlink:href="#DejaVuSans-46"/>
       <use x="95.410156" xlink:href="#DejaVuSans-53"/>
      </g>
     </g>
    </g>
    <g id="xtick_9">
     <g id="line2d_9">
      <g>
       <use style="stroke:#000000;stroke-width:0.8;" x="327.507638" xlink:href="#mc250debc92" y="327.038125"/>
      </g>
     </g>
     <g id="text_9">
      <!-- 4.0 -->
      <defs>
       <path d="M 37.796875 64.3125 
L 12.890625 25.390625 
L 37.796875 25.390625 
z
M 35.203125 72.90625 
L 47.609375 72.90625 
L 47.609375 25.390625 
L 58.015625 25.390625 
L 58.015625 17.1875 
L 47.609375 17.1875 
L 47.609375 0 
L 37.796875 0 
L 37.796875 17.1875 
L 4.890625 17.1875 
L 4.890625 26.703125 
z
" id="DejaVuSans-52"/>
      </defs>
      <g transform="translate(319.556076 341.636563)scale(0.1 -0.1)">
       <use xlink:href="#DejaVuSans-52"/>
       <use x="63.623047" xlink:href="#DejaVuSans-46"/>
       <use x="95.410156" xlink:href="#DejaVuSans-48"/>
      </g>
     </g>
    </g>
    <g id="text_10">
     <!-- -log10(pval) from wtcs -->
     <defs>
      <path d="M 4.890625 31.390625 
L 31.203125 31.390625 
L 31.203125 23.390625 
L 4.890625 23.390625 
z
" id="DejaVuSans-45"/>
      <path d="M 9.421875 75.984375 
L 18.40625 75.984375 
L 18.40625 0 
L 9.421875 0 
z
" id="DejaVuSans-108"/>
      <path d="M 30.609375 48.390625 
Q 23.390625 48.390625 19.1875 42.75 
Q 14.984375 37.109375 14.984375 27.296875 
Q 14.984375 17.484375 19.15625 11.84375 
Q 23.34375 6.203125 30.609375 6.203125 
Q 37.796875 6.203125 41.984375 11.859375 
Q 46.1875 17.53125 46.1875 27.296875 
Q 46.1875 37.015625 41.984375 42.703125 
Q 37.796875 48.390625 30.609375 48.390625 
z
M 30.609375 56 
Q 42.328125 56 49.015625 48.375 
Q 55.71875 40.765625 55.71875 27.296875 
Q 55.71875 13.875 49.015625 6.21875 
Q 42.328125 -1.421875 30.609375 -1.421875 
Q 18.84375 -1.421875 12.171875 6.21875 
Q 5.515625 13.875 5.515625 27.296875 
Q 5.515625 40.765625 12.171875 48.375 
Q 18.84375 56 30.609375 56 
z
" id="DejaVuSans-111"/>
      <path d="M 45.40625 27.984375 
Q 45.40625 37.75 41.375 43.109375 
Q 37.359375 48.484375 30.078125 48.484375 
Q 22.859375 48.484375 18.828125 43.109375 
Q 14.796875 37.75 14.796875 27.984375 
Q 14.796875 18.265625 18.828125 12.890625 
Q 22.859375 7.515625 30.078125 7.515625 
Q 37.359375 7.515625 41.375 12.890625 
Q 45.40625 18.265625 45.40625 27.984375 
z
M 54.390625 6.78125 
Q 54.390625 -7.171875 48.1875 -13.984375 
Q 42 -20.796875 29.203125 -20.796875 
Q 24.46875 -20.796875 20.265625 -20.09375 
Q 16.0625 -19.390625 12.109375 -17.921875 
L 12.109375 -9.1875 
Q 16.0625 -11.328125 19.921875 -12.34375 
Q 23.78125 -13.375 27.78125 -13.375 
Q 36.625 -13.375 41.015625 -8.765625 
Q 45.40625 -4.15625 45.40625 5.171875 
L 45.40625 9.625 
Q 42.625 4.78125 38.28125 2.390625 
Q 33.9375 0 27.875 0 
Q 17.828125 0 11.671875 7.65625 
Q 5.515625 15.328125 5.515625 27.984375 
Q 5.515625 40.671875 11.671875 48.328125 
Q 17.828125 56 27.875 56 
Q 33.9375 56 38.28125 53.609375 
Q 42.625 51.21875 45.40625 46.390625 
L 45.40625 54.6875 
L 54.390625 54.6875 
z
" id="DejaVuSans-103"/>
      <path d="M 31 75.875 
Q 24.46875 64.65625 21.28125 53.65625 
Q 18.109375 42.671875 18.109375 31.390625 
Q 18.109375 20.125 21.3125 9.0625 
Q 24.515625 -2 31 -13.1875 
L 23.1875 -13.1875 
Q 15.875 -1.703125 12.234375 9.375 
Q 8.59375 20.453125 8.59375 31.390625 
Q 8.59375 42.28125 12.203125 53.3125 
Q 15.828125 64.359375 23.1875 75.875 
z
" id="DejaVuSans-40"/>
      <path d="M 18.109375 8.203125 
L 18.109375 -20.796875 
L 9.078125 -20.796875 
L 9.078125 54.6875 
L 18.109375 54.6875 
L 18.109375 46.390625 
Q 20.953125 51.265625 25.265625 53.625 
Q 29.59375 56 35.59375 56 
Q 45.5625 56 51.78125 48.09375 
Q 58.015625 40.1875 58.015625 27.296875 
Q 58.015625 14.40625 51.78125 6.484375 
Q 45.5625 -1.421875 35.59375 -1.421875 
Q 29.59375 -1.421875 25.265625 0.953125 
Q 20.953125 3.328125 18.109375 8.203125 
z
M 48.6875 27.296875 
Q 48.6875 37.203125 44.609375 42.84375 
Q 40.53125 48.484375 33.40625 48.484375 
Q 26.265625 48.484375 22.1875 42.84375 
Q 18.109375 37.203125 18.109375 27.296875 
Q 18.109375 17.390625 22.1875 11.75 
Q 26.265625 6.109375 33.40625 6.109375 
Q 40.53125 6.109375 44.609375 11.75 
Q 48.6875 17.390625 48.6875 27.296875 
z
" id="DejaVuSans-112"/>
      <path d="M 2.984375 54.6875 
L 12.5 54.6875 
L 29.59375 8.796875 
L 46.6875 54.6875 
L 56.203125 54.6875 
L 35.6875 0 
L 23.484375 0 
z
" id="DejaVuSans-118"/>
      <path d="M 34.28125 27.484375 
Q 23.390625 27.484375 19.1875 25 
Q 14.984375 22.515625 14.984375 16.5 
Q 14.984375 11.71875 18.140625 8.90625 
Q 21.296875 6.109375 26.703125 6.109375 
Q 34.1875 6.109375 38.703125 11.40625 
Q 43.21875 16.703125 43.21875 25.484375 
L 43.21875 27.484375 
z
M 52.203125 31.203125 
L 52.203125 0 
L 43.21875 0 
L 43.21875 8.296875 
Q 40.140625 3.328125 35.546875 0.953125 
Q 30.953125 -1.421875 24.3125 -1.421875 
Q 15.921875 -1.421875 10.953125 3.296875 
Q 6 8.015625 6 15.921875 
Q 6 25.140625 12.171875 29.828125 
Q 18.359375 34.515625 30.609375 34.515625 
L 43.21875 34.515625 
L 43.21875 35.40625 
Q 43.21875 41.609375 39.140625 45 
Q 35.0625 48.390625 27.6875 48.390625 
Q 23 48.390625 18.546875 47.265625 
Q 14.109375 46.140625 10.015625 43.890625 
L 10.015625 52.203125 
Q 14.9375 54.109375 19.578125 55.046875 
Q 24.21875 56 28.609375 56 
Q 40.484375 56 46.34375 49.84375 
Q 52.203125 43.703125 52.203125 31.203125 
z
" id="DejaVuSans-97"/>
      <path d="M 8.015625 75.875 
L 15.828125 75.875 
Q 23.140625 64.359375 26.78125 53.3125 
Q 30.421875 42.28125 30.421875 31.390625 
Q 30.421875 20.453125 26.78125 9.375 
Q 23.140625 -1.703125 15.828125 -13.1875 
L 8.015625 -13.1875 
Q 14.5 -2 17.703125 9.0625 
Q 20.90625 20.125 20.90625 31.390625 
Q 20.90625 42.671875 17.703125 53.65625 
Q 14.5 64.65625 8.015625 75.875 
z
" id="DejaVuSans-41"/>
      <path id="DejaVuSans-32"/>
      <path d="M 37.109375 75.984375 
L 37.109375 68.5 
L 28.515625 68.5 
Q 23.6875 68.5 21.796875 66.546875 
Q 19.921875 64.59375 19.921875 59.515625 
L 19.921875 54.6875 
L 34.71875 54.6875 
L 34.71875 47.703125 
L 19.921875 47.703125 
L 19.921875 0 
L 10.890625 0 
L 10.890625 47.703125 
L 2.296875 47.703125 
L 2.296875 54.6875 
L 10.890625 54.6875 
L 10.890625 58.5 
Q 10.890625 67.625 15.140625 71.796875 
Q 19.390625 75.984375 28.609375 75.984375 
z
" id="DejaVuSans-102"/>
      <path d="M 41.109375 46.296875 
Q 39.59375 47.171875 37.8125 47.578125 
Q 36.03125 48 33.890625 48 
Q 26.265625 48 22.1875 43.046875 
Q 18.109375 38.09375 18.109375 28.8125 
L 18.109375 0 
L 9.078125 0 
L 9.078125 54.6875 
L 18.109375 54.6875 
L 18.109375 46.1875 
Q 20.953125 51.171875 25.484375 53.578125 
Q 30.03125 56 36.53125 56 
Q 37.453125 56 38.578125 55.875 
Q 39.703125 55.765625 41.0625 55.515625 
z
" id="DejaVuSans-114"/>
      <path d="M 52 44.1875 
Q 55.375 50.25 60.0625 53.125 
Q 64.75 56 71.09375 56 
Q 79.640625 56 84.28125 50.015625 
Q 88.921875 44.046875 88.921875 33.015625 
L 88.921875 0 
L 79.890625 0 
L 79.890625 32.71875 
Q 79.890625 40.578125 77.09375 44.375 
Q 74.3125 48.1875 68.609375 48.1875 
Q 61.625 48.1875 57.5625 43.546875 
Q 53.515625 38.921875 53.515625 30.90625 
L 53.515625 0 
L 44.484375 0 
L 44.484375 32.71875 
Q 44.484375 40.625 41.703125 44.40625 
Q 38.921875 48.1875 33.109375 48.1875 
Q 26.21875 48.1875 22.15625 43.53125 
Q 18.109375 38.875 18.109375 30.90625 
L 18.109375 0 
L 9.078125 0 
L 9.078125 54.6875 
L 18.109375 54.6875 
L 18.109375 46.1875 
Q 21.1875 51.21875 25.484375 53.609375 
Q 29.78125 56 35.6875 56 
Q 41.65625 56 45.828125 52.96875 
Q 50 49.953125 52 44.1875 
z
" id="DejaVuSans-109"/>
      <path d="M 4.203125 54.6875 
L 13.1875 54.6875 
L 24.421875 12.015625 
L 35.59375 54.6875 
L 46.1875 54.6875 
L 57.421875 12.015625 
L 68.609375 54.6875 
L 77.59375 54.6875 
L 63.28125 0 
L 52.6875 0 
L 40.921875 44.828125 
L 29.109375 0 
L 18.5 0 
z
" id="DejaVuSans-119"/>
      <path d="M 18.3125 70.21875 
L 18.3125 54.6875 
L 36.8125 54.6875 
L 36.8125 47.703125 
L 18.3125 47.703125 
L 18.3125 18.015625 
Q 18.3125 11.328125 20.140625 9.421875 
Q 21.96875 7.515625 27.59375 7.515625 
L 36.8125 7.515625 
L 36.8125 0 
L 27.59375 0 
Q 17.1875 0 13.234375 3.875 
Q 9.28125 7.765625 9.28125 18.015625 
L 9.28125 47.703125 
L 2.6875 47.703125 
L 2.6875 54.6875 
L 9.28125 54.6875 
L 9.28125 70.21875 
z
" id="DejaVuSans-116"/>
      <path d="M 48.78125 52.59375 
L 48.78125 44.1875 
Q 44.96875 46.296875 41.140625 47.34375 
Q 37.3125 48.390625 33.40625 48.390625 
Q 24.65625 48.390625 19.8125 42.84375 
Q 14.984375 37.3125 14.984375 27.296875 
Q 14.984375 17.28125 19.8125 11.734375 
Q 24.65625 6.203125 33.40625 6.203125 
Q 37.3125 6.203125 41.140625 7.25 
Q 44.96875 8.296875 48.78125 10.40625 
L 48.78125 2.09375 
Q 45.015625 0.34375 40.984375 -0.53125 
Q 36.96875 -1.421875 32.421875 -1.421875 
Q 20.0625 -1.421875 12.78125 6.34375 
Q 5.515625 14.109375 5.515625 27.296875 
Q 5.515625 40.671875 12.859375 48.328125 
Q 20.21875 56 33.015625 56 
Q 37.15625 56 41.109375 55.140625 
Q 45.0625 54.296875 48.78125 52.59375 
z
" id="DejaVuSans-99"/>
      <path d="M 44.28125 53.078125 
L 44.28125 44.578125 
Q 40.484375 46.53125 36.375 47.5 
Q 32.28125 48.484375 27.875 48.484375 
Q 21.1875 48.484375 17.84375 46.4375 
Q 14.5 44.390625 14.5 40.28125 
Q 14.5 37.15625 16.890625 35.375 
Q 19.28125 33.59375 26.515625 31.984375 
L 29.59375 31.296875 
Q 39.15625 29.25 43.1875 25.515625 
Q 47.21875 21.78125 47.21875 15.09375 
Q 47.21875 7.46875 41.1875 3.015625 
Q 35.15625 -1.421875 24.609375 -1.421875 
Q 20.21875 -1.421875 15.453125 -0.5625 
Q 10.6875 0.296875 5.421875 2 
L 5.421875 11.28125 
Q 10.40625 8.6875 15.234375 7.390625 
Q 20.0625 6.109375 24.8125 6.109375 
Q 31.15625 6.109375 34.5625 8.28125 
Q 37.984375 10.453125 37.984375 14.40625 
Q 37.984375 18.0625 35.515625 20.015625 
Q 33.0625 21.96875 24.703125 23.78125 
L 21.578125 24.515625 
Q 13.234375 26.265625 9.515625 29.90625 
Q 5.8125 33.546875 5.8125 39.890625 
Q 5.8125 47.609375 11.28125 51.796875 
Q 16.75 56 26.8125 56 
Q 31.78125 56 36.171875 55.265625 
Q 40.578125 54.546875 44.28125 53.078125 
z
" id="DejaVuSans-115"/>
     </defs>
     <g transform="translate(130.135507 355.314687)scale(0.1 -0.1)">
      <use xlink:href="#DejaVuSans-45"/>
      <use x="36.083984" xlink:href="#DejaVuSans-108"/>
      <use x="63.867188" xlink:href="#DejaVuSans-111"/>
      <use x="125.048828" xlink:href="#DejaVuSans-103"/>
      <use x="188.525391" xlink:href="#DejaVuSans-49"/>
      <use x="252.148438" xlink:href="#DejaVuSans-48"/>
      <use x="315.771484" xlink:href="#DejaVuSans-40"/>
      <use x="354.785156" xlink:href="#DejaVuSans-112"/>
      <use x="418.261719" xlink:href="#DejaVuSans-118"/>
      <use x="477.441406" xlink:href="#DejaVuSans-97"/>
      <use x="538.720703" xlink:href="#DejaVuSans-108"/>
      <use x="566.503906" xlink:href="#DejaVuSans-41"/>
      <use x="605.517578" xlink:href="#DejaVuSans-32"/>
      <use x="637.304688" xlink:href="#DejaVuSans-102"/>
      <use x="672.509766" xlink:href="#DejaVuSans-114"/>
      <use x="713.591797" xlink:href="#DejaVuSans-111"/>
      <use x="774.773438" xlink:href="#DejaVuSans-109"/>
      <use x="872.185547" xlink:href="#DejaVuSans-32"/>
      <use x="903.972656" xlink:href="#DejaVuSans-119"/>
      <use x="985.759766" xlink:href="#DejaVuSans-116"/>
      <use x="1024.96875" xlink:href="#DejaVuSans-99"/>
      <use x="1079.949219" xlink:href="#DejaVuSans-115"/>
     </g>
    </g>
   </g>
   <g id="matplotlib.axis_2">
    <g id="ytick_1">
     <g id="line2d_10">
      <defs>
       <path d="M 0 0 
L -3.5 0 
" id="m85c70e08a7" style="stroke:#000000;stroke-width:0.8;"/>
      </defs>
      <g>
       <use style="stroke:#000000;stroke-width:0.8;" x="34.240625" xlink:href="#m85c70e08a7" y="305.103144"/>
      </g>
     </g>
     <g id="text_11">
      <!-- 0 -->
      <g transform="translate(20.878125 308.902362)scale(0.1 -0.1)">
       <use xlink:href="#DejaVuSans-48"/>
      </g>
     </g>
    </g>
    <g id="ytick_2">
     <g id="line2d_11">
      <g>
       <use style="stroke:#000000;stroke-width:0.8;" x="34.240625" xlink:href="#m85c70e08a7" y="242.197682"/>
      </g>
     </g>
     <g id="text_12">
      <!-- 1 -->
      <g transform="translate(20.878125 245.996901)scale(0.1 -0.1)">
       <use xlink:href="#DejaVuSans-49"/>
      </g>
     </g>
    </g>
    <g id="ytick_3">
     <g id="line2d_12">
      <g>
       <use style="stroke:#000000;stroke-width:0.8;" x="34.240625" xlink:href="#m85c70e08a7" y="179.292221"/>
      </g>
     </g>
     <g id="text_13">
      <!-- 2 -->
      <g transform="translate(20.878125 183.09144)scale(0.1 -0.1)">
       <use xlink:href="#DejaVuSans-50"/>
      </g>
     </g>
    </g>
    <g id="ytick_4">
     <g id="line2d_13">
      <g>
       <use style="stroke:#000000;stroke-width:0.8;" x="34.240625" xlink:href="#m85c70e08a7" y="116.38676"/>
      </g>
     </g>
     <g id="text_14">
      <!-- 3 -->
      <g transform="translate(20.878125 120.185979)scale(0.1 -0.1)">
       <use xlink:href="#DejaVuSans-51"/>
      </g>
     </g>
    </g>
    <g id="ytick_5">
     <g id="line2d_14">
      <g>
       <use style="stroke:#000000;stroke-width:0.8;" x="34.240625" xlink:href="#m85c70e08a7" y="53.481299"/>
      </g>
     </g>
     <g id="text_15">
      <!-- 4 -->
      <g transform="translate(20.878125 57.280518)scale(0.1 -0.1)">
       <use xlink:href="#DejaVuSans-52"/>
      </g>
     </g>
    </g>
    <g id="text_16">
     <!-- -log10(pval) from spearman -->
     <defs>
      <path d="M 56.203125 29.59375 
L 56.203125 25.203125 
L 14.890625 25.203125 
Q 15.484375 15.921875 20.484375 11.0625 
Q 25.484375 6.203125 34.421875 6.203125 
Q 39.59375 6.203125 44.453125 7.46875 
Q 49.3125 8.734375 54.109375 11.28125 
L 54.109375 2.78125 
Q 49.265625 0.734375 44.1875 -0.34375 
Q 39.109375 -1.421875 33.890625 -1.421875 
Q 20.796875 -1.421875 13.15625 6.1875 
Q 5.515625 13.8125 5.515625 26.8125 
Q 5.515625 40.234375 12.765625 48.109375 
Q 20.015625 56 32.328125 56 
Q 43.359375 56 49.78125 48.890625 
Q 56.203125 41.796875 56.203125 29.59375 
z
M 47.21875 32.234375 
Q 47.125 39.59375 43.09375 43.984375 
Q 39.0625 48.390625 32.421875 48.390625 
Q 24.90625 48.390625 20.390625 44.140625 
Q 15.875 39.890625 15.1875 32.171875 
z
" id="DejaVuSans-101"/>
      <path d="M 54.890625 33.015625 
L 54.890625 0 
L 45.90625 0 
L 45.90625 32.71875 
Q 45.90625 40.484375 42.875 44.328125 
Q 39.84375 48.1875 33.796875 48.1875 
Q 26.515625 48.1875 22.3125 43.546875 
Q 18.109375 38.921875 18.109375 30.90625 
L 18.109375 0 
L 9.078125 0 
L 9.078125 54.6875 
L 18.109375 54.6875 
L 18.109375 46.1875 
Q 21.34375 51.125 25.703125 53.5625 
Q 30.078125 56 35.796875 56 
Q 45.21875 56 50.046875 50.171875 
Q 54.890625 44.34375 54.890625 33.015625 
z
" id="DejaVuSans-110"/>
     </defs>
     <g transform="translate(14.798438 244.954687)rotate(-90)scale(0.1 -0.1)">
      <use xlink:href="#DejaVuSans-45"/>
      <use x="36.083984" xlink:href="#DejaVuSans-108"/>
      <use x="63.867188" xlink:href="#DejaVuSans-111"/>
      <use x="125.048828" xlink:href="#DejaVuSans-103"/>
      <use x="188.525391" xlink:href="#DejaVuSans-49"/>
      <use x="252.148438" xlink:href="#DejaVuSans-48"/>
      <use x="315.771484" xlink:href="#DejaVuSans-40"/>
      <use x="354.785156" xlink:href="#DejaVuSans-112"/>
      <use x="418.261719" xlink:href="#DejaVuSans-118"/>
      <use x="477.441406" xlink:href="#DejaVuSans-97"/>
      <use x="538.720703" xlink:href="#DejaVuSans-108"/>
      <use x="566.503906" xlink:href="#DejaVuSans-41"/>
      <use x="605.517578" xlink:href="#DejaVuSans-32"/>
      <use x="637.304688" xlink:href="#DejaVuSans-102"/>
      <use x="672.509766" xlink:href="#DejaVuSans-114"/>
      <use x="713.591797" xlink:href="#DejaVuSans-111"/>
      <use x="774.773438" xlink:href="#DejaVuSans-109"/>
      <use x="872.185547" xlink:href="#DejaVuSans-32"/>
      <use x="903.972656" xlink:href="#DejaVuSans-115"/>
      <use x="956.072266" xlink:href="#DejaVuSans-112"/>
      <use x="1019.548828" xlink:href="#DejaVuSans-101"/>
      <use x="1081.072266" xlink:href="#DejaVuSans-97"/>
      <use x="1142.351562" xlink:href="#DejaVuSans-114"/>
      <use x="1183.449219" xlink:href="#DejaVuSans-109"/>
      <use x="1280.861328" xlink:href="#DejaVuSans-97"/>
      <use x="1342.140625" xlink:href="#DejaVuSans-110"/>
     </g>
    </g>
   </g>
   <g id="line2d_15">
    <path clip-path="url(#p2252ddb95c)" d="M 34.240625 300.109452 
L 37.321377 297.542467 
L 40.402129 294.975483 
L 43.482881 292.408499 
L 46.563633 289.841514 
L 49.644385 287.27453 
L 52.725137 284.707545 
L 55.805889 282.140561 
L 58.886641 279.573577 
L 61.967393 277.006592 
L 65.048145 274.439608 
L 68.128897 271.872623 
L 71.209649 269.305639 
L 74.290401 266.738655 
L 77.371153 264.17167 
L 80.451905 261.604686 
L 83.532657 259.037701 
L 86.613409 256.470717 
L 89.694161 253.903733 
L 92.774913 251.336748 
L 95.855666 248.769764 
L 98.936418 246.202779 
L 102.01717 243.635795 
L 105.097922 241.068811 
L 108.178674 238.501826 
L 111.259426 235.934842 
L 114.340178 233.367857 
L 117.42093 230.800873 
L 120.501682 228.233889 
L 123.582434 225.666904 
L 126.663186 223.09992 
L 129.743938 220.532935 
L 132.82469 217.965951 
L 135.905442 215.398967 
L 138.986194 212.831982 
L 142.066946 210.264998 
L 145.147698 207.698013 
L 148.22845 205.131029 
L 151.309202 202.564045 
L 154.389954 199.99706 
L 157.470706 197.430076 
L 160.551458 194.863091 
L 163.63221 192.296107 
L 166.712962 189.729123 
L 169.793714 187.162138 
L 172.874466 184.595154 
L 175.955218 182.028169 
L 179.03597 179.461185 
L 182.116722 176.894201 
L 185.197474 174.327216 
L 188.278226 171.760232 
L 191.358978 169.193247 
L 194.43973 166.626263 
L 197.520482 164.059279 
L 200.601234 161.492294 
L 203.681986 158.92531 
L 206.762738 156.358325 
L 209.84349 153.791341 
L 212.924242 151.224357 
L 216.004995 148.657372 
L 219.085747 146.090388 
L 222.166499 143.523403 
L 225.247251 140.956419 
L 228.328003 138.389435 
L 231.408755 135.82245 
L 234.489507 133.255466 
L 237.570259 130.688481 
L 240.651011 128.121497 
L 243.731763 125.554513 
L 246.812515 122.987528 
L 249.893267 120.420544 
L 252.974019 117.853559 
L 256.054771 115.286575 
L 259.135523 112.719591 
L 262.216275 110.152606 
L 265.297027 107.585622 
L 268.377779 105.018637 
L 271.458531 102.451653 
L 274.539283 99.884669 
L 277.620035 97.317684 
L 280.700787 94.7507 
L 283.781539 92.183715 
L 286.862291 89.616731 
L 289.943043 87.049747 
L 293.023795 84.482762 
L 296.104547 81.915778 
L 299.185299 79.348794 
L 302.266051 76.781809 
L 305.346803 74.214825 
L 308.427555 71.64784 
L 311.508307 69.080856 
L 314.589059 66.513872 
L 317.669811 63.946887 
L 320.750563 61.379903 
L 323.831315 58.812918 
L 326.912067 56.245934 
L 329.992819 53.67895 
L 333.073572 51.111965 
L 336.154324 48.544981 
L 339.235076 45.977996 
" style="fill:none;stroke:#1f77b4;stroke-linecap:square;stroke-width:2.25;"/>
   </g>
   <g id="line2d_16">
    <path clip-path="url(#p2252ddb95c)" d="M 138.427177 327.038125 
L 138.427177 22.318125 
" style="fill:none;stroke:#808080;stroke-dasharray:5.55,2.4;stroke-dashoffset:0;stroke-width:1.5;"/>
   </g>
   <g id="patch_3">
    <path d="M 34.240625 327.038125 
L 34.240625 22.318125 
" style="fill:none;stroke:#000000;stroke-linecap:square;stroke-linejoin:miter;stroke-width:0.8;"/>
   </g>
   <g id="patch_4">
    <path d="M 34.240625 327.038125 
L 339.235076 327.038125 
" style="fill:none;stroke:#000000;stroke-linecap:square;stroke-linejoin:miter;stroke-width:0.8;"/>
   </g>
   <g id="text_17">
    <g id="patch_5">
     <path d="M 148.766324 59.576924 
L 248.863199 59.576924 
L 248.863199 40.763174 
L 148.766324 40.763174 
z
" style="fill:#808080;opacity:0.1;stroke:#000000;stroke-linejoin:miter;"/>
    </g>
    <!-- pearson=0.901 -->
    <defs>
     <path d="M 10.59375 45.40625 
L 73.1875 45.40625 
L 73.1875 37.203125 
L 10.59375 37.203125 
z
M 10.59375 25.484375 
L 73.1875 25.484375 
L 73.1875 17.1875 
L 10.59375 17.1875 
z
" id="DejaVuSans-61"/>
     <path d="M 10.984375 1.515625 
L 10.984375 10.5 
Q 14.703125 8.734375 18.5 7.8125 
Q 22.3125 6.890625 25.984375 6.890625 
Q 35.75 6.890625 40.890625 13.453125 
Q 46.046875 20.015625 46.78125 33.40625 
Q 43.953125 29.203125 39.59375 26.953125 
Q 35.25 24.703125 29.984375 24.703125 
Q 19.046875 24.703125 12.671875 31.3125 
Q 6.296875 37.9375 6.296875 49.421875 
Q 6.296875 60.640625 12.9375 67.421875 
Q 19.578125 74.21875 30.609375 74.21875 
Q 43.265625 74.21875 49.921875 64.515625 
Q 56.59375 54.828125 56.59375 36.375 
Q 56.59375 19.140625 48.40625 8.859375 
Q 40.234375 -1.421875 26.421875 -1.421875 
Q 22.703125 -1.421875 18.890625 -0.6875 
Q 15.09375 0.046875 10.984375 1.515625 
z
M 30.609375 32.421875 
Q 37.25 32.421875 41.125 36.953125 
Q 45.015625 41.5 45.015625 49.421875 
Q 45.015625 57.28125 41.125 61.84375 
Q 37.25 66.40625 30.609375 66.40625 
Q 23.96875 66.40625 20.09375 61.84375 
Q 16.21875 57.28125 16.21875 49.421875 
Q 16.21875 41.5 20.09375 36.953125 
Q 23.96875 32.421875 30.609375 32.421875 
z
" id="DejaVuSans-57"/>
    </defs>
    <g transform="translate(152.366324 53.481299)scale(0.12 -0.12)">
     <use xlink:href="#DejaVuSans-112"/>
     <use x="63.476562" xlink:href="#DejaVuSans-101"/>
     <use x="125" xlink:href="#DejaVuSans-97"/>
     <use x="186.279297" xlink:href="#DejaVuSans-114"/>
     <use x="227.392578" xlink:href="#DejaVuSans-115"/>
     <use x="279.492188" xlink:href="#DejaVuSans-111"/>
     <use x="340.673828" xlink:href="#DejaVuSans-110"/>
     <use x="404.052734" xlink:href="#DejaVuSans-61"/>
     <use x="487.841797" xlink:href="#DejaVuSans-48"/>
     <use x="551.464844" xlink:href="#DejaVuSans-46"/>
     <use x="583.251953" xlink:href="#DejaVuSans-57"/>
     <use x="646.875" xlink:href="#DejaVuSans-48"/>
     <use x="710.498047" xlink:href="#DejaVuSans-49"/>
    </g>
   </g>
   <g id="text_18">
    <!-- Adjusted p-values from L1000 wtcs vs spearman -->
    <defs>
     <path d="M 34.1875 63.1875 
L 20.796875 26.90625 
L 47.609375 26.90625 
z
M 28.609375 72.90625 
L 39.796875 72.90625 
L 67.578125 0 
L 57.328125 0 
L 50.6875 18.703125 
L 17.828125 18.703125 
L 11.1875 0 
L 0.78125 0 
z
" id="DejaVuSans-65"/>
     <path d="M 45.40625 46.390625 
L 45.40625 75.984375 
L 54.390625 75.984375 
L 54.390625 0 
L 45.40625 0 
L 45.40625 8.203125 
Q 42.578125 3.328125 38.25 0.953125 
Q 33.9375 -1.421875 27.875 -1.421875 
Q 17.96875 -1.421875 11.734375 6.484375 
Q 5.515625 14.40625 5.515625 27.296875 
Q 5.515625 40.1875 11.734375 48.09375 
Q 17.96875 56 27.875 56 
Q 33.9375 56 38.25 53.625 
Q 42.578125 51.265625 45.40625 46.390625 
z
M 14.796875 27.296875 
Q 14.796875 17.390625 18.875 11.75 
Q 22.953125 6.109375 30.078125 6.109375 
Q 37.203125 6.109375 41.296875 11.75 
Q 45.40625 17.390625 45.40625 27.296875 
Q 45.40625 37.203125 41.296875 42.84375 
Q 37.203125 48.484375 30.078125 48.484375 
Q 22.953125 48.484375 18.875 42.84375 
Q 14.796875 37.203125 14.796875 27.296875 
z
" id="DejaVuSans-100"/>
     <path d="M 9.421875 54.6875 
L 18.40625 54.6875 
L 18.40625 -0.984375 
Q 18.40625 -11.421875 14.421875 -16.109375 
Q 10.453125 -20.796875 1.609375 -20.796875 
L -1.8125 -20.796875 
L -1.8125 -13.1875 
L 0.59375 -13.1875 
Q 5.71875 -13.1875 7.5625 -10.8125 
Q 9.421875 -8.453125 9.421875 -0.984375 
z
M 9.421875 75.984375 
L 18.40625 75.984375 
L 18.40625 64.59375 
L 9.421875 64.59375 
z
" id="DejaVuSans-106"/>
     <path d="M 8.5 21.578125 
L 8.5 54.6875 
L 17.484375 54.6875 
L 17.484375 21.921875 
Q 17.484375 14.15625 20.5 10.265625 
Q 23.53125 6.390625 29.59375 6.390625 
Q 36.859375 6.390625 41.078125 11.03125 
Q 45.3125 15.671875 45.3125 23.6875 
L 45.3125 54.6875 
L 54.296875 54.6875 
L 54.296875 0 
L 45.3125 0 
L 45.3125 8.40625 
Q 42.046875 3.421875 37.71875 1 
Q 33.40625 -1.421875 27.6875 -1.421875 
Q 18.265625 -1.421875 13.375 4.4375 
Q 8.5 10.296875 8.5 21.578125 
z
M 31.109375 56 
z
" id="DejaVuSans-117"/>
     <path d="M 9.8125 72.90625 
L 19.671875 72.90625 
L 19.671875 8.296875 
L 55.171875 8.296875 
L 55.171875 0 
L 9.8125 0 
z
" id="DejaVuSans-76"/>
    </defs>
    <g transform="translate(40.290038 16.318125)scale(0.12 -0.12)">
     <use xlink:href="#DejaVuSans-65"/>
     <use x="68.392578" xlink:href="#DejaVuSans-100"/>
     <use x="131.869141" xlink:href="#DejaVuSans-106"/>
     <use x="159.652344" xlink:href="#DejaVuSans-117"/>
     <use x="223.03125" xlink:href="#DejaVuSans-115"/>
     <use x="275.130859" xlink:href="#DejaVuSans-116"/>
     <use x="314.339844" xlink:href="#DejaVuSans-101"/>
     <use x="375.863281" xlink:href="#DejaVuSans-100"/>
     <use x="439.339844" xlink:href="#DejaVuSans-32"/>
     <use x="471.126953" xlink:href="#DejaVuSans-112"/>
     <use x="534.603516" xlink:href="#DejaVuSans-45"/>
     <use x="570.65625" xlink:href="#DejaVuSans-118"/>
     <use x="629.835938" xlink:href="#DejaVuSans-97"/>
     <use x="691.115234" xlink:href="#DejaVuSans-108"/>
     <use x="718.898438" xlink:href="#DejaVuSans-117"/>
     <use x="782.277344" xlink:href="#DejaVuSans-101"/>
     <use x="843.800781" xlink:href="#DejaVuSans-115"/>
     <use x="895.900391" xlink:href="#DejaVuSans-32"/>
     <use x="927.6875" xlink:href="#DejaVuSans-102"/>
     <use x="962.892578" xlink:href="#DejaVuSans-114"/>
     <use x="1003.974609" xlink:href="#DejaVuSans-111"/>
     <use x="1065.15625" xlink:href="#DejaVuSans-109"/>
     <use x="1162.568359" xlink:href="#DejaVuSans-32"/>
     <use x="1194.355469" xlink:href="#DejaVuSans-76"/>
     <use x="1250.068359" xlink:href="#DejaVuSans-49"/>
     <use x="1313.691406" xlink:href="#DejaVuSans-48"/>
     <use x="1377.314453" xlink:href="#DejaVuSans-48"/>
     <use x="1440.9375" xlink:href="#DejaVuSans-48"/>
     <use x="1504.560547" xlink:href="#DejaVuSans-32"/>
     <use x="1536.347656" xlink:href="#DejaVuSans-119"/>
     <use x="1618.134766" xlink:href="#DejaVuSans-116"/>
     <use x="1657.34375" xlink:href="#DejaVuSans-99"/>
     <use x="1712.324219" xlink:href="#DejaVuSans-115"/>
     <use x="1764.423828" xlink:href="#DejaVuSans-32"/>
     <use x="1796.210938" xlink:href="#DejaVuSans-118"/>
     <use x="1855.390625" xlink:href="#DejaVuSans-115"/>
     <use x="1907.490234" xlink:href="#DejaVuSans-32"/>
     <use x="1939.277344" xlink:href="#DejaVuSans-115"/>
     <use x="1991.376953" xlink:href="#DejaVuSans-112"/>
     <use x="2054.853516" xlink:href="#DejaVuSans-101"/>
     <use x="2116.376953" xlink:href="#DejaVuSans-97"/>
     <use x="2177.65625" xlink:href="#DejaVuSans-114"/>
     <use x="2218.753906" xlink:href="#DejaVuSans-109"/>
     <use x="2316.166016" xlink:href="#DejaVuSans-97"/>
     <use x="2377.445312" xlink:href="#DejaVuSans-110"/>
    </g>
   </g>
  </g>
  <g id="legend_1">
   <g id="text_19">
    <!-- consistent prediction -->
    <defs>
     <path d="M 9.421875 54.6875 
L 18.40625 54.6875 
L 18.40625 0 
L 9.421875 0 
z
M 9.421875 75.984375 
L 18.40625 75.984375 
L 18.40625 64.59375 
L 9.421875 64.59375 
z
" id="DejaVuSans-105"/>
    </defs>
    <g transform="translate(345.054476 170.378438)scale(0.1 -0.1)">
     <use xlink:href="#DejaVuSans-99"/>
     <use x="54.980469" xlink:href="#DejaVuSans-111"/>
     <use x="116.162109" xlink:href="#DejaVuSans-110"/>
     <use x="179.541016" xlink:href="#DejaVuSans-115"/>
     <use x="231.640625" xlink:href="#DejaVuSans-105"/>
     <use x="259.423828" xlink:href="#DejaVuSans-115"/>
     <use x="311.523438" xlink:href="#DejaVuSans-116"/>
     <use x="350.732422" xlink:href="#DejaVuSans-101"/>
     <use x="412.255859" xlink:href="#DejaVuSans-110"/>
     <use x="475.634766" xlink:href="#DejaVuSans-116"/>
     <use x="514.84375" xlink:href="#DejaVuSans-32"/>
     <use x="546.630859" xlink:href="#DejaVuSans-112"/>
     <use x="610.107422" xlink:href="#DejaVuSans-114"/>
     <use x="651.189453" xlink:href="#DejaVuSans-101"/>
     <use x="712.712891" xlink:href="#DejaVuSans-100"/>
     <use x="776.189453" xlink:href="#DejaVuSans-105"/>
     <use x="803.972656" xlink:href="#DejaVuSans-99"/>
     <use x="858.953125" xlink:href="#DejaVuSans-116"/>
     <use x="898.162109" xlink:href="#DejaVuSans-105"/>
     <use x="925.945312" xlink:href="#DejaVuSans-111"/>
     <use x="987.126953" xlink:href="#DejaVuSans-110"/>
    </g>
   </g>
   <g id="PathCollection_3">
    <g>
     <use style="fill:#1f77b4;fill-opacity:0.55;stroke:#1f77b4;stroke-opacity:0.55;" x="384.938851" xlink:href="#m02e8ac5c88" y="182.431563"/>
    </g>
   </g>
   <g id="text_20">
    <!-- yes -->
    <defs>
     <path d="M 32.171875 -5.078125 
Q 28.375 -14.84375 24.75 -17.8125 
Q 21.140625 -20.796875 15.09375 -20.796875 
L 7.90625 -20.796875 
L 7.90625 -13.28125 
L 13.1875 -13.28125 
Q 16.890625 -13.28125 18.9375 -11.515625 
Q 21 -9.765625 23.484375 -3.21875 
L 25.09375 0.875 
L 2.984375 54.6875 
L 12.5 54.6875 
L 29.59375 11.921875 
L 46.6875 54.6875 
L 56.203125 54.6875 
z
" id="DejaVuSans-121"/>
    </defs>
    <g transform="translate(402.938851 185.056563)scale(0.1 -0.1)">
     <use xlink:href="#DejaVuSans-121"/>
     <use x="59.179688" xlink:href="#DejaVuSans-101"/>
     <use x="120.703125" xlink:href="#DejaVuSans-115"/>
    </g>
   </g>
   <g id="PathCollection_4">
    <g>
     <use style="fill:#ff7f0e;fill-opacity:0.55;stroke:#ff7f0e;stroke-opacity:0.55;" x="384.938851" xlink:href="#m3e6246058b" y="197.109688"/>
    </g>
   </g>
   <g id="text_21">
    <!--  no -->
    <g transform="translate(402.938851 199.734688)scale(0.1 -0.1)">
     <use xlink:href="#DejaVuSans-32"/>
     <use x="31.787109" xlink:href="#DejaVuSans-110"/>
     <use x="95.166016" xlink:href="#DejaVuSans-111"/>
    </g>
   </g>
  </g>
 </g>
 <defs>
  <clipPath id="p2252ddb95c">
   <rect height="304.72" width="304.994451" x="34.240625" y="22.318125"/>
  </clipPath>
 </defs>
</svg>
