<?xml version="1.0" encoding="utf-8" standalone="no"?>
<!DOCTYPE svg PUBLIC "-//W3C//DTD SVG 1.1//EN"
  "http://www.w3.org/Graphics/SVG/1.1/DTD/svg11.dtd">
<!-- Created with matplotlib (https://matplotlib.org/) -->
<svg height="571.04pt" version="1.1" viewBox="0 0 856.728438 571.04" width="856.728438pt" xmlns="http://www.w3.org/2000/svg" xmlns:xlink="http://www.w3.org/1999/xlink">
 <defs>
  <style type="text/css">
*{stroke-linecap:butt;stroke-linejoin:round;}
  </style>
 </defs>
 <g id="figure_1">
  <g id="patch_1">
   <path d="M 0 571.04 
L 856.728438 571.04 
L 856.728438 0 
L 0 0 
z
" style="fill:#ffffff;"/>
  </g>
  <g id="axes_1">
   <g id="LineCollection_1">
    <path clip-path="url(#pc976ee3735)" d="M 160.933 358.42725 
L 114.229741 358.42725 
L 114.229741 389.49075 
L 160.933 389.49075 
" style="fill:none;stroke:#333333;stroke-width:0.5;"/>
    <path clip-path="url(#pc976ee3735)" d="M 160.933 327.36375 
L 105.167837 327.36375 
L 105.167837 373.959 
L 114.229741 373.959 
" style="fill:none;stroke:#333333;stroke-width:0.5;"/>
    <path clip-path="url(#pc976ee3735)" d="M 160.933 296.30025 
L 92.329014 296.30025 
L 92.329014 350.661375 
L 105.167837 350.661375 
" style="fill:none;stroke:#333333;stroke-width:0.5;"/>
    <path clip-path="url(#pc976ee3735)" d="M 160.933 451.61775 
L 117.28995 451.61775 
L 117.28995 482.68125 
L 160.933 482.68125 
" style="fill:none;stroke:#333333;stroke-width:0.5;"/>
    <path clip-path="url(#pc976ee3735)" d="M 160.933 420.55425 
L 106.791963 420.55425 
L 106.791963 467.1495 
L 117.28995 467.1495 
" style="fill:none;stroke:#333333;stroke-width:0.5;"/>
    <path clip-path="url(#pc976ee3735)" d="M 160.933 513.74475 
L 103.700535 513.74475 
L 103.700535 544.80825 
L 160.933 544.80825 
" style="fill:none;stroke:#333333;stroke-width:0.5;"/>
    <path clip-path="url(#pc976ee3735)" d="M 106.791963 443.851875 
L 84.214865 443.851875 
L 84.214865 529.2765 
L 103.700535 529.2765 
" style="fill:none;stroke:#333333;stroke-width:0.5;"/>
    <path clip-path="url(#pc976ee3735)" d="M 92.329014 323.480812 
L 58.146475 323.480812 
L 58.146475 486.564187 
L 84.214865 486.564187 
" style="fill:none;stroke:#333333;stroke-width:0.5;"/>
    <path clip-path="url(#pc976ee3735)" d="M 160.933 265.23675 
L 14.520619 265.23675 
L 14.520619 405.0225 
L 58.146475 405.0225 
" style="fill:none;stroke:#333333;stroke-width:0.5;"/>
   </g>
  </g>
  <g id="axes_2">
   <g id="LineCollection_2">
    <path clip-path="url(#p2b9c2f2dfb)" d="M 274.047813 112.5 
L 274.047813 80.311424 
L 316.324388 80.311424 
L 316.324388 112.5 
" style="fill:none;stroke:#333333;stroke-width:0.5;"/>
    <path clip-path="url(#p2b9c2f2dfb)" d="M 231.771238 112.5 
L 231.771238 64.383574 
L 295.1861 64.383574 
L 295.1861 80.311424 
" style="fill:none;stroke:#333333;stroke-width:0.5;"/>
    <path clip-path="url(#p2b9c2f2dfb)" d="M 400.877538 112.5 
L 400.877538 84.896648 
L 443.154113 84.896648 
L 443.154113 112.5 
" style="fill:none;stroke:#333333;stroke-width:0.5;"/>
    <path clip-path="url(#p2b9c2f2dfb)" d="M 527.707263 112.5 
L 527.707263 91.828595 
L 569.983838 91.828595 
L 569.983838 112.5 
" style="fill:none;stroke:#333333;stroke-width:0.5;"/>
    <path clip-path="url(#p2b9c2f2dfb)" d="M 485.430688 112.5 
L 485.430688 83.615033 
L 548.84555 83.615033 
L 548.84555 91.828595 
" style="fill:none;stroke:#333333;stroke-width:0.5;"/>
    <path clip-path="url(#p2b9c2f2dfb)" d="M 654.536988 112.5 
L 654.536988 83.867845 
L 696.813562 83.867845 
L 696.813562 112.5 
" style="fill:none;stroke:#333333;stroke-width:0.5;"/>
    <path clip-path="url(#p2b9c2f2dfb)" d="M 612.260413 112.5 
L 612.260413 70.718296 
L 675.675275 70.718296 
L 675.675275 83.867845 
" style="fill:none;stroke:#333333;stroke-width:0.5;"/>
    <path clip-path="url(#p2b9c2f2dfb)" d="M 517.138119 83.615033 
L 517.138119 66.549721 
L 643.967844 66.549721 
L 643.967844 70.718296 
" style="fill:none;stroke:#333333;stroke-width:0.5;"/>
    <path clip-path="url(#p2b9c2f2dfb)" d="M 422.015825 84.896648 
L 422.015825 54.303595 
L 580.552981 54.303595 
L 580.552981 66.549721 
" style="fill:none;stroke:#333333;stroke-width:0.5;"/>
    <path clip-path="url(#p2b9c2f2dfb)" d="M 358.600963 112.5 
L 358.600963 51.256888 
L 501.284403 51.256888 
L 501.284403 54.303595 
" style="fill:none;stroke:#333333;stroke-width:0.5;"/>
    <path clip-path="url(#p2b9c2f2dfb)" d="M 739.090138 112.5 
L 739.090138 40.241355 
L 781.366712 40.241355 
L 781.366712 112.5 
" style="fill:none;stroke:#333333;stroke-width:0.5;"/>
    <path clip-path="url(#p2b9c2f2dfb)" d="M 429.942683 51.256888 
L 429.942683 26.040635 
L 760.228425 26.040635 
L 760.228425 40.241355 
" style="fill:none;stroke:#333333;stroke-width:0.5;"/>
    <path clip-path="url(#p2b9c2f2dfb)" d="M 263.478669 64.383574 
L 263.478669 12.214286 
L 595.085554 12.214286 
L 595.085554 26.040635 
" style="fill:none;stroke:#333333;stroke-width:0.5;"/>
   </g>
  </g>
  <g id="axes_3">
   <g id="patch_2">
    <path d="M 174.253 560.34 
L 197.31295 560.34 
L 197.31295 249.705 
L 174.253 249.705 
z
" style="fill:#ffffff;"/>
   </g>
   <g id="QuadMesh_1">
    <path clip-path="url(#pe5a5960e86)" d="M 174.253 249.705 
L 197.31295 249.705 
L 197.31295 280.7685 
L 174.253 280.7685 
L 174.253 249.705 
"/>
    <path clip-path="url(#pe5a5960e86)" d="M 174.253 280.7685 
L 197.31295 280.7685 
L 197.31295 311.832 
L 174.253 311.832 
L 174.253 280.7685 
"/>
    <path clip-path="url(#pe5a5960e86)" d="M 174.253 311.832 
L 197.31295 311.832 
L 197.31295 342.8955 
L 174.253 342.8955 
L 174.253 311.832 
"/>
    <path clip-path="url(#pe5a5960e86)" d="M 174.253 342.8955 
L 197.31295 342.8955 
L 197.31295 373.959 
L 174.253 373.959 
L 174.253 342.8955 
"/>
    <path clip-path="url(#pe5a5960e86)" d="M 174.253 373.959 
L 197.31295 373.959 
L 197.31295 405.0225 
L 174.253 405.0225 
L 174.253 373.959 
"/>
    <path clip-path="url(#pe5a5960e86)" d="M 174.253 405.0225 
L 197.31295 405.0225 
L 197.31295 436.086 
L 174.253 436.086 
L 174.253 405.0225 
"/>
    <path clip-path="url(#pe5a5960e86)" d="M 174.253 436.086 
L 197.31295 436.086 
L 197.31295 467.1495 
L 174.253 467.1495 
L 174.253 436.086 
"/>
    <path clip-path="url(#pe5a5960e86)" d="M 174.253 467.1495 
L 197.31295 467.1495 
L 197.31295 498.213 
L 174.253 498.213 
L 174.253 467.1495 
"/>
    <path clip-path="url(#pe5a5960e86)" d="M 174.253 498.213 
L 197.31295 498.213 
L 197.31295 529.2765 
L 174.253 529.2765 
L 174.253 498.213 
"/>
    <path clip-path="url(#pe5a5960e86)" d="M 174.253 529.2765 
L 197.31295 529.2765 
L 197.31295 560.34 
L 174.253 560.34 
L 174.253 529.2765 
"/>
   </g>
   <g id="matplotlib.axis_1"/>
   <g id="matplotlib.axis_2"/>
  </g>
  <g id="axes_4">
   <g id="patch_3">
    <path d="M 210.63295 236.385 
L 802.505 236.385 
L 802.505 125.82 
L 210.63295 125.82 
z
" style="fill:#ffffff;"/>
   </g>
   <g id="QuadMesh_2">
    <path clip-path="url(#p958b5fd8b0)" d="M 210.63295 125.82 
L 252.909525 125.82 
L 252.909525 141.615 
L 210.63295 141.615 
L 210.63295 125.82 
" style="fill:#248644;"/>
    <path clip-path="url(#p958b5fd8b0)" d="M 252.909525 125.82 
L 295.1861 125.82 
L 295.1861 141.615 
L 252.909525 141.615 
L 252.909525 125.82 
" style="fill:#13773d;"/>
    <path clip-path="url(#p958b5fd8b0)" d="M 295.1861 125.82 
L 337.462675 125.82 
L 337.462675 141.615 
L 295.1861 141.615 
L 295.1861 125.82 
" style="fill:#3aa257;"/>
    <path clip-path="url(#p958b5fd8b0)" d="M 337.462675 125.82 
L 379.73925 125.82 
L 379.73925 141.615 
L 337.462675 141.615 
L 337.462675 125.82 
" style="fill:#49af61;"/>
    <path clip-path="url(#p958b5fd8b0)" d="M 379.73925 125.82 
L 422.015825 125.82 
L 422.015825 141.615 
L 379.73925 141.615 
L 379.73925 125.82 
" style="fill:#9fd788;"/>
    <path clip-path="url(#p958b5fd8b0)" d="M 422.015825 125.82 
L 464.2924 125.82 
L 464.2924 141.615 
L 422.015825 141.615 
L 422.015825 125.82 
" style="fill:#339951;"/>
    <path clip-path="url(#p958b5fd8b0)" d="M 464.2924 125.82 
L 506.568975 125.82 
L 506.568975 141.615 
L 464.2924 141.615 
L 464.2924 125.82 
" style="fill:#329850;"/>
    <path clip-path="url(#p958b5fd8b0)" d="M 506.568975 125.82 
L 548.84555 125.82 
L 548.84555 141.615 
L 506.568975 141.615 
L 506.568975 125.82 
" style="fill:#238443;"/>
    <path clip-path="url(#p958b5fd8b0)" d="M 548.84555 125.82 
L 591.122125 125.82 
L 591.122125 141.615 
L 548.84555 141.615 
L 548.84555 125.82 
" style="fill:#086e3a;"/>
    <path clip-path="url(#p958b5fd8b0)" d="M 591.122125 125.82 
L 633.3987 125.82 
L 633.3987 141.615 
L 591.122125 141.615 
L 591.122125 125.82 
" style="fill:#11753d;"/>
    <path clip-path="url(#p958b5fd8b0)" d="M 633.3987 125.82 
L 675.675275 125.82 
L 675.675275 141.615 
L 633.3987 141.615 
L 633.3987 125.82 
" style="fill:#15793e;"/>
    <path clip-path="url(#p958b5fd8b0)" d="M 675.675275 125.82 
L 717.95185 125.82 
L 717.95185 141.615 
L 675.675275 141.615 
L 675.675275 125.82 
" style="fill:#2f934d;"/>
    <path clip-path="url(#p958b5fd8b0)" d="M 717.95185 125.82 
L 760.228425 125.82 
L 760.228425 141.615 
L 717.95185 141.615 
L 717.95185 125.82 
" style="fill:#1c7e40;"/>
    <path clip-path="url(#p958b5fd8b0)" d="M 760.228425 125.82 
L 802.505 125.82 
L 802.505 141.615 
L 760.228425 141.615 
L 760.228425 125.82 
" style="fill:#2e924c;"/>
    <path clip-path="url(#p958b5fd8b0)" d="M 210.63295 141.615 
L 252.909525 141.615 
L 252.909525 157.41 
L 210.63295 157.41 
L 210.63295 141.615 
" style="fill:#f0edf2;"/>
    <path clip-path="url(#p958b5fd8b0)" d="M 252.909525 141.615 
L 295.1861 141.615 
L 295.1861 157.41 
L 252.909525 157.41 
L 252.909525 141.615 
" style="fill:#f0edf2;"/>
    <path clip-path="url(#p958b5fd8b0)" d="M 295.1861 141.615 
L 337.462675 141.615 
L 337.462675 157.41 
L 295.1861 157.41 
L 295.1861 141.615 
" style="fill:#f0edf2;"/>
    <path clip-path="url(#p958b5fd8b0)" d="M 337.462675 141.615 
L 379.73925 141.615 
L 379.73925 157.41 
L 337.462675 157.41 
L 337.462675 141.615 
" style="fill:#f0edf2;"/>
    <path clip-path="url(#p958b5fd8b0)" d="M 379.73925 141.615 
L 422.015825 141.615 
L 422.015825 157.41 
L 379.73925 157.41 
L 379.73925 141.615 
" style="fill:#f0edf2;"/>
    <path clip-path="url(#p958b5fd8b0)" d="M 422.015825 141.615 
L 464.2924 141.615 
L 464.2924 157.41 
L 422.015825 157.41 
L 422.015825 141.615 
" style="fill:#f0edf2;"/>
    <path clip-path="url(#p958b5fd8b0)" d="M 464.2924 141.615 
L 506.568975 141.615 
L 506.568975 157.41 
L 464.2924 157.41 
L 464.2924 141.615 
" style="fill:#f0edf2;"/>
    <path clip-path="url(#p958b5fd8b0)" d="M 506.568975 141.615 
L 548.84555 141.615 
L 548.84555 157.41 
L 506.568975 157.41 
L 506.568975 141.615 
" style="fill:#f0edf2;"/>
    <path clip-path="url(#p958b5fd8b0)" d="M 548.84555 141.615 
L 591.122125 141.615 
L 591.122125 157.41 
L 548.84555 157.41 
L 548.84555 141.615 
" style="fill:#f0edf2;"/>
    <path clip-path="url(#p958b5fd8b0)" d="M 591.122125 141.615 
L 633.3987 141.615 
L 633.3987 157.41 
L 591.122125 157.41 
L 591.122125 141.615 
" style="fill:#f0edf2;"/>
    <path clip-path="url(#p958b5fd8b0)" d="M 633.3987 141.615 
L 675.675275 141.615 
L 675.675275 157.41 
L 633.3987 157.41 
L 633.3987 141.615 
" style="fill:#f0edf2;"/>
    <path clip-path="url(#p958b5fd8b0)" d="M 675.675275 141.615 
L 717.95185 141.615 
L 717.95185 157.41 
L 675.675275 157.41 
L 675.675275 141.615 
" style="fill:#f0edf2;"/>
    <path clip-path="url(#p958b5fd8b0)" d="M 717.95185 141.615 
L 760.228425 141.615 
L 760.228425 157.41 
L 717.95185 157.41 
L 717.95185 141.615 
" style="fill:#f0edf2;"/>
    <path clip-path="url(#p958b5fd8b0)" d="M 760.228425 141.615 
L 802.505 141.615 
L 802.505 157.41 
L 760.228425 157.41 
L 760.228425 141.615 
" style="fill:#f0edf2;"/>
    <path clip-path="url(#p958b5fd8b0)" d="M 210.63295 157.41 
L 252.909525 157.41 
L 252.909525 173.205 
L 210.63295 173.205 
L 210.63295 157.41 
" style="fill:#ffa500;"/>
    <path clip-path="url(#p958b5fd8b0)" d="M 252.909525 157.41 
L 295.1861 157.41 
L 295.1861 173.205 
L 252.909525 173.205 
L 252.909525 157.41 
" style="fill:#ffa500;"/>
    <path clip-path="url(#p958b5fd8b0)" d="M 295.1861 157.41 
L 337.462675 157.41 
L 337.462675 173.205 
L 295.1861 173.205 
L 295.1861 157.41 
" style="fill:#ffa500;"/>
    <path clip-path="url(#p958b5fd8b0)" d="M 337.462675 157.41 
L 379.73925 157.41 
L 379.73925 173.205 
L 337.462675 173.205 
L 337.462675 157.41 
" style="fill:#ffa500;"/>
    <path clip-path="url(#p958b5fd8b0)" d="M 379.73925 157.41 
L 422.015825 157.41 
L 422.015825 173.205 
L 379.73925 173.205 
L 379.73925 157.41 
" style="fill:#ffa500;"/>
    <path clip-path="url(#p958b5fd8b0)" d="M 422.015825 157.41 
L 464.2924 157.41 
L 464.2924 173.205 
L 422.015825 173.205 
L 422.015825 157.41 
" style="fill:#ffa500;"/>
    <path clip-path="url(#p958b5fd8b0)" d="M 464.2924 157.41 
L 506.568975 157.41 
L 506.568975 173.205 
L 464.2924 173.205 
L 464.2924 157.41 
" style="fill:#ffa500;"/>
    <path clip-path="url(#p958b5fd8b0)" d="M 506.568975 157.41 
L 548.84555 157.41 
L 548.84555 173.205 
L 506.568975 173.205 
L 506.568975 157.41 
" style="fill:#ffa500;"/>
    <path clip-path="url(#p958b5fd8b0)" d="M 548.84555 157.41 
L 591.122125 157.41 
L 591.122125 173.205 
L 548.84555 173.205 
L 548.84555 157.41 
" style="fill:#ffa500;"/>
    <path clip-path="url(#p958b5fd8b0)" d="M 591.122125 157.41 
L 633.3987 157.41 
L 633.3987 173.205 
L 591.122125 173.205 
L 591.122125 157.41 
" style="fill:#ffa500;"/>
    <path clip-path="url(#p958b5fd8b0)" d="M 633.3987 157.41 
L 675.675275 157.41 
L 675.675275 173.205 
L 633.3987 173.205 
L 633.3987 157.41 
" style="fill:#ffa500;"/>
    <path clip-path="url(#p958b5fd8b0)" d="M 675.675275 157.41 
L 717.95185 157.41 
L 717.95185 173.205 
L 675.675275 173.205 
L 675.675275 157.41 
" style="fill:#ffa500;"/>
    <path clip-path="url(#p958b5fd8b0)" d="M 717.95185 157.41 
L 760.228425 157.41 
L 760.228425 173.205 
L 717.95185 173.205 
L 717.95185 157.41 
" style="fill:#ffa500;"/>
    <path clip-path="url(#p958b5fd8b0)" d="M 760.228425 157.41 
L 802.505 157.41 
L 802.505 173.205 
L 760.228425 173.205 
L 760.228425 157.41 
" style="fill:#ffa500;"/>
    <path clip-path="url(#p958b5fd8b0)" d="M 210.63295 173.205 
L 252.909525 173.205 
L 252.909525 189 
L 210.63295 189 
L 210.63295 173.205 
" style="fill:#ffd700;"/>
    <path clip-path="url(#p958b5fd8b0)" d="M 252.909525 173.205 
L 295.1861 173.205 
L 295.1861 189 
L 252.909525 189 
L 252.909525 173.205 
" style="fill:#ffd700;"/>
    <path clip-path="url(#p958b5fd8b0)" d="M 295.1861 173.205 
L 337.462675 173.205 
L 337.462675 189 
L 295.1861 189 
L 295.1861 173.205 
" style="fill:#f0edf2;"/>
    <path clip-path="url(#p958b5fd8b0)" d="M 337.462675 173.205 
L 379.73925 173.205 
L 379.73925 189 
L 337.462675 189 
L 337.462675 173.205 
" style="fill:#f0edf2;"/>
    <path clip-path="url(#p958b5fd8b0)" d="M 379.73925 173.205 
L 422.015825 173.205 
L 422.015825 189 
L 379.73925 189 
L 379.73925 173.205 
" style="fill:#f0edf2;"/>
    <path clip-path="url(#p958b5fd8b0)" d="M 422.015825 173.205 
L 464.2924 173.205 
L 464.2924 189 
L 422.015825 189 
L 422.015825 173.205 
" style="fill:#ffd700;"/>
    <path clip-path="url(#p958b5fd8b0)" d="M 464.2924 173.205 
L 506.568975 173.205 
L 506.568975 189 
L 464.2924 189 
L 464.2924 173.205 
" style="fill:#ffd700;"/>
    <path clip-path="url(#p958b5fd8b0)" d="M 506.568975 173.205 
L 548.84555 173.205 
L 548.84555 189 
L 506.568975 189 
L 506.568975 173.205 
" style="fill:#ffd700;"/>
    <path clip-path="url(#p958b5fd8b0)" d="M 548.84555 173.205 
L 591.122125 173.205 
L 591.122125 189 
L 548.84555 189 
L 548.84555 173.205 
" style="fill:#ffd700;"/>
    <path clip-path="url(#p958b5fd8b0)" d="M 591.122125 173.205 
L 633.3987 173.205 
L 633.3987 189 
L 591.122125 189 
L 591.122125 173.205 
" style="fill:#f0edf2;"/>
    <path clip-path="url(#p958b5fd8b0)" d="M 633.3987 173.205 
L 675.675275 173.205 
L 675.675275 189 
L 633.3987 189 
L 633.3987 173.205 
" style="fill:#f0edf2;"/>
    <path clip-path="url(#p958b5fd8b0)" d="M 675.675275 173.205 
L 717.95185 173.205 
L 717.95185 189 
L 675.675275 189 
L 675.675275 173.205 
" style="fill:#f0edf2;"/>
    <path clip-path="url(#p958b5fd8b0)" d="M 717.95185 173.205 
L 760.228425 173.205 
L 760.228425 189 
L 717.95185 189 
L 717.95185 173.205 
" style="fill:#ffd700;"/>
    <path clip-path="url(#p958b5fd8b0)" d="M 760.228425 173.205 
L 802.505 173.205 
L 802.505 189 
L 760.228425 189 
L 760.228425 173.205 
" style="fill:#ffd700;"/>
    <path clip-path="url(#p958b5fd8b0)" d="M 210.63295 189 
L 252.909525 189 
L 252.909525 204.795 
L 210.63295 204.795 
L 210.63295 189 
"/>
    <path clip-path="url(#p958b5fd8b0)" d="M 252.909525 189 
L 295.1861 189 
L 295.1861 204.795 
L 252.909525 204.795 
L 252.909525 189 
"/>
    <path clip-path="url(#p958b5fd8b0)" d="M 295.1861 189 
L 337.462675 189 
L 337.462675 204.795 
L 295.1861 204.795 
L 295.1861 189 
" style="fill:#f0edf2;"/>
    <path clip-path="url(#p958b5fd8b0)" d="M 337.462675 189 
L 379.73925 189 
L 379.73925 204.795 
L 337.462675 204.795 
L 337.462675 189 
"/>
    <path clip-path="url(#p958b5fd8b0)" d="M 379.73925 189 
L 422.015825 189 
L 422.015825 204.795 
L 379.73925 204.795 
L 379.73925 189 
" style="fill:#f0edf2;"/>
    <path clip-path="url(#p958b5fd8b0)" d="M 422.015825 189 
L 464.2924 189 
L 464.2924 204.795 
L 422.015825 204.795 
L 422.015825 189 
"/>
    <path clip-path="url(#p958b5fd8b0)" d="M 464.2924 189 
L 506.568975 189 
L 506.568975 204.795 
L 464.2924 204.795 
L 464.2924 189 
"/>
    <path clip-path="url(#p958b5fd8b0)" d="M 506.568975 189 
L 548.84555 189 
L 548.84555 204.795 
L 506.568975 204.795 
L 506.568975 189 
"/>
    <path clip-path="url(#p958b5fd8b0)" d="M 548.84555 189 
L 591.122125 189 
L 591.122125 204.795 
L 548.84555 204.795 
L 548.84555 189 
"/>
    <path clip-path="url(#p958b5fd8b0)" d="M 591.122125 189 
L 633.3987 189 
L 633.3987 204.795 
L 591.122125 204.795 
L 591.122125 189 
"/>
    <path clip-path="url(#p958b5fd8b0)" d="M 633.3987 189 
L 675.675275 189 
L 675.675275 204.795 
L 633.3987 204.795 
L 633.3987 189 
"/>
    <path clip-path="url(#p958b5fd8b0)" d="M 675.675275 189 
L 717.95185 189 
L 717.95185 204.795 
L 675.675275 204.795 
L 675.675275 189 
"/>
    <path clip-path="url(#p958b5fd8b0)" d="M 717.95185 189 
L 760.228425 189 
L 760.228425 204.795 
L 717.95185 204.795 
L 717.95185 189 
"/>
    <path clip-path="url(#p958b5fd8b0)" d="M 760.228425 189 
L 802.505 189 
L 802.505 204.795 
L 760.228425 204.795 
L 760.228425 189 
"/>
    <path clip-path="url(#p958b5fd8b0)" d="M 210.63295 204.795 
L 252.909525 204.795 
L 252.909525 220.59 
L 210.63295 220.59 
L 210.63295 204.795 
" style="fill:#f0edf2;"/>
    <path clip-path="url(#p958b5fd8b0)" d="M 252.909525 204.795 
L 295.1861 204.795 
L 295.1861 220.59 
L 252.909525 220.59 
L 252.909525 204.795 
" style="fill:#f0edf2;"/>
    <path clip-path="url(#p958b5fd8b0)" d="M 295.1861 204.795 
L 337.462675 204.795 
L 337.462675 220.59 
L 295.1861 220.59 
L 295.1861 204.795 
" style="fill:#f0edf2;"/>
    <path clip-path="url(#p958b5fd8b0)" d="M 337.462675 204.795 
L 379.73925 204.795 
L 379.73925 220.59 
L 337.462675 220.59 
L 337.462675 204.795 
" style="fill:#808080;"/>
    <path clip-path="url(#p958b5fd8b0)" d="M 379.73925 204.795 
L 422.015825 204.795 
L 422.015825 220.59 
L 379.73925 220.59 
L 379.73925 204.795 
" style="fill:#f0edf2;"/>
    <path clip-path="url(#p958b5fd8b0)" d="M 422.015825 204.795 
L 464.2924 204.795 
L 464.2924 220.59 
L 422.015825 220.59 
L 422.015825 204.795 
" style="fill:#f0edf2;"/>
    <path clip-path="url(#p958b5fd8b0)" d="M 464.2924 204.795 
L 506.568975 204.795 
L 506.568975 220.59 
L 464.2924 220.59 
L 464.2924 204.795 
" style="fill:#808080;"/>
    <path clip-path="url(#p958b5fd8b0)" d="M 506.568975 204.795 
L 548.84555 204.795 
L 548.84555 220.59 
L 506.568975 220.59 
L 506.568975 204.795 
" style="fill:#f0edf2;"/>
    <path clip-path="url(#p958b5fd8b0)" d="M 548.84555 204.795 
L 591.122125 204.795 
L 591.122125 220.59 
L 548.84555 220.59 
L 548.84555 204.795 
" style="fill:#f0edf2;"/>
    <path clip-path="url(#p958b5fd8b0)" d="M 591.122125 204.795 
L 633.3987 204.795 
L 633.3987 220.59 
L 591.122125 220.59 
L 591.122125 204.795 
" style="fill:#f0edf2;"/>
    <path clip-path="url(#p958b5fd8b0)" d="M 633.3987 204.795 
L 675.675275 204.795 
L 675.675275 220.59 
L 633.3987 220.59 
L 633.3987 204.795 
" style="fill:#808080;"/>
    <path clip-path="url(#p958b5fd8b0)" d="M 675.675275 204.795 
L 717.95185 204.795 
L 717.95185 220.59 
L 675.675275 220.59 
L 675.675275 204.795 
" style="fill:#f0edf2;"/>
    <path clip-path="url(#p958b5fd8b0)" d="M 717.95185 204.795 
L 760.228425 204.795 
L 760.228425 220.59 
L 717.95185 220.59 
L 717.95185 204.795 
" style="fill:#f0edf2;"/>
    <path clip-path="url(#p958b5fd8b0)" d="M 760.228425 204.795 
L 802.505 204.795 
L 802.505 220.59 
L 760.228425 220.59 
L 760.228425 204.795 
" style="fill:#f0edf2;"/>
    <path clip-path="url(#p958b5fd8b0)" d="M 210.63295 220.59 
L 252.909525 220.59 
L 252.909525 236.385 
L 210.63295 236.385 
L 210.63295 220.59 
" style="fill:#8b0000;"/>
    <path clip-path="url(#p958b5fd8b0)" d="M 252.909525 220.59 
L 295.1861 220.59 
L 295.1861 236.385 
L 252.909525 236.385 
L 252.909525 220.59 
" style="fill:#8b0000;"/>
    <path clip-path="url(#p958b5fd8b0)" d="M 295.1861 220.59 
L 337.462675 220.59 
L 337.462675 236.385 
L 295.1861 236.385 
L 295.1861 220.59 
" style="fill:#8b0000;"/>
    <path clip-path="url(#p958b5fd8b0)" d="M 337.462675 220.59 
L 379.73925 220.59 
L 379.73925 236.385 
L 337.462675 236.385 
L 337.462675 220.59 
" style="fill:#ffe4e1;"/>
    <path clip-path="url(#p958b5fd8b0)" d="M 379.73925 220.59 
L 422.015825 220.59 
L 422.015825 236.385 
L 379.73925 236.385 
L 379.73925 220.59 
" style="fill:#ffe4e1;"/>
    <path clip-path="url(#p958b5fd8b0)" d="M 422.015825 220.59 
L 464.2924 220.59 
L 464.2924 236.385 
L 422.015825 236.385 
L 422.015825 220.59 
" style="fill:#8b0000;"/>
    <path clip-path="url(#p958b5fd8b0)" d="M 464.2924 220.59 
L 506.568975 220.59 
L 506.568975 236.385 
L 464.2924 236.385 
L 464.2924 220.59 
" style="fill:#8b0000;"/>
    <path clip-path="url(#p958b5fd8b0)" d="M 506.568975 220.59 
L 548.84555 220.59 
L 548.84555 236.385 
L 506.568975 236.385 
L 506.568975 220.59 
" style="fill:#8b0000;"/>
    <path clip-path="url(#p958b5fd8b0)" d="M 548.84555 220.59 
L 591.122125 220.59 
L 591.122125 236.385 
L 548.84555 236.385 
L 548.84555 220.59 
" style="fill:#8b0000;"/>
    <path clip-path="url(#p958b5fd8b0)" d="M 591.122125 220.59 
L 633.3987 220.59 
L 633.3987 236.385 
L 591.122125 236.385 
L 591.122125 220.59 
" style="fill:#8b0000;"/>
    <path clip-path="url(#p958b5fd8b0)" d="M 633.3987 220.59 
L 675.675275 220.59 
L 675.675275 236.385 
L 633.3987 236.385 
L 633.3987 220.59 
" style="fill:#8b0000;"/>
    <path clip-path="url(#p958b5fd8b0)" d="M 675.675275 220.59 
L 717.95185 220.59 
L 717.95185 236.385 
L 675.675275 236.385 
L 675.675275 220.59 
" style="fill:#8b0000;"/>
    <path clip-path="url(#p958b5fd8b0)" d="M 717.95185 220.59 
L 760.228425 220.59 
L 760.228425 236.385 
L 717.95185 236.385 
L 717.95185 220.59 
" style="fill:#8b0000;"/>
    <path clip-path="url(#p958b5fd8b0)" d="M 760.228425 220.59 
L 802.505 220.59 
L 802.505 236.385 
L 760.228425 236.385 
L 760.228425 220.59 
" style="fill:#8b0000;"/>
   </g>
   <g id="matplotlib.axis_3"/>
   <g id="matplotlib.axis_4"/>
  </g>
  <g id="axes_5">
   <g id="patch_4">
    <path d="M 210.63295 560.34 
L 802.505 560.34 
L 802.505 249.705 
L 210.63295 249.705 
z
" style="fill:#ffffff;"/>
   </g>
   <g id="QuadMesh_3">
    <path clip-path="url(#p87a8d73096)" d="M 210.63295 249.705 
L 252.909525 249.705 
L 252.909525 280.7685 
L 210.63295 280.7685 
L 210.63295 249.705 
" style="fill:#d2d2ff;"/>
    <path clip-path="url(#p87a8d73096)" d="M 252.909525 249.705 
L 295.1861 249.705 
L 295.1861 280.7685 
L 252.909525 280.7685 
L 252.909525 249.705 
" style="fill:#5a5aff;"/>
    <path clip-path="url(#p87a8d73096)" d="M 295.1861 249.705 
L 337.462675 249.705 
L 337.462675 280.7685 
L 295.1861 280.7685 
L 295.1861 249.705 
" style="fill:#4242ff;"/>
    <path clip-path="url(#p87a8d73096)" d="M 337.462675 249.705 
L 379.73925 249.705 
L 379.73925 280.7685 
L 337.462675 280.7685 
L 337.462675 249.705 
" style="fill:#d2d2ff;"/>
    <path clip-path="url(#p87a8d73096)" d="M 379.73925 249.705 
L 422.015825 249.705 
L 422.015825 280.7685 
L 379.73925 280.7685 
L 379.73925 249.705 
" style="fill:#fff6f6;"/>
    <path clip-path="url(#p87a8d73096)" d="M 422.015825 249.705 
L 464.2924 249.705 
L 464.2924 280.7685 
L 422.015825 280.7685 
L 422.015825 249.705 
" style="fill:#dedeff;"/>
    <path clip-path="url(#p87a8d73096)" d="M 464.2924 249.705 
L 506.568975 249.705 
L 506.568975 280.7685 
L 464.2924 280.7685 
L 464.2924 249.705 
" style="fill:#fff6f6;"/>
    <path clip-path="url(#p87a8d73096)" d="M 506.568975 249.705 
L 548.84555 249.705 
L 548.84555 280.7685 
L 506.568975 280.7685 
L 506.568975 249.705 
" style="fill:#fefeff;"/>
    <path clip-path="url(#p87a8d73096)" d="M 548.84555 249.705 
L 591.122125 249.705 
L 591.122125 280.7685 
L 548.84555 280.7685 
L 548.84555 249.705 
" style="fill:#dedeff;"/>
    <path clip-path="url(#p87a8d73096)" d="M 591.122125 249.705 
L 633.3987 249.705 
L 633.3987 280.7685 
L 591.122125 280.7685 
L 591.122125 249.705 
" style="fill:#ffecec;"/>
    <path clip-path="url(#p87a8d73096)" d="M 633.3987 249.705 
L 675.675275 249.705 
L 675.675275 280.7685 
L 633.3987 280.7685 
L 633.3987 249.705 
" style="fill:#fff6f6;"/>
    <path clip-path="url(#p87a8d73096)" d="M 675.675275 249.705 
L 717.95185 249.705 
L 717.95185 280.7685 
L 675.675275 280.7685 
L 675.675275 249.705 
" style="fill:#d0d0ff;"/>
    <path clip-path="url(#p87a8d73096)" d="M 717.95185 249.705 
L 760.228425 249.705 
L 760.228425 280.7685 
L 717.95185 280.7685 
L 717.95185 249.705 
" style="fill:#6464ff;"/>
    <path clip-path="url(#p87a8d73096)" d="M 760.228425 249.705 
L 802.505 249.705 
L 802.505 280.7685 
L 760.228425 280.7685 
L 760.228425 249.705 
" style="fill:#8080ff;"/>
    <path clip-path="url(#p87a8d73096)" d="M 210.63295 280.7685 
L 252.909525 280.7685 
L 252.909525 311.832 
L 210.63295 311.832 
L 210.63295 280.7685 
" style="fill:#ff7070;"/>
    <path clip-path="url(#p87a8d73096)" d="M 252.909525 280.7685 
L 295.1861 280.7685 
L 295.1861 311.832 
L 252.909525 311.832 
L 252.909525 280.7685 
" style="fill:#ffaaaa;"/>
    <path clip-path="url(#p87a8d73096)" d="M 295.1861 280.7685 
L 337.462675 280.7685 
L 337.462675 311.832 
L 295.1861 311.832 
L 295.1861 280.7685 
" style="fill:#ffbaba;"/>
    <path clip-path="url(#p87a8d73096)" d="M 337.462675 280.7685 
L 379.73925 280.7685 
L 379.73925 311.832 
L 337.462675 311.832 
L 337.462675 280.7685 
" style="fill:#ffeeee;"/>
    <path clip-path="url(#p87a8d73096)" d="M 379.73925 280.7685 
L 422.015825 280.7685 
L 422.015825 311.832 
L 379.73925 311.832 
L 379.73925 280.7685 
" style="fill:#ffb6b6;"/>
    <path clip-path="url(#p87a8d73096)" d="M 422.015825 280.7685 
L 464.2924 280.7685 
L 464.2924 311.832 
L 422.015825 311.832 
L 422.015825 280.7685 
" style="fill:#ffd6d6;"/>
    <path clip-path="url(#p87a8d73096)" d="M 464.2924 280.7685 
L 506.568975 280.7685 
L 506.568975 311.832 
L 464.2924 311.832 
L 464.2924 280.7685 
" style="fill:#ffdcdc;"/>
    <path clip-path="url(#p87a8d73096)" d="M 506.568975 280.7685 
L 548.84555 280.7685 
L 548.84555 311.832 
L 506.568975 311.832 
L 506.568975 280.7685 
" style="fill:#ffdcdc;"/>
    <path clip-path="url(#p87a8d73096)" d="M 548.84555 280.7685 
L 591.122125 280.7685 
L 591.122125 311.832 
L 548.84555 311.832 
L 548.84555 280.7685 
" style="fill:#ffe2e2;"/>
    <path clip-path="url(#p87a8d73096)" d="M 591.122125 280.7685 
L 633.3987 280.7685 
L 633.3987 311.832 
L 591.122125 311.832 
L 591.122125 280.7685 
" style="fill:#e0e0ff;"/>
    <path clip-path="url(#p87a8d73096)" d="M 633.3987 280.7685 
L 675.675275 280.7685 
L 675.675275 311.832 
L 633.3987 311.832 
L 633.3987 280.7685 
" style="fill:#fff8f8;"/>
    <path clip-path="url(#p87a8d73096)" d="M 675.675275 280.7685 
L 717.95185 280.7685 
L 717.95185 311.832 
L 675.675275 311.832 
L 675.675275 280.7685 
" style="fill:#dcdcff;"/>
    <path clip-path="url(#p87a8d73096)" d="M 717.95185 280.7685 
L 760.228425 280.7685 
L 760.228425 311.832 
L 717.95185 311.832 
L 717.95185 280.7685 
" style="fill:#9e9eff;"/>
    <path clip-path="url(#p87a8d73096)" d="M 760.228425 280.7685 
L 802.505 280.7685 
L 802.505 311.832 
L 760.228425 311.832 
L 760.228425 280.7685 
" style="fill:#aaaaff;"/>
    <path clip-path="url(#p87a8d73096)" d="M 210.63295 311.832 
L 252.909525 311.832 
L 252.909525 342.8955 
L 210.63295 342.8955 
L 210.63295 311.832 
" style="fill:#ffa8a8;"/>
    <path clip-path="url(#p87a8d73096)" d="M 252.909525 311.832 
L 295.1861 311.832 
L 295.1861 342.8955 
L 252.909525 342.8955 
L 252.909525 311.832 
" style="fill:#ffd8d8;"/>
    <path clip-path="url(#p87a8d73096)" d="M 295.1861 311.832 
L 337.462675 311.832 
L 337.462675 342.8955 
L 295.1861 342.8955 
L 295.1861 311.832 
" style="fill:#ffb8b8;"/>
    <path clip-path="url(#p87a8d73096)" d="M 337.462675 311.832 
L 379.73925 311.832 
L 379.73925 342.8955 
L 337.462675 342.8955 
L 337.462675 311.832 
" style="fill:#e8e8ff;"/>
    <path clip-path="url(#p87a8d73096)" d="M 379.73925 311.832 
L 422.015825 311.832 
L 422.015825 342.8955 
L 379.73925 342.8955 
L 379.73925 311.832 
" style="fill:#ffd8d8;"/>
    <path clip-path="url(#p87a8d73096)" d="M 422.015825 311.832 
L 464.2924 311.832 
L 464.2924 342.8955 
L 422.015825 342.8955 
L 422.015825 311.832 
" style="fill:#ffc8c8;"/>
    <path clip-path="url(#p87a8d73096)" d="M 464.2924 311.832 
L 506.568975 311.832 
L 506.568975 342.8955 
L 464.2924 342.8955 
L 464.2924 311.832 
" style="fill:#e0e0ff;"/>
    <path clip-path="url(#p87a8d73096)" d="M 506.568975 311.832 
L 548.84555 311.832 
L 548.84555 342.8955 
L 506.568975 342.8955 
L 506.568975 311.832 
" style="fill:#d2d2ff;"/>
    <path clip-path="url(#p87a8d73096)" d="M 548.84555 311.832 
L 591.122125 311.832 
L 591.122125 342.8955 
L 548.84555 342.8955 
L 548.84555 311.832 
" style="fill:#f4f4ff;"/>
    <path clip-path="url(#p87a8d73096)" d="M 591.122125 311.832 
L 633.3987 311.832 
L 633.3987 342.8955 
L 591.122125 342.8955 
L 591.122125 311.832 
" style="fill:#ffaeae;"/>
    <path clip-path="url(#p87a8d73096)" d="M 633.3987 311.832 
L 675.675275 311.832 
L 675.675275 342.8955 
L 633.3987 342.8955 
L 633.3987 311.832 
" style="fill:#fffcfc;"/>
    <path clip-path="url(#p87a8d73096)" d="M 675.675275 311.832 
L 717.95185 311.832 
L 717.95185 342.8955 
L 675.675275 342.8955 
L 675.675275 311.832 
" style="fill:#fffafa;"/>
    <path clip-path="url(#p87a8d73096)" d="M 717.95185 311.832 
L 760.228425 311.832 
L 760.228425 342.8955 
L 717.95185 342.8955 
L 717.95185 311.832 
" style="fill:#9a9aff;"/>
    <path clip-path="url(#p87a8d73096)" d="M 760.228425 311.832 
L 802.505 311.832 
L 802.505 342.8955 
L 760.228425 342.8955 
L 760.228425 311.832 
" style="fill:#ffe0e0;"/>
    <path clip-path="url(#p87a8d73096)" d="M 210.63295 342.8955 
L 252.909525 342.8955 
L 252.909525 373.959 
L 210.63295 373.959 
L 210.63295 342.8955 
" style="fill:#ffa2a2;"/>
    <path clip-path="url(#p87a8d73096)" d="M 252.909525 342.8955 
L 295.1861 342.8955 
L 295.1861 373.959 
L 252.909525 373.959 
L 252.909525 342.8955 
" style="fill:#ff9696;"/>
    <path clip-path="url(#p87a8d73096)" d="M 295.1861 342.8955 
L 337.462675 342.8955 
L 337.462675 373.959 
L 295.1861 373.959 
L 295.1861 342.8955 
" style="fill:#ffd4d4;"/>
    <path clip-path="url(#p87a8d73096)" d="M 337.462675 342.8955 
L 379.73925 342.8955 
L 379.73925 373.959 
L 337.462675 373.959 
L 337.462675 342.8955 
" style="fill:#ffd0d0;"/>
    <path clip-path="url(#p87a8d73096)" d="M 379.73925 342.8955 
L 422.015825 342.8955 
L 422.015825 373.959 
L 379.73925 373.959 
L 379.73925 342.8955 
" style="fill:#c4c4ff;"/>
    <path clip-path="url(#p87a8d73096)" d="M 422.015825 342.8955 
L 464.2924 342.8955 
L 464.2924 373.959 
L 422.015825 373.959 
L 422.015825 342.8955 
" style="fill:#c6c6ff;"/>
    <path clip-path="url(#p87a8d73096)" d="M 464.2924 342.8955 
L 506.568975 342.8955 
L 506.568975 373.959 
L 464.2924 373.959 
L 464.2924 342.8955 
" style="fill:#ffeaea;"/>
    <path clip-path="url(#p87a8d73096)" d="M 506.568975 342.8955 
L 548.84555 342.8955 
L 548.84555 373.959 
L 506.568975 373.959 
L 506.568975 342.8955 
" style="fill:#ffe2e2;"/>
    <path clip-path="url(#p87a8d73096)" d="M 548.84555 342.8955 
L 591.122125 342.8955 
L 591.122125 373.959 
L 548.84555 373.959 
L 548.84555 342.8955 
" style="fill:#ffeeee;"/>
    <path clip-path="url(#p87a8d73096)" d="M 591.122125 342.8955 
L 633.3987 342.8955 
L 633.3987 373.959 
L 591.122125 373.959 
L 591.122125 342.8955 
" style="fill:#ffd8d8;"/>
    <path clip-path="url(#p87a8d73096)" d="M 633.3987 342.8955 
L 675.675275 342.8955 
L 675.675275 373.959 
L 633.3987 373.959 
L 633.3987 342.8955 
" style="fill:#dcdcff;"/>
    <path clip-path="url(#p87a8d73096)" d="M 675.675275 342.8955 
L 717.95185 342.8955 
L 717.95185 373.959 
L 675.675275 373.959 
L 675.675275 342.8955 
" style="fill:#ececff;"/>
    <path clip-path="url(#p87a8d73096)" d="M 717.95185 342.8955 
L 760.228425 342.8955 
L 760.228425 373.959 
L 717.95185 373.959 
L 717.95185 342.8955 
" style="fill:#9a9aff;"/>
    <path clip-path="url(#p87a8d73096)" d="M 760.228425 342.8955 
L 802.505 342.8955 
L 802.505 373.959 
L 760.228425 373.959 
L 760.228425 342.8955 
" style="fill:#ffe4e4;"/>
    <path clip-path="url(#p87a8d73096)" d="M 210.63295 373.959 
L 252.909525 373.959 
L 252.909525 405.0225 
L 210.63295 405.0225 
L 210.63295 373.959 
" style="fill:#ffd4d4;"/>
    <path clip-path="url(#p87a8d73096)" d="M 252.909525 373.959 
L 295.1861 373.959 
L 295.1861 405.0225 
L 252.909525 405.0225 
L 252.909525 373.959 
" style="fill:#fff2f2;"/>
    <path clip-path="url(#p87a8d73096)" d="M 295.1861 373.959 
L 337.462675 373.959 
L 337.462675 405.0225 
L 295.1861 405.0225 
L 295.1861 373.959 
" style="fill:#fff2f2;"/>
    <path clip-path="url(#p87a8d73096)" d="M 337.462675 373.959 
L 379.73925 373.959 
L 379.73925 405.0225 
L 337.462675 405.0225 
L 337.462675 373.959 
" style="fill:#ececff;"/>
    <path clip-path="url(#p87a8d73096)" d="M 379.73925 373.959 
L 422.015825 373.959 
L 422.015825 405.0225 
L 379.73925 405.0225 
L 379.73925 373.959 
" style="fill:#f2f2ff;"/>
    <path clip-path="url(#p87a8d73096)" d="M 422.015825 373.959 
L 464.2924 373.959 
L 464.2924 405.0225 
L 422.015825 405.0225 
L 422.015825 373.959 
" style="fill:#f4f4ff;"/>
    <path clip-path="url(#p87a8d73096)" d="M 464.2924 373.959 
L 506.568975 373.959 
L 506.568975 405.0225 
L 464.2924 405.0225 
L 464.2924 373.959 
" style="fill:#ffd8d8;"/>
    <path clip-path="url(#p87a8d73096)" d="M 506.568975 373.959 
L 548.84555 373.959 
L 548.84555 405.0225 
L 506.568975 405.0225 
L 506.568975 373.959 
" style="fill:#f8f8ff;"/>
    <path clip-path="url(#p87a8d73096)" d="M 548.84555 373.959 
L 591.122125 373.959 
L 591.122125 405.0225 
L 548.84555 405.0225 
L 548.84555 373.959 
" style="fill:#ffeeee;"/>
    <path clip-path="url(#p87a8d73096)" d="M 591.122125 373.959 
L 633.3987 373.959 
L 633.3987 405.0225 
L 591.122125 405.0225 
L 591.122125 373.959 
" style="fill:#fff2f2;"/>
    <path clip-path="url(#p87a8d73096)" d="M 633.3987 373.959 
L 675.675275 373.959 
L 675.675275 405.0225 
L 633.3987 405.0225 
L 633.3987 373.959 
" style="fill:#d2d2ff;"/>
    <path clip-path="url(#p87a8d73096)" d="M 675.675275 373.959 
L 717.95185 373.959 
L 717.95185 405.0225 
L 675.675275 405.0225 
L 675.675275 373.959 
" style="fill:#c2c2ff;"/>
    <path clip-path="url(#p87a8d73096)" d="M 717.95185 373.959 
L 760.228425 373.959 
L 760.228425 405.0225 
L 717.95185 405.0225 
L 717.95185 373.959 
" style="fill:#b0b0ff;"/>
    <path clip-path="url(#p87a8d73096)" d="M 760.228425 373.959 
L 802.505 373.959 
L 802.505 405.0225 
L 760.228425 405.0225 
L 760.228425 373.959 
" style="fill:#ff9a9a;"/>
    <path clip-path="url(#p87a8d73096)" d="M 210.63295 405.0225 
L 252.909525 405.0225 
L 252.909525 436.086 
L 210.63295 436.086 
L 210.63295 405.0225 
" style="fill:#ff9c9c;"/>
    <path clip-path="url(#p87a8d73096)" d="M 252.909525 405.0225 
L 295.1861 405.0225 
L 295.1861 436.086 
L 252.909525 436.086 
L 252.909525 405.0225 
" style="fill:#ff9898;"/>
    <path clip-path="url(#p87a8d73096)" d="M 295.1861 405.0225 
L 337.462675 405.0225 
L 337.462675 436.086 
L 295.1861 436.086 
L 295.1861 405.0225 
" style="fill:#ffbebe;"/>
    <path clip-path="url(#p87a8d73096)" d="M 337.462675 405.0225 
L 379.73925 405.0225 
L 379.73925 436.086 
L 337.462675 436.086 
L 337.462675 405.0225 
" style="fill:#ffc2c2;"/>
    <path clip-path="url(#p87a8d73096)" d="M 379.73925 405.0225 
L 422.015825 405.0225 
L 422.015825 436.086 
L 379.73925 436.086 
L 379.73925 405.0225 
" style="fill:#ececff;"/>
    <path clip-path="url(#p87a8d73096)" d="M 422.015825 405.0225 
L 464.2924 405.0225 
L 464.2924 436.086 
L 422.015825 436.086 
L 422.015825 405.0225 
" style="fill:#ffdcdc;"/>
    <path clip-path="url(#p87a8d73096)" d="M 464.2924 405.0225 
L 506.568975 405.0225 
L 506.568975 436.086 
L 464.2924 436.086 
L 464.2924 405.0225 
" style="fill:#ffd8d8;"/>
    <path clip-path="url(#p87a8d73096)" d="M 506.568975 405.0225 
L 548.84555 405.0225 
L 548.84555 436.086 
L 506.568975 436.086 
L 506.568975 405.0225 
" style="fill:#ff8686;"/>
    <path clip-path="url(#p87a8d73096)" d="M 548.84555 405.0225 
L 591.122125 405.0225 
L 591.122125 436.086 
L 548.84555 436.086 
L 548.84555 405.0225 
" style="fill:#ffa4a4;"/>
    <path clip-path="url(#p87a8d73096)" d="M 591.122125 405.0225 
L 633.3987 405.0225 
L 633.3987 436.086 
L 591.122125 436.086 
L 591.122125 405.0225 
" style="fill:#ff9e9e;"/>
    <path clip-path="url(#p87a8d73096)" d="M 633.3987 405.0225 
L 675.675275 405.0225 
L 675.675275 436.086 
L 633.3987 436.086 
L 633.3987 405.0225 
" style="fill:#ffb8b8;"/>
    <path clip-path="url(#p87a8d73096)" d="M 675.675275 405.0225 
L 717.95185 405.0225 
L 717.95185 436.086 
L 675.675275 436.086 
L 675.675275 405.0225 
" style="fill:#ffc4c4;"/>
    <path clip-path="url(#p87a8d73096)" d="M 717.95185 405.0225 
L 760.228425 405.0225 
L 760.228425 436.086 
L 717.95185 436.086 
L 717.95185 405.0225 
" style="fill:#ffcece;"/>
    <path clip-path="url(#p87a8d73096)" d="M 760.228425 405.0225 
L 802.505 405.0225 
L 802.505 436.086 
L 760.228425 436.086 
L 760.228425 405.0225 
" style="fill:#ffe4e4;"/>
    <path clip-path="url(#p87a8d73096)" d="M 210.63295 436.086 
L 252.909525 436.086 
L 252.909525 467.1495 
L 210.63295 467.1495 
L 210.63295 436.086 
" style="fill:#ffb8b8;"/>
    <path clip-path="url(#p87a8d73096)" d="M 252.909525 436.086 
L 295.1861 436.086 
L 295.1861 467.1495 
L 252.909525 467.1495 
L 252.909525 436.086 
" style="fill:#f2f2ff;"/>
    <path clip-path="url(#p87a8d73096)" d="M 295.1861 436.086 
L 337.462675 436.086 
L 337.462675 467.1495 
L 295.1861 467.1495 
L 295.1861 436.086 
" style="fill:#ffb8b8;"/>
    <path clip-path="url(#p87a8d73096)" d="M 337.462675 436.086 
L 379.73925 436.086 
L 379.73925 467.1495 
L 337.462675 467.1495 
L 337.462675 436.086 
" style="fill:#ffbcbc;"/>
    <path clip-path="url(#p87a8d73096)" d="M 379.73925 436.086 
L 422.015825 436.086 
L 422.015825 467.1495 
L 379.73925 467.1495 
L 379.73925 436.086 
" style="fill:#fff8f8;"/>
    <path clip-path="url(#p87a8d73096)" d="M 422.015825 436.086 
L 464.2924 436.086 
L 464.2924 467.1495 
L 422.015825 467.1495 
L 422.015825 436.086 
" style="fill:#ffd8d8;"/>
    <path clip-path="url(#p87a8d73096)" d="M 464.2924 436.086 
L 506.568975 436.086 
L 506.568975 467.1495 
L 464.2924 467.1495 
L 464.2924 436.086 
" style="fill:#ffd6d6;"/>
    <path clip-path="url(#p87a8d73096)" d="M 506.568975 436.086 
L 548.84555 436.086 
L 548.84555 467.1495 
L 506.568975 467.1495 
L 506.568975 436.086 
" style="fill:#fff2f2;"/>
    <path clip-path="url(#p87a8d73096)" d="M 548.84555 436.086 
L 591.122125 436.086 
L 591.122125 467.1495 
L 548.84555 467.1495 
L 548.84555 436.086 
" style="fill:#f0f0ff;"/>
    <path clip-path="url(#p87a8d73096)" d="M 591.122125 436.086 
L 633.3987 436.086 
L 633.3987 467.1495 
L 591.122125 467.1495 
L 591.122125 436.086 
" style="fill:#ffdada;"/>
    <path clip-path="url(#p87a8d73096)" d="M 633.3987 436.086 
L 675.675275 436.086 
L 675.675275 467.1495 
L 633.3987 467.1495 
L 633.3987 436.086 
" style="fill:#ffc2c2;"/>
    <path clip-path="url(#p87a8d73096)" d="M 675.675275 436.086 
L 717.95185 436.086 
L 717.95185 467.1495 
L 675.675275 467.1495 
L 675.675275 436.086 
" style="fill:#ffbcbc;"/>
    <path clip-path="url(#p87a8d73096)" d="M 717.95185 436.086 
L 760.228425 436.086 
L 760.228425 467.1495 
L 717.95185 467.1495 
L 717.95185 436.086 
" style="fill:#ffaeae;"/>
    <path clip-path="url(#p87a8d73096)" d="M 760.228425 436.086 
L 802.505 436.086 
L 802.505 467.1495 
L 760.228425 467.1495 
L 760.228425 436.086 
" style="fill:#ffc8c8;"/>
    <path clip-path="url(#p87a8d73096)" d="M 210.63295 467.1495 
L 252.909525 467.1495 
L 252.909525 498.213 
L 210.63295 498.213 
L 210.63295 467.1495 
" style="fill:#ffc8c8;"/>
    <path clip-path="url(#p87a8d73096)" d="M 252.909525 467.1495 
L 295.1861 467.1495 
L 295.1861 498.213 
L 252.909525 498.213 
L 252.909525 467.1495 
" style="fill:#ffc8c8;"/>
    <path clip-path="url(#p87a8d73096)" d="M 295.1861 467.1495 
L 337.462675 467.1495 
L 337.462675 498.213 
L 295.1861 498.213 
L 295.1861 467.1495 
" style="fill:#ffe6e6;"/>
    <path clip-path="url(#p87a8d73096)" d="M 337.462675 467.1495 
L 379.73925 467.1495 
L 379.73925 498.213 
L 337.462675 498.213 
L 337.462675 467.1495 
" style="fill:#f4f4ff;"/>
    <path clip-path="url(#p87a8d73096)" d="M 379.73925 467.1495 
L 422.015825 467.1495 
L 422.015825 498.213 
L 379.73925 498.213 
L 379.73925 467.1495 
" style="fill:#e6e6ff;"/>
    <path clip-path="url(#p87a8d73096)" d="M 422.015825 467.1495 
L 464.2924 467.1495 
L 464.2924 498.213 
L 422.015825 498.213 
L 422.015825 467.1495 
" style="fill:#ffdcdc;"/>
    <path clip-path="url(#p87a8d73096)" d="M 464.2924 467.1495 
L 506.568975 467.1495 
L 506.568975 498.213 
L 464.2924 498.213 
L 464.2924 467.1495 
" style="fill:#ffc0c0;"/>
    <path clip-path="url(#p87a8d73096)" d="M 506.568975 467.1495 
L 548.84555 467.1495 
L 548.84555 498.213 
L 506.568975 498.213 
L 506.568975 467.1495 
" style="fill:#fff2f2;"/>
    <path clip-path="url(#p87a8d73096)" d="M 548.84555 467.1495 
L 591.122125 467.1495 
L 591.122125 498.213 
L 548.84555 498.213 
L 548.84555 467.1495 
" style="fill:#ffd0d0;"/>
    <path clip-path="url(#p87a8d73096)" d="M 591.122125 467.1495 
L 633.3987 467.1495 
L 633.3987 498.213 
L 591.122125 498.213 
L 591.122125 467.1495 
" style="fill:#ffaaaa;"/>
    <path clip-path="url(#p87a8d73096)" d="M 633.3987 467.1495 
L 675.675275 467.1495 
L 675.675275 498.213 
L 633.3987 498.213 
L 633.3987 467.1495 
" style="fill:#ffaaaa;"/>
    <path clip-path="url(#p87a8d73096)" d="M 675.675275 467.1495 
L 717.95185 467.1495 
L 717.95185 498.213 
L 675.675275 498.213 
L 675.675275 467.1495 
" style="fill:#fff6f6;"/>
    <path clip-path="url(#p87a8d73096)" d="M 717.95185 467.1495 
L 760.228425 467.1495 
L 760.228425 498.213 
L 717.95185 498.213 
L 717.95185 467.1495 
" style="fill:#ffc8c8;"/>
    <path clip-path="url(#p87a8d73096)" d="M 760.228425 467.1495 
L 802.505 467.1495 
L 802.505 498.213 
L 760.228425 498.213 
L 760.228425 467.1495 
" style="fill:#ff9a9a;"/>
    <path clip-path="url(#p87a8d73096)" d="M 210.63295 498.213 
L 252.909525 498.213 
L 252.909525 529.2765 
L 210.63295 529.2765 
L 210.63295 498.213 
" style="fill:#ffd6d6;"/>
    <path clip-path="url(#p87a8d73096)" d="M 252.909525 498.213 
L 295.1861 498.213 
L 295.1861 529.2765 
L 252.909525 529.2765 
L 252.909525 498.213 
" style="fill:#ffe8e8;"/>
    <path clip-path="url(#p87a8d73096)" d="M 295.1861 498.213 
L 337.462675 498.213 
L 337.462675 529.2765 
L 295.1861 529.2765 
L 295.1861 498.213 
" style="fill:#ffecec;"/>
    <path clip-path="url(#p87a8d73096)" d="M 337.462675 498.213 
L 379.73925 498.213 
L 379.73925 529.2765 
L 337.462675 529.2765 
L 337.462675 498.213 
" style="fill:#7272ff;"/>
    <path clip-path="url(#p87a8d73096)" d="M 379.73925 498.213 
L 422.015825 498.213 
L 422.015825 529.2765 
L 379.73925 529.2765 
L 379.73925 498.213 
" style="fill:#fff0f0;"/>
    <path clip-path="url(#p87a8d73096)" d="M 422.015825 498.213 
L 464.2924 498.213 
L 464.2924 529.2765 
L 422.015825 529.2765 
L 422.015825 498.213 
" style="fill:#e6e6ff;"/>
    <path clip-path="url(#p87a8d73096)" d="M 464.2924 498.213 
L 506.568975 498.213 
L 506.568975 529.2765 
L 464.2924 529.2765 
L 464.2924 498.213 
" style="fill:#fafaff;"/>
    <path clip-path="url(#p87a8d73096)" d="M 506.568975 498.213 
L 548.84555 498.213 
L 548.84555 529.2765 
L 506.568975 529.2765 
L 506.568975 498.213 
" style="fill:#ffdada;"/>
    <path clip-path="url(#p87a8d73096)" d="M 548.84555 498.213 
L 591.122125 498.213 
L 591.122125 529.2765 
L 548.84555 529.2765 
L 548.84555 498.213 
" style="fill:#fff0f0;"/>
    <path clip-path="url(#p87a8d73096)" d="M 591.122125 498.213 
L 633.3987 498.213 
L 633.3987 529.2765 
L 591.122125 529.2765 
L 591.122125 498.213 
" style="fill:#ffe8e8;"/>
    <path clip-path="url(#p87a8d73096)" d="M 633.3987 498.213 
L 675.675275 498.213 
L 675.675275 529.2765 
L 633.3987 529.2765 
L 633.3987 498.213 
" style="fill:#fff0f0;"/>
    <path clip-path="url(#p87a8d73096)" d="M 675.675275 498.213 
L 717.95185 498.213 
L 717.95185 529.2765 
L 675.675275 529.2765 
L 675.675275 498.213 
" style="fill:#ffdada;"/>
    <path clip-path="url(#p87a8d73096)" d="M 717.95185 498.213 
L 760.228425 498.213 
L 760.228425 529.2765 
L 717.95185 529.2765 
L 717.95185 498.213 
" style="fill:#ffecec;"/>
    <path clip-path="url(#p87a8d73096)" d="M 760.228425 498.213 
L 802.505 498.213 
L 802.505 529.2765 
L 760.228425 529.2765 
L 760.228425 498.213 
" style="fill:#fff8f8;"/>
    <path clip-path="url(#p87a8d73096)" d="M 210.63295 529.2765 
L 252.909525 529.2765 
L 252.909525 560.34 
L 210.63295 560.34 
L 210.63295 529.2765 
" style="fill:#fff8f8;"/>
    <path clip-path="url(#p87a8d73096)" d="M 252.909525 529.2765 
L 295.1861 529.2765 
L 295.1861 560.34 
L 252.909525 560.34 
L 252.909525 529.2765 
" style="fill:#ffb8b8;"/>
    <path clip-path="url(#p87a8d73096)" d="M 295.1861 529.2765 
L 337.462675 529.2765 
L 337.462675 560.34 
L 295.1861 560.34 
L 295.1861 529.2765 
" style="fill:#ffe4e4;"/>
    <path clip-path="url(#p87a8d73096)" d="M 337.462675 529.2765 
L 379.73925 529.2765 
L 379.73925 560.34 
L 337.462675 560.34 
L 337.462675 529.2765 
" style="fill:#ffd8d8;"/>
    <path clip-path="url(#p87a8d73096)" d="M 379.73925 529.2765 
L 422.015825 529.2765 
L 422.015825 560.34 
L 379.73925 560.34 
L 379.73925 529.2765 
" style="fill:#f2f2ff;"/>
    <path clip-path="url(#p87a8d73096)" d="M 422.015825 529.2765 
L 464.2924 529.2765 
L 464.2924 560.34 
L 422.015825 560.34 
L 422.015825 529.2765 
" style="fill:#e8e8ff;"/>
    <path clip-path="url(#p87a8d73096)" d="M 464.2924 529.2765 
L 506.568975 529.2765 
L 506.568975 560.34 
L 464.2924 560.34 
L 464.2924 529.2765 
" style="fill:#ffe8e8;"/>
    <path clip-path="url(#p87a8d73096)" d="M 506.568975 529.2765 
L 548.84555 529.2765 
L 548.84555 560.34 
L 506.568975 560.34 
L 506.568975 529.2765 
" style="fill:#ffe2e2;"/>
    <path clip-path="url(#p87a8d73096)" d="M 548.84555 529.2765 
L 591.122125 529.2765 
L 591.122125 560.34 
L 548.84555 560.34 
L 548.84555 529.2765 
" style="fill:#fffcfc;"/>
    <path clip-path="url(#p87a8d73096)" d="M 591.122125 529.2765 
L 633.3987 529.2765 
L 633.3987 560.34 
L 591.122125 560.34 
L 591.122125 529.2765 
" style="fill:#ffd0d0;"/>
    <path clip-path="url(#p87a8d73096)" d="M 633.3987 529.2765 
L 675.675275 529.2765 
L 675.675275 560.34 
L 633.3987 560.34 
L 633.3987 529.2765 
" style="fill:#f4f4ff;"/>
    <path clip-path="url(#p87a8d73096)" d="M 675.675275 529.2765 
L 717.95185 529.2765 
L 717.95185 560.34 
L 675.675275 560.34 
L 675.675275 529.2765 
" style="fill:#ffe4e4;"/>
    <path clip-path="url(#p87a8d73096)" d="M 717.95185 529.2765 
L 760.228425 529.2765 
L 760.228425 560.34 
L 717.95185 560.34 
L 717.95185 529.2765 
" style="fill:#ffd4d4;"/>
    <path clip-path="url(#p87a8d73096)" d="M 760.228425 529.2765 
L 802.505 529.2765 
L 802.505 560.34 
L 760.228425 560.34 
L 760.228425 529.2765 
" style="fill:#b2b2ff;"/>
   </g>
   <g id="matplotlib.axis_5"/>
   <g id="matplotlib.axis_6">
    <g id="ytick_1">
     <g id="line2d_1">
      <defs>
       <path d="M 0 0 
L 3.5 0 
" id="mb7ca0e6586" style="stroke:#000000;stroke-width:0.8;"/>
      </defs>
      <g>
       <use style="stroke:#000000;stroke-width:0.8;" x="802.505" xlink:href="#mb7ca0e6586" y="265.23675"/>
      </g>
     </g>
     <g id="text_1">
      <!-- ETV4 -->
      <defs>
       <path d="M 9.8125 72.90625 
L 55.90625 72.90625 
L 55.90625 64.59375 
L 19.671875 64.59375 
L 19.671875 43.015625 
L 54.390625 43.015625 
L 54.390625 34.71875 
L 19.671875 34.71875 
L 19.671875 8.296875 
L 56.78125 8.296875 
L 56.78125 0 
L 9.8125 0 
z
" id="DejaVuSans-69"/>
       <path d="M -0.296875 72.90625 
L 61.375 72.90625 
L 61.375 64.59375 
L 35.5 64.59375 
L 35.5 0 
L 25.59375 0 
L 25.59375 64.59375 
L -0.296875 64.59375 
z
" id="DejaVuSans-84"/>
       <path d="M 28.609375 0 
L 0.78125 72.90625 
L 11.078125 72.90625 
L 34.1875 11.53125 
L 57.328125 72.90625 
L 67.578125 72.90625 
L 39.796875 0 
z
" id="DejaVuSans-86"/>
       <path d="M 37.796875 64.3125 
L 12.890625 25.390625 
L 37.796875 25.390625 
z
M 35.203125 72.90625 
L 47.609375 72.90625 
L 47.609375 25.390625 
L 58.015625 25.390625 
L 58.015625 17.1875 
L 47.609375 17.1875 
L 47.609375 0 
L 37.796875 0 
L 37.796875 17.1875 
L 4.890625 17.1875 
L 4.890625 26.703125 
z
" id="DejaVuSans-52"/>
      </defs>
      <g transform="translate(809.505 269.035969)scale(0.1 -0.1)">
       <use xlink:href="#DejaVuSans-69"/>
       <use x="63.183594" xlink:href="#DejaVuSans-84"/>
       <use x="124.267578" xlink:href="#DejaVuSans-86"/>
       <use x="192.675781" xlink:href="#DejaVuSans-52"/>
      </g>
     </g>
    </g>
    <g id="ytick_2">
     <g id="line2d_2">
      <g>
       <use style="stroke:#000000;stroke-width:0.8;" x="802.505" xlink:href="#mb7ca0e6586" y="296.30025"/>
      </g>
     </g>
     <g id="text_2">
      <!-- EPHA2 -->
      <defs>
       <path d="M 19.671875 64.796875 
L 19.671875 37.40625 
L 32.078125 37.40625 
Q 38.96875 37.40625 42.71875 40.96875 
Q 46.484375 44.53125 46.484375 51.125 
Q 46.484375 57.671875 42.71875 61.234375 
Q 38.96875 64.796875 32.078125 64.796875 
z
M 9.8125 72.90625 
L 32.078125 72.90625 
Q 44.34375 72.90625 50.609375 67.359375 
Q 56.890625 61.8125 56.890625 51.125 
Q 56.890625 40.328125 50.609375 34.8125 
Q 44.34375 29.296875 32.078125 29.296875 
L 19.671875 29.296875 
L 19.671875 0 
L 9.8125 0 
z
" id="DejaVuSans-80"/>
       <path d="M 9.8125 72.90625 
L 19.671875 72.90625 
L 19.671875 43.015625 
L 55.515625 43.015625 
L 55.515625 72.90625 
L 65.375 72.90625 
L 65.375 0 
L 55.515625 0 
L 55.515625 34.71875 
L 19.671875 34.71875 
L 19.671875 0 
L 9.8125 0 
z
" id="DejaVuSans-72"/>
       <path d="M 34.1875 63.1875 
L 20.796875 26.90625 
L 47.609375 26.90625 
z
M 28.609375 72.90625 
L 39.796875 72.90625 
L 67.578125 0 
L 57.328125 0 
L 50.6875 18.703125 
L 17.828125 18.703125 
L 11.1875 0 
L 0.78125 0 
z
" id="DejaVuSans-65"/>
       <path d="M 19.1875 8.296875 
L 53.609375 8.296875 
L 53.609375 0 
L 7.328125 0 
L 7.328125 8.296875 
Q 12.9375 14.109375 22.625 23.890625 
Q 32.328125 33.6875 34.8125 36.53125 
Q 39.546875 41.84375 41.421875 45.53125 
Q 43.3125 49.21875 43.3125 52.78125 
Q 43.3125 58.59375 39.234375 62.25 
Q 35.15625 65.921875 28.609375 65.921875 
Q 23.96875 65.921875 18.8125 64.3125 
Q 13.671875 62.703125 7.8125 59.421875 
L 7.8125 69.390625 
Q 13.765625 71.78125 18.9375 73 
Q 24.125 74.21875 28.421875 74.21875 
Q 39.75 74.21875 46.484375 68.546875 
Q 53.21875 62.890625 53.21875 53.421875 
Q 53.21875 48.921875 51.53125 44.890625 
Q 49.859375 40.875 45.40625 35.40625 
Q 44.1875 33.984375 37.640625 27.21875 
Q 31.109375 20.453125 19.1875 8.296875 
z
" id="DejaVuSans-50"/>
      </defs>
      <g transform="translate(809.505 300.099469)scale(0.1 -0.1)">
       <use xlink:href="#DejaVuSans-69"/>
       <use x="63.183594" xlink:href="#DejaVuSans-80"/>
       <use x="123.486328" xlink:href="#DejaVuSans-72"/>
       <use x="198.681641" xlink:href="#DejaVuSans-65"/>
       <use x="267.089844" xlink:href="#DejaVuSans-50"/>
      </g>
     </g>
    </g>
    <g id="ytick_3">
     <g id="line2d_3">
      <g>
       <use style="stroke:#000000;stroke-width:0.8;" x="802.505" xlink:href="#mb7ca0e6586" y="327.36375"/>
      </g>
     </g>
     <g id="text_3">
      <!-- PHLDA1 -->
      <defs>
       <path d="M 9.8125 72.90625 
L 19.671875 72.90625 
L 19.671875 8.296875 
L 55.171875 8.296875 
L 55.171875 0 
L 9.8125 0 
z
" id="DejaVuSans-76"/>
       <path d="M 19.671875 64.796875 
L 19.671875 8.109375 
L 31.59375 8.109375 
Q 46.6875 8.109375 53.6875 14.9375 
Q 60.6875 21.78125 60.6875 36.53125 
Q 60.6875 51.171875 53.6875 57.984375 
Q 46.6875 64.796875 31.59375 64.796875 
z
M 9.8125 72.90625 
L 30.078125 72.90625 
Q 51.265625 72.90625 61.171875 64.09375 
Q 71.09375 55.28125 71.09375 36.53125 
Q 71.09375 17.671875 61.125 8.828125 
Q 51.171875 0 30.078125 0 
L 9.8125 0 
z
" id="DejaVuSans-68"/>
       <path d="M 12.40625 8.296875 
L 28.515625 8.296875 
L 28.515625 63.921875 
L 10.984375 60.40625 
L 10.984375 69.390625 
L 28.421875 72.90625 
L 38.28125 72.90625 
L 38.28125 8.296875 
L 54.390625 8.296875 
L 54.390625 0 
L 12.40625 0 
z
" id="DejaVuSans-49"/>
      </defs>
      <g transform="translate(809.505 331.162969)scale(0.1 -0.1)">
       <use xlink:href="#DejaVuSans-80"/>
       <use x="60.302734" xlink:href="#DejaVuSans-72"/>
       <use x="135.498047" xlink:href="#DejaVuSans-76"/>
       <use x="191.210938" xlink:href="#DejaVuSans-68"/>
       <use x="268.197266" xlink:href="#DejaVuSans-65"/>
       <use x="336.605469" xlink:href="#DejaVuSans-49"/>
      </g>
     </g>
    </g>
    <g id="ytick_4">
     <g id="line2d_4">
      <g>
       <use style="stroke:#000000;stroke-width:0.8;" x="802.505" xlink:href="#mb7ca0e6586" y="358.42725"/>
      </g>
     </g>
     <g id="text_4">
      <!-- DUSP6 -->
      <defs>
       <path d="M 8.6875 72.90625 
L 18.609375 72.90625 
L 18.609375 28.609375 
Q 18.609375 16.890625 22.84375 11.734375 
Q 27.09375 6.59375 36.625 6.59375 
Q 46.09375 6.59375 50.34375 11.734375 
Q 54.59375 16.890625 54.59375 28.609375 
L 54.59375 72.90625 
L 64.5 72.90625 
L 64.5 27.390625 
Q 64.5 13.140625 57.4375 5.859375 
Q 50.390625 -1.421875 36.625 -1.421875 
Q 22.796875 -1.421875 15.734375 5.859375 
Q 8.6875 13.140625 8.6875 27.390625 
z
" id="DejaVuSans-85"/>
       <path d="M 53.515625 70.515625 
L 53.515625 60.890625 
Q 47.90625 63.578125 42.921875 64.890625 
Q 37.9375 66.21875 33.296875 66.21875 
Q 25.25 66.21875 20.875 63.09375 
Q 16.5 59.96875 16.5 54.203125 
Q 16.5 49.359375 19.40625 46.890625 
Q 22.3125 44.4375 30.421875 42.921875 
L 36.375 41.703125 
Q 47.40625 39.59375 52.65625 34.296875 
Q 57.90625 29 57.90625 20.125 
Q 57.90625 9.515625 50.796875 4.046875 
Q 43.703125 -1.421875 29.984375 -1.421875 
Q 24.8125 -1.421875 18.96875 -0.25 
Q 13.140625 0.921875 6.890625 3.21875 
L 6.890625 13.375 
Q 12.890625 10.015625 18.65625 8.296875 
Q 24.421875 6.59375 29.984375 6.59375 
Q 38.421875 6.59375 43.015625 9.90625 
Q 47.609375 13.234375 47.609375 19.390625 
Q 47.609375 24.75 44.3125 27.78125 
Q 41.015625 30.8125 33.5 32.328125 
L 27.484375 33.5 
Q 16.453125 35.6875 11.515625 40.375 
Q 6.59375 45.0625 6.59375 53.421875 
Q 6.59375 63.09375 13.40625 68.65625 
Q 20.21875 74.21875 32.171875 74.21875 
Q 37.3125 74.21875 42.625 73.28125 
Q 47.953125 72.359375 53.515625 70.515625 
z
" id="DejaVuSans-83"/>
       <path d="M 33.015625 40.375 
Q 26.375 40.375 22.484375 35.828125 
Q 18.609375 31.296875 18.609375 23.390625 
Q 18.609375 15.53125 22.484375 10.953125 
Q 26.375 6.390625 33.015625 6.390625 
Q 39.65625 6.390625 43.53125 10.953125 
Q 47.40625 15.53125 47.40625 23.390625 
Q 47.40625 31.296875 43.53125 35.828125 
Q 39.65625 40.375 33.015625 40.375 
z
M 52.59375 71.296875 
L 52.59375 62.3125 
Q 48.875 64.0625 45.09375 64.984375 
Q 41.3125 65.921875 37.59375 65.921875 
Q 27.828125 65.921875 22.671875 59.328125 
Q 17.53125 52.734375 16.796875 39.40625 
Q 19.671875 43.65625 24.015625 45.921875 
Q 28.375 48.1875 33.59375 48.1875 
Q 44.578125 48.1875 50.953125 41.515625 
Q 57.328125 34.859375 57.328125 23.390625 
Q 57.328125 12.15625 50.6875 5.359375 
Q 44.046875 -1.421875 33.015625 -1.421875 
Q 20.359375 -1.421875 13.671875 8.265625 
Q 6.984375 17.96875 6.984375 36.375 
Q 6.984375 53.65625 15.1875 63.9375 
Q 23.390625 74.21875 37.203125 74.21875 
Q 40.921875 74.21875 44.703125 73.484375 
Q 48.484375 72.75 52.59375 71.296875 
z
" id="DejaVuSans-54"/>
      </defs>
      <g transform="translate(809.505 362.226469)scale(0.1 -0.1)">
       <use xlink:href="#DejaVuSans-68"/>
       <use x="77.001953" xlink:href="#DejaVuSans-85"/>
       <use x="150.195312" xlink:href="#DejaVuSans-83"/>
       <use x="213.671875" xlink:href="#DejaVuSans-80"/>
       <use x="273.974609" xlink:href="#DejaVuSans-54"/>
      </g>
     </g>
    </g>
    <g id="ytick_5">
     <g id="line2d_5">
      <g>
       <use style="stroke:#000000;stroke-width:0.8;" x="802.505" xlink:href="#mb7ca0e6586" y="389.49075"/>
      </g>
     </g>
     <g id="text_5">
      <!-- SPRY4 -->
      <defs>
       <path d="M 44.390625 34.1875 
Q 47.5625 33.109375 50.5625 29.59375 
Q 53.5625 26.078125 56.59375 19.921875 
L 66.609375 0 
L 56 0 
L 46.6875 18.703125 
Q 43.0625 26.03125 39.671875 28.421875 
Q 36.28125 30.8125 30.421875 30.8125 
L 19.671875 30.8125 
L 19.671875 0 
L 9.8125 0 
L 9.8125 72.90625 
L 32.078125 72.90625 
Q 44.578125 72.90625 50.734375 67.671875 
Q 56.890625 62.453125 56.890625 51.90625 
Q 56.890625 45.015625 53.6875 40.46875 
Q 50.484375 35.9375 44.390625 34.1875 
z
M 19.671875 64.796875 
L 19.671875 38.921875 
L 32.078125 38.921875 
Q 39.203125 38.921875 42.84375 42.21875 
Q 46.484375 45.515625 46.484375 51.90625 
Q 46.484375 58.296875 42.84375 61.546875 
Q 39.203125 64.796875 32.078125 64.796875 
z
" id="DejaVuSans-82"/>
       <path d="M -0.203125 72.90625 
L 10.40625 72.90625 
L 30.609375 42.921875 
L 50.6875 72.90625 
L 61.28125 72.90625 
L 35.5 34.71875 
L 35.5 0 
L 25.59375 0 
L 25.59375 34.71875 
z
" id="DejaVuSans-89"/>
      </defs>
      <g transform="translate(809.505 393.289969)scale(0.1 -0.1)">
       <use xlink:href="#DejaVuSans-83"/>
       <use x="63.476562" xlink:href="#DejaVuSans-80"/>
       <use x="123.779297" xlink:href="#DejaVuSans-82"/>
       <use x="193.167969" xlink:href="#DejaVuSans-89"/>
       <use x="254.251953" xlink:href="#DejaVuSans-52"/>
      </g>
     </g>
    </g>
    <g id="ytick_6">
     <g id="line2d_6">
      <g>
       <use style="stroke:#000000;stroke-width:0.8;" x="802.505" xlink:href="#mb7ca0e6586" y="420.55425"/>
      </g>
     </g>
     <g id="text_6">
      <!-- DUSP4 -->
      <g transform="translate(809.505 424.353469)scale(0.1 -0.1)">
       <use xlink:href="#DejaVuSans-68"/>
       <use x="77.001953" xlink:href="#DejaVuSans-85"/>
       <use x="150.195312" xlink:href="#DejaVuSans-83"/>
       <use x="213.671875" xlink:href="#DejaVuSans-80"/>
       <use x="273.974609" xlink:href="#DejaVuSans-52"/>
      </g>
     </g>
    </g>
    <g id="ytick_7">
     <g id="line2d_7">
      <g>
       <use style="stroke:#000000;stroke-width:0.8;" x="802.505" xlink:href="#mb7ca0e6586" y="451.61775"/>
      </g>
     </g>
     <g id="text_7">
      <!-- EPHA4 -->
      <g transform="translate(809.505 455.416969)scale(0.1 -0.1)">
       <use xlink:href="#DejaVuSans-69"/>
       <use x="63.183594" xlink:href="#DejaVuSans-80"/>
       <use x="123.486328" xlink:href="#DejaVuSans-72"/>
       <use x="198.681641" xlink:href="#DejaVuSans-65"/>
       <use x="267.089844" xlink:href="#DejaVuSans-52"/>
      </g>
     </g>
    </g>
    <g id="ytick_8">
     <g id="line2d_8">
      <g>
       <use style="stroke:#000000;stroke-width:0.8;" x="802.505" xlink:href="#mb7ca0e6586" y="482.68125"/>
      </g>
     </g>
     <g id="text_8">
      <!-- ETV5 -->
      <defs>
       <path d="M 10.796875 72.90625 
L 49.515625 72.90625 
L 49.515625 64.59375 
L 19.828125 64.59375 
L 19.828125 46.734375 
Q 21.96875 47.46875 24.109375 47.828125 
Q 26.265625 48.1875 28.421875 48.1875 
Q 40.625 48.1875 47.75 41.5 
Q 54.890625 34.8125 54.890625 23.390625 
Q 54.890625 11.625 47.5625 5.09375 
Q 40.234375 -1.421875 26.90625 -1.421875 
Q 22.3125 -1.421875 17.546875 -0.640625 
Q 12.796875 0.140625 7.71875 1.703125 
L 7.71875 11.625 
Q 12.109375 9.234375 16.796875 8.0625 
Q 21.484375 6.890625 26.703125 6.890625 
Q 35.15625 6.890625 40.078125 11.328125 
Q 45.015625 15.765625 45.015625 23.390625 
Q 45.015625 31 40.078125 35.4375 
Q 35.15625 39.890625 26.703125 39.890625 
Q 22.75 39.890625 18.8125 39.015625 
Q 14.890625 38.140625 10.796875 36.28125 
z
" id="DejaVuSans-53"/>
      </defs>
      <g transform="translate(809.505 486.480469)scale(0.1 -0.1)">
       <use xlink:href="#DejaVuSans-69"/>
       <use x="63.183594" xlink:href="#DejaVuSans-84"/>
       <use x="124.267578" xlink:href="#DejaVuSans-86"/>
       <use x="192.675781" xlink:href="#DejaVuSans-53"/>
      </g>
     </g>
    </g>
    <g id="ytick_9">
     <g id="line2d_9">
      <g>
       <use style="stroke:#000000;stroke-width:0.8;" x="802.505" xlink:href="#mb7ca0e6586" y="513.74475"/>
      </g>
     </g>
     <g id="text_9">
      <!-- CCND1 -->
      <defs>
       <path d="M 64.40625 67.28125 
L 64.40625 56.890625 
Q 59.421875 61.53125 53.78125 63.8125 
Q 48.140625 66.109375 41.796875 66.109375 
Q 29.296875 66.109375 22.65625 58.46875 
Q 16.015625 50.828125 16.015625 36.375 
Q 16.015625 21.96875 22.65625 14.328125 
Q 29.296875 6.6875 41.796875 6.6875 
Q 48.140625 6.6875 53.78125 8.984375 
Q 59.421875 11.28125 64.40625 15.921875 
L 64.40625 5.609375 
Q 59.234375 2.09375 53.4375 0.328125 
Q 47.65625 -1.421875 41.21875 -1.421875 
Q 24.65625 -1.421875 15.125 8.703125 
Q 5.609375 18.84375 5.609375 36.375 
Q 5.609375 53.953125 15.125 64.078125 
Q 24.65625 74.21875 41.21875 74.21875 
Q 47.75 74.21875 53.53125 72.484375 
Q 59.328125 70.75 64.40625 67.28125 
z
" id="DejaVuSans-67"/>
       <path d="M 9.8125 72.90625 
L 23.09375 72.90625 
L 55.421875 11.921875 
L 55.421875 72.90625 
L 64.984375 72.90625 
L 64.984375 0 
L 51.703125 0 
L 19.390625 60.984375 
L 19.390625 0 
L 9.8125 0 
z
" id="DejaVuSans-78"/>
      </defs>
      <g transform="translate(809.505 517.543969)scale(0.1 -0.1)">
       <use xlink:href="#DejaVuSans-67"/>
       <use x="69.824219" xlink:href="#DejaVuSans-67"/>
       <use x="139.648438" xlink:href="#DejaVuSans-78"/>
       <use x="214.453125" xlink:href="#DejaVuSans-68"/>
       <use x="291.455078" xlink:href="#DejaVuSans-49"/>
      </g>
     </g>
    </g>
    <g id="ytick_10">
     <g id="line2d_10">
      <g>
       <use style="stroke:#000000;stroke-width:0.8;" x="802.505" xlink:href="#mb7ca0e6586" y="544.80825"/>
      </g>
     </g>
     <g id="text_10">
      <!-- SPRY2 -->
      <g transform="translate(809.505 548.607469)scale(0.1 -0.1)">
       <use xlink:href="#DejaVuSans-83"/>
       <use x="63.476562" xlink:href="#DejaVuSans-80"/>
       <use x="123.779297" xlink:href="#DejaVuSans-82"/>
       <use x="193.167969" xlink:href="#DejaVuSans-89"/>
       <use x="254.251953" xlink:href="#DejaVuSans-50"/>
      </g>
     </g>
    </g>
   </g>
  </g>
 </g>
 <defs>
  <clipPath id="pc976ee3735">
   <rect height="310.635" width="153.733" x="7.2" y="249.705"/>
  </clipPath>
  <clipPath id="p2b9c2f2dfb">
   <rect height="105.3" width="591.87205" x="210.63295" y="7.2"/>
  </clipPath>
  <clipPath id="pe5a5960e86">
   <rect height="310.635" width="23.05995" x="174.253" y="249.705"/>
  </clipPath>
  <clipPath id="p958b5fd8b0">
   <rect height="110.565" width="591.87205" x="210.63295" y="125.82"/>
  </clipPath>
  <clipPath id="p87a8d73096">
   <rect height="310.635" width="591.87205" x="210.63295" y="249.705"/>
  </clipPath>
 </defs>
</svg>
