<?xml version="1.0" encoding="utf-8" standalone="no"?>
<!DOCTYPE svg PUBLIC "-//W3C//DTD SVG 1.1//EN"
  "http://www.w3.org/Graphics/SVG/1.1/DTD/svg11.dtd">
<!-- Created with matplotlib (https://matplotlib.org/) -->
<svg height="571.04pt" version="1.1" viewBox="0 0 856.728438 571.04" width="856.728438pt" xmlns="http://www.w3.org/2000/svg" xmlns:xlink="http://www.w3.org/1999/xlink">
 <defs>
  <style type="text/css">
*{stroke-linecap:butt;stroke-linejoin:round;}
  </style>
 </defs>
 <g id="figure_1">
  <g id="patch_1">
   <path d="M 0 571.04 
L 856.728438 571.04 
L 856.728438 0 
L 0 0 
z
" style="fill:#ffffff;"/>
  </g>
  <g id="axes_1">
   <g id="LineCollection_1">
    <path clip-path="url(#p1fe484d4c4)" d="M 160.933 270.884659 
L 134.380281 270.884659 
L 134.380281 285.004432 
L 160.933 285.004432 
" style="fill:none;stroke:#333333;stroke-width:0.5;"/>
    <path clip-path="url(#p1fe484d4c4)" d="M 160.933 256.764886 
L 132.132042 256.764886 
L 132.132042 277.944545 
L 134.380281 277.944545 
" style="fill:none;stroke:#333333;stroke-width:0.5;"/>
    <path clip-path="url(#p1fe484d4c4)" d="M 160.933 313.243977 
L 149.743868 313.243977 
L 149.743868 327.36375 
L 160.933 327.36375 
" style="fill:none;stroke:#333333;stroke-width:0.5;"/>
    <path clip-path="url(#p1fe484d4c4)" d="M 160.933 299.124205 
L 139.80391 299.124205 
L 139.80391 320.303864 
L 149.743868 320.303864 
" style="fill:none;stroke:#333333;stroke-width:0.5;"/>
    <path clip-path="url(#p1fe484d4c4)" d="M 160.933 341.483523 
L 133.820204 341.483523 
L 133.820204 355.603295 
L 160.933 355.603295 
" style="fill:none;stroke:#333333;stroke-width:0.5;"/>
    <path clip-path="url(#p1fe484d4c4)" d="M 139.80391 309.714034 
L 120.94815 309.714034 
L 120.94815 348.543409 
L 133.820204 348.543409 
" style="fill:none;stroke:#333333;stroke-width:0.5;"/>
    <path clip-path="url(#p1fe484d4c4)" d="M 132.132042 267.354716 
L 117.946394 267.354716 
L 117.946394 329.128722 
L 120.94815 329.128722 
" style="fill:none;stroke:#333333;stroke-width:0.5;"/>
    <path clip-path="url(#p1fe484d4c4)" d="M 160.933 397.962614 
L 147.195998 397.962614 
L 147.195998 412.082386 
L 160.933 412.082386 
" style="fill:none;stroke:#333333;stroke-width:0.5;"/>
    <path clip-path="url(#p1fe484d4c4)" d="M 160.933 383.842841 
L 143.61901 383.842841 
L 143.61901 405.0225 
L 147.195998 405.0225 
" style="fill:none;stroke:#333333;stroke-width:0.5;"/>
    <path clip-path="url(#p1fe484d4c4)" d="M 160.933 369.723068 
L 137.710425 369.723068 
L 137.710425 394.43267 
L 143.61901 394.43267 
" style="fill:none;stroke:#333333;stroke-width:0.5;"/>
    <path clip-path="url(#p1fe484d4c4)" d="M 160.933 426.202159 
L 150.327339 426.202159 
L 150.327339 440.321932 
L 160.933 440.321932 
" style="fill:none;stroke:#333333;stroke-width:0.5;"/>
    <path clip-path="url(#p1fe484d4c4)" d="M 160.933 454.441705 
L 147.225849 454.441705 
L 147.225849 468.561477 
L 160.933 468.561477 
" style="fill:none;stroke:#333333;stroke-width:0.5;"/>
    <path clip-path="url(#p1fe484d4c4)" d="M 150.327339 433.262045 
L 134.832889 433.262045 
L 134.832889 461.501591 
L 147.225849 461.501591 
" style="fill:none;stroke:#333333;stroke-width:0.5;"/>
    <path clip-path="url(#p1fe484d4c4)" d="M 137.710425 382.077869 
L 117.802436 382.077869 
L 117.802436 447.381818 
L 134.832889 447.381818 
" style="fill:none;stroke:#333333;stroke-width:0.5;"/>
    <path clip-path="url(#p1fe484d4c4)" d="M 117.946394 298.241719 
L 100.717379 298.241719 
L 100.717379 414.729844 
L 117.802436 414.729844 
" style="fill:none;stroke:#333333;stroke-width:0.5;"/>
    <path clip-path="url(#p1fe484d4c4)" d="M 160.933 496.801023 
L 140.530261 496.801023 
L 140.530261 510.920795 
L 160.933 510.920795 
" style="fill:none;stroke:#333333;stroke-width:0.5;"/>
    <path clip-path="url(#p1fe484d4c4)" d="M 160.933 539.160341 
L 143.421052 539.160341 
L 143.421052 553.280114 
L 160.933 553.280114 
" style="fill:none;stroke:#333333;stroke-width:0.5;"/>
    <path clip-path="url(#p1fe484d4c4)" d="M 160.933 525.040568 
L 133.203149 525.040568 
L 133.203149 546.220227 
L 143.421052 546.220227 
" style="fill:none;stroke:#333333;stroke-width:0.5;"/>
    <path clip-path="url(#p1fe484d4c4)" d="M 140.530261 503.860909 
L 128.345458 503.860909 
L 128.345458 535.630398 
L 133.203149 535.630398 
" style="fill:none;stroke:#333333;stroke-width:0.5;"/>
    <path clip-path="url(#p1fe484d4c4)" d="M 160.933 482.68125 
L 94.880816 482.68125 
L 94.880816 519.745653 
L 128.345458 519.745653 
" style="fill:none;stroke:#333333;stroke-width:0.5;"/>
    <path clip-path="url(#p1fe484d4c4)" d="M 100.717379 356.485781 
L 14.520619 356.485781 
L 14.520619 501.213452 
L 94.880816 501.213452 
" style="fill:none;stroke:#333333;stroke-width:0.5;"/>
   </g>
  </g>
  <g id="axes_2">
   <g id="LineCollection_2">
    <path clip-path="url(#pe766a9ae55)" d="M 358.600963 112.5 
L 358.600963 71.374953 
L 457.246304 71.374953 
L 457.246304 112.5 
" style="fill:none;stroke:#333333;stroke-width:0.5;"/>
    <path clip-path="url(#pe766a9ae55)" d="M 259.955621 112.5 
L 259.955621 54.686442 
L 407.923633 54.686442 
L 407.923633 71.374953 
" style="fill:none;stroke:#333333;stroke-width:0.5;"/>
    <path clip-path="url(#pe766a9ae55)" d="M 654.536988 112.5 
L 654.536988 53.889531 
L 753.182329 53.889531 
L 753.182329 112.5 
" style="fill:none;stroke:#333333;stroke-width:0.5;"/>
    <path clip-path="url(#pe766a9ae55)" d="M 555.891646 112.5 
L 555.891646 41.946563 
L 703.859658 41.946563 
L 703.859658 53.889531 
" style="fill:none;stroke:#333333;stroke-width:0.5;"/>
    <path clip-path="url(#pe766a9ae55)" d="M 333.939627 54.686442 
L 333.939627 12.214286 
L 629.875652 12.214286 
L 629.875652 41.946563 
" style="fill:none;stroke:#333333;stroke-width:0.5;"/>
   </g>
  </g>
  <g id="axes_3">
   <g id="patch_2">
    <path d="M 174.253 560.34 
L 197.31295 560.34 
L 197.31295 249.705 
L 174.253 249.705 
z
" style="fill:#ffffff;"/>
   </g>
   <g id="QuadMesh_1">
    <path clip-path="url(#p6aafb395fb)" d="M 174.253 249.705 
L 197.31295 249.705 
L 197.31295 263.824773 
L 174.253 263.824773 
L 174.253 249.705 
"/>
    <path clip-path="url(#p6aafb395fb)" d="M 174.253 263.824773 
L 197.31295 263.824773 
L 197.31295 277.944545 
L 174.253 277.944545 
L 174.253 263.824773 
"/>
    <path clip-path="url(#p6aafb395fb)" d="M 174.253 277.944545 
L 197.31295 277.944545 
L 197.31295 292.064318 
L 174.253 292.064318 
L 174.253 277.944545 
"/>
    <path clip-path="url(#p6aafb395fb)" d="M 174.253 292.064318 
L 197.31295 292.064318 
L 197.31295 306.184091 
L 174.253 306.184091 
L 174.253 292.064318 
" style="fill:#6495ed;"/>
    <path clip-path="url(#p6aafb395fb)" d="M 174.253 306.184091 
L 197.31295 306.184091 
L 197.31295 320.303864 
L 174.253 320.303864 
L 174.253 306.184091 
"/>
    <path clip-path="url(#p6aafb395fb)" d="M 174.253 320.303864 
L 197.31295 320.303864 
L 197.31295 334.423636 
L 174.253 334.423636 
L 174.253 320.303864 
" style="fill:#800080;"/>
    <path clip-path="url(#p6aafb395fb)" d="M 174.253 334.423636 
L 197.31295 334.423636 
L 197.31295 348.543409 
L 174.253 348.543409 
L 174.253 334.423636 
"/>
    <path clip-path="url(#p6aafb395fb)" d="M 174.253 348.543409 
L 197.31295 348.543409 
L 197.31295 362.663182 
L 174.253 362.663182 
L 174.253 348.543409 
"/>
    <path clip-path="url(#p6aafb395fb)" d="M 174.253 362.663182 
L 197.31295 362.663182 
L 197.31295 376.782955 
L 174.253 376.782955 
L 174.253 362.663182 
" style="fill:#dc143c;"/>
    <path clip-path="url(#p6aafb395fb)" d="M 174.253 376.782955 
L 197.31295 376.782955 
L 197.31295 390.902727 
L 174.253 390.902727 
L 174.253 376.782955 
" style="fill:#6a5acd;"/>
    <path clip-path="url(#p6aafb395fb)" d="M 174.253 390.902727 
L 197.31295 390.902727 
L 197.31295 405.0225 
L 174.253 405.0225 
L 174.253 390.902727 
" style="fill:#6a5acd;"/>
    <path clip-path="url(#p6aafb395fb)" d="M 174.253 405.0225 
L 197.31295 405.0225 
L 197.31295 419.142273 
L 174.253 419.142273 
L 174.253 405.0225 
"/>
    <path clip-path="url(#p6aafb395fb)" d="M 174.253 419.142273 
L 197.31295 419.142273 
L 197.31295 433.262045 
L 174.253 433.262045 
L 174.253 419.142273 
"/>
    <path clip-path="url(#p6aafb395fb)" d="M 174.253 433.262045 
L 197.31295 433.262045 
L 197.31295 447.381818 
L 174.253 447.381818 
L 174.253 433.262045 
" style="fill:#800080;"/>
    <path clip-path="url(#p6aafb395fb)" d="M 174.253 447.381818 
L 197.31295 447.381818 
L 197.31295 461.501591 
L 174.253 461.501591 
L 174.253 447.381818 
"/>
    <path clip-path="url(#p6aafb395fb)" d="M 174.253 461.501591 
L 197.31295 461.501591 
L 197.31295 475.621364 
L 174.253 475.621364 
L 174.253 461.501591 
" style="fill:#800080;"/>
    <path clip-path="url(#p6aafb395fb)" d="M 174.253 475.621364 
L 197.31295 475.621364 
L 197.31295 489.741136 
L 174.253 489.741136 
L 174.253 475.621364 
" style="fill:#dda0dd;"/>
    <path clip-path="url(#p6aafb395fb)" d="M 174.253 489.741136 
L 197.31295 489.741136 
L 197.31295 503.860909 
L 174.253 503.860909 
L 174.253 489.741136 
"/>
    <path clip-path="url(#p6aafb395fb)" d="M 174.253 503.860909 
L 197.31295 503.860909 
L 197.31295 517.980682 
L 174.253 517.980682 
L 174.253 503.860909 
" style="fill:#6495ed;"/>
    <path clip-path="url(#p6aafb395fb)" d="M 174.253 517.980682 
L 197.31295 517.980682 
L 197.31295 532.100455 
L 174.253 532.100455 
L 174.253 517.980682 
" style="fill:#6495ed;"/>
    <path clip-path="url(#p6aafb395fb)" d="M 174.253 532.100455 
L 197.31295 532.100455 
L 197.31295 546.220227 
L 174.253 546.220227 
L 174.253 532.100455 
" style="fill:#6495ed;"/>
    <path clip-path="url(#p6aafb395fb)" d="M 174.253 546.220227 
L 197.31295 546.220227 
L 197.31295 560.34 
L 174.253 560.34 
L 174.253 546.220227 
" style="fill:#6495ed;"/>
   </g>
   <g id="matplotlib.axis_1"/>
   <g id="matplotlib.axis_2"/>
  </g>
  <g id="axes_4">
   <g id="patch_3">
    <path d="M 210.63295 236.385 
L 802.505 236.385 
L 802.505 125.82 
L 210.63295 125.82 
z
" style="fill:#ffffff;"/>
   </g>
   <g id="QuadMesh_2">
    <path clip-path="url(#pf1afbb45fa)" d="M 210.63295 125.82 
L 309.278292 125.82 
L 309.278292 141.615 
L 210.63295 141.615 
L 210.63295 125.82 
" style="fill:#1c7e40;"/>
    <path clip-path="url(#pf1afbb45fa)" d="M 309.278292 125.82 
L 407.923633 125.82 
L 407.923633 141.615 
L 309.278292 141.615 
L 309.278292 125.82 
" style="fill:#238443;"/>
    <path clip-path="url(#pf1afbb45fa)" d="M 407.923633 125.82 
L 506.568975 125.82 
L 506.568975 141.615 
L 407.923633 141.615 
L 407.923633 125.82 
" style="fill:#339951;"/>
    <path clip-path="url(#pf1afbb45fa)" d="M 506.568975 125.82 
L 605.214317 125.82 
L 605.214317 141.615 
L 506.568975 141.615 
L 506.568975 125.82 
" style="fill:#13773d;"/>
    <path clip-path="url(#pf1afbb45fa)" d="M 605.214317 125.82 
L 703.859658 125.82 
L 703.859658 141.615 
L 605.214317 141.615 
L 605.214317 125.82 
" style="fill:#329850;"/>
    <path clip-path="url(#pf1afbb45fa)" d="M 703.859658 125.82 
L 802.505 125.82 
L 802.505 141.615 
L 703.859658 141.615 
L 703.859658 125.82 
" style="fill:#2e924c;"/>
    <path clip-path="url(#pf1afbb45fa)" d="M 210.63295 141.615 
L 309.278292 141.615 
L 309.278292 157.41 
L 210.63295 157.41 
L 210.63295 141.615 
" style="fill:#f0edf2;"/>
    <path clip-path="url(#pf1afbb45fa)" d="M 309.278292 141.615 
L 407.923633 141.615 
L 407.923633 157.41 
L 309.278292 157.41 
L 309.278292 141.615 
" style="fill:#f0edf2;"/>
    <path clip-path="url(#pf1afbb45fa)" d="M 407.923633 141.615 
L 506.568975 141.615 
L 506.568975 157.41 
L 407.923633 157.41 
L 407.923633 141.615 
" style="fill:#f0edf2;"/>
    <path clip-path="url(#pf1afbb45fa)" d="M 506.568975 141.615 
L 605.214317 141.615 
L 605.214317 157.41 
L 506.568975 157.41 
L 506.568975 141.615 
" style="fill:#f0edf2;"/>
    <path clip-path="url(#pf1afbb45fa)" d="M 605.214317 141.615 
L 703.859658 141.615 
L 703.859658 157.41 
L 605.214317 157.41 
L 605.214317 141.615 
" style="fill:#f0edf2;"/>
    <path clip-path="url(#pf1afbb45fa)" d="M 703.859658 141.615 
L 802.505 141.615 
L 802.505 157.41 
L 703.859658 157.41 
L 703.859658 141.615 
" style="fill:#f0edf2;"/>
    <path clip-path="url(#pf1afbb45fa)" d="M 210.63295 157.41 
L 309.278292 157.41 
L 309.278292 173.205 
L 210.63295 173.205 
L 210.63295 157.41 
" style="fill:#ffa500;"/>
    <path clip-path="url(#pf1afbb45fa)" d="M 309.278292 157.41 
L 407.923633 157.41 
L 407.923633 173.205 
L 309.278292 173.205 
L 309.278292 157.41 
" style="fill:#ffa500;"/>
    <path clip-path="url(#pf1afbb45fa)" d="M 407.923633 157.41 
L 506.568975 157.41 
L 506.568975 173.205 
L 407.923633 173.205 
L 407.923633 157.41 
" style="fill:#ffa500;"/>
    <path clip-path="url(#pf1afbb45fa)" d="M 506.568975 157.41 
L 605.214317 157.41 
L 605.214317 173.205 
L 506.568975 173.205 
L 506.568975 157.41 
" style="fill:#ffa500;"/>
    <path clip-path="url(#pf1afbb45fa)" d="M 605.214317 157.41 
L 703.859658 157.41 
L 703.859658 173.205 
L 605.214317 173.205 
L 605.214317 157.41 
" style="fill:#ffa500;"/>
    <path clip-path="url(#pf1afbb45fa)" d="M 703.859658 157.41 
L 802.505 157.41 
L 802.505 173.205 
L 703.859658 173.205 
L 703.859658 157.41 
" style="fill:#ffa500;"/>
    <path clip-path="url(#pf1afbb45fa)" d="M 210.63295 173.205 
L 309.278292 173.205 
L 309.278292 189 
L 210.63295 189 
L 210.63295 173.205 
" style="fill:#ffd700;"/>
    <path clip-path="url(#pf1afbb45fa)" d="M 309.278292 173.205 
L 407.923633 173.205 
L 407.923633 189 
L 309.278292 189 
L 309.278292 173.205 
" style="fill:#ffd700;"/>
    <path clip-path="url(#pf1afbb45fa)" d="M 407.923633 173.205 
L 506.568975 173.205 
L 506.568975 189 
L 407.923633 189 
L 407.923633 173.205 
" style="fill:#ffd700;"/>
    <path clip-path="url(#pf1afbb45fa)" d="M 506.568975 173.205 
L 605.214317 173.205 
L 605.214317 189 
L 506.568975 189 
L 506.568975 173.205 
" style="fill:#ffd700;"/>
    <path clip-path="url(#pf1afbb45fa)" d="M 605.214317 173.205 
L 703.859658 173.205 
L 703.859658 189 
L 605.214317 189 
L 605.214317 173.205 
" style="fill:#ffd700;"/>
    <path clip-path="url(#pf1afbb45fa)" d="M 703.859658 173.205 
L 802.505 173.205 
L 802.505 189 
L 703.859658 189 
L 703.859658 173.205 
" style="fill:#ffd700;"/>
    <path clip-path="url(#pf1afbb45fa)" d="M 210.63295 189 
L 309.278292 189 
L 309.278292 204.795 
L 210.63295 204.795 
L 210.63295 189 
"/>
    <path clip-path="url(#pf1afbb45fa)" d="M 309.278292 189 
L 407.923633 189 
L 407.923633 204.795 
L 309.278292 204.795 
L 309.278292 189 
"/>
    <path clip-path="url(#pf1afbb45fa)" d="M 407.923633 189 
L 506.568975 189 
L 506.568975 204.795 
L 407.923633 204.795 
L 407.923633 189 
"/>
    <path clip-path="url(#pf1afbb45fa)" d="M 506.568975 189 
L 605.214317 189 
L 605.214317 204.795 
L 506.568975 204.795 
L 506.568975 189 
"/>
    <path clip-path="url(#pf1afbb45fa)" d="M 605.214317 189 
L 703.859658 189 
L 703.859658 204.795 
L 605.214317 204.795 
L 605.214317 189 
"/>
    <path clip-path="url(#pf1afbb45fa)" d="M 703.859658 189 
L 802.505 189 
L 802.505 204.795 
L 703.859658 204.795 
L 703.859658 189 
"/>
    <path clip-path="url(#pf1afbb45fa)" d="M 210.63295 204.795 
L 309.278292 204.795 
L 309.278292 220.59 
L 210.63295 220.59 
L 210.63295 204.795 
" style="fill:#f0edf2;"/>
    <path clip-path="url(#pf1afbb45fa)" d="M 309.278292 204.795 
L 407.923633 204.795 
L 407.923633 220.59 
L 309.278292 220.59 
L 309.278292 204.795 
" style="fill:#f0edf2;"/>
    <path clip-path="url(#pf1afbb45fa)" d="M 407.923633 204.795 
L 506.568975 204.795 
L 506.568975 220.59 
L 407.923633 220.59 
L 407.923633 204.795 
" style="fill:#f0edf2;"/>
    <path clip-path="url(#pf1afbb45fa)" d="M 506.568975 204.795 
L 605.214317 204.795 
L 605.214317 220.59 
L 506.568975 220.59 
L 506.568975 204.795 
" style="fill:#f0edf2;"/>
    <path clip-path="url(#pf1afbb45fa)" d="M 605.214317 204.795 
L 703.859658 204.795 
L 703.859658 220.59 
L 605.214317 220.59 
L 605.214317 204.795 
" style="fill:#808080;"/>
    <path clip-path="url(#pf1afbb45fa)" d="M 703.859658 204.795 
L 802.505 204.795 
L 802.505 220.59 
L 703.859658 220.59 
L 703.859658 204.795 
" style="fill:#f0edf2;"/>
    <path clip-path="url(#pf1afbb45fa)" d="M 210.63295 220.59 
L 309.278292 220.59 
L 309.278292 236.385 
L 210.63295 236.385 
L 210.63295 220.59 
" style="fill:#8b0000;"/>
    <path clip-path="url(#pf1afbb45fa)" d="M 309.278292 220.59 
L 407.923633 220.59 
L 407.923633 236.385 
L 309.278292 236.385 
L 309.278292 220.59 
" style="fill:#8b0000;"/>
    <path clip-path="url(#pf1afbb45fa)" d="M 407.923633 220.59 
L 506.568975 220.59 
L 506.568975 236.385 
L 407.923633 236.385 
L 407.923633 220.59 
" style="fill:#8b0000;"/>
    <path clip-path="url(#pf1afbb45fa)" d="M 506.568975 220.59 
L 605.214317 220.59 
L 605.214317 236.385 
L 506.568975 236.385 
L 506.568975 220.59 
" style="fill:#8b0000;"/>
    <path clip-path="url(#pf1afbb45fa)" d="M 605.214317 220.59 
L 703.859658 220.59 
L 703.859658 236.385 
L 605.214317 236.385 
L 605.214317 220.59 
" style="fill:#8b0000;"/>
    <path clip-path="url(#pf1afbb45fa)" d="M 703.859658 220.59 
L 802.505 220.59 
L 802.505 236.385 
L 703.859658 236.385 
L 703.859658 220.59 
" style="fill:#8b0000;"/>
   </g>
   <g id="matplotlib.axis_3"/>
   <g id="matplotlib.axis_4"/>
  </g>
  <g id="axes_5">
   <g id="patch_4">
    <path d="M 210.63295 560.34 
L 802.505 560.34 
L 802.505 249.705 
L 210.63295 249.705 
z
" style="fill:#ffffff;"/>
   </g>
   <g id="QuadMesh_3">
    <path clip-path="url(#pe2dc9c4347)" d="M 210.63295 249.705 
L 309.278292 249.705 
L 309.278292 263.824773 
L 210.63295 263.824773 
L 210.63295 249.705 
" style="fill:#9a9aff;"/>
    <path clip-path="url(#pe2dc9c4347)" d="M 309.278292 249.705 
L 407.923633 249.705 
L 407.923633 263.824773 
L 309.278292 263.824773 
L 309.278292 249.705 
" style="fill:#d2d2ff;"/>
    <path clip-path="url(#pe2dc9c4347)" d="M 407.923633 249.705 
L 506.568975 249.705 
L 506.568975 263.824773 
L 407.923633 263.824773 
L 407.923633 249.705 
" style="fill:#ffc8c8;"/>
    <path clip-path="url(#pe2dc9c4347)" d="M 506.568975 249.705 
L 605.214317 249.705 
L 605.214317 263.824773 
L 506.568975 263.824773 
L 506.568975 249.705 
" style="fill:#ffd8d8;"/>
    <path clip-path="url(#pe2dc9c4347)" d="M 605.214317 249.705 
L 703.859658 249.705 
L 703.859658 263.824773 
L 605.214317 263.824773 
L 605.214317 249.705 
" style="fill:#e0e0ff;"/>
    <path clip-path="url(#pe2dc9c4347)" d="M 703.859658 249.705 
L 802.505 249.705 
L 802.505 263.824773 
L 703.859658 263.824773 
L 703.859658 249.705 
" style="fill:#ffe0e0;"/>
    <path clip-path="url(#pe2dc9c4347)" d="M 210.63295 263.824773 
L 309.278292 263.824773 
L 309.278292 277.944545 
L 210.63295 277.944545 
L 210.63295 263.824773 
" style="fill:#9a9aff;"/>
    <path clip-path="url(#pe2dc9c4347)" d="M 309.278292 263.824773 
L 407.923633 263.824773 
L 407.923633 277.944545 
L 309.278292 277.944545 
L 309.278292 263.824773 
" style="fill:#ffe2e2;"/>
    <path clip-path="url(#pe2dc9c4347)" d="M 407.923633 263.824773 
L 506.568975 263.824773 
L 506.568975 277.944545 
L 407.923633 277.944545 
L 407.923633 263.824773 
" style="fill:#c6c6ff;"/>
    <path clip-path="url(#pe2dc9c4347)" d="M 506.568975 263.824773 
L 605.214317 263.824773 
L 605.214317 277.944545 
L 506.568975 277.944545 
L 506.568975 263.824773 
" style="fill:#ff9696;"/>
    <path clip-path="url(#pe2dc9c4347)" d="M 605.214317 263.824773 
L 703.859658 263.824773 
L 703.859658 277.944545 
L 605.214317 277.944545 
L 605.214317 263.824773 
" style="fill:#ffeaea;"/>
    <path clip-path="url(#pe2dc9c4347)" d="M 703.859658 263.824773 
L 802.505 263.824773 
L 802.505 277.944545 
L 703.859658 277.944545 
L 703.859658 263.824773 
" style="fill:#ffe4e4;"/>
    <path clip-path="url(#pe2dc9c4347)" d="M 210.63295 277.944545 
L 309.278292 277.944545 
L 309.278292 292.064318 
L 210.63295 292.064318 
L 210.63295 277.944545 
" style="fill:#9e9eff;"/>
    <path clip-path="url(#pe2dc9c4347)" d="M 309.278292 277.944545 
L 407.923633 277.944545 
L 407.923633 292.064318 
L 309.278292 292.064318 
L 309.278292 277.944545 
" style="fill:#ffdcdc;"/>
    <path clip-path="url(#pe2dc9c4347)" d="M 407.923633 277.944545 
L 506.568975 277.944545 
L 506.568975 292.064318 
L 407.923633 292.064318 
L 407.923633 277.944545 
" style="fill:#ffd6d6;"/>
    <path clip-path="url(#pe2dc9c4347)" d="M 506.568975 277.944545 
L 605.214317 277.944545 
L 605.214317 292.064318 
L 506.568975 292.064318 
L 506.568975 277.944545 
" style="fill:#ffaaaa;"/>
    <path clip-path="url(#pe2dc9c4347)" d="M 605.214317 277.944545 
L 703.859658 277.944545 
L 703.859658 292.064318 
L 605.214317 292.064318 
L 605.214317 277.944545 
" style="fill:#ffdcdc;"/>
    <path clip-path="url(#pe2dc9c4347)" d="M 703.859658 277.944545 
L 802.505 277.944545 
L 802.505 292.064318 
L 703.859658 292.064318 
L 703.859658 277.944545 
" style="fill:#aaaaff;"/>
    <path clip-path="url(#pe2dc9c4347)" d="M 210.63295 292.064318 
L 309.278292 292.064318 
L 309.278292 306.184091 
L 210.63295 306.184091 
L 210.63295 292.064318 
" style="fill:#d2d2ff;"/>
    <path clip-path="url(#pe2dc9c4347)" d="M 309.278292 292.064318 
L 407.923633 292.064318 
L 407.923633 306.184091 
L 309.278292 306.184091 
L 309.278292 292.064318 
" style="fill:#d2d2ff;"/>
    <path clip-path="url(#pe2dc9c4347)" d="M 407.923633 292.064318 
L 506.568975 292.064318 
L 506.568975 306.184091 
L 407.923633 306.184091 
L 407.923633 292.064318 
" style="fill:#d2d2ff;"/>
    <path clip-path="url(#pe2dc9c4347)" d="M 506.568975 292.064318 
L 605.214317 292.064318 
L 605.214317 306.184091 
L 506.568975 306.184091 
L 506.568975 292.064318 
" style="fill:#dedeff;"/>
    <path clip-path="url(#pe2dc9c4347)" d="M 605.214317 292.064318 
L 703.859658 292.064318 
L 703.859658 306.184091 
L 605.214317 306.184091 
L 605.214317 292.064318 
" style="fill:#ececff;"/>
    <path clip-path="url(#pe2dc9c4347)" d="M 703.859658 292.064318 
L 802.505 292.064318 
L 802.505 306.184091 
L 703.859658 306.184091 
L 703.859658 292.064318 
" style="fill:#dadaff;"/>
    <path clip-path="url(#pe2dc9c4347)" d="M 210.63295 306.184091 
L 309.278292 306.184091 
L 309.278292 320.303864 
L 210.63295 320.303864 
L 210.63295 306.184091 
" style="fill:#ffecec;"/>
    <path clip-path="url(#pe2dc9c4347)" d="M 309.278292 306.184091 
L 407.923633 306.184091 
L 407.923633 320.303864 
L 309.278292 320.303864 
L 309.278292 306.184091 
" style="fill:#ffdada;"/>
    <path clip-path="url(#pe2dc9c4347)" d="M 407.923633 306.184091 
L 506.568975 306.184091 
L 506.568975 320.303864 
L 407.923633 320.303864 
L 407.923633 306.184091 
" style="fill:#e6e6ff;"/>
    <path clip-path="url(#pe2dc9c4347)" d="M 506.568975 306.184091 
L 605.214317 306.184091 
L 605.214317 320.303864 
L 506.568975 320.303864 
L 506.568975 306.184091 
" style="fill:#ffe8e8;"/>
    <path clip-path="url(#pe2dc9c4347)" d="M 605.214317 306.184091 
L 703.859658 306.184091 
L 703.859658 320.303864 
L 605.214317 320.303864 
L 605.214317 306.184091 
" style="fill:#fafaff;"/>
    <path clip-path="url(#pe2dc9c4347)" d="M 703.859658 306.184091 
L 802.505 306.184091 
L 802.505 320.303864 
L 703.859658 320.303864 
L 703.859658 306.184091 
" style="fill:#fff8f8;"/>
    <path clip-path="url(#pe2dc9c4347)" d="M 210.63295 320.303864 
L 309.278292 320.303864 
L 309.278292 334.423636 
L 210.63295 334.423636 
L 210.63295 320.303864 
" style="fill:#f8f8ff;"/>
    <path clip-path="url(#pe2dc9c4347)" d="M 309.278292 320.303864 
L 407.923633 320.303864 
L 407.923633 334.423636 
L 309.278292 334.423636 
L 309.278292 320.303864 
" style="fill:#fcfcff;"/>
    <path clip-path="url(#pe2dc9c4347)" d="M 407.923633 320.303864 
L 506.568975 320.303864 
L 506.568975 334.423636 
L 407.923633 334.423636 
L 407.923633 320.303864 
" style="fill:#e4e4ff;"/>
    <path clip-path="url(#pe2dc9c4347)" d="M 506.568975 320.303864 
L 605.214317 320.303864 
L 605.214317 334.423636 
L 506.568975 334.423636 
L 506.568975 320.303864 
" style="fill:#eeeeff;"/>
    <path clip-path="url(#pe2dc9c4347)" d="M 605.214317 320.303864 
L 703.859658 320.303864 
L 703.859658 334.423636 
L 605.214317 334.423636 
L 605.214317 320.303864 
" style="fill:#fff8f8;"/>
    <path clip-path="url(#pe2dc9c4347)" d="M 703.859658 320.303864 
L 802.505 320.303864 
L 802.505 334.423636 
L 703.859658 334.423636 
L 703.859658 320.303864 
" style="fill:#ffeeee;"/>
    <path clip-path="url(#pe2dc9c4347)" d="M 210.63295 334.423636 
L 309.278292 334.423636 
L 309.278292 348.543409 
L 210.63295 348.543409 
L 210.63295 334.423636 
" style="fill:#ffcece;"/>
    <path clip-path="url(#pe2dc9c4347)" d="M 309.278292 334.423636 
L 407.923633 334.423636 
L 407.923633 348.543409 
L 309.278292 348.543409 
L 309.278292 334.423636 
" style="fill:#ff8686;"/>
    <path clip-path="url(#pe2dc9c4347)" d="M 407.923633 334.423636 
L 506.568975 334.423636 
L 506.568975 348.543409 
L 407.923633 348.543409 
L 407.923633 334.423636 
" style="fill:#ffdcdc;"/>
    <path clip-path="url(#pe2dc9c4347)" d="M 506.568975 334.423636 
L 605.214317 334.423636 
L 605.214317 348.543409 
L 506.568975 348.543409 
L 506.568975 334.423636 
" style="fill:#ff9898;"/>
    <path clip-path="url(#pe2dc9c4347)" d="M 605.214317 334.423636 
L 703.859658 334.423636 
L 703.859658 348.543409 
L 605.214317 348.543409 
L 605.214317 334.423636 
" style="fill:#ffd8d8;"/>
    <path clip-path="url(#pe2dc9c4347)" d="M 703.859658 334.423636 
L 802.505 334.423636 
L 802.505 348.543409 
L 703.859658 348.543409 
L 703.859658 334.423636 
" style="fill:#ffe4e4;"/>
    <path clip-path="url(#pe2dc9c4347)" d="M 210.63295 348.543409 
L 309.278292 348.543409 
L 309.278292 362.663182 
L 210.63295 362.663182 
L 210.63295 348.543409 
" style="fill:#ffd4d4;"/>
    <path clip-path="url(#pe2dc9c4347)" d="M 309.278292 348.543409 
L 407.923633 348.543409 
L 407.923633 362.663182 
L 309.278292 362.663182 
L 309.278292 348.543409 
" style="fill:#ffe2e2;"/>
    <path clip-path="url(#pe2dc9c4347)" d="M 407.923633 348.543409 
L 506.568975 348.543409 
L 506.568975 362.663182 
L 407.923633 362.663182 
L 407.923633 348.543409 
" style="fill:#e8e8ff;"/>
    <path clip-path="url(#pe2dc9c4347)" d="M 506.568975 348.543409 
L 605.214317 348.543409 
L 605.214317 362.663182 
L 506.568975 362.663182 
L 506.568975 348.543409 
" style="fill:#ffb8b8;"/>
    <path clip-path="url(#pe2dc9c4347)" d="M 605.214317 348.543409 
L 703.859658 348.543409 
L 703.859658 362.663182 
L 605.214317 362.663182 
L 605.214317 348.543409 
" style="fill:#ffe8e8;"/>
    <path clip-path="url(#pe2dc9c4347)" d="M 703.859658 348.543409 
L 802.505 348.543409 
L 802.505 362.663182 
L 703.859658 362.663182 
L 703.859658 348.543409 
" style="fill:#b2b2ff;"/>
    <path clip-path="url(#pe2dc9c4347)" d="M 210.63295 362.663182 
L 309.278292 362.663182 
L 309.278292 376.782955 
L 210.63295 376.782955 
L 210.63295 362.663182 
" style="fill:#f0f0ff;"/>
    <path clip-path="url(#pe2dc9c4347)" d="M 309.278292 362.663182 
L 407.923633 362.663182 
L 407.923633 376.782955 
L 309.278292 376.782955 
L 309.278292 362.663182 
" style="fill:#f4f4ff;"/>
    <path clip-path="url(#pe2dc9c4347)" d="M 407.923633 362.663182 
L 506.568975 362.663182 
L 506.568975 376.782955 
L 407.923633 376.782955 
L 407.923633 362.663182 
" style="fill:#fffcfc;"/>
    <path clip-path="url(#pe2dc9c4347)" d="M 506.568975 362.663182 
L 605.214317 362.663182 
L 605.214317 376.782955 
L 506.568975 376.782955 
L 506.568975 362.663182 
" style="fill:#ffb4b4;"/>
    <path clip-path="url(#pe2dc9c4347)" d="M 605.214317 362.663182 
L 703.859658 362.663182 
L 703.859658 376.782955 
L 605.214317 376.782955 
L 605.214317 362.663182 
" style="fill:#ffd2d2;"/>
    <path clip-path="url(#pe2dc9c4347)" d="M 703.859658 362.663182 
L 802.505 362.663182 
L 802.505 376.782955 
L 703.859658 376.782955 
L 703.859658 362.663182 
" style="fill:#ff5656;"/>
    <path clip-path="url(#pe2dc9c4347)" d="M 210.63295 376.782955 
L 309.278292 376.782955 
L 309.278292 390.902727 
L 210.63295 390.902727 
L 210.63295 376.782955 
" style="fill:#ececff;"/>
    <path clip-path="url(#pe2dc9c4347)" d="M 309.278292 376.782955 
L 407.923633 376.782955 
L 407.923633 390.902727 
L 309.278292 390.902727 
L 309.278292 376.782955 
" style="fill:#dcdcff;"/>
    <path clip-path="url(#pe2dc9c4347)" d="M 407.923633 376.782955 
L 506.568975 376.782955 
L 506.568975 390.902727 
L 407.923633 390.902727 
L 407.923633 376.782955 
" style="fill:#e6e6ff;"/>
    <path clip-path="url(#pe2dc9c4347)" d="M 506.568975 376.782955 
L 605.214317 376.782955 
L 605.214317 390.902727 
L 506.568975 390.902727 
L 506.568975 376.782955 
" style="fill:#ffecec;"/>
    <path clip-path="url(#pe2dc9c4347)" d="M 605.214317 376.782955 
L 703.859658 376.782955 
L 703.859658 390.902727 
L 605.214317 390.902727 
L 605.214317 376.782955 
" style="fill:#ff8e8e;"/>
    <path clip-path="url(#pe2dc9c4347)" d="M 703.859658 376.782955 
L 802.505 376.782955 
L 802.505 390.902727 
L 703.859658 390.902727 
L 703.859658 376.782955 
" style="fill:#ffb8b8;"/>
    <path clip-path="url(#pe2dc9c4347)" d="M 210.63295 390.902727 
L 309.278292 390.902727 
L 309.278292 405.0225 
L 210.63295 405.0225 
L 210.63295 390.902727 
" style="fill:#dedeff;"/>
    <path clip-path="url(#pe2dc9c4347)" d="M 309.278292 390.902727 
L 407.923633 390.902727 
L 407.923633 405.0225 
L 309.278292 405.0225 
L 309.278292 390.902727 
" style="fill:#fafaff;"/>
    <path clip-path="url(#pe2dc9c4347)" d="M 407.923633 390.902727 
L 506.568975 390.902727 
L 506.568975 405.0225 
L 407.923633 405.0225 
L 407.923633 390.902727 
" style="fill:#c4c4ff;"/>
    <path clip-path="url(#pe2dc9c4347)" d="M 506.568975 390.902727 
L 605.214317 390.902727 
L 605.214317 405.0225 
L 506.568975 405.0225 
L 506.568975 390.902727 
" style="fill:#ffd0d0;"/>
    <path clip-path="url(#pe2dc9c4347)" d="M 605.214317 390.902727 
L 703.859658 390.902727 
L 703.859658 405.0225 
L 605.214317 405.0225 
L 605.214317 390.902727 
" style="fill:#ffcaca;"/>
    <path clip-path="url(#pe2dc9c4347)" d="M 703.859658 390.902727 
L 802.505 390.902727 
L 802.505 405.0225 
L 703.859658 405.0225 
L 703.859658 390.902727 
" style="fill:#ffa8a8;"/>
    <path clip-path="url(#pe2dc9c4347)" d="M 210.63295 405.0225 
L 309.278292 405.0225 
L 309.278292 419.142273 
L 210.63295 419.142273 
L 210.63295 405.0225 
" style="fill:#b0b0ff;"/>
    <path clip-path="url(#pe2dc9c4347)" d="M 309.278292 405.0225 
L 407.923633 405.0225 
L 407.923633 419.142273 
L 309.278292 419.142273 
L 309.278292 405.0225 
" style="fill:#f8f8ff;"/>
    <path clip-path="url(#pe2dc9c4347)" d="M 407.923633 405.0225 
L 506.568975 405.0225 
L 506.568975 419.142273 
L 407.923633 419.142273 
L 407.923633 405.0225 
" style="fill:#f4f4ff;"/>
    <path clip-path="url(#pe2dc9c4347)" d="M 506.568975 405.0225 
L 605.214317 405.0225 
L 605.214317 419.142273 
L 506.568975 419.142273 
L 506.568975 405.0225 
" style="fill:#fff2f2;"/>
    <path clip-path="url(#pe2dc9c4347)" d="M 605.214317 405.0225 
L 703.859658 405.0225 
L 703.859658 419.142273 
L 605.214317 419.142273 
L 605.214317 405.0225 
" style="fill:#ffd8d8;"/>
    <path clip-path="url(#pe2dc9c4347)" d="M 703.859658 405.0225 
L 802.505 405.0225 
L 802.505 419.142273 
L 703.859658 419.142273 
L 703.859658 405.0225 
" style="fill:#ff9a9a;"/>
    <path clip-path="url(#pe2dc9c4347)" d="M 210.63295 419.142273 
L 309.278292 419.142273 
L 309.278292 433.262045 
L 210.63295 433.262045 
L 210.63295 419.142273 
" style="fill:#ffc8c8;"/>
    <path clip-path="url(#pe2dc9c4347)" d="M 309.278292 419.142273 
L 407.923633 419.142273 
L 407.923633 433.262045 
L 309.278292 433.262045 
L 309.278292 419.142273 
" style="fill:#fff2f2;"/>
    <path clip-path="url(#pe2dc9c4347)" d="M 407.923633 419.142273 
L 506.568975 419.142273 
L 506.568975 433.262045 
L 407.923633 433.262045 
L 407.923633 419.142273 
" style="fill:#ffdcdc;"/>
    <path clip-path="url(#pe2dc9c4347)" d="M 506.568975 419.142273 
L 605.214317 419.142273 
L 605.214317 433.262045 
L 506.568975 433.262045 
L 506.568975 419.142273 
" style="fill:#ffc8c8;"/>
    <path clip-path="url(#pe2dc9c4347)" d="M 605.214317 419.142273 
L 703.859658 419.142273 
L 703.859658 433.262045 
L 605.214317 433.262045 
L 605.214317 419.142273 
" style="fill:#ffc0c0;"/>
    <path clip-path="url(#pe2dc9c4347)" d="M 703.859658 419.142273 
L 802.505 419.142273 
L 802.505 433.262045 
L 703.859658 433.262045 
L 703.859658 419.142273 
" style="fill:#ff9a9a;"/>
    <path clip-path="url(#pe2dc9c4347)" d="M 210.63295 433.262045 
L 309.278292 433.262045 
L 309.278292 447.381818 
L 210.63295 447.381818 
L 210.63295 433.262045 
" style="fill:#ffe8e8;"/>
    <path clip-path="url(#pe2dc9c4347)" d="M 309.278292 433.262045 
L 407.923633 433.262045 
L 407.923633 447.381818 
L 309.278292 447.381818 
L 309.278292 433.262045 
" style="fill:#fffafa;"/>
    <path clip-path="url(#pe2dc9c4347)" d="M 407.923633 433.262045 
L 506.568975 433.262045 
L 506.568975 447.381818 
L 407.923633 447.381818 
L 407.923633 433.262045 
" style="fill:#ffd6d6;"/>
    <path clip-path="url(#pe2dc9c4347)" d="M 506.568975 433.262045 
L 605.214317 433.262045 
L 605.214317 447.381818 
L 506.568975 447.381818 
L 506.568975 433.262045 
" style="fill:#ffc8c8;"/>
    <path clip-path="url(#pe2dc9c4347)" d="M 605.214317 433.262045 
L 703.859658 433.262045 
L 703.859658 447.381818 
L 605.214317 447.381818 
L 605.214317 433.262045 
" style="fill:#ffacac;"/>
    <path clip-path="url(#pe2dc9c4347)" d="M 703.859658 433.262045 
L 802.505 433.262045 
L 802.505 447.381818 
L 703.859658 447.381818 
L 703.859658 433.262045 
" style="fill:#ffc8c8;"/>
    <path clip-path="url(#pe2dc9c4347)" d="M 210.63295 447.381818 
L 309.278292 447.381818 
L 309.278292 461.501591 
L 210.63295 461.501591 
L 210.63295 447.381818 
" style="fill:#ffaeae;"/>
    <path clip-path="url(#pe2dc9c4347)" d="M 309.278292 447.381818 
L 407.923633 447.381818 
L 407.923633 461.501591 
L 309.278292 461.501591 
L 309.278292 447.381818 
" style="fill:#fff2f2;"/>
    <path clip-path="url(#pe2dc9c4347)" d="M 407.923633 447.381818 
L 506.568975 447.381818 
L 506.568975 461.501591 
L 407.923633 461.501591 
L 407.923633 447.381818 
" style="fill:#ffd8d8;"/>
    <path clip-path="url(#pe2dc9c4347)" d="M 506.568975 447.381818 
L 605.214317 447.381818 
L 605.214317 461.501591 
L 506.568975 461.501591 
L 506.568975 447.381818 
" style="fill:#f2f2ff;"/>
    <path clip-path="url(#pe2dc9c4347)" d="M 605.214317 447.381818 
L 703.859658 447.381818 
L 703.859658 461.501591 
L 605.214317 461.501591 
L 605.214317 447.381818 
" style="fill:#ffd6d6;"/>
    <path clip-path="url(#pe2dc9c4347)" d="M 703.859658 447.381818 
L 802.505 447.381818 
L 802.505 461.501591 
L 703.859658 461.501591 
L 703.859658 447.381818 
" style="fill:#ffc8c8;"/>
    <path clip-path="url(#pe2dc9c4347)" d="M 210.63295 461.501591 
L 309.278292 461.501591 
L 309.278292 475.621364 
L 210.63295 475.621364 
L 210.63295 461.501591 
" style="fill:#ffdada;"/>
    <path clip-path="url(#pe2dc9c4347)" d="M 309.278292 461.501591 
L 407.923633 461.501591 
L 407.923633 475.621364 
L 309.278292 475.621364 
L 309.278292 461.501591 
" style="fill:#fff8f8;"/>
    <path clip-path="url(#pe2dc9c4347)" d="M 407.923633 461.501591 
L 506.568975 461.501591 
L 506.568975 475.621364 
L 407.923633 475.621364 
L 407.923633 461.501591 
" style="fill:#ffcaca;"/>
    <path clip-path="url(#pe2dc9c4347)" d="M 506.568975 461.501591 
L 605.214317 461.501591 
L 605.214317 475.621364 
L 506.568975 475.621364 
L 506.568975 461.501591 
" style="fill:#bcbcff;"/>
    <path clip-path="url(#pe2dc9c4347)" d="M 605.214317 461.501591 
L 703.859658 461.501591 
L 703.859658 475.621364 
L 605.214317 475.621364 
L 605.214317 461.501591 
" style="fill:#ffbebe;"/>
    <path clip-path="url(#pe2dc9c4347)" d="M 703.859658 461.501591 
L 802.505 461.501591 
L 802.505 475.621364 
L 703.859658 475.621364 
L 703.859658 461.501591 
" style="fill:#ffdada;"/>
    <path clip-path="url(#pe2dc9c4347)" d="M 210.63295 475.621364 
L 309.278292 475.621364 
L 309.278292 489.741136 
L 210.63295 489.741136 
L 210.63295 475.621364 
" style="fill:#8e8eff;"/>
    <path clip-path="url(#pe2dc9c4347)" d="M 309.278292 475.621364 
L 407.923633 475.621364 
L 407.923633 489.741136 
L 309.278292 489.741136 
L 309.278292 475.621364 
" style="fill:#6262ff;"/>
    <path clip-path="url(#pe2dc9c4347)" d="M 407.923633 475.621364 
L 506.568975 475.621364 
L 506.568975 489.741136 
L 407.923633 489.741136 
L 407.923633 475.621364 
" style="fill:#2020ff;"/>
    <path clip-path="url(#pe2dc9c4347)" d="M 506.568975 475.621364 
L 605.214317 475.621364 
L 605.214317 489.741136 
L 506.568975 489.741136 
L 506.568975 475.621364 
" style="fill:#7e7eff;"/>
    <path clip-path="url(#pe2dc9c4347)" d="M 605.214317 475.621364 
L 703.859658 475.621364 
L 703.859658 489.741136 
L 605.214317 489.741136 
L 605.214317 475.621364 
" style="fill:#fff2f2;"/>
    <path clip-path="url(#pe2dc9c4347)" d="M 703.859658 475.621364 
L 802.505 475.621364 
L 802.505 489.741136 
L 703.859658 489.741136 
L 703.859658 475.621364 
" style="fill:#fff0f0;"/>
    <path clip-path="url(#pe2dc9c4347)" d="M 210.63295 489.741136 
L 309.278292 489.741136 
L 309.278292 503.860909 
L 210.63295 503.860909 
L 210.63295 489.741136 
" style="fill:#6464ff;"/>
    <path clip-path="url(#pe2dc9c4347)" d="M 309.278292 489.741136 
L 407.923633 489.741136 
L 407.923633 503.860909 
L 309.278292 503.860909 
L 309.278292 489.741136 
" style="fill:#fefeff;"/>
    <path clip-path="url(#pe2dc9c4347)" d="M 407.923633 489.741136 
L 506.568975 489.741136 
L 506.568975 503.860909 
L 407.923633 503.860909 
L 407.923633 489.741136 
" style="fill:#dedeff;"/>
    <path clip-path="url(#pe2dc9c4347)" d="M 506.568975 489.741136 
L 605.214317 489.741136 
L 605.214317 503.860909 
L 506.568975 503.860909 
L 506.568975 489.741136 
" style="fill:#5a5aff;"/>
    <path clip-path="url(#pe2dc9c4347)" d="M 605.214317 489.741136 
L 703.859658 489.741136 
L 703.859658 503.860909 
L 605.214317 503.860909 
L 605.214317 489.741136 
" style="fill:#fff6f6;"/>
    <path clip-path="url(#pe2dc9c4347)" d="M 703.859658 489.741136 
L 802.505 489.741136 
L 802.505 503.860909 
L 703.859658 503.860909 
L 703.859658 489.741136 
" style="fill:#8080ff;"/>
    <path clip-path="url(#pe2dc9c4347)" d="M 210.63295 503.860909 
L 309.278292 503.860909 
L 309.278292 517.980682 
L 210.63295 517.980682 
L 210.63295 503.860909 
" style="fill:#8a8aff;"/>
    <path clip-path="url(#pe2dc9c4347)" d="M 309.278292 503.860909 
L 407.923633 503.860909 
L 407.923633 517.980682 
L 309.278292 517.980682 
L 309.278292 503.860909 
" style="fill:#f8f8ff;"/>
    <path clip-path="url(#pe2dc9c4347)" d="M 407.923633 503.860909 
L 506.568975 503.860909 
L 506.568975 517.980682 
L 407.923633 517.980682 
L 407.923633 503.860909 
" style="fill:#a6a6ff;"/>
    <path clip-path="url(#pe2dc9c4347)" d="M 506.568975 503.860909 
L 605.214317 503.860909 
L 605.214317 517.980682 
L 506.568975 517.980682 
L 506.568975 503.860909 
" style="fill:#7474ff;"/>
    <path clip-path="url(#pe2dc9c4347)" d="M 605.214317 503.860909 
L 703.859658 503.860909 
L 703.859658 517.980682 
L 605.214317 517.980682 
L 605.214317 503.860909 
" style="fill:#b2b2ff;"/>
    <path clip-path="url(#pe2dc9c4347)" d="M 703.859658 503.860909 
L 802.505 503.860909 
L 802.505 517.980682 
L 703.859658 517.980682 
L 703.859658 503.860909 
" style="fill:#9a9aff;"/>
    <path clip-path="url(#pe2dc9c4347)" d="M 210.63295 517.980682 
L 309.278292 517.980682 
L 309.278292 532.100455 
L 210.63295 532.100455 
L 210.63295 517.980682 
" style="fill:#d6d6ff;"/>
    <path clip-path="url(#pe2dc9c4347)" d="M 309.278292 517.980682 
L 407.923633 517.980682 
L 407.923633 532.100455 
L 309.278292 532.100455 
L 309.278292 517.980682 
" style="fill:#e4e4ff;"/>
    <path clip-path="url(#pe2dc9c4347)" d="M 407.923633 517.980682 
L 506.568975 517.980682 
L 506.568975 532.100455 
L 407.923633 532.100455 
L 407.923633 517.980682 
" style="fill:#d2d2ff;"/>
    <path clip-path="url(#pe2dc9c4347)" d="M 506.568975 517.980682 
L 605.214317 517.980682 
L 605.214317 532.100455 
L 506.568975 532.100455 
L 506.568975 517.980682 
" style="fill:#6666ff;"/>
    <path clip-path="url(#pe2dc9c4347)" d="M 605.214317 517.980682 
L 703.859658 517.980682 
L 703.859658 532.100455 
L 605.214317 532.100455 
L 605.214317 517.980682 
" style="fill:#c6c6ff;"/>
    <path clip-path="url(#pe2dc9c4347)" d="M 703.859658 517.980682 
L 802.505 517.980682 
L 802.505 532.100455 
L 703.859658 532.100455 
L 703.859658 517.980682 
" style="fill:#1212ff;"/>
    <path clip-path="url(#pe2dc9c4347)" d="M 210.63295 532.100455 
L 309.278292 532.100455 
L 309.278292 546.220227 
L 210.63295 546.220227 
L 210.63295 532.100455 
" style="fill:#eaeaff;"/>
    <path clip-path="url(#pe2dc9c4347)" d="M 309.278292 532.100455 
L 407.923633 532.100455 
L 407.923633 546.220227 
L 309.278292 546.220227 
L 309.278292 532.100455 
" style="fill:#fffafa;"/>
    <path clip-path="url(#pe2dc9c4347)" d="M 407.923633 532.100455 
L 506.568975 532.100455 
L 506.568975 546.220227 
L 407.923633 546.220227 
L 407.923633 532.100455 
" style="fill:#e4e4ff;"/>
    <path clip-path="url(#pe2dc9c4347)" d="M 506.568975 532.100455 
L 605.214317 532.100455 
L 605.214317 546.220227 
L 506.568975 546.220227 
L 506.568975 532.100455 
" style="fill:#2c2cff;"/>
    <path clip-path="url(#pe2dc9c4347)" d="M 605.214317 532.100455 
L 703.859658 532.100455 
L 703.859658 546.220227 
L 605.214317 546.220227 
L 605.214317 532.100455 
" style="fill:#8c8cff;"/>
    <path clip-path="url(#pe2dc9c4347)" d="M 703.859658 532.100455 
L 802.505 532.100455 
L 802.505 546.220227 
L 703.859658 546.220227 
L 703.859658 532.100455 
" style="fill:#8080ff;"/>
    <path clip-path="url(#pe2dc9c4347)" d="M 210.63295 546.220227 
L 309.278292 546.220227 
L 309.278292 560.34 
L 210.63295 560.34 
L 210.63295 546.220227 
" style="fill:#d0d0ff;"/>
    <path clip-path="url(#pe2dc9c4347)" d="M 309.278292 546.220227 
L 407.923633 546.220227 
L 407.923633 560.34 
L 309.278292 560.34 
L 309.278292 546.220227 
" style="fill:#f8f8ff;"/>
    <path clip-path="url(#pe2dc9c4347)" d="M 407.923633 546.220227 
L 506.568975 546.220227 
L 506.568975 560.34 
L 407.923633 560.34 
L 407.923633 546.220227 
" style="fill:#e4e4ff;"/>
    <path clip-path="url(#pe2dc9c4347)" d="M 506.568975 546.220227 
L 605.214317 546.220227 
L 605.214317 560.34 
L 506.568975 560.34 
L 506.568975 546.220227 
" style="fill:#5050ff;"/>
    <path clip-path="url(#pe2dc9c4347)" d="M 605.214317 546.220227 
L 703.859658 546.220227 
L 703.859658 560.34 
L 605.214317 560.34 
L 605.214317 546.220227 
" style="fill:#dedeff;"/>
    <path clip-path="url(#pe2dc9c4347)" d="M 703.859658 546.220227 
L 802.505 546.220227 
L 802.505 560.34 
L 703.859658 560.34 
L 703.859658 546.220227 
" style="fill:#a0a0ff;"/>
   </g>
   <g id="matplotlib.axis_5"/>
   <g id="matplotlib.axis_6">
    <g id="ytick_1">
     <g id="line2d_1">
      <defs>
       <path d="M 0 0 
L 3.5 0 
" id="m11c3c8b3d2" style="stroke:#000000;stroke-width:0.8;"/>
      </defs>
      <g>
       <use style="stroke:#000000;stroke-width:0.8;" x="802.505" xlink:href="#m11c3c8b3d2" y="256.764886"/>
      </g>
     </g>
     <g id="text_1">
      <!-- PHLDA1 -->
      <defs>
       <path d="M 19.671875 64.796875 
L 19.671875 37.40625 
L 32.078125 37.40625 
Q 38.96875 37.40625 42.71875 40.96875 
Q 46.484375 44.53125 46.484375 51.125 
Q 46.484375 57.671875 42.71875 61.234375 
Q 38.96875 64.796875 32.078125 64.796875 
z
M 9.8125 72.90625 
L 32.078125 72.90625 
Q 44.34375 72.90625 50.609375 67.359375 
Q 56.890625 61.8125 56.890625 51.125 
Q 56.890625 40.328125 50.609375 34.8125 
Q 44.34375 29.296875 32.078125 29.296875 
L 19.671875 29.296875 
L 19.671875 0 
L 9.8125 0 
z
" id="DejaVuSans-80"/>
       <path d="M 9.8125 72.90625 
L 19.671875 72.90625 
L 19.671875 43.015625 
L 55.515625 43.015625 
L 55.515625 72.90625 
L 65.375 72.90625 
L 65.375 0 
L 55.515625 0 
L 55.515625 34.71875 
L 19.671875 34.71875 
L 19.671875 0 
L 9.8125 0 
z
" id="DejaVuSans-72"/>
       <path d="M 9.8125 72.90625 
L 19.671875 72.90625 
L 19.671875 8.296875 
L 55.171875 8.296875 
L 55.171875 0 
L 9.8125 0 
z
" id="DejaVuSans-76"/>
       <path d="M 19.671875 64.796875 
L 19.671875 8.109375 
L 31.59375 8.109375 
Q 46.6875 8.109375 53.6875 14.9375 
Q 60.6875 21.78125 60.6875 36.53125 
Q 60.6875 51.171875 53.6875 57.984375 
Q 46.6875 64.796875 31.59375 64.796875 
z
M 9.8125 72.90625 
L 30.078125 72.90625 
Q 51.265625 72.90625 61.171875 64.09375 
Q 71.09375 55.28125 71.09375 36.53125 
Q 71.09375 17.671875 61.125 8.828125 
Q 51.171875 0 30.078125 0 
L 9.8125 0 
z
" id="DejaVuSans-68"/>
       <path d="M 34.1875 63.1875 
L 20.796875 26.90625 
L 47.609375 26.90625 
z
M 28.609375 72.90625 
L 39.796875 72.90625 
L 67.578125 0 
L 57.328125 0 
L 50.6875 18.703125 
L 17.828125 18.703125 
L 11.1875 0 
L 0.78125 0 
z
" id="DejaVuSans-65"/>
       <path d="M 12.40625 8.296875 
L 28.515625 8.296875 
L 28.515625 63.921875 
L 10.984375 60.40625 
L 10.984375 69.390625 
L 28.421875 72.90625 
L 38.28125 72.90625 
L 38.28125 8.296875 
L 54.390625 8.296875 
L 54.390625 0 
L 12.40625 0 
z
" id="DejaVuSans-49"/>
      </defs>
      <g transform="translate(809.505 260.564105)scale(0.1 -0.1)">
       <use xlink:href="#DejaVuSans-80"/>
       <use x="60.302734" xlink:href="#DejaVuSans-72"/>
       <use x="135.498047" xlink:href="#DejaVuSans-76"/>
       <use x="191.210938" xlink:href="#DejaVuSans-68"/>
       <use x="268.197266" xlink:href="#DejaVuSans-65"/>
       <use x="336.605469" xlink:href="#DejaVuSans-49"/>
      </g>
     </g>
    </g>
    <g id="ytick_2">
     <g id="line2d_2">
      <g>
       <use style="stroke:#000000;stroke-width:0.8;" x="802.505" xlink:href="#m11c3c8b3d2" y="270.884659"/>
      </g>
     </g>
     <g id="text_2">
      <!-- DUSP6 -->
      <defs>
       <path d="M 8.6875 72.90625 
L 18.609375 72.90625 
L 18.609375 28.609375 
Q 18.609375 16.890625 22.84375 11.734375 
Q 27.09375 6.59375 36.625 6.59375 
Q 46.09375 6.59375 50.34375 11.734375 
Q 54.59375 16.890625 54.59375 28.609375 
L 54.59375 72.90625 
L 64.5 72.90625 
L 64.5 27.390625 
Q 64.5 13.140625 57.4375 5.859375 
Q 50.390625 -1.421875 36.625 -1.421875 
Q 22.796875 -1.421875 15.734375 5.859375 
Q 8.6875 13.140625 8.6875 27.390625 
z
" id="DejaVuSans-85"/>
       <path d="M 53.515625 70.515625 
L 53.515625 60.890625 
Q 47.90625 63.578125 42.921875 64.890625 
Q 37.9375 66.21875 33.296875 66.21875 
Q 25.25 66.21875 20.875 63.09375 
Q 16.5 59.96875 16.5 54.203125 
Q 16.5 49.359375 19.40625 46.890625 
Q 22.3125 44.4375 30.421875 42.921875 
L 36.375 41.703125 
Q 47.40625 39.59375 52.65625 34.296875 
Q 57.90625 29 57.90625 20.125 
Q 57.90625 9.515625 50.796875 4.046875 
Q 43.703125 -1.421875 29.984375 -1.421875 
Q 24.8125 -1.421875 18.96875 -0.25 
Q 13.140625 0.921875 6.890625 3.21875 
L 6.890625 13.375 
Q 12.890625 10.015625 18.65625 8.296875 
Q 24.421875 6.59375 29.984375 6.59375 
Q 38.421875 6.59375 43.015625 9.90625 
Q 47.609375 13.234375 47.609375 19.390625 
Q 47.609375 24.75 44.3125 27.78125 
Q 41.015625 30.8125 33.5 32.328125 
L 27.484375 33.5 
Q 16.453125 35.6875 11.515625 40.375 
Q 6.59375 45.0625 6.59375 53.421875 
Q 6.59375 63.09375 13.40625 68.65625 
Q 20.21875 74.21875 32.171875 74.21875 
Q 37.3125 74.21875 42.625 73.28125 
Q 47.953125 72.359375 53.515625 70.515625 
z
" id="DejaVuSans-83"/>
       <path d="M 33.015625 40.375 
Q 26.375 40.375 22.484375 35.828125 
Q 18.609375 31.296875 18.609375 23.390625 
Q 18.609375 15.53125 22.484375 10.953125 
Q 26.375 6.390625 33.015625 6.390625 
Q 39.65625 6.390625 43.53125 10.953125 
Q 47.40625 15.53125 47.40625 23.390625 
Q 47.40625 31.296875 43.53125 35.828125 
Q 39.65625 40.375 33.015625 40.375 
z
M 52.59375 71.296875 
L 52.59375 62.3125 
Q 48.875 64.0625 45.09375 64.984375 
Q 41.3125 65.921875 37.59375 65.921875 
Q 27.828125 65.921875 22.671875 59.328125 
Q 17.53125 52.734375 16.796875 39.40625 
Q 19.671875 43.65625 24.015625 45.921875 
Q 28.375 48.1875 33.59375 48.1875 
Q 44.578125 48.1875 50.953125 41.515625 
Q 57.328125 34.859375 57.328125 23.390625 
Q 57.328125 12.15625 50.6875 5.359375 
Q 44.046875 -1.421875 33.015625 -1.421875 
Q 20.359375 -1.421875 13.671875 8.265625 
Q 6.984375 17.96875 6.984375 36.375 
Q 6.984375 53.65625 15.1875 63.9375 
Q 23.390625 74.21875 37.203125 74.21875 
Q 40.921875 74.21875 44.703125 73.484375 
Q 48.484375 72.75 52.59375 71.296875 
z
" id="DejaVuSans-54"/>
      </defs>
      <g transform="translate(809.505 274.683878)scale(0.1 -0.1)">
       <use xlink:href="#DejaVuSans-68"/>
       <use x="77.001953" xlink:href="#DejaVuSans-85"/>
       <use x="150.195312" xlink:href="#DejaVuSans-83"/>
       <use x="213.671875" xlink:href="#DejaVuSans-80"/>
       <use x="273.974609" xlink:href="#DejaVuSans-54"/>
      </g>
     </g>
    </g>
    <g id="ytick_3">
     <g id="line2d_3">
      <g>
       <use style="stroke:#000000;stroke-width:0.8;" x="802.505" xlink:href="#m11c3c8b3d2" y="285.004432"/>
      </g>
     </g>
     <g id="text_3">
      <!-- EPHA2 -->
      <defs>
       <path d="M 9.8125 72.90625 
L 55.90625 72.90625 
L 55.90625 64.59375 
L 19.671875 64.59375 
L 19.671875 43.015625 
L 54.390625 43.015625 
L 54.390625 34.71875 
L 19.671875 34.71875 
L 19.671875 8.296875 
L 56.78125 8.296875 
L 56.78125 0 
L 9.8125 0 
z
" id="DejaVuSans-69"/>
       <path d="M 19.1875 8.296875 
L 53.609375 8.296875 
L 53.609375 0 
L 7.328125 0 
L 7.328125 8.296875 
Q 12.9375 14.109375 22.625 23.890625 
Q 32.328125 33.6875 34.8125 36.53125 
Q 39.546875 41.84375 41.421875 45.53125 
Q 43.3125 49.21875 43.3125 52.78125 
Q 43.3125 58.59375 39.234375 62.25 
Q 35.15625 65.921875 28.609375 65.921875 
Q 23.96875 65.921875 18.8125 64.3125 
Q 13.671875 62.703125 7.8125 59.421875 
L 7.8125 69.390625 
Q 13.765625 71.78125 18.9375 73 
Q 24.125 74.21875 28.421875 74.21875 
Q 39.75 74.21875 46.484375 68.546875 
Q 53.21875 62.890625 53.21875 53.421875 
Q 53.21875 48.921875 51.53125 44.890625 
Q 49.859375 40.875 45.40625 35.40625 
Q 44.1875 33.984375 37.640625 27.21875 
Q 31.109375 20.453125 19.1875 8.296875 
z
" id="DejaVuSans-50"/>
      </defs>
      <g transform="translate(809.505 288.803651)scale(0.1 -0.1)">
       <use xlink:href="#DejaVuSans-69"/>
       <use x="63.183594" xlink:href="#DejaVuSans-80"/>
       <use x="123.486328" xlink:href="#DejaVuSans-72"/>
       <use x="198.681641" xlink:href="#DejaVuSans-65"/>
       <use x="267.089844" xlink:href="#DejaVuSans-50"/>
      </g>
     </g>
    </g>
    <g id="ytick_4">
     <g id="line2d_4">
      <g>
       <use style="stroke:#000000;stroke-width:0.8;" x="802.505" xlink:href="#m11c3c8b3d2" y="299.124205"/>
      </g>
     </g>
     <g id="text_4">
      <!-- WIF1 -->
      <defs>
       <path d="M 3.328125 72.90625 
L 13.28125 72.90625 
L 28.609375 11.28125 
L 43.890625 72.90625 
L 54.984375 72.90625 
L 70.3125 11.28125 
L 85.59375 72.90625 
L 95.609375 72.90625 
L 77.296875 0 
L 64.890625 0 
L 49.515625 63.28125 
L 33.984375 0 
L 21.578125 0 
z
" id="DejaVuSans-87"/>
       <path d="M 9.8125 72.90625 
L 19.671875 72.90625 
L 19.671875 0 
L 9.8125 0 
z
" id="DejaVuSans-73"/>
       <path d="M 9.8125 72.90625 
L 51.703125 72.90625 
L 51.703125 64.59375 
L 19.671875 64.59375 
L 19.671875 43.109375 
L 48.578125 43.109375 
L 48.578125 34.8125 
L 19.671875 34.8125 
L 19.671875 0 
L 9.8125 0 
z
" id="DejaVuSans-70"/>
      </defs>
      <g transform="translate(809.505 302.923423)scale(0.1 -0.1)">
       <use xlink:href="#DejaVuSans-87"/>
       <use x="98.876953" xlink:href="#DejaVuSans-73"/>
       <use x="128.369141" xlink:href="#DejaVuSans-70"/>
       <use x="185.888672" xlink:href="#DejaVuSans-49"/>
      </g>
     </g>
    </g>
    <g id="ytick_5">
     <g id="line2d_5">
      <g>
       <use style="stroke:#000000;stroke-width:0.8;" x="802.505" xlink:href="#m11c3c8b3d2" y="313.243977"/>
      </g>
     </g>
     <g id="text_5">
      <!-- CCND1 -->
      <defs>
       <path d="M 64.40625 67.28125 
L 64.40625 56.890625 
Q 59.421875 61.53125 53.78125 63.8125 
Q 48.140625 66.109375 41.796875 66.109375 
Q 29.296875 66.109375 22.65625 58.46875 
Q 16.015625 50.828125 16.015625 36.375 
Q 16.015625 21.96875 22.65625 14.328125 
Q 29.296875 6.6875 41.796875 6.6875 
Q 48.140625 6.6875 53.78125 8.984375 
Q 59.421875 11.28125 64.40625 15.921875 
L 64.40625 5.609375 
Q 59.234375 2.09375 53.4375 0.328125 
Q 47.65625 -1.421875 41.21875 -1.421875 
Q 24.65625 -1.421875 15.125 8.703125 
Q 5.609375 18.84375 5.609375 36.375 
Q 5.609375 53.953125 15.125 64.078125 
Q 24.65625 74.21875 41.21875 74.21875 
Q 47.75 74.21875 53.53125 72.484375 
Q 59.328125 70.75 64.40625 67.28125 
z
" id="DejaVuSans-67"/>
       <path d="M 9.8125 72.90625 
L 23.09375 72.90625 
L 55.421875 11.921875 
L 55.421875 72.90625 
L 64.984375 72.90625 
L 64.984375 0 
L 51.703125 0 
L 19.390625 60.984375 
L 19.390625 0 
L 9.8125 0 
z
" id="DejaVuSans-78"/>
      </defs>
      <g transform="translate(809.505 317.043196)scale(0.1 -0.1)">
       <use xlink:href="#DejaVuSans-67"/>
       <use x="69.824219" xlink:href="#DejaVuSans-67"/>
       <use x="139.648438" xlink:href="#DejaVuSans-78"/>
       <use x="214.453125" xlink:href="#DejaVuSans-68"/>
       <use x="291.455078" xlink:href="#DejaVuSans-49"/>
      </g>
     </g>
    </g>
    <g id="ytick_6">
     <g id="line2d_6">
      <g>
       <use style="stroke:#000000;stroke-width:0.8;" x="802.505" xlink:href="#m11c3c8b3d2" y="327.36375"/>
      </g>
     </g>
     <g id="text_6">
      <!-- RELB -->
      <defs>
       <path d="M 44.390625 34.1875 
Q 47.5625 33.109375 50.5625 29.59375 
Q 53.5625 26.078125 56.59375 19.921875 
L 66.609375 0 
L 56 0 
L 46.6875 18.703125 
Q 43.0625 26.03125 39.671875 28.421875 
Q 36.28125 30.8125 30.421875 30.8125 
L 19.671875 30.8125 
L 19.671875 0 
L 9.8125 0 
L 9.8125 72.90625 
L 32.078125 72.90625 
Q 44.578125 72.90625 50.734375 67.671875 
Q 56.890625 62.453125 56.890625 51.90625 
Q 56.890625 45.015625 53.6875 40.46875 
Q 50.484375 35.9375 44.390625 34.1875 
z
M 19.671875 64.796875 
L 19.671875 38.921875 
L 32.078125 38.921875 
Q 39.203125 38.921875 42.84375 42.21875 
Q 46.484375 45.515625 46.484375 51.90625 
Q 46.484375 58.296875 42.84375 61.546875 
Q 39.203125 64.796875 32.078125 64.796875 
z
" id="DejaVuSans-82"/>
       <path d="M 19.671875 34.8125 
L 19.671875 8.109375 
L 35.5 8.109375 
Q 43.453125 8.109375 47.28125 11.40625 
Q 51.125 14.703125 51.125 21.484375 
Q 51.125 28.328125 47.28125 31.5625 
Q 43.453125 34.8125 35.5 34.8125 
z
M 19.671875 64.796875 
L 19.671875 42.828125 
L 34.28125 42.828125 
Q 41.5 42.828125 45.03125 45.53125 
Q 48.578125 48.25 48.578125 53.8125 
Q 48.578125 59.328125 45.03125 62.0625 
Q 41.5 64.796875 34.28125 64.796875 
z
M 9.8125 72.90625 
L 35.015625 72.90625 
Q 46.296875 72.90625 52.390625 68.21875 
Q 58.5 63.53125 58.5 54.890625 
Q 58.5 48.1875 55.375 44.234375 
Q 52.25 40.28125 46.1875 39.3125 
Q 53.46875 37.75 57.5 32.78125 
Q 61.53125 27.828125 61.53125 20.40625 
Q 61.53125 10.640625 54.890625 5.3125 
Q 48.25 0 35.984375 0 
L 9.8125 0 
z
" id="DejaVuSans-66"/>
      </defs>
      <g transform="translate(809.505 331.162969)scale(0.1 -0.1)">
       <use xlink:href="#DejaVuSans-82"/>
       <use x="69.482422" xlink:href="#DejaVuSans-69"/>
       <use x="132.666016" xlink:href="#DejaVuSans-76"/>
       <use x="188.378906" xlink:href="#DejaVuSans-66"/>
      </g>
     </g>
    </g>
    <g id="ytick_7">
     <g id="line2d_7">
      <g>
       <use style="stroke:#000000;stroke-width:0.8;" x="802.505" xlink:href="#m11c3c8b3d2" y="341.483523"/>
      </g>
     </g>
     <g id="text_7">
      <!-- DUSP4 -->
      <defs>
       <path d="M 37.796875 64.3125 
L 12.890625 25.390625 
L 37.796875 25.390625 
z
M 35.203125 72.90625 
L 47.609375 72.90625 
L 47.609375 25.390625 
L 58.015625 25.390625 
L 58.015625 17.1875 
L 47.609375 17.1875 
L 47.609375 0 
L 37.796875 0 
L 37.796875 17.1875 
L 4.890625 17.1875 
L 4.890625 26.703125 
z
" id="DejaVuSans-52"/>
      </defs>
      <g transform="translate(809.505 345.282741)scale(0.1 -0.1)">
       <use xlink:href="#DejaVuSans-68"/>
       <use x="77.001953" xlink:href="#DejaVuSans-85"/>
       <use x="150.195312" xlink:href="#DejaVuSans-83"/>
       <use x="213.671875" xlink:href="#DejaVuSans-80"/>
       <use x="273.974609" xlink:href="#DejaVuSans-52"/>
      </g>
     </g>
    </g>
    <g id="ytick_8">
     <g id="line2d_8">
      <g>
       <use style="stroke:#000000;stroke-width:0.8;" x="802.505" xlink:href="#m11c3c8b3d2" y="355.603295"/>
      </g>
     </g>
     <g id="text_8">
      <!-- SPRY2 -->
      <defs>
       <path d="M -0.203125 72.90625 
L 10.40625 72.90625 
L 30.609375 42.921875 
L 50.6875 72.90625 
L 61.28125 72.90625 
L 35.5 34.71875 
L 35.5 0 
L 25.59375 0 
L 25.59375 34.71875 
z
" id="DejaVuSans-89"/>
      </defs>
      <g transform="translate(809.505 359.402514)scale(0.1 -0.1)">
       <use xlink:href="#DejaVuSans-83"/>
       <use x="63.476562" xlink:href="#DejaVuSans-80"/>
       <use x="123.779297" xlink:href="#DejaVuSans-82"/>
       <use x="193.167969" xlink:href="#DejaVuSans-89"/>
       <use x="254.251953" xlink:href="#DejaVuSans-50"/>
      </g>
     </g>
    </g>
    <g id="ytick_9">
     <g id="line2d_9">
      <g>
       <use style="stroke:#000000;stroke-width:0.8;" x="802.505" xlink:href="#m11c3c8b3d2" y="369.723068"/>
      </g>
     </g>
     <g id="text_9">
      <!-- HIF1A -->
      <g transform="translate(809.505 373.522287)scale(0.1 -0.1)">
       <use xlink:href="#DejaVuSans-72"/>
       <use x="75.195312" xlink:href="#DejaVuSans-73"/>
       <use x="104.6875" xlink:href="#DejaVuSans-70"/>
       <use x="162.207031" xlink:href="#DejaVuSans-49"/>
       <use x="225.830078" xlink:href="#DejaVuSans-65"/>
      </g>
     </g>
    </g>
    <g id="ytick_10">
     <g id="line2d_10">
      <g>
       <use style="stroke:#000000;stroke-width:0.8;" x="802.505" xlink:href="#m11c3c8b3d2" y="383.842841"/>
      </g>
     </g>
     <g id="text_10">
      <!-- TWIST1 -->
      <defs>
       <path d="M -0.296875 72.90625 
L 61.375 72.90625 
L 61.375 64.59375 
L 35.5 64.59375 
L 35.5 0 
L 25.59375 0 
L 25.59375 64.59375 
L -0.296875 64.59375 
z
" id="DejaVuSans-84"/>
      </defs>
      <g transform="translate(809.505 387.64206)scale(0.1 -0.1)">
       <use xlink:href="#DejaVuSans-84"/>
       <use x="61.083984" xlink:href="#DejaVuSans-87"/>
       <use x="159.960938" xlink:href="#DejaVuSans-73"/>
       <use x="189.453125" xlink:href="#DejaVuSans-83"/>
       <use x="252.929688" xlink:href="#DejaVuSans-84"/>
       <use x="314.013672" xlink:href="#DejaVuSans-49"/>
      </g>
     </g>
    </g>
    <g id="ytick_11">
     <g id="line2d_11">
      <g>
       <use style="stroke:#000000;stroke-width:0.8;" x="802.505" xlink:href="#m11c3c8b3d2" y="397.962614"/>
      </g>
     </g>
     <g id="text_11">
      <!-- SNAI1 -->
      <g transform="translate(809.505 401.761832)scale(0.1 -0.1)">
       <use xlink:href="#DejaVuSans-83"/>
       <use x="63.476562" xlink:href="#DejaVuSans-78"/>
       <use x="138.28125" xlink:href="#DejaVuSans-65"/>
       <use x="206.689453" xlink:href="#DejaVuSans-73"/>
       <use x="236.181641" xlink:href="#DejaVuSans-49"/>
      </g>
     </g>
    </g>
    <g id="ytick_12">
     <g id="line2d_12">
      <g>
       <use style="stroke:#000000;stroke-width:0.8;" x="802.505" xlink:href="#m11c3c8b3d2" y="412.082386"/>
      </g>
     </g>
     <g id="text_12">
      <!-- SPRY4 -->
      <g transform="translate(809.505 415.881605)scale(0.1 -0.1)">
       <use xlink:href="#DejaVuSans-83"/>
       <use x="63.476562" xlink:href="#DejaVuSans-80"/>
       <use x="123.779297" xlink:href="#DejaVuSans-82"/>
       <use x="193.167969" xlink:href="#DejaVuSans-89"/>
       <use x="254.251953" xlink:href="#DejaVuSans-52"/>
      </g>
     </g>
    </g>
    <g id="ytick_13">
     <g id="line2d_13">
      <g>
       <use style="stroke:#000000;stroke-width:0.8;" x="802.505" xlink:href="#m11c3c8b3d2" y="426.202159"/>
      </g>
     </g>
     <g id="text_13">
      <!-- ETV5 -->
      <defs>
       <path d="M 28.609375 0 
L 0.78125 72.90625 
L 11.078125 72.90625 
L 34.1875 11.53125 
L 57.328125 72.90625 
L 67.578125 72.90625 
L 39.796875 0 
z
" id="DejaVuSans-86"/>
       <path d="M 10.796875 72.90625 
L 49.515625 72.90625 
L 49.515625 64.59375 
L 19.828125 64.59375 
L 19.828125 46.734375 
Q 21.96875 47.46875 24.109375 47.828125 
Q 26.265625 48.1875 28.421875 48.1875 
Q 40.625 48.1875 47.75 41.5 
Q 54.890625 34.8125 54.890625 23.390625 
Q 54.890625 11.625 47.5625 5.09375 
Q 40.234375 -1.421875 26.90625 -1.421875 
Q 22.3125 -1.421875 17.546875 -0.640625 
Q 12.796875 0.140625 7.71875 1.703125 
L 7.71875 11.625 
Q 12.109375 9.234375 16.796875 8.0625 
Q 21.484375 6.890625 26.703125 6.890625 
Q 35.15625 6.890625 40.078125 11.328125 
Q 45.015625 15.765625 45.015625 23.390625 
Q 45.015625 31 40.078125 35.4375 
Q 35.15625 39.890625 26.703125 39.890625 
Q 22.75 39.890625 18.8125 39.015625 
Q 14.890625 38.140625 10.796875 36.28125 
z
" id="DejaVuSans-53"/>
      </defs>
      <g transform="translate(809.505 430.001378)scale(0.1 -0.1)">
       <use xlink:href="#DejaVuSans-69"/>
       <use x="63.183594" xlink:href="#DejaVuSans-84"/>
       <use x="124.267578" xlink:href="#DejaVuSans-86"/>
       <use x="192.675781" xlink:href="#DejaVuSans-53"/>
      </g>
     </g>
    </g>
    <g id="ytick_14">
     <g id="line2d_14">
      <g>
       <use style="stroke:#000000;stroke-width:0.8;" x="802.505" xlink:href="#m11c3c8b3d2" y="440.321932"/>
      </g>
     </g>
     <g id="text_14">
      <!-- NFKB2 -->
      <defs>
       <path d="M 9.8125 72.90625 
L 19.671875 72.90625 
L 19.671875 42.09375 
L 52.390625 72.90625 
L 65.09375 72.90625 
L 28.90625 38.921875 
L 67.671875 0 
L 54.6875 0 
L 19.671875 35.109375 
L 19.671875 0 
L 9.8125 0 
z
" id="DejaVuSans-75"/>
      </defs>
      <g transform="translate(809.505 444.121151)scale(0.1 -0.1)">
       <use xlink:href="#DejaVuSans-78"/>
       <use x="74.804688" xlink:href="#DejaVuSans-70"/>
       <use x="132.324219" xlink:href="#DejaVuSans-75"/>
       <use x="197.900391" xlink:href="#DejaVuSans-66"/>
       <use x="266.503906" xlink:href="#DejaVuSans-50"/>
      </g>
     </g>
    </g>
    <g id="ytick_15">
     <g id="line2d_15">
      <g>
       <use style="stroke:#000000;stroke-width:0.8;" x="802.505" xlink:href="#m11c3c8b3d2" y="454.441705"/>
      </g>
     </g>
     <g id="text_15">
      <!-- EPHA4 -->
      <g transform="translate(809.505 458.240923)scale(0.1 -0.1)">
       <use xlink:href="#DejaVuSans-69"/>
       <use x="63.183594" xlink:href="#DejaVuSans-80"/>
       <use x="123.486328" xlink:href="#DejaVuSans-72"/>
       <use x="198.681641" xlink:href="#DejaVuSans-65"/>
       <use x="267.089844" xlink:href="#DejaVuSans-52"/>
      </g>
     </g>
    </g>
    <g id="ytick_16">
     <g id="line2d_16">
      <g>
       <use style="stroke:#000000;stroke-width:0.8;" x="802.505" xlink:href="#m11c3c8b3d2" y="468.561477"/>
      </g>
     </g>
     <g id="text_16">
      <!-- NFKB1 -->
      <g transform="translate(809.505 472.360696)scale(0.1 -0.1)">
       <use xlink:href="#DejaVuSans-78"/>
       <use x="74.804688" xlink:href="#DejaVuSans-70"/>
       <use x="132.324219" xlink:href="#DejaVuSans-75"/>
       <use x="197.900391" xlink:href="#DejaVuSans-66"/>
       <use x="266.503906" xlink:href="#DejaVuSans-49"/>
      </g>
     </g>
    </g>
    <g id="ytick_17">
     <g id="line2d_17">
      <g>
       <use style="stroke:#000000;stroke-width:0.8;" x="802.505" xlink:href="#m11c3c8b3d2" y="482.68125"/>
      </g>
     </g>
     <g id="text_17">
      <!-- MLH1 -->
      <defs>
       <path d="M 9.8125 72.90625 
L 24.515625 72.90625 
L 43.109375 23.296875 
L 61.8125 72.90625 
L 76.515625 72.90625 
L 76.515625 0 
L 66.890625 0 
L 66.890625 64.015625 
L 48.09375 14.015625 
L 38.1875 14.015625 
L 19.390625 64.015625 
L 19.390625 0 
L 9.8125 0 
z
" id="DejaVuSans-77"/>
      </defs>
      <g transform="translate(809.505 486.480469)scale(0.1 -0.1)">
       <use xlink:href="#DejaVuSans-77"/>
       <use x="86.279297" xlink:href="#DejaVuSans-76"/>
       <use x="141.992188" xlink:href="#DejaVuSans-72"/>
       <use x="217.1875" xlink:href="#DejaVuSans-49"/>
      </g>
     </g>
    </g>
    <g id="ytick_18">
     <g id="line2d_18">
      <g>
       <use style="stroke:#000000;stroke-width:0.8;" x="802.505" xlink:href="#m11c3c8b3d2" y="496.801023"/>
      </g>
     </g>
     <g id="text_18">
      <!-- ETV4 -->
      <g transform="translate(809.505 500.600241)scale(0.1 -0.1)">
       <use xlink:href="#DejaVuSans-69"/>
       <use x="63.183594" xlink:href="#DejaVuSans-84"/>
       <use x="124.267578" xlink:href="#DejaVuSans-86"/>
       <use x="192.675781" xlink:href="#DejaVuSans-52"/>
      </g>
     </g>
    </g>
    <g id="ytick_19">
     <g id="line2d_19">
      <g>
       <use style="stroke:#000000;stroke-width:0.8;" x="802.505" xlink:href="#m11c3c8b3d2" y="510.920795"/>
      </g>
     </g>
     <g id="text_19">
      <!-- NKD1 -->
      <g transform="translate(809.505 514.720014)scale(0.1 -0.1)">
       <use xlink:href="#DejaVuSans-78"/>
       <use x="74.804688" xlink:href="#DejaVuSans-75"/>
       <use x="140.380859" xlink:href="#DejaVuSans-68"/>
       <use x="217.382812" xlink:href="#DejaVuSans-49"/>
      </g>
     </g>
    </g>
    <g id="ytick_20">
     <g id="line2d_20">
      <g>
       <use style="stroke:#000000;stroke-width:0.8;" x="802.505" xlink:href="#m11c3c8b3d2" y="525.040568"/>
      </g>
     </g>
     <g id="text_20">
      <!-- RNF43 -->
      <defs>
       <path d="M 40.578125 39.3125 
Q 47.65625 37.796875 51.625 33 
Q 55.609375 28.21875 55.609375 21.1875 
Q 55.609375 10.40625 48.1875 4.484375 
Q 40.765625 -1.421875 27.09375 -1.421875 
Q 22.515625 -1.421875 17.65625 -0.515625 
Q 12.796875 0.390625 7.625 2.203125 
L 7.625 11.71875 
Q 11.71875 9.328125 16.59375 8.109375 
Q 21.484375 6.890625 26.8125 6.890625 
Q 36.078125 6.890625 40.9375 10.546875 
Q 45.796875 14.203125 45.796875 21.1875 
Q 45.796875 27.640625 41.28125 31.265625 
Q 36.765625 34.90625 28.71875 34.90625 
L 20.21875 34.90625 
L 20.21875 43.015625 
L 29.109375 43.015625 
Q 36.375 43.015625 40.234375 45.921875 
Q 44.09375 48.828125 44.09375 54.296875 
Q 44.09375 59.90625 40.109375 62.90625 
Q 36.140625 65.921875 28.71875 65.921875 
Q 24.65625 65.921875 20.015625 65.03125 
Q 15.375 64.15625 9.8125 62.3125 
L 9.8125 71.09375 
Q 15.4375 72.65625 20.34375 73.4375 
Q 25.25 74.21875 29.59375 74.21875 
Q 40.828125 74.21875 47.359375 69.109375 
Q 53.90625 64.015625 53.90625 55.328125 
Q 53.90625 49.265625 50.4375 45.09375 
Q 46.96875 40.921875 40.578125 39.3125 
z
" id="DejaVuSans-51"/>
      </defs>
      <g transform="translate(809.505 528.839787)scale(0.1 -0.1)">
       <use xlink:href="#DejaVuSans-82"/>
       <use x="69.482422" xlink:href="#DejaVuSans-78"/>
       <use x="144.287109" xlink:href="#DejaVuSans-70"/>
       <use x="201.806641" xlink:href="#DejaVuSans-52"/>
       <use x="265.429688" xlink:href="#DejaVuSans-51"/>
      </g>
     </g>
    </g>
    <g id="ytick_21">
     <g id="line2d_21">
      <g>
       <use style="stroke:#000000;stroke-width:0.8;" x="802.505" xlink:href="#m11c3c8b3d2" y="539.160341"/>
      </g>
     </g>
     <g id="text_21">
      <!-- AXIN2 -->
      <defs>
       <path d="M 6.296875 72.90625 
L 16.890625 72.90625 
L 35.015625 45.796875 
L 53.21875 72.90625 
L 63.8125 72.90625 
L 40.375 37.890625 
L 65.375 0 
L 54.78125 0 
L 34.28125 31 
L 13.625 0 
L 2.984375 0 
L 29 38.921875 
z
" id="DejaVuSans-88"/>
      </defs>
      <g transform="translate(809.505 542.95956)scale(0.1 -0.1)">
       <use xlink:href="#DejaVuSans-65"/>
       <use x="68.408203" xlink:href="#DejaVuSans-88"/>
       <use x="136.914062" xlink:href="#DejaVuSans-73"/>
       <use x="166.40625" xlink:href="#DejaVuSans-78"/>
       <use x="241.210938" xlink:href="#DejaVuSans-50"/>
      </g>
     </g>
    </g>
    <g id="ytick_22">
     <g id="line2d_22">
      <g>
       <use style="stroke:#000000;stroke-width:0.8;" x="802.505" xlink:href="#m11c3c8b3d2" y="553.280114"/>
      </g>
     </g>
     <g id="text_22">
      <!-- ZNRF3 -->
      <defs>
       <path d="M 5.609375 72.90625 
L 62.890625 72.90625 
L 62.890625 65.375 
L 16.796875 8.296875 
L 64.015625 8.296875 
L 64.015625 0 
L 4.5 0 
L 4.5 7.515625 
L 50.59375 64.59375 
L 5.609375 64.59375 
z
" id="DejaVuSans-90"/>
      </defs>
      <g transform="translate(809.505 557.079332)scale(0.1 -0.1)">
       <use xlink:href="#DejaVuSans-90"/>
       <use x="68.505859" xlink:href="#DejaVuSans-78"/>
       <use x="143.310547" xlink:href="#DejaVuSans-82"/>
       <use x="212.792969" xlink:href="#DejaVuSans-70"/>
       <use x="270.3125" xlink:href="#DejaVuSans-51"/>
      </g>
     </g>
    </g>
   </g>
  </g>
 </g>
 <defs>
  <clipPath id="p1fe484d4c4">
   <rect height="310.635" width="153.733" x="7.2" y="249.705"/>
  </clipPath>
  <clipPath id="pe766a9ae55">
   <rect height="105.3" width="591.87205" x="210.63295" y="7.2"/>
  </clipPath>
  <clipPath id="p6aafb395fb">
   <rect height="310.635" width="23.05995" x="174.253" y="249.705"/>
  </clipPath>
  <clipPath id="pf1afbb45fa">
   <rect height="110.565" width="591.87205" x="210.63295" y="125.82"/>
  </clipPath>
  <clipPath id="pe2dc9c4347">
   <rect height="310.635" width="591.87205" x="210.63295" y="249.705"/>
  </clipPath>
 </defs>
</svg>
