<?xml version="1.0" encoding="utf-8" standalone="no"?>
<!DOCTYPE svg PUBLIC "-//W3C//DTD SVG 1.1//EN"
  "http://www.w3.org/Graphics/SVG/1.1/DTD/svg11.dtd">
<!-- Created with matplotlib (https://matplotlib.org/) -->
<svg height="571.04pt" version="1.1" viewBox="0 0 856.728438 571.04" width="856.728438pt" xmlns="http://www.w3.org/2000/svg" xmlns:xlink="http://www.w3.org/1999/xlink">
 <defs>
  <style type="text/css">
*{stroke-linecap:butt;stroke-linejoin:round;}
  </style>
 </defs>
 <g id="figure_1">
  <g id="patch_1">
   <path d="M 0 571.04 
L 856.728438 571.04 
L 856.728438 0 
L 0 0 
z
" style="fill:#ffffff;"/>
  </g>
  <g id="axes_1">
   <g id="LineCollection_1">
    <path clip-path="url(#p9a51b25d3e)" d="M 160.933 296.30025 
L 114.533272 296.30025 
L 114.533272 327.36375 
L 160.933 327.36375 
" style="fill:none;stroke:#333333;stroke-width:0.5;"/>
    <path clip-path="url(#p9a51b25d3e)" d="M 160.933 358.42725 
L 106.554463 358.42725 
L 106.554463 389.49075 
L 160.933 389.49075 
" style="fill:none;stroke:#333333;stroke-width:0.5;"/>
    <path clip-path="url(#p9a51b25d3e)" d="M 114.533272 311.832 
L 91.280648 311.832 
L 91.280648 373.959 
L 106.554463 373.959 
" style="fill:none;stroke:#333333;stroke-width:0.5;"/>
    <path clip-path="url(#p9a51b25d3e)" d="M 160.933 420.55425 
L 129.040564 420.55425 
L 129.040564 451.61775 
L 160.933 451.61775 
" style="fill:none;stroke:#333333;stroke-width:0.5;"/>
    <path clip-path="url(#p9a51b25d3e)" d="M 160.933 513.74475 
L 123.716156 513.74475 
L 123.716156 544.80825 
L 160.933 544.80825 
" style="fill:none;stroke:#333333;stroke-width:0.5;"/>
    <path clip-path="url(#p9a51b25d3e)" d="M 160.933 482.68125 
L 103.285226 482.68125 
L 103.285226 529.2765 
L 123.716156 529.2765 
" style="fill:none;stroke:#333333;stroke-width:0.5;"/>
    <path clip-path="url(#p9a51b25d3e)" d="M 129.040564 436.086 
L 88.907024 436.086 
L 88.907024 505.978875 
L 103.285226 505.978875 
" style="fill:none;stroke:#333333;stroke-width:0.5;"/>
    <path clip-path="url(#p9a51b25d3e)" d="M 91.280648 342.8955 
L 46.69801 342.8955 
L 46.69801 471.032437 
L 88.907024 471.032437 
" style="fill:none;stroke:#333333;stroke-width:0.5;"/>
    <path clip-path="url(#p9a51b25d3e)" d="M 160.933 265.23675 
L 14.520619 265.23675 
L 14.520619 406.963969 
L 46.69801 406.963969 
" style="fill:none;stroke:#333333;stroke-width:0.5;"/>
   </g>
  </g>
  <g id="axes_2">
   <g id="LineCollection_2">
    <path clip-path="url(#pfe00144aa2)" d="M 654.536988 112.5 
L 654.536988 76.816033 
L 753.182329 76.816033 
L 753.182329 112.5 
" style="fill:none;stroke:#333333;stroke-width:0.5;"/>
    <path clip-path="url(#pfe00144aa2)" d="M 555.891646 112.5 
L 555.891646 58.998166 
L 703.859658 58.998166 
L 703.859658 76.816033 
" style="fill:none;stroke:#333333;stroke-width:0.5;"/>
    <path clip-path="url(#pfe00144aa2)" d="M 457.246304 112.5 
L 457.246304 32.144958 
L 629.875652 32.144958 
L 629.875652 58.998166 
" style="fill:none;stroke:#333333;stroke-width:0.5;"/>
    <path clip-path="url(#pfe00144aa2)" d="M 358.600963 112.5 
L 358.600963 26.935802 
L 543.560978 26.935802 
L 543.560978 32.144958 
" style="fill:none;stroke:#333333;stroke-width:0.5;"/>
    <path clip-path="url(#pfe00144aa2)" d="M 259.955621 112.5 
L 259.955621 12.214286 
L 451.08097 12.214286 
L 451.08097 26.935802 
" style="fill:none;stroke:#333333;stroke-width:0.5;"/>
   </g>
  </g>
  <g id="axes_3">
   <g id="patch_2">
    <path d="M 174.253 560.34 
L 197.31295 560.34 
L 197.31295 249.705 
L 174.253 249.705 
z
" style="fill:#ffffff;"/>
   </g>
   <g id="QuadMesh_1">
    <path clip-path="url(#p69a03892e6)" d="M 174.253 249.705 
L 197.31295 249.705 
L 197.31295 280.7685 
L 174.253 280.7685 
L 174.253 249.705 
"/>
    <path clip-path="url(#p69a03892e6)" d="M 174.253 280.7685 
L 197.31295 280.7685 
L 197.31295 311.832 
L 174.253 311.832 
L 174.253 280.7685 
"/>
    <path clip-path="url(#p69a03892e6)" d="M 174.253 311.832 
L 197.31295 311.832 
L 197.31295 342.8955 
L 174.253 342.8955 
L 174.253 311.832 
"/>
    <path clip-path="url(#p69a03892e6)" d="M 174.253 342.8955 
L 197.31295 342.8955 
L 197.31295 373.959 
L 174.253 373.959 
L 174.253 342.8955 
"/>
    <path clip-path="url(#p69a03892e6)" d="M 174.253 373.959 
L 197.31295 373.959 
L 197.31295 405.0225 
L 174.253 405.0225 
L 174.253 373.959 
"/>
    <path clip-path="url(#p69a03892e6)" d="M 174.253 405.0225 
L 197.31295 405.0225 
L 197.31295 436.086 
L 174.253 436.086 
L 174.253 405.0225 
"/>
    <path clip-path="url(#p69a03892e6)" d="M 174.253 436.086 
L 197.31295 436.086 
L 197.31295 467.1495 
L 174.253 467.1495 
L 174.253 436.086 
"/>
    <path clip-path="url(#p69a03892e6)" d="M 174.253 467.1495 
L 197.31295 467.1495 
L 197.31295 498.213 
L 174.253 498.213 
L 174.253 467.1495 
"/>
    <path clip-path="url(#p69a03892e6)" d="M 174.253 498.213 
L 197.31295 498.213 
L 197.31295 529.2765 
L 174.253 529.2765 
L 174.253 498.213 
"/>
    <path clip-path="url(#p69a03892e6)" d="M 174.253 529.2765 
L 197.31295 529.2765 
L 197.31295 560.34 
L 174.253 560.34 
L 174.253 529.2765 
"/>
   </g>
   <g id="matplotlib.axis_1"/>
   <g id="matplotlib.axis_2"/>
  </g>
  <g id="axes_4">
   <g id="patch_3">
    <path d="M 210.63295 236.385 
L 802.505 236.385 
L 802.505 125.82 
L 210.63295 125.82 
z
" style="fill:#ffffff;"/>
   </g>
   <g id="QuadMesh_2">
    <path clip-path="url(#pe6fb705085)" d="M 210.63295 125.82 
L 309.278292 125.82 
L 309.278292 141.615 
L 210.63295 141.615 
L 210.63295 125.82 
" style="fill:#1c7e40;"/>
    <path clip-path="url(#pe6fb705085)" d="M 309.278292 125.82 
L 407.923633 125.82 
L 407.923633 141.615 
L 309.278292 141.615 
L 309.278292 125.82 
" style="fill:#2e924c;"/>
    <path clip-path="url(#pe6fb705085)" d="M 407.923633 125.82 
L 506.568975 125.82 
L 506.568975 141.615 
L 407.923633 141.615 
L 407.923633 125.82 
" style="fill:#13773d;"/>
    <path clip-path="url(#pe6fb705085)" d="M 506.568975 125.82 
L 605.214317 125.82 
L 605.214317 141.615 
L 506.568975 141.615 
L 506.568975 125.82 
" style="fill:#339951;"/>
    <path clip-path="url(#pe6fb705085)" d="M 605.214317 125.82 
L 703.859658 125.82 
L 703.859658 141.615 
L 605.214317 141.615 
L 605.214317 125.82 
" style="fill:#329850;"/>
    <path clip-path="url(#pe6fb705085)" d="M 703.859658 125.82 
L 802.505 125.82 
L 802.505 141.615 
L 703.859658 141.615 
L 703.859658 125.82 
" style="fill:#238443;"/>
    <path clip-path="url(#pe6fb705085)" d="M 210.63295 141.615 
L 309.278292 141.615 
L 309.278292 157.41 
L 210.63295 157.41 
L 210.63295 141.615 
" style="fill:#f0edf2;"/>
    <path clip-path="url(#pe6fb705085)" d="M 309.278292 141.615 
L 407.923633 141.615 
L 407.923633 157.41 
L 309.278292 157.41 
L 309.278292 141.615 
" style="fill:#f0edf2;"/>
    <path clip-path="url(#pe6fb705085)" d="M 407.923633 141.615 
L 506.568975 141.615 
L 506.568975 157.41 
L 407.923633 157.41 
L 407.923633 141.615 
" style="fill:#f0edf2;"/>
    <path clip-path="url(#pe6fb705085)" d="M 506.568975 141.615 
L 605.214317 141.615 
L 605.214317 157.41 
L 506.568975 157.41 
L 506.568975 141.615 
" style="fill:#f0edf2;"/>
    <path clip-path="url(#pe6fb705085)" d="M 605.214317 141.615 
L 703.859658 141.615 
L 703.859658 157.41 
L 605.214317 157.41 
L 605.214317 141.615 
" style="fill:#f0edf2;"/>
    <path clip-path="url(#pe6fb705085)" d="M 703.859658 141.615 
L 802.505 141.615 
L 802.505 157.41 
L 703.859658 157.41 
L 703.859658 141.615 
" style="fill:#f0edf2;"/>
    <path clip-path="url(#pe6fb705085)" d="M 210.63295 157.41 
L 309.278292 157.41 
L 309.278292 173.205 
L 210.63295 173.205 
L 210.63295 157.41 
" style="fill:#ffa500;"/>
    <path clip-path="url(#pe6fb705085)" d="M 309.278292 157.41 
L 407.923633 157.41 
L 407.923633 173.205 
L 309.278292 173.205 
L 309.278292 157.41 
" style="fill:#ffa500;"/>
    <path clip-path="url(#pe6fb705085)" d="M 407.923633 157.41 
L 506.568975 157.41 
L 506.568975 173.205 
L 407.923633 173.205 
L 407.923633 157.41 
" style="fill:#ffa500;"/>
    <path clip-path="url(#pe6fb705085)" d="M 506.568975 157.41 
L 605.214317 157.41 
L 605.214317 173.205 
L 506.568975 173.205 
L 506.568975 157.41 
" style="fill:#ffa500;"/>
    <path clip-path="url(#pe6fb705085)" d="M 605.214317 157.41 
L 703.859658 157.41 
L 703.859658 173.205 
L 605.214317 173.205 
L 605.214317 157.41 
" style="fill:#ffa500;"/>
    <path clip-path="url(#pe6fb705085)" d="M 703.859658 157.41 
L 802.505 157.41 
L 802.505 173.205 
L 703.859658 173.205 
L 703.859658 157.41 
" style="fill:#ffa500;"/>
    <path clip-path="url(#pe6fb705085)" d="M 210.63295 173.205 
L 309.278292 173.205 
L 309.278292 189 
L 210.63295 189 
L 210.63295 173.205 
" style="fill:#ffd700;"/>
    <path clip-path="url(#pe6fb705085)" d="M 309.278292 173.205 
L 407.923633 173.205 
L 407.923633 189 
L 309.278292 189 
L 309.278292 173.205 
" style="fill:#ffd700;"/>
    <path clip-path="url(#pe6fb705085)" d="M 407.923633 173.205 
L 506.568975 173.205 
L 506.568975 189 
L 407.923633 189 
L 407.923633 173.205 
" style="fill:#ffd700;"/>
    <path clip-path="url(#pe6fb705085)" d="M 506.568975 173.205 
L 605.214317 173.205 
L 605.214317 189 
L 506.568975 189 
L 506.568975 173.205 
" style="fill:#ffd700;"/>
    <path clip-path="url(#pe6fb705085)" d="M 605.214317 173.205 
L 703.859658 173.205 
L 703.859658 189 
L 605.214317 189 
L 605.214317 173.205 
" style="fill:#ffd700;"/>
    <path clip-path="url(#pe6fb705085)" d="M 703.859658 173.205 
L 802.505 173.205 
L 802.505 189 
L 703.859658 189 
L 703.859658 173.205 
" style="fill:#ffd700;"/>
    <path clip-path="url(#pe6fb705085)" d="M 210.63295 189 
L 309.278292 189 
L 309.278292 204.795 
L 210.63295 204.795 
L 210.63295 189 
"/>
    <path clip-path="url(#pe6fb705085)" d="M 309.278292 189 
L 407.923633 189 
L 407.923633 204.795 
L 309.278292 204.795 
L 309.278292 189 
"/>
    <path clip-path="url(#pe6fb705085)" d="M 407.923633 189 
L 506.568975 189 
L 506.568975 204.795 
L 407.923633 204.795 
L 407.923633 189 
"/>
    <path clip-path="url(#pe6fb705085)" d="M 506.568975 189 
L 605.214317 189 
L 605.214317 204.795 
L 506.568975 204.795 
L 506.568975 189 
"/>
    <path clip-path="url(#pe6fb705085)" d="M 605.214317 189 
L 703.859658 189 
L 703.859658 204.795 
L 605.214317 204.795 
L 605.214317 189 
"/>
    <path clip-path="url(#pe6fb705085)" d="M 703.859658 189 
L 802.505 189 
L 802.505 204.795 
L 703.859658 204.795 
L 703.859658 189 
"/>
    <path clip-path="url(#pe6fb705085)" d="M 210.63295 204.795 
L 309.278292 204.795 
L 309.278292 220.59 
L 210.63295 220.59 
L 210.63295 204.795 
" style="fill:#f0edf2;"/>
    <path clip-path="url(#pe6fb705085)" d="M 309.278292 204.795 
L 407.923633 204.795 
L 407.923633 220.59 
L 309.278292 220.59 
L 309.278292 204.795 
" style="fill:#f0edf2;"/>
    <path clip-path="url(#pe6fb705085)" d="M 407.923633 204.795 
L 506.568975 204.795 
L 506.568975 220.59 
L 407.923633 220.59 
L 407.923633 204.795 
" style="fill:#f0edf2;"/>
    <path clip-path="url(#pe6fb705085)" d="M 506.568975 204.795 
L 605.214317 204.795 
L 605.214317 220.59 
L 506.568975 220.59 
L 506.568975 204.795 
" style="fill:#f0edf2;"/>
    <path clip-path="url(#pe6fb705085)" d="M 605.214317 204.795 
L 703.859658 204.795 
L 703.859658 220.59 
L 605.214317 220.59 
L 605.214317 204.795 
" style="fill:#808080;"/>
    <path clip-path="url(#pe6fb705085)" d="M 703.859658 204.795 
L 802.505 204.795 
L 802.505 220.59 
L 703.859658 220.59 
L 703.859658 204.795 
" style="fill:#f0edf2;"/>
    <path clip-path="url(#pe6fb705085)" d="M 210.63295 220.59 
L 309.278292 220.59 
L 309.278292 236.385 
L 210.63295 236.385 
L 210.63295 220.59 
" style="fill:#8b0000;"/>
    <path clip-path="url(#pe6fb705085)" d="M 309.278292 220.59 
L 407.923633 220.59 
L 407.923633 236.385 
L 309.278292 236.385 
L 309.278292 220.59 
" style="fill:#8b0000;"/>
    <path clip-path="url(#pe6fb705085)" d="M 407.923633 220.59 
L 506.568975 220.59 
L 506.568975 236.385 
L 407.923633 236.385 
L 407.923633 220.59 
" style="fill:#8b0000;"/>
    <path clip-path="url(#pe6fb705085)" d="M 506.568975 220.59 
L 605.214317 220.59 
L 605.214317 236.385 
L 506.568975 236.385 
L 506.568975 220.59 
" style="fill:#8b0000;"/>
    <path clip-path="url(#pe6fb705085)" d="M 605.214317 220.59 
L 703.859658 220.59 
L 703.859658 236.385 
L 605.214317 236.385 
L 605.214317 220.59 
" style="fill:#8b0000;"/>
    <path clip-path="url(#pe6fb705085)" d="M 703.859658 220.59 
L 802.505 220.59 
L 802.505 236.385 
L 703.859658 236.385 
L 703.859658 220.59 
" style="fill:#8b0000;"/>
   </g>
   <g id="matplotlib.axis_3"/>
   <g id="matplotlib.axis_4"/>
  </g>
  <g id="axes_5">
   <g id="patch_4">
    <path d="M 210.63295 560.34 
L 802.505 560.34 
L 802.505 249.705 
L 210.63295 249.705 
z
" style="fill:#ffffff;"/>
   </g>
   <g id="QuadMesh_3">
    <path clip-path="url(#p0ce8711a7b)" d="M 210.63295 249.705 
L 309.278292 249.705 
L 309.278292 280.7685 
L 210.63295 280.7685 
L 210.63295 249.705 
" style="fill:#6464ff;"/>
    <path clip-path="url(#p0ce8711a7b)" d="M 309.278292 249.705 
L 407.923633 249.705 
L 407.923633 280.7685 
L 309.278292 280.7685 
L 309.278292 249.705 
" style="fill:#8080ff;"/>
    <path clip-path="url(#p0ce8711a7b)" d="M 407.923633 249.705 
L 506.568975 249.705 
L 506.568975 280.7685 
L 407.923633 280.7685 
L 407.923633 249.705 
" style="fill:#5a5aff;"/>
    <path clip-path="url(#p0ce8711a7b)" d="M 506.568975 249.705 
L 605.214317 249.705 
L 605.214317 280.7685 
L 506.568975 280.7685 
L 506.568975 249.705 
" style="fill:#dedeff;"/>
    <path clip-path="url(#p0ce8711a7b)" d="M 605.214317 249.705 
L 703.859658 249.705 
L 703.859658 280.7685 
L 605.214317 280.7685 
L 605.214317 249.705 
" style="fill:#fff6f6;"/>
    <path clip-path="url(#p0ce8711a7b)" d="M 703.859658 249.705 
L 802.505 249.705 
L 802.505 280.7685 
L 703.859658 280.7685 
L 703.859658 249.705 
" style="fill:#fefeff;"/>
    <path clip-path="url(#p0ce8711a7b)" d="M 210.63295 280.7685 
L 309.278292 280.7685 
L 309.278292 311.832 
L 210.63295 311.832 
L 210.63295 280.7685 
" style="fill:#9a9aff;"/>
    <path clip-path="url(#p0ce8711a7b)" d="M 309.278292 280.7685 
L 407.923633 280.7685 
L 407.923633 311.832 
L 309.278292 311.832 
L 309.278292 280.7685 
" style="fill:#ffe0e0;"/>
    <path clip-path="url(#p0ce8711a7b)" d="M 407.923633 280.7685 
L 506.568975 280.7685 
L 506.568975 311.832 
L 407.923633 311.832 
L 407.923633 280.7685 
" style="fill:#ffd8d8;"/>
    <path clip-path="url(#p0ce8711a7b)" d="M 506.568975 280.7685 
L 605.214317 280.7685 
L 605.214317 311.832 
L 506.568975 311.832 
L 506.568975 280.7685 
" style="fill:#ffc8c8;"/>
    <path clip-path="url(#p0ce8711a7b)" d="M 605.214317 280.7685 
L 703.859658 280.7685 
L 703.859658 311.832 
L 605.214317 311.832 
L 605.214317 280.7685 
" style="fill:#e0e0ff;"/>
    <path clip-path="url(#p0ce8711a7b)" d="M 703.859658 280.7685 
L 802.505 280.7685 
L 802.505 311.832 
L 703.859658 311.832 
L 703.859658 280.7685 
" style="fill:#d2d2ff;"/>
    <path clip-path="url(#p0ce8711a7b)" d="M 210.63295 311.832 
L 309.278292 311.832 
L 309.278292 342.8955 
L 210.63295 342.8955 
L 210.63295 311.832 
" style="fill:#b0b0ff;"/>
    <path clip-path="url(#p0ce8711a7b)" d="M 309.278292 311.832 
L 407.923633 311.832 
L 407.923633 342.8955 
L 309.278292 342.8955 
L 309.278292 311.832 
" style="fill:#ff9a9a;"/>
    <path clip-path="url(#p0ce8711a7b)" d="M 407.923633 311.832 
L 506.568975 311.832 
L 506.568975 342.8955 
L 407.923633 342.8955 
L 407.923633 311.832 
" style="fill:#fff2f2;"/>
    <path clip-path="url(#p0ce8711a7b)" d="M 506.568975 311.832 
L 605.214317 311.832 
L 605.214317 342.8955 
L 506.568975 342.8955 
L 506.568975 311.832 
" style="fill:#f4f4ff;"/>
    <path clip-path="url(#p0ce8711a7b)" d="M 605.214317 311.832 
L 703.859658 311.832 
L 703.859658 342.8955 
L 605.214317 342.8955 
L 605.214317 311.832 
" style="fill:#ffd8d8;"/>
    <path clip-path="url(#p0ce8711a7b)" d="M 703.859658 311.832 
L 802.505 311.832 
L 802.505 342.8955 
L 703.859658 342.8955 
L 703.859658 311.832 
" style="fill:#f8f8ff;"/>
    <path clip-path="url(#p0ce8711a7b)" d="M 210.63295 342.8955 
L 309.278292 342.8955 
L 309.278292 373.959 
L 210.63295 373.959 
L 210.63295 342.8955 
" style="fill:#9a9aff;"/>
    <path clip-path="url(#p0ce8711a7b)" d="M 309.278292 342.8955 
L 407.923633 342.8955 
L 407.923633 373.959 
L 309.278292 373.959 
L 309.278292 342.8955 
" style="fill:#ffe4e4;"/>
    <path clip-path="url(#p0ce8711a7b)" d="M 407.923633 342.8955 
L 506.568975 342.8955 
L 506.568975 373.959 
L 407.923633 373.959 
L 407.923633 342.8955 
" style="fill:#ff9696;"/>
    <path clip-path="url(#p0ce8711a7b)" d="M 506.568975 342.8955 
L 605.214317 342.8955 
L 605.214317 373.959 
L 506.568975 373.959 
L 506.568975 342.8955 
" style="fill:#c6c6ff;"/>
    <path clip-path="url(#p0ce8711a7b)" d="M 605.214317 342.8955 
L 703.859658 342.8955 
L 703.859658 373.959 
L 605.214317 373.959 
L 605.214317 342.8955 
" style="fill:#ffeaea;"/>
    <path clip-path="url(#p0ce8711a7b)" d="M 703.859658 342.8955 
L 802.505 342.8955 
L 802.505 373.959 
L 703.859658 373.959 
L 703.859658 342.8955 
" style="fill:#ffe2e2;"/>
    <path clip-path="url(#p0ce8711a7b)" d="M 210.63295 373.959 
L 309.278292 373.959 
L 309.278292 405.0225 
L 210.63295 405.0225 
L 210.63295 373.959 
" style="fill:#9e9eff;"/>
    <path clip-path="url(#p0ce8711a7b)" d="M 309.278292 373.959 
L 407.923633 373.959 
L 407.923633 405.0225 
L 309.278292 405.0225 
L 309.278292 373.959 
" style="fill:#aaaaff;"/>
    <path clip-path="url(#p0ce8711a7b)" d="M 407.923633 373.959 
L 506.568975 373.959 
L 506.568975 405.0225 
L 407.923633 405.0225 
L 407.923633 373.959 
" style="fill:#ffaaaa;"/>
    <path clip-path="url(#p0ce8711a7b)" d="M 506.568975 373.959 
L 605.214317 373.959 
L 605.214317 405.0225 
L 506.568975 405.0225 
L 506.568975 373.959 
" style="fill:#ffd6d6;"/>
    <path clip-path="url(#p0ce8711a7b)" d="M 605.214317 373.959 
L 703.859658 373.959 
L 703.859658 405.0225 
L 605.214317 405.0225 
L 605.214317 373.959 
" style="fill:#ffdcdc;"/>
    <path clip-path="url(#p0ce8711a7b)" d="M 703.859658 373.959 
L 802.505 373.959 
L 802.505 405.0225 
L 703.859658 405.0225 
L 703.859658 373.959 
" style="fill:#ffdcdc;"/>
    <path clip-path="url(#p0ce8711a7b)" d="M 210.63295 405.0225 
L 309.278292 405.0225 
L 309.278292 436.086 
L 210.63295 436.086 
L 210.63295 405.0225 
" style="fill:#ffaeae;"/>
    <path clip-path="url(#p0ce8711a7b)" d="M 309.278292 405.0225 
L 407.923633 405.0225 
L 407.923633 436.086 
L 309.278292 436.086 
L 309.278292 405.0225 
" style="fill:#ffc8c8;"/>
    <path clip-path="url(#p0ce8711a7b)" d="M 407.923633 405.0225 
L 506.568975 405.0225 
L 506.568975 436.086 
L 407.923633 436.086 
L 407.923633 405.0225 
" style="fill:#f2f2ff;"/>
    <path clip-path="url(#p0ce8711a7b)" d="M 506.568975 405.0225 
L 605.214317 405.0225 
L 605.214317 436.086 
L 506.568975 436.086 
L 506.568975 405.0225 
" style="fill:#ffd8d8;"/>
    <path clip-path="url(#p0ce8711a7b)" d="M 605.214317 405.0225 
L 703.859658 405.0225 
L 703.859658 436.086 
L 605.214317 436.086 
L 605.214317 405.0225 
" style="fill:#ffd6d6;"/>
    <path clip-path="url(#p0ce8711a7b)" d="M 703.859658 405.0225 
L 802.505 405.0225 
L 802.505 436.086 
L 703.859658 436.086 
L 703.859658 405.0225 
" style="fill:#fff2f2;"/>
    <path clip-path="url(#p0ce8711a7b)" d="M 210.63295 436.086 
L 309.278292 436.086 
L 309.278292 467.1495 
L 210.63295 467.1495 
L 210.63295 436.086 
" style="fill:#ffc8c8;"/>
    <path clip-path="url(#p0ce8711a7b)" d="M 309.278292 436.086 
L 407.923633 436.086 
L 407.923633 467.1495 
L 309.278292 467.1495 
L 309.278292 436.086 
" style="fill:#ff9a9a;"/>
    <path clip-path="url(#p0ce8711a7b)" d="M 407.923633 436.086 
L 506.568975 436.086 
L 506.568975 467.1495 
L 407.923633 467.1495 
L 407.923633 436.086 
" style="fill:#ffc8c8;"/>
    <path clip-path="url(#p0ce8711a7b)" d="M 506.568975 436.086 
L 605.214317 436.086 
L 605.214317 467.1495 
L 506.568975 467.1495 
L 506.568975 436.086 
" style="fill:#ffdcdc;"/>
    <path clip-path="url(#p0ce8711a7b)" d="M 605.214317 436.086 
L 703.859658 436.086 
L 703.859658 467.1495 
L 605.214317 467.1495 
L 605.214317 436.086 
" style="fill:#ffc0c0;"/>
    <path clip-path="url(#p0ce8711a7b)" d="M 703.859658 436.086 
L 802.505 436.086 
L 802.505 467.1495 
L 703.859658 467.1495 
L 703.859658 436.086 
" style="fill:#fff2f2;"/>
    <path clip-path="url(#p0ce8711a7b)" d="M 210.63295 467.1495 
L 309.278292 467.1495 
L 309.278292 498.213 
L 210.63295 498.213 
L 210.63295 467.1495 
" style="fill:#ffcece;"/>
    <path clip-path="url(#p0ce8711a7b)" d="M 309.278292 467.1495 
L 407.923633 467.1495 
L 407.923633 498.213 
L 309.278292 498.213 
L 309.278292 467.1495 
" style="fill:#ffe4e4;"/>
    <path clip-path="url(#p0ce8711a7b)" d="M 407.923633 467.1495 
L 506.568975 467.1495 
L 506.568975 498.213 
L 407.923633 498.213 
L 407.923633 467.1495 
" style="fill:#ff9898;"/>
    <path clip-path="url(#p0ce8711a7b)" d="M 506.568975 467.1495 
L 605.214317 467.1495 
L 605.214317 498.213 
L 506.568975 498.213 
L 506.568975 467.1495 
" style="fill:#ffdcdc;"/>
    <path clip-path="url(#p0ce8711a7b)" d="M 605.214317 467.1495 
L 703.859658 467.1495 
L 703.859658 498.213 
L 605.214317 498.213 
L 605.214317 467.1495 
" style="fill:#ffd8d8;"/>
    <path clip-path="url(#p0ce8711a7b)" d="M 703.859658 467.1495 
L 802.505 467.1495 
L 802.505 498.213 
L 703.859658 498.213 
L 703.859658 467.1495 
" style="fill:#ff8686;"/>
    <path clip-path="url(#p0ce8711a7b)" d="M 210.63295 498.213 
L 309.278292 498.213 
L 309.278292 529.2765 
L 210.63295 529.2765 
L 210.63295 498.213 
" style="fill:#ffecec;"/>
    <path clip-path="url(#p0ce8711a7b)" d="M 309.278292 498.213 
L 407.923633 498.213 
L 407.923633 529.2765 
L 309.278292 529.2765 
L 309.278292 498.213 
" style="fill:#fff8f8;"/>
    <path clip-path="url(#p0ce8711a7b)" d="M 407.923633 498.213 
L 506.568975 498.213 
L 506.568975 529.2765 
L 407.923633 529.2765 
L 407.923633 498.213 
" style="fill:#ffe8e8;"/>
    <path clip-path="url(#p0ce8711a7b)" d="M 506.568975 498.213 
L 605.214317 498.213 
L 605.214317 529.2765 
L 506.568975 529.2765 
L 506.568975 498.213 
" style="fill:#e6e6ff;"/>
    <path clip-path="url(#p0ce8711a7b)" d="M 605.214317 498.213 
L 703.859658 498.213 
L 703.859658 529.2765 
L 605.214317 529.2765 
L 605.214317 498.213 
" style="fill:#fafaff;"/>
    <path clip-path="url(#p0ce8711a7b)" d="M 703.859658 498.213 
L 802.505 498.213 
L 802.505 529.2765 
L 703.859658 529.2765 
L 703.859658 498.213 
" style="fill:#ffdada;"/>
    <path clip-path="url(#p0ce8711a7b)" d="M 210.63295 529.2765 
L 309.278292 529.2765 
L 309.278292 560.34 
L 210.63295 560.34 
L 210.63295 529.2765 
" style="fill:#ffd4d4;"/>
    <path clip-path="url(#p0ce8711a7b)" d="M 309.278292 529.2765 
L 407.923633 529.2765 
L 407.923633 560.34 
L 309.278292 560.34 
L 309.278292 529.2765 
" style="fill:#b2b2ff;"/>
    <path clip-path="url(#p0ce8711a7b)" d="M 407.923633 529.2765 
L 506.568975 529.2765 
L 506.568975 560.34 
L 407.923633 560.34 
L 407.923633 529.2765 
" style="fill:#ffb8b8;"/>
    <path clip-path="url(#p0ce8711a7b)" d="M 506.568975 529.2765 
L 605.214317 529.2765 
L 605.214317 560.34 
L 506.568975 560.34 
L 506.568975 529.2765 
" style="fill:#e8e8ff;"/>
    <path clip-path="url(#p0ce8711a7b)" d="M 605.214317 529.2765 
L 703.859658 529.2765 
L 703.859658 560.34 
L 605.214317 560.34 
L 605.214317 529.2765 
" style="fill:#ffe8e8;"/>
    <path clip-path="url(#p0ce8711a7b)" d="M 703.859658 529.2765 
L 802.505 529.2765 
L 802.505 560.34 
L 703.859658 560.34 
L 703.859658 529.2765 
" style="fill:#ffe2e2;"/>
   </g>
   <g id="matplotlib.axis_5"/>
   <g id="matplotlib.axis_6">
    <g id="ytick_1">
     <g id="line2d_1">
      <defs>
       <path d="M 0 0 
L 3.5 0 
" id="m83678ef6e2" style="stroke:#000000;stroke-width:0.8;"/>
      </defs>
      <g>
       <use style="stroke:#000000;stroke-width:0.8;" x="802.505" xlink:href="#m83678ef6e2" y="265.23675"/>
      </g>
     </g>
     <g id="text_1">
      <!-- ETV4 -->
      <defs>
       <path d="M 9.8125 72.90625 
L 55.90625 72.90625 
L 55.90625 64.59375 
L 19.671875 64.59375 
L 19.671875 43.015625 
L 54.390625 43.015625 
L 54.390625 34.71875 
L 19.671875 34.71875 
L 19.671875 8.296875 
L 56.78125 8.296875 
L 56.78125 0 
L 9.8125 0 
z
" id="DejaVuSans-69"/>
       <path d="M -0.296875 72.90625 
L 61.375 72.90625 
L 61.375 64.59375 
L 35.5 64.59375 
L 35.5 0 
L 25.59375 0 
L 25.59375 64.59375 
L -0.296875 64.59375 
z
" id="DejaVuSans-84"/>
       <path d="M 28.609375 0 
L 0.78125 72.90625 
L 11.078125 72.90625 
L 34.1875 11.53125 
L 57.328125 72.90625 
L 67.578125 72.90625 
L 39.796875 0 
z
" id="DejaVuSans-86"/>
       <path d="M 37.796875 64.3125 
L 12.890625 25.390625 
L 37.796875 25.390625 
z
M 35.203125 72.90625 
L 47.609375 72.90625 
L 47.609375 25.390625 
L 58.015625 25.390625 
L 58.015625 17.1875 
L 47.609375 17.1875 
L 47.609375 0 
L 37.796875 0 
L 37.796875 17.1875 
L 4.890625 17.1875 
L 4.890625 26.703125 
z
" id="DejaVuSans-52"/>
      </defs>
      <g transform="translate(809.505 269.035969)scale(0.1 -0.1)">
       <use xlink:href="#DejaVuSans-69"/>
       <use x="63.183594" xlink:href="#DejaVuSans-84"/>
       <use x="124.267578" xlink:href="#DejaVuSans-86"/>
       <use x="192.675781" xlink:href="#DejaVuSans-52"/>
      </g>
     </g>
    </g>
    <g id="ytick_2">
     <g id="line2d_2">
      <g>
       <use style="stroke:#000000;stroke-width:0.8;" x="802.505" xlink:href="#m83678ef6e2" y="296.30025"/>
      </g>
     </g>
     <g id="text_2">
      <!-- PHLDA1 -->
      <defs>
       <path d="M 19.671875 64.796875 
L 19.671875 37.40625 
L 32.078125 37.40625 
Q 38.96875 37.40625 42.71875 40.96875 
Q 46.484375 44.53125 46.484375 51.125 
Q 46.484375 57.671875 42.71875 61.234375 
Q 38.96875 64.796875 32.078125 64.796875 
z
M 9.8125 72.90625 
L 32.078125 72.90625 
Q 44.34375 72.90625 50.609375 67.359375 
Q 56.890625 61.8125 56.890625 51.125 
Q 56.890625 40.328125 50.609375 34.8125 
Q 44.34375 29.296875 32.078125 29.296875 
L 19.671875 29.296875 
L 19.671875 0 
L 9.8125 0 
z
" id="DejaVuSans-80"/>
       <path d="M 9.8125 72.90625 
L 19.671875 72.90625 
L 19.671875 43.015625 
L 55.515625 43.015625 
L 55.515625 72.90625 
L 65.375 72.90625 
L 65.375 0 
L 55.515625 0 
L 55.515625 34.71875 
L 19.671875 34.71875 
L 19.671875 0 
L 9.8125 0 
z
" id="DejaVuSans-72"/>
       <path d="M 9.8125 72.90625 
L 19.671875 72.90625 
L 19.671875 8.296875 
L 55.171875 8.296875 
L 55.171875 0 
L 9.8125 0 
z
" id="DejaVuSans-76"/>
       <path d="M 19.671875 64.796875 
L 19.671875 8.109375 
L 31.59375 8.109375 
Q 46.6875 8.109375 53.6875 14.9375 
Q 60.6875 21.78125 60.6875 36.53125 
Q 60.6875 51.171875 53.6875 57.984375 
Q 46.6875 64.796875 31.59375 64.796875 
z
M 9.8125 72.90625 
L 30.078125 72.90625 
Q 51.265625 72.90625 61.171875 64.09375 
Q 71.09375 55.28125 71.09375 36.53125 
Q 71.09375 17.671875 61.125 8.828125 
Q 51.171875 0 30.078125 0 
L 9.8125 0 
z
" id="DejaVuSans-68"/>
       <path d="M 34.1875 63.1875 
L 20.796875 26.90625 
L 47.609375 26.90625 
z
M 28.609375 72.90625 
L 39.796875 72.90625 
L 67.578125 0 
L 57.328125 0 
L 50.6875 18.703125 
L 17.828125 18.703125 
L 11.1875 0 
L 0.78125 0 
z
" id="DejaVuSans-65"/>
       <path d="M 12.40625 8.296875 
L 28.515625 8.296875 
L 28.515625 63.921875 
L 10.984375 60.40625 
L 10.984375 69.390625 
L 28.421875 72.90625 
L 38.28125 72.90625 
L 38.28125 8.296875 
L 54.390625 8.296875 
L 54.390625 0 
L 12.40625 0 
z
" id="DejaVuSans-49"/>
      </defs>
      <g transform="translate(809.505 300.099469)scale(0.1 -0.1)">
       <use xlink:href="#DejaVuSans-80"/>
       <use x="60.302734" xlink:href="#DejaVuSans-72"/>
       <use x="135.498047" xlink:href="#DejaVuSans-76"/>
       <use x="191.210938" xlink:href="#DejaVuSans-68"/>
       <use x="268.197266" xlink:href="#DejaVuSans-65"/>
       <use x="336.605469" xlink:href="#DejaVuSans-49"/>
      </g>
     </g>
    </g>
    <g id="ytick_3">
     <g id="line2d_3">
      <g>
       <use style="stroke:#000000;stroke-width:0.8;" x="802.505" xlink:href="#m83678ef6e2" y="327.36375"/>
      </g>
     </g>
     <g id="text_3">
      <!-- SPRY4 -->
      <defs>
       <path d="M 53.515625 70.515625 
L 53.515625 60.890625 
Q 47.90625 63.578125 42.921875 64.890625 
Q 37.9375 66.21875 33.296875 66.21875 
Q 25.25 66.21875 20.875 63.09375 
Q 16.5 59.96875 16.5 54.203125 
Q 16.5 49.359375 19.40625 46.890625 
Q 22.3125 44.4375 30.421875 42.921875 
L 36.375 41.703125 
Q 47.40625 39.59375 52.65625 34.296875 
Q 57.90625 29 57.90625 20.125 
Q 57.90625 9.515625 50.796875 4.046875 
Q 43.703125 -1.421875 29.984375 -1.421875 
Q 24.8125 -1.421875 18.96875 -0.25 
Q 13.140625 0.921875 6.890625 3.21875 
L 6.890625 13.375 
Q 12.890625 10.015625 18.65625 8.296875 
Q 24.421875 6.59375 29.984375 6.59375 
Q 38.421875 6.59375 43.015625 9.90625 
Q 47.609375 13.234375 47.609375 19.390625 
Q 47.609375 24.75 44.3125 27.78125 
Q 41.015625 30.8125 33.5 32.328125 
L 27.484375 33.5 
Q 16.453125 35.6875 11.515625 40.375 
Q 6.59375 45.0625 6.59375 53.421875 
Q 6.59375 63.09375 13.40625 68.65625 
Q 20.21875 74.21875 32.171875 74.21875 
Q 37.3125 74.21875 42.625 73.28125 
Q 47.953125 72.359375 53.515625 70.515625 
z
" id="DejaVuSans-83"/>
       <path d="M 44.390625 34.1875 
Q 47.5625 33.109375 50.5625 29.59375 
Q 53.5625 26.078125 56.59375 19.921875 
L 66.609375 0 
L 56 0 
L 46.6875 18.703125 
Q 43.0625 26.03125 39.671875 28.421875 
Q 36.28125 30.8125 30.421875 30.8125 
L 19.671875 30.8125 
L 19.671875 0 
L 9.8125 0 
L 9.8125 72.90625 
L 32.078125 72.90625 
Q 44.578125 72.90625 50.734375 67.671875 
Q 56.890625 62.453125 56.890625 51.90625 
Q 56.890625 45.015625 53.6875 40.46875 
Q 50.484375 35.9375 44.390625 34.1875 
z
M 19.671875 64.796875 
L 19.671875 38.921875 
L 32.078125 38.921875 
Q 39.203125 38.921875 42.84375 42.21875 
Q 46.484375 45.515625 46.484375 51.90625 
Q 46.484375 58.296875 42.84375 61.546875 
Q 39.203125 64.796875 32.078125 64.796875 
z
" id="DejaVuSans-82"/>
       <path d="M -0.203125 72.90625 
L 10.40625 72.90625 
L 30.609375 42.921875 
L 50.6875 72.90625 
L 61.28125 72.90625 
L 35.5 34.71875 
L 35.5 0 
L 25.59375 0 
L 25.59375 34.71875 
z
" id="DejaVuSans-89"/>
      </defs>
      <g transform="translate(809.505 331.162969)scale(0.1 -0.1)">
       <use xlink:href="#DejaVuSans-83"/>
       <use x="63.476562" xlink:href="#DejaVuSans-80"/>
       <use x="123.779297" xlink:href="#DejaVuSans-82"/>
       <use x="193.167969" xlink:href="#DejaVuSans-89"/>
       <use x="254.251953" xlink:href="#DejaVuSans-52"/>
      </g>
     </g>
    </g>
    <g id="ytick_4">
     <g id="line2d_4">
      <g>
       <use style="stroke:#000000;stroke-width:0.8;" x="802.505" xlink:href="#m83678ef6e2" y="358.42725"/>
      </g>
     </g>
     <g id="text_4">
      <!-- DUSP6 -->
      <defs>
       <path d="M 8.6875 72.90625 
L 18.609375 72.90625 
L 18.609375 28.609375 
Q 18.609375 16.890625 22.84375 11.734375 
Q 27.09375 6.59375 36.625 6.59375 
Q 46.09375 6.59375 50.34375 11.734375 
Q 54.59375 16.890625 54.59375 28.609375 
L 54.59375 72.90625 
L 64.5 72.90625 
L 64.5 27.390625 
Q 64.5 13.140625 57.4375 5.859375 
Q 50.390625 -1.421875 36.625 -1.421875 
Q 22.796875 -1.421875 15.734375 5.859375 
Q 8.6875 13.140625 8.6875 27.390625 
z
" id="DejaVuSans-85"/>
       <path d="M 33.015625 40.375 
Q 26.375 40.375 22.484375 35.828125 
Q 18.609375 31.296875 18.609375 23.390625 
Q 18.609375 15.53125 22.484375 10.953125 
Q 26.375 6.390625 33.015625 6.390625 
Q 39.65625 6.390625 43.53125 10.953125 
Q 47.40625 15.53125 47.40625 23.390625 
Q 47.40625 31.296875 43.53125 35.828125 
Q 39.65625 40.375 33.015625 40.375 
z
M 52.59375 71.296875 
L 52.59375 62.3125 
Q 48.875 64.0625 45.09375 64.984375 
Q 41.3125 65.921875 37.59375 65.921875 
Q 27.828125 65.921875 22.671875 59.328125 
Q 17.53125 52.734375 16.796875 39.40625 
Q 19.671875 43.65625 24.015625 45.921875 
Q 28.375 48.1875 33.59375 48.1875 
Q 44.578125 48.1875 50.953125 41.515625 
Q 57.328125 34.859375 57.328125 23.390625 
Q 57.328125 12.15625 50.6875 5.359375 
Q 44.046875 -1.421875 33.015625 -1.421875 
Q 20.359375 -1.421875 13.671875 8.265625 
Q 6.984375 17.96875 6.984375 36.375 
Q 6.984375 53.65625 15.1875 63.9375 
Q 23.390625 74.21875 37.203125 74.21875 
Q 40.921875 74.21875 44.703125 73.484375 
Q 48.484375 72.75 52.59375 71.296875 
z
" id="DejaVuSans-54"/>
      </defs>
      <g transform="translate(809.505 362.226469)scale(0.1 -0.1)">
       <use xlink:href="#DejaVuSans-68"/>
       <use x="77.001953" xlink:href="#DejaVuSans-85"/>
       <use x="150.195312" xlink:href="#DejaVuSans-83"/>
       <use x="213.671875" xlink:href="#DejaVuSans-80"/>
       <use x="273.974609" xlink:href="#DejaVuSans-54"/>
      </g>
     </g>
    </g>
    <g id="ytick_5">
     <g id="line2d_5">
      <g>
       <use style="stroke:#000000;stroke-width:0.8;" x="802.505" xlink:href="#m83678ef6e2" y="389.49075"/>
      </g>
     </g>
     <g id="text_5">
      <!-- EPHA2 -->
      <defs>
       <path d="M 19.1875 8.296875 
L 53.609375 8.296875 
L 53.609375 0 
L 7.328125 0 
L 7.328125 8.296875 
Q 12.9375 14.109375 22.625 23.890625 
Q 32.328125 33.6875 34.8125 36.53125 
Q 39.546875 41.84375 41.421875 45.53125 
Q 43.3125 49.21875 43.3125 52.78125 
Q 43.3125 58.59375 39.234375 62.25 
Q 35.15625 65.921875 28.609375 65.921875 
Q 23.96875 65.921875 18.8125 64.3125 
Q 13.671875 62.703125 7.8125 59.421875 
L 7.8125 69.390625 
Q 13.765625 71.78125 18.9375 73 
Q 24.125 74.21875 28.421875 74.21875 
Q 39.75 74.21875 46.484375 68.546875 
Q 53.21875 62.890625 53.21875 53.421875 
Q 53.21875 48.921875 51.53125 44.890625 
Q 49.859375 40.875 45.40625 35.40625 
Q 44.1875 33.984375 37.640625 27.21875 
Q 31.109375 20.453125 19.1875 8.296875 
z
" id="DejaVuSans-50"/>
      </defs>
      <g transform="translate(809.505 393.289969)scale(0.1 -0.1)">
       <use xlink:href="#DejaVuSans-69"/>
       <use x="63.183594" xlink:href="#DejaVuSans-80"/>
       <use x="123.486328" xlink:href="#DejaVuSans-72"/>
       <use x="198.681641" xlink:href="#DejaVuSans-65"/>
       <use x="267.089844" xlink:href="#DejaVuSans-50"/>
      </g>
     </g>
    </g>
    <g id="ytick_6">
     <g id="line2d_6">
      <g>
       <use style="stroke:#000000;stroke-width:0.8;" x="802.505" xlink:href="#m83678ef6e2" y="420.55425"/>
      </g>
     </g>
     <g id="text_6">
      <!-- EPHA4 -->
      <g transform="translate(809.505 424.353469)scale(0.1 -0.1)">
       <use xlink:href="#DejaVuSans-69"/>
       <use x="63.183594" xlink:href="#DejaVuSans-80"/>
       <use x="123.486328" xlink:href="#DejaVuSans-72"/>
       <use x="198.681641" xlink:href="#DejaVuSans-65"/>
       <use x="267.089844" xlink:href="#DejaVuSans-52"/>
      </g>
     </g>
    </g>
    <g id="ytick_7">
     <g id="line2d_7">
      <g>
       <use style="stroke:#000000;stroke-width:0.8;" x="802.505" xlink:href="#m83678ef6e2" y="451.61775"/>
      </g>
     </g>
     <g id="text_7">
      <!-- ETV5 -->
      <defs>
       <path d="M 10.796875 72.90625 
L 49.515625 72.90625 
L 49.515625 64.59375 
L 19.828125 64.59375 
L 19.828125 46.734375 
Q 21.96875 47.46875 24.109375 47.828125 
Q 26.265625 48.1875 28.421875 48.1875 
Q 40.625 48.1875 47.75 41.5 
Q 54.890625 34.8125 54.890625 23.390625 
Q 54.890625 11.625 47.5625 5.09375 
Q 40.234375 -1.421875 26.90625 -1.421875 
Q 22.3125 -1.421875 17.546875 -0.640625 
Q 12.796875 0.140625 7.71875 1.703125 
L 7.71875 11.625 
Q 12.109375 9.234375 16.796875 8.0625 
Q 21.484375 6.890625 26.703125 6.890625 
Q 35.15625 6.890625 40.078125 11.328125 
Q 45.015625 15.765625 45.015625 23.390625 
Q 45.015625 31 40.078125 35.4375 
Q 35.15625 39.890625 26.703125 39.890625 
Q 22.75 39.890625 18.8125 39.015625 
Q 14.890625 38.140625 10.796875 36.28125 
z
" id="DejaVuSans-53"/>
      </defs>
      <g transform="translate(809.505 455.416969)scale(0.1 -0.1)">
       <use xlink:href="#DejaVuSans-69"/>
       <use x="63.183594" xlink:href="#DejaVuSans-84"/>
       <use x="124.267578" xlink:href="#DejaVuSans-86"/>
       <use x="192.675781" xlink:href="#DejaVuSans-53"/>
      </g>
     </g>
    </g>
    <g id="ytick_8">
     <g id="line2d_8">
      <g>
       <use style="stroke:#000000;stroke-width:0.8;" x="802.505" xlink:href="#m83678ef6e2" y="482.68125"/>
      </g>
     </g>
     <g id="text_8">
      <!-- DUSP4 -->
      <g transform="translate(809.505 486.480469)scale(0.1 -0.1)">
       <use xlink:href="#DejaVuSans-68"/>
       <use x="77.001953" xlink:href="#DejaVuSans-85"/>
       <use x="150.195312" xlink:href="#DejaVuSans-83"/>
       <use x="213.671875" xlink:href="#DejaVuSans-80"/>
       <use x="273.974609" xlink:href="#DejaVuSans-52"/>
      </g>
     </g>
    </g>
    <g id="ytick_9">
     <g id="line2d_9">
      <g>
       <use style="stroke:#000000;stroke-width:0.8;" x="802.505" xlink:href="#m83678ef6e2" y="513.74475"/>
      </g>
     </g>
     <g id="text_9">
      <!-- CCND1 -->
      <defs>
       <path d="M 64.40625 67.28125 
L 64.40625 56.890625 
Q 59.421875 61.53125 53.78125 63.8125 
Q 48.140625 66.109375 41.796875 66.109375 
Q 29.296875 66.109375 22.65625 58.46875 
Q 16.015625 50.828125 16.015625 36.375 
Q 16.015625 21.96875 22.65625 14.328125 
Q 29.296875 6.6875 41.796875 6.6875 
Q 48.140625 6.6875 53.78125 8.984375 
Q 59.421875 11.28125 64.40625 15.921875 
L 64.40625 5.609375 
Q 59.234375 2.09375 53.4375 0.328125 
Q 47.65625 -1.421875 41.21875 -1.421875 
Q 24.65625 -1.421875 15.125 8.703125 
Q 5.609375 18.84375 5.609375 36.375 
Q 5.609375 53.953125 15.125 64.078125 
Q 24.65625 74.21875 41.21875 74.21875 
Q 47.75 74.21875 53.53125 72.484375 
Q 59.328125 70.75 64.40625 67.28125 
z
" id="DejaVuSans-67"/>
       <path d="M 9.8125 72.90625 
L 23.09375 72.90625 
L 55.421875 11.921875 
L 55.421875 72.90625 
L 64.984375 72.90625 
L 64.984375 0 
L 51.703125 0 
L 19.390625 60.984375 
L 19.390625 0 
L 9.8125 0 
z
" id="DejaVuSans-78"/>
      </defs>
      <g transform="translate(809.505 517.543969)scale(0.1 -0.1)">
       <use xlink:href="#DejaVuSans-67"/>
       <use x="69.824219" xlink:href="#DejaVuSans-67"/>
       <use x="139.648438" xlink:href="#DejaVuSans-78"/>
       <use x="214.453125" xlink:href="#DejaVuSans-68"/>
       <use x="291.455078" xlink:href="#DejaVuSans-49"/>
      </g>
     </g>
    </g>
    <g id="ytick_10">
     <g id="line2d_10">
      <g>
       <use style="stroke:#000000;stroke-width:0.8;" x="802.505" xlink:href="#m83678ef6e2" y="544.80825"/>
      </g>
     </g>
     <g id="text_10">
      <!-- SPRY2 -->
      <g transform="translate(809.505 548.607469)scale(0.1 -0.1)">
       <use xlink:href="#DejaVuSans-83"/>
       <use x="63.476562" xlink:href="#DejaVuSans-80"/>
       <use x="123.779297" xlink:href="#DejaVuSans-82"/>
       <use x="193.167969" xlink:href="#DejaVuSans-89"/>
       <use x="254.251953" xlink:href="#DejaVuSans-50"/>
      </g>
     </g>
    </g>
   </g>
  </g>
 </g>
 <defs>
  <clipPath id="p9a51b25d3e">
   <rect height="310.635" width="153.733" x="7.2" y="249.705"/>
  </clipPath>
  <clipPath id="pfe00144aa2">
   <rect height="105.3" width="591.87205" x="210.63295" y="7.2"/>
  </clipPath>
  <clipPath id="p69a03892e6">
   <rect height="310.635" width="23.05995" x="174.253" y="249.705"/>
  </clipPath>
  <clipPath id="pe6fb705085">
   <rect height="110.565" width="591.87205" x="210.63295" y="125.82"/>
  </clipPath>
  <clipPath id="p0ce8711a7b">
   <rect height="310.635" width="591.87205" x="210.63295" y="249.705"/>
  </clipPath>
 </defs>
</svg>
