<?xml version='1.0'?>
<svg xmlns="http://www.w3.org/2000/svg" xmlns:xlink="http://www.w3.org/1999/xlink" width="1000.000000" height="111.000000">
<defs>
  <filter id="ds" x="0" y="0">
    <feOffset in="SourceAlpha" dx="2" dy="2" />
    <feComponentTransfer><feFuncA type="linear" slope="0.2"/></feComponentTransfer>
    <feGaussianBlur result="blurOut" stdDeviation="1" />
    <feBlend in="SourceGraphic" in2="blurOut" mode="normal" />
  </filter>
  <pattern id="disordered-hatch" patternUnits="userSpaceOnUse" width="4" height="4">
    <path d="M-1,1 l2,-2 M0,4 l4,-4 M3,5 l2,-2" stroke="#000000" opacity="0.3" />
  </pattern>
</defs>
<line x1="196.520468" x2="196.520468" y1="19.000000" y2="47.000000" stroke="#BABDB6" stroke-width="2"/><a xlink:title="D96fs"><circle cx="196.520468" cy="19.000000" r="7.628983" fill="#228b22" /></a><line x1="841.296296" x2="841.296296" y1="19.000000" y2="47.000000" stroke="#BABDB6" stroke-width="2"/><a xlink:title="K437fs"><circle cx="841.296296" cy="19.000000" r="10.624086" fill="#0000ff" /></a><line x1="863.986355" x2="863.986355" y1="19.000000" y2="47.000000" stroke="#BABDB6" stroke-width="2"/><a xlink:title="A449fs"><circle cx="863.986355" cy="19.000000" r="4.000000" fill="#228b22" /></a><a xlink:title="AVR2A_HUMAN, Activin receptor type-2A EC=2.7.11.30 (513aa)"><rect fill="#BABDB6" x="15.000000" y="47.000000" width="970.000000" height="14.000000"/></a><g transform="translate(58.489279,42.000000)"><a xlink:href="https://pfam.xfam.org/family/PF01064" xlink:title="Activin types I and II receptor domain"><rect fill="#2dcf00" x="0" y="0" width="172.066277" height="24.000000" filter="url(#ds)"/></a></g>
<g transform="translate(385.604288,42.000000)"><a xlink:href="https://pfam.xfam.org/family/PF00069" xlink:title="Protein kinase domain"><rect fill="#ff5353" x="0" y="0" width="538.888889" height="24.000000" filter="url(#ds)"/></a></g>
<g class="axis">
<line x1="15.000000" x2="985.000000" y1="76.000000" y2="76.000000" stroke="#AAAAAA" /><line x1="15.000000" x2="15.000000" y1="76.000000" y2="81.000000" stroke="#AAAAAA" /><line x1="15.000000" x2="15.000000" y1="76.000000" y2="81.000000" stroke="#AAAAAA" /><text style="font-size:10px;font-family:Arial;fill:#000000;" text-anchor="middle" x="15.000000" y="91.000000">0</text><line x1="58.489279" x2="58.489279" y1="76.000000" y2="81.000000" stroke="#AAAAAA" /><text style="font-size:10px;font-family:Arial;fill:#000000;" text-anchor="middle" x="58.489279" y="91.000000">23</text><line x1="196.520468" x2="196.520468" y1="76.000000" y2="81.000000" stroke="#AAAAAA" /><text style="font-size:10px;font-family:Arial;fill:#000000;" text-anchor="middle" x="196.520468" y="91.000000">96</text><line x1="230.555556" x2="230.555556" y1="76.000000" y2="81.000000" stroke="#AAAAAA" /><text style="font-size:10px;font-family:Arial;fill:#000000;" text-anchor="middle" x="230.555556" y="91.000000">114</text><line x1="385.604288" x2="385.604288" y1="76.000000" y2="81.000000" stroke="#AAAAAA" /><text style="font-size:10px;font-family:Arial;fill:#000000;" text-anchor="middle" x="385.604288" y="91.000000">196</text><line x1="841.296296" x2="841.296296" y1="76.000000" y2="81.000000" stroke="#AAAAAA" /><text style="font-size:10px;font-family:Arial;fill:#000000;" text-anchor="middle" x="841.296296" y="91.000000">437</text><line x1="863.986355" x2="863.986355" y1="76.000000" y2="81.000000" stroke="#AAAAAA" /><text style="font-size:10px;font-family:Arial;fill:#000000;" text-anchor="middle" x="863.986355" y="91.000000">449</text><line x1="924.493177" x2="924.493177" y1="76.000000" y2="81.000000" stroke="#AAAAAA" /><text style="font-size:10px;font-family:Arial;fill:#000000;" text-anchor="middle" x="924.493177" y="91.000000">481</text><line x1="985.000000" x2="985.000000" y1="76.000000" y2="81.000000" stroke="#AAAAAA" /><text style="font-size:10px;font-family:Arial;fill:#000000;" text-anchor="middle" x="985.000000" y="91.000000">513</text></g>
</svg>
