<?xml version='1.0'?>
<svg xmlns="http://www.w3.org/2000/svg" xmlns:xlink="http://www.w3.org/1999/xlink" width="1000.000000" height="111.000000">
<defs>
  <filter id="ds" x="0" y="0">
    <feOffset in="SourceAlpha" dx="2" dy="2" />
    <feComponentTransfer><feFuncA type="linear" slope="0.2"/></feComponentTransfer>
    <feGaussianBlur result="blurOut" stdDeviation="1" />
    <feBlend in="SourceGraphic" in2="blurOut" mode="normal" />
  </filter>
  <pattern id="disordered-hatch" patternUnits="userSpaceOnUse" width="4" height="4">
    <path d="M-1,1 l2,-2 M0,4 l4,-4 M3,5 l2,-2" stroke="#000000" opacity="0.3" />
  </pattern>
</defs>
<line x1="942.291300" x2="942.291300" y1="19.000000" y2="47.000000" stroke="#BABDB6" stroke-width="2"/><a xlink:title="F2714fs"><circle cx="942.291300" cy="19.000000" r="6.194056" fill="#0000ff" /></a><a xlink:title="NF1_HUMAN, Neurofibromin (2839aa)"><rect fill="#BABDB6" x="15.000000" y="47.000000" width="970.000000" height="14.000000"/></a><g transform="translate(467.370553,42.000000)"><a xlink:href="https://pfam.xfam.org/family/PF00616" xlink:title="GTPase-activator protein for Ras-like GTPase"><rect fill="#2dcf00" x="0" y="0" width="43.392039" height="24.000000" filter="url(#ds)"/></a></g>
<g transform="translate(562.354702,42.000000)"><a xlink:href="https://pfam.xfam.org/family/PF13716" xlink:title="Divergent CRAL/TRIO domain"><rect fill="#ff5353" x="0" y="0" width="45.783727" height="24.000000" filter="url(#ds)"/></a></g>
<g class="axis">
<line x1="15.000000" x2="985.000000" y1="76.000000" y2="76.000000" stroke="#AAAAAA" /><line x1="15.000000" x2="15.000000" y1="76.000000" y2="81.000000" stroke="#AAAAAA" /><line x1="15.000000" x2="15.000000" y1="76.000000" y2="81.000000" stroke="#AAAAAA" /><text style="font-size:10px;font-family:Arial;fill:#000000;" text-anchor="middle" x="15.000000" y="91.000000">0</text><line x1="467.370553" x2="467.370553" y1="76.000000" y2="81.000000" stroke="#AAAAAA" /><text style="font-size:10px;font-family:Arial;fill:#000000;" text-anchor="middle" x="467.370553" y="91.000000">1324</text><line x1="510.762592" x2="510.762592" y1="76.000000" y2="81.000000" stroke="#AAAAAA" /><text style="font-size:10px;font-family:Arial;fill:#000000;" text-anchor="middle" x="510.762592" y="91.000000">1451</text><line x1="562.354702" x2="562.354702" y1="76.000000" y2="81.000000" stroke="#AAAAAA" /><text style="font-size:10px;font-family:Arial;fill:#000000;" text-anchor="middle" x="562.354702" y="91.000000">1602</text><line x1="608.138429" x2="608.138429" y1="76.000000" y2="81.000000" stroke="#AAAAAA" /><text style="font-size:10px;font-family:Arial;fill:#000000;" text-anchor="middle" x="608.138429" y="91.000000">1736</text><line x1="942.291300" x2="942.291300" y1="76.000000" y2="81.000000" stroke="#AAAAAA" /><text style="font-size:10px;font-family:Arial;fill:#000000;" text-anchor="middle" x="942.291300" y="91.000000">2714</text><line x1="985.000000" x2="985.000000" y1="76.000000" y2="81.000000" stroke="#AAAAAA" /><text style="font-size:10px;font-family:Arial;fill:#000000;" text-anchor="middle" x="985.000000" y="91.000000">2839</text></g>
</svg>
