<?xml version='1.0'?>
<svg xmlns="http://www.w3.org/2000/svg" xmlns:xlink="http://www.w3.org/1999/xlink" width="1000.000000" height="123.500000">
<defs>
  <filter id="ds" x="0" y="0">
    <feOffset in="SourceAlpha" dx="2" dy="2" />
    <feComponentTransfer><feFuncA type="linear" slope="0.2"/></feComponentTransfer>
    <feGaussianBlur result="blurOut" stdDeviation="1" />
    <feBlend in="SourceGraphic" in2="blurOut" mode="normal" />
  </filter>
  <pattern id="disordered-hatch" patternUnits="userSpaceOnUse" width="4" height="4">
    <path d="M-1,1 l2,-2 M0,4 l4,-4 M3,5 l2,-2" stroke="#000000" opacity="0.3" />
  </pattern>
</defs>
<line x1="902.517007" x2="902.517007" y1="19.000000" y2="59.500000" stroke="#BABDB6" stroke-width="2"/><a xlink:title="I269fs"><circle cx="902.517007" cy="19.000000" r="4.000000" fill="#228b22" /></a><line x1="905.816327" x2="905.816327" y1="31.500000" y2="59.500000" stroke="#BABDB6" stroke-width="2"/><a xlink:title="N270fs"><circle cx="905.816327" cy="31.500000" r="4.000000" fill="#228b22" /></a><line x1="965.204082" x2="965.204082" y1="31.500000" y2="59.500000" stroke="#BABDB6" stroke-width="2"/><a xlink:title="W288fs"><circle cx="965.204082" cy="31.500000" r="11.272122" fill="#0000ff" /></a><a xlink:title="NPM_HUMAN, Nucleophosmin (294aa)"><rect fill="#BABDB6" x="15.000000" y="59.500000" width="970.000000" height="14.000000"/></a><g transform="translate(74.387755,54.500000)"><a xlink:href="https://pfam.xfam.org/family/PF03066" xlink:title="Nucleoplasmin/nucleophosmin domain"><rect fill="#2dcf00" x="0" y="0" width="326.632653" height="24.000000" filter="url(#ds)"/></a></g>
<g transform="translate(823.333333,54.500000)"><a xlink:href="https://pfam.xfam.org/family/PF16276" xlink:title="Nucleophosmin C-terminal domain"><rect fill="#ff5353" x="0" y="0" width="158.367347" height="24.000000" filter="url(#ds)"/></a></g>
<g class="axis">
<line x1="15.000000" x2="985.000000" y1="88.500000" y2="88.500000" stroke="#AAAAAA" /><line x1="15.000000" x2="15.000000" y1="88.500000" y2="93.500000" stroke="#AAAAAA" /><line x1="15.000000" x2="15.000000" y1="88.500000" y2="93.500000" stroke="#AAAAAA" /><text style="font-size:10px;font-family:Arial;fill:#000000;" text-anchor="middle" x="15.000000" y="103.500000">0</text><line x1="74.387755" x2="74.387755" y1="88.500000" y2="93.500000" stroke="#AAAAAA" /><text style="font-size:10px;font-family:Arial;fill:#000000;" text-anchor="middle" x="74.387755" y="103.500000">18</text><line x1="401.020408" x2="401.020408" y1="88.500000" y2="93.500000" stroke="#AAAAAA" /><text style="font-size:10px;font-family:Arial;fill:#000000;" text-anchor="middle" x="401.020408" y="103.500000">117</text><line x1="823.333333" x2="823.333333" y1="88.500000" y2="93.500000" stroke="#AAAAAA" /><text style="font-size:10px;font-family:Arial;fill:#000000;" text-anchor="middle" x="823.333333" y="103.500000">245</text><line x1="902.517007" x2="902.517007" y1="88.500000" y2="93.500000" stroke="#AAAAAA" /><text style="font-size:10px;font-family:Arial;fill:#000000;" text-anchor="middle" x="902.517007" y="103.500000">269</text><line x1="985.000000" x2="985.000000" y1="88.500000" y2="93.500000" stroke="#AAAAAA" /><text style="font-size:10px;font-family:Arial;fill:#000000;" text-anchor="middle" x="985.000000" y="103.500000">294</text></g>
</svg>
